M48
;GenerationSoftware,Autodesk,EAGLE,9.2.2*%
;CreationDate,2018-12-12T07:23:10Z*%
FMAT,2
ICI,OFF
METRIC,TZ,000.000
T8C0.305
T7C0.350
T6C0.800
T5C0.889
T4C1.000
T3C1.016
T2C1.500
T1C2.300
%
G90
M71
T1
X43468Y46616
X56608Y46616
T2
X12653Y20748
X12653Y10548
X12653Y13248
X12653Y18048
X7653Y15648
X7653Y20648
X7653Y10648
X12653Y15648
T3
X25781Y33909
X23241Y33909
X20701Y33909
X18161Y33909
X15621Y33909
X13081Y33909
X10541Y33909
X8001Y33909
X28067Y52070
X25527Y52070
X20447Y52070
X17907Y52070
X15367Y52070
X12827Y52070
X22987Y52070
X10287Y52070
X7747Y52070
X5207Y52070
T4
X53538Y43906
X51038Y43906
X49038Y43906
X46538Y43906
T5
X70247Y48828
X70247Y46288
X67707Y43748
X70247Y43748
X67707Y41208
X70247Y41208
X67707Y38668
X70247Y38668
X67707Y36128
X70247Y36128
X67707Y33588
X70247Y33588
X67707Y31048
X70247Y31048
X67707Y28508
X70247Y28508
X67707Y25968
X70247Y25968
X67707Y23428
X70247Y23428
X67707Y20888
X70247Y20888
X67707Y18348
X70247Y18348
X67707Y15808
X70247Y15808
X67707Y13268
X70247Y13268
X67707Y10728
X70247Y10728
X67707Y8188
X70247Y8188
X93107Y51368
X95647Y51368
X93107Y48828
X95647Y48828
X93107Y46288
X95647Y46288
X93107Y43748
X95647Y43748
X93107Y41208
X95647Y41208
X93107Y38668
X95647Y38668
X93107Y36128
X95647Y36128
X93107Y33588
X95647Y33588
X93107Y31048
X95647Y31048
X93107Y28508
X95647Y28508
X93107Y25968
X95647Y25968
X93107Y23428
X95647Y23428
X93107Y20888
X95647Y20888
X93107Y18348
X95647Y18348
X93107Y15808
X95647Y15808
X93107Y13268
X95647Y13268
X93107Y10728
X95647Y10728
X95647Y8188
X67707Y46288
X67707Y51368
X70247Y51368
X67707Y48828
X93107Y8188
T6
X54213Y4445
X52213Y4445
T7
X49149Y19812
X38481Y20320
X24638Y14224
X47244Y15240
X22225Y12700
X24638Y12954
X42799Y18796
X22225Y19177
T8
X34925Y5334
X33655Y11303
X29972Y18161
X34290Y7620
X32512Y7620
X41402Y21844
X34290Y21844
X32258Y21844
X30099Y21844
X26416Y21717
X35560Y15621
X34417Y14097
X33274Y15621
X26416Y17145
X35941Y7620
X20701Y39243
X10541Y39243
M30