G75*
%MOIN*%
%OFA0B0*%
%FSLAX25Y25*%
%IPPOS*%
%LPD*%
%AMOC8*
5,1,8,0,0,1.08239X$1,22.5*
%
%ADD10R,0.06000X0.06000*%
%ADD11OC8,0.06000*%
%ADD12C,0.05600*%
%ADD13C,0.10000*%
%ADD14C,0.08268*%
%ADD15R,0.02400X0.02000*%
%ADD16R,0.02000X0.02400*%
%ADD17R,0.03543X0.02756*%
%ADD18R,0.03900X0.01200*%
%ADD19R,0.00800X0.01600*%
%ADD20OC8,0.07000*%
%ADD21C,0.05512*%
%ADD22C,0.12677*%
%ADD23C,0.04000*%
%ADD24C,0.02578*%
%ADD25C,0.01000*%
%ADD26C,0.02400*%
%ADD27C,0.00800*%
%ADD28C,0.01600*%
%ADD29C,0.01200*%
%ADD30C,0.02000*%
%ADD31C,0.00500*%
D10*
X0277863Y0213536D03*
X0377863Y0213536D03*
D11*
X0387863Y0213536D03*
X0387863Y0203536D03*
X0377863Y0203536D03*
X0377863Y0193536D03*
X0387863Y0193536D03*
X0387863Y0183536D03*
X0377863Y0183536D03*
X0377863Y0173536D03*
X0387863Y0173536D03*
X0387863Y0163536D03*
X0377863Y0163536D03*
X0377863Y0153536D03*
X0387863Y0153536D03*
X0387863Y0143536D03*
X0377863Y0143536D03*
X0377863Y0133536D03*
X0387863Y0133536D03*
X0387863Y0123536D03*
X0377863Y0123536D03*
X0377863Y0113536D03*
X0387863Y0113536D03*
X0387863Y0103536D03*
X0377863Y0103536D03*
X0377863Y0093536D03*
X0387863Y0093536D03*
X0387863Y0083536D03*
X0377863Y0083536D03*
X0377863Y0073536D03*
X0387863Y0073536D03*
X0387863Y0063536D03*
X0377863Y0063536D03*
X0377863Y0053536D03*
X0387863Y0053536D03*
X0387863Y0043536D03*
X0377863Y0043536D03*
X0287863Y0043536D03*
X0277863Y0043536D03*
X0277863Y0053536D03*
X0287863Y0053536D03*
X0287863Y0063536D03*
X0277863Y0063536D03*
X0277863Y0073536D03*
X0287863Y0073536D03*
X0287863Y0083536D03*
X0277863Y0083536D03*
X0277863Y0093536D03*
X0287863Y0093536D03*
X0287863Y0103536D03*
X0277863Y0103536D03*
X0277863Y0113536D03*
X0287863Y0113536D03*
X0287863Y0123536D03*
X0277863Y0123536D03*
X0277863Y0133536D03*
X0287863Y0133536D03*
X0287863Y0143536D03*
X0277863Y0143536D03*
X0277863Y0153536D03*
X0287863Y0153536D03*
X0287863Y0163536D03*
X0277863Y0163536D03*
X0277863Y0173536D03*
X0287863Y0173536D03*
X0287863Y0183536D03*
X0277863Y0183536D03*
X0277863Y0193536D03*
X0287863Y0193536D03*
X0287863Y0203536D03*
X0277863Y0203536D03*
X0287863Y0213536D03*
D12*
X0224737Y0028800D03*
X0216863Y0028800D03*
D13*
X0041430Y0072906D03*
D14*
X0061115Y0063457D03*
X0061115Y0052828D03*
X0061115Y0082355D03*
X0061115Y0092985D03*
D15*
X0106100Y0076300D03*
X0110500Y0076300D03*
X0110500Y0071300D03*
X0106100Y0071300D03*
X0126600Y0077800D03*
X0131000Y0077800D03*
X0131000Y0087800D03*
X0126600Y0087800D03*
X0144600Y0091800D03*
X0149000Y0091800D03*
X0168100Y0087800D03*
X0172500Y0087800D03*
X0172500Y0082800D03*
X0168100Y0082800D03*
X0153000Y0050300D03*
X0148600Y0050300D03*
X0143500Y0050300D03*
X0139100Y0050300D03*
X0139100Y0032300D03*
X0143500Y0032300D03*
D16*
X0122800Y0065100D03*
X0122800Y0069500D03*
X0098800Y0071000D03*
X0098800Y0066600D03*
X0098800Y0076600D03*
X0098800Y0081000D03*
X0197300Y0080000D03*
X0197300Y0075600D03*
X0204800Y0080100D03*
X0204800Y0084500D03*
X0092800Y0155600D03*
X0092800Y0160000D03*
X0052800Y0159500D03*
X0052800Y0155100D03*
D17*
X0115800Y0067359D03*
X0115800Y0062241D03*
D18*
X0135313Y0064784D03*
X0135313Y0067343D03*
X0135313Y0069902D03*
X0135313Y0072461D03*
X0135313Y0075020D03*
X0135313Y0077580D03*
X0135313Y0080139D03*
X0135313Y0082698D03*
X0135313Y0085257D03*
X0135313Y0087816D03*
X0158287Y0087816D03*
X0158287Y0085257D03*
X0158287Y0082698D03*
X0158287Y0080139D03*
X0158287Y0077580D03*
X0158287Y0075020D03*
X0158287Y0072461D03*
X0158287Y0069902D03*
X0158287Y0067343D03*
X0158287Y0064784D03*
D19*
X0148627Y0044599D03*
X0143509Y0044599D03*
X0143509Y0037513D03*
X0146068Y0037513D03*
X0148627Y0037513D03*
D20*
X0112800Y0144800D03*
X0102800Y0144800D03*
X0092800Y0144800D03*
X0082800Y0144800D03*
X0072800Y0144800D03*
X0062800Y0144800D03*
X0052800Y0144800D03*
X0042800Y0144800D03*
X0041800Y0216300D03*
X0051800Y0216300D03*
X0061800Y0216300D03*
X0071800Y0216300D03*
X0081800Y0216300D03*
X0091800Y0216300D03*
X0101800Y0216300D03*
X0111800Y0216300D03*
X0121800Y0216300D03*
X0031800Y0216300D03*
D21*
X0194520Y0184158D03*
X0204363Y0184158D03*
X0212237Y0184158D03*
X0222080Y0184158D03*
D22*
X0234166Y0194828D03*
X0182434Y0194828D03*
D23*
X0020300Y0018300D03*
X0019300Y0233300D03*
X0398300Y0018800D03*
D24*
X0204800Y0089300D03*
X0179800Y0085300D03*
X0162800Y0091300D03*
X0197300Y0071300D03*
X0108300Y0067300D03*
X0108300Y0062300D03*
X0098800Y0061300D03*
X0098800Y0086800D03*
D25*
X0098800Y0081000D01*
X0098800Y0076600D02*
X0077500Y0076600D01*
X0061115Y0092985D01*
X0041430Y0072906D02*
X0039406Y0072906D01*
X0039694Y0072906D02*
X0041430Y0072906D01*
X0061115Y0052828D02*
X0079287Y0071000D01*
X0098800Y0071000D01*
X0099100Y0071300D01*
X0106100Y0071300D01*
X0110500Y0071300D02*
X0111661Y0072461D01*
X0135313Y0072461D01*
X0135313Y0069902D02*
X0134910Y0069500D01*
X0122800Y0069500D01*
X0120659Y0067359D01*
X0115800Y0067359D01*
X0115800Y0062241D02*
X0108359Y0062241D01*
X0108300Y0062300D01*
X0115800Y0062241D02*
X0119941Y0062241D01*
X0122800Y0065100D01*
X0134997Y0065100D01*
X0135313Y0064784D01*
X0135313Y0067343D02*
X0138757Y0067343D01*
X0138800Y0067300D01*
X0138300Y0067300D01*
X0138800Y0067217D02*
X0154800Y0067217D01*
X0154800Y0068215D02*
X0138800Y0068215D01*
X0138800Y0068436D02*
X0138963Y0068598D01*
X0138963Y0077939D01*
X0144050Y0077939D01*
X0144411Y0078300D01*
X0144800Y0078300D01*
X0150242Y0084131D01*
X0151500Y0085389D01*
X0151500Y0085479D01*
X0151800Y0085800D01*
X0151800Y0089996D01*
X0151900Y0090096D01*
X0151900Y0093504D01*
X0151800Y0093604D01*
X0151800Y0094800D01*
X0126300Y0094800D01*
X0126300Y0090300D01*
X0125203Y0090300D01*
X0124821Y0090198D01*
X0124479Y0090000D01*
X0124200Y0089721D01*
X0124002Y0089379D01*
X0123900Y0088997D01*
X0123900Y0087800D01*
X0126300Y0087800D01*
X0126300Y0087800D01*
X0123900Y0087800D01*
X0123900Y0086603D01*
X0124002Y0086221D01*
X0124200Y0085879D01*
X0124479Y0085600D01*
X0124821Y0085402D01*
X0125203Y0085300D01*
X0126300Y0085300D01*
X0126300Y0084800D01*
X0131663Y0084800D01*
X0131663Y0083953D01*
X0131917Y0083698D01*
X0131863Y0083495D01*
X0131863Y0082698D01*
X0132300Y0082698D01*
X0132300Y0082698D01*
X0131863Y0082698D01*
X0131863Y0081900D01*
X0131917Y0081697D01*
X0131663Y0081443D01*
X0131663Y0080800D01*
X0126300Y0080800D01*
X0126300Y0080300D01*
X0125203Y0080300D01*
X0124821Y0080198D01*
X0124479Y0080000D01*
X0124200Y0079721D01*
X0124002Y0079379D01*
X0123900Y0078997D01*
X0123900Y0077800D01*
X0126300Y0077800D01*
X0126300Y0077800D01*
X0123900Y0077800D01*
X0123900Y0077220D01*
X0113400Y0077220D01*
X0113400Y0078004D01*
X0113300Y0078104D01*
X0113300Y0099300D01*
X0177300Y0099300D01*
X0177300Y0090300D01*
X0170204Y0090300D01*
X0170004Y0090500D01*
X0167300Y0090500D01*
X0167300Y0093800D01*
X0164527Y0093800D01*
X0164493Y0093834D01*
X0163395Y0094289D01*
X0162205Y0094289D01*
X0161107Y0093834D01*
X0161073Y0093800D01*
X0154800Y0093800D01*
X0154800Y0089282D01*
X0154637Y0089120D01*
X0154637Y0086512D01*
X0154800Y0086349D01*
X0154800Y0084164D01*
X0154637Y0084002D01*
X0154637Y0078834D01*
X0154800Y0078672D01*
X0154800Y0076487D01*
X0154637Y0076325D01*
X0154637Y0068598D01*
X0154800Y0068436D01*
X0154800Y0064800D01*
X0138800Y0064800D01*
X0138800Y0068436D01*
X0138963Y0069214D02*
X0154637Y0069214D01*
X0154637Y0070212D02*
X0138963Y0070212D01*
X0138963Y0071211D02*
X0154637Y0071211D01*
X0154637Y0072209D02*
X0138963Y0072209D01*
X0138963Y0073208D02*
X0154637Y0073208D01*
X0154637Y0074206D02*
X0138963Y0074206D01*
X0138963Y0075205D02*
X0154637Y0075205D01*
X0154637Y0076203D02*
X0138963Y0076203D01*
X0138963Y0077202D02*
X0154800Y0077202D01*
X0154800Y0078200D02*
X0144312Y0078200D01*
X0145639Y0079199D02*
X0154637Y0079199D01*
X0154637Y0080197D02*
X0146571Y0080197D01*
X0147503Y0081196D02*
X0154637Y0081196D01*
X0154637Y0082194D02*
X0148435Y0082194D01*
X0149367Y0083193D02*
X0154637Y0083193D01*
X0154800Y0084191D02*
X0150303Y0084191D01*
X0151301Y0085190D02*
X0154800Y0085190D01*
X0154800Y0086188D02*
X0151800Y0086188D01*
X0151800Y0087187D02*
X0154637Y0087187D01*
X0154637Y0088185D02*
X0151800Y0088185D01*
X0151800Y0089184D02*
X0154701Y0089184D01*
X0154800Y0090182D02*
X0151900Y0090182D01*
X0151900Y0091181D02*
X0154800Y0091181D01*
X0154800Y0092179D02*
X0151900Y0092179D01*
X0151900Y0093178D02*
X0154800Y0093178D01*
X0151800Y0094176D02*
X0161934Y0094176D01*
X0163666Y0094176D02*
X0177300Y0094176D01*
X0177300Y0093178D02*
X0167300Y0093178D01*
X0167300Y0092179D02*
X0177300Y0092179D01*
X0177300Y0091181D02*
X0167300Y0091181D01*
X0168100Y0087800D02*
X0162800Y0087800D01*
X0158303Y0087800D01*
X0158287Y0087816D01*
X0158287Y0085257D02*
X0166235Y0085257D01*
X0166279Y0085300D01*
X0169921Y0085300D01*
X0169965Y0085257D01*
X0179757Y0085257D01*
X0177213Y0087800D01*
X0172500Y0087800D01*
X0172500Y0082800D02*
X0177300Y0082800D01*
X0179757Y0085257D01*
X0179800Y0085300D01*
X0177300Y0095175D02*
X0113300Y0095175D01*
X0113300Y0096173D02*
X0177300Y0096173D01*
X0177300Y0097172D02*
X0113300Y0097172D01*
X0113300Y0098170D02*
X0177300Y0098170D01*
X0177300Y0099169D02*
X0113300Y0099169D01*
X0113300Y0094176D02*
X0126300Y0094176D01*
X0126300Y0093178D02*
X0113300Y0093178D01*
X0113300Y0092179D02*
X0126300Y0092179D01*
X0126300Y0091181D02*
X0113300Y0091181D01*
X0113300Y0090182D02*
X0124794Y0090182D01*
X0123950Y0089184D02*
X0113300Y0089184D01*
X0113300Y0088185D02*
X0123900Y0088185D01*
X0123900Y0087187D02*
X0113300Y0087187D01*
X0113300Y0086188D02*
X0124021Y0086188D01*
X0126300Y0085190D02*
X0113300Y0085190D01*
X0113300Y0084191D02*
X0131663Y0084191D01*
X0131863Y0083193D02*
X0113300Y0083193D01*
X0113300Y0082194D02*
X0131863Y0082194D01*
X0131991Y0082743D02*
X0131991Y0082800D01*
X0129505Y0082800D01*
X0129402Y0082698D01*
X0129300Y0082800D01*
X0129402Y0082698D02*
X0135313Y0082698D01*
X0135313Y0085257D02*
X0138057Y0085257D01*
X0144600Y0091800D01*
X0149000Y0091800D02*
X0149300Y0091500D01*
X0149300Y0086300D01*
X0143139Y0080139D01*
X0135313Y0080139D01*
X0131663Y0081196D02*
X0113300Y0081196D01*
X0113300Y0080197D02*
X0124820Y0080197D01*
X0123954Y0079199D02*
X0113300Y0079199D01*
X0113300Y0078200D02*
X0123900Y0078200D01*
X0131991Y0082800D02*
X0132300Y0082800D01*
X0135313Y0075020D02*
X0111780Y0075020D01*
X0110500Y0076300D01*
X0106100Y0076300D02*
X0099100Y0076300D01*
X0098800Y0076600D01*
X0098800Y0066600D02*
X0098800Y0061300D01*
X0138800Y0065220D02*
X0154800Y0065220D01*
X0154800Y0066218D02*
X0138800Y0066218D01*
X0146800Y0066800D02*
X0147300Y0066300D01*
X0151300Y0066300D01*
X0152343Y0067343D01*
X0158287Y0067343D01*
X0158746Y0069443D02*
X0158287Y0069902D01*
X0158746Y0069443D02*
X0160859Y0069443D01*
X0181266Y0049036D01*
X0279535Y0049036D01*
X0283363Y0045208D01*
X0283363Y0041672D01*
X0285999Y0039036D01*
X0289727Y0039036D01*
X0292363Y0041672D01*
X0292363Y0055400D01*
X0287863Y0059900D01*
X0287863Y0063536D01*
X0279727Y0058036D02*
X0282363Y0055400D01*
X0282363Y0049036D01*
X0287863Y0043536D01*
X0277863Y0053536D02*
X0275363Y0056036D01*
X0205791Y0056036D01*
X0189366Y0072461D01*
X0158287Y0072461D01*
X0158287Y0075020D02*
X0189635Y0075020D01*
X0206620Y0058036D01*
X0279727Y0058036D01*
X0204800Y0080100D02*
X0204700Y0080000D01*
X0197300Y0080000D01*
X0197161Y0080139D01*
X0158287Y0080139D01*
X0158287Y0077580D02*
X0152580Y0077580D01*
X0151300Y0076300D01*
X0151300Y0072800D01*
X0151300Y0066300D02*
X0152816Y0064784D01*
X0158287Y0064784D01*
X0143800Y0050583D02*
X0143509Y0050291D01*
X0197300Y0071300D02*
X0197300Y0075600D01*
X0204800Y0084500D02*
X0204800Y0089300D01*
X0279520Y0119536D02*
X0118064Y0119536D01*
X0092800Y0144800D01*
X0092800Y0155600D01*
X0092800Y0160000D02*
X0092800Y0165800D01*
X0069436Y0157800D02*
X0343599Y0157800D01*
X0377863Y0123536D01*
X0287863Y0123536D02*
X0283520Y0123536D01*
X0279520Y0119536D01*
X0277863Y0163536D02*
X0263997Y0177402D01*
X0211119Y0177402D01*
X0204363Y0184158D01*
X0210321Y0182243D02*
X0210321Y0180821D01*
X0212240Y0178902D01*
X0264997Y0178902D01*
X0273599Y0170300D01*
X0274627Y0170300D01*
X0277863Y0173536D01*
X0277863Y0183536D02*
X0277241Y0184158D01*
X0222080Y0184158D01*
X0268485Y0184158D01*
X0277863Y0193536D01*
X0212237Y0184158D02*
X0210321Y0182243D01*
X0069436Y0157800D02*
X0056436Y0144800D01*
X0052800Y0144800D01*
X0052800Y0155100D01*
X0052800Y0159500D02*
X0052800Y0165800D01*
D26*
X0052800Y0165800D03*
X0092800Y0165800D03*
X0115300Y0096800D03*
X0129800Y0097300D03*
X0138300Y0097300D03*
X0146300Y0097300D03*
X0129300Y0082800D03*
X0115300Y0078800D03*
X0142300Y0072800D03*
X0146800Y0066800D03*
X0151300Y0072800D03*
X0143800Y0055800D03*
X0146300Y0041300D03*
X0152800Y0041300D03*
X0139300Y0041300D03*
X0148800Y0032300D03*
X0174300Y0097300D03*
D27*
X0154800Y0043300D02*
X0150686Y0043300D01*
X0150661Y0043240D01*
X0150627Y0043205D01*
X0150627Y0043136D01*
X0149690Y0042199D01*
X0147564Y0042199D01*
X0146627Y0043136D01*
X0146627Y0043205D01*
X0146565Y0043266D01*
X0146552Y0043300D01*
X0145568Y0043300D01*
X0145543Y0043240D01*
X0145509Y0043205D01*
X0145509Y0043136D01*
X0144571Y0042199D01*
X0142446Y0042199D01*
X0141509Y0043136D01*
X0141509Y0043205D01*
X0141474Y0043240D01*
X0141449Y0043300D01*
X0137300Y0043300D01*
X0137300Y0039300D01*
X0141833Y0039300D01*
X0142446Y0039913D01*
X0144571Y0039913D01*
X0144962Y0039522D01*
X0145127Y0039617D01*
X0145483Y0039713D01*
X0146068Y0039713D01*
X0146068Y0039300D01*
X0146068Y0039300D01*
X0146068Y0039713D01*
X0146652Y0039713D01*
X0147008Y0039617D01*
X0147173Y0039522D01*
X0147564Y0039913D01*
X0149690Y0039913D01*
X0150302Y0039300D01*
X0154800Y0039300D01*
X0154800Y0043300D01*
X0154800Y0043240D02*
X0150662Y0043240D01*
X0149932Y0042442D02*
X0154800Y0042442D01*
X0154800Y0041643D02*
X0137300Y0041643D01*
X0137300Y0040845D02*
X0154800Y0040845D01*
X0154800Y0040046D02*
X0137300Y0040046D01*
X0137300Y0042442D02*
X0142203Y0042442D01*
X0141474Y0043240D02*
X0137300Y0043240D01*
X0144814Y0042442D02*
X0147321Y0042442D01*
X0146591Y0043240D02*
X0145544Y0043240D01*
D28*
X0146300Y0041300D02*
X0146068Y0041068D01*
X0146068Y0037513D01*
X0148627Y0037513D02*
X0148627Y0032473D01*
X0148800Y0032300D01*
X0143500Y0032300D01*
X0143509Y0032309D01*
X0143509Y0037513D01*
X0139300Y0041300D02*
X0139100Y0041500D01*
X0139100Y0032300D01*
X0139100Y0041500D02*
X0139100Y0050300D01*
X0143509Y0050291D02*
X0143509Y0044599D01*
X0148600Y0044626D02*
X0148600Y0050300D01*
X0152800Y0050100D02*
X0153000Y0050300D01*
X0152800Y0050100D02*
X0152800Y0041300D01*
X0148627Y0044599D02*
X0148600Y0044626D01*
X0143800Y0050583D02*
X0143800Y0055800D01*
X0135313Y0082698D02*
X0135210Y0082800D01*
D29*
X0162800Y0087800D02*
X0162800Y0091300D01*
D30*
X0148600Y0050300D02*
X0148627Y0050273D01*
X0143509Y0050291D02*
X0143500Y0050300D01*
D31*
X0115800Y0067359D02*
X0115300Y0067300D01*
X0108300Y0067300D01*
X0131000Y0077800D02*
X0135300Y0077800D01*
X0135313Y0077580D01*
X0135300Y0087800D02*
X0131000Y0087800D01*
X0135300Y0087800D02*
X0135313Y0087816D01*
X0158300Y0082800D02*
X0158287Y0082698D01*
X0158300Y0082800D02*
X0168100Y0082800D01*
X0287863Y0173536D02*
X0287800Y0173800D01*
X0287800Y0177800D01*
X0281800Y0183800D01*
X0281800Y0195300D01*
X0277800Y0199300D01*
X0239800Y0199300D01*
X0227300Y0211800D01*
X0116300Y0211800D01*
X0111800Y0216300D01*
X0058300Y0222800D02*
X0051800Y0216300D01*
X0058300Y0222800D02*
X0284300Y0222800D01*
X0291800Y0215300D01*
X0291800Y0213800D01*
X0376300Y0129300D01*
X0377800Y0129300D01*
X0383300Y0123800D01*
X0387800Y0123800D01*
X0387863Y0123536D01*
M02*
