G75*
%MOIN*%
%OFA0B0*%
%FSLAX25Y25*%
%IPPOS*%
%LPD*%
%AMOC8*
5,1,8,0,0,1.08239X$1,22.5*
%
%ADD10R,0.06000X0.06000*%
%ADD11OC8,0.06000*%
%ADD12C,0.05600*%
%ADD13C,0.10000*%
%ADD14C,0.08268*%
%ADD15OC8,0.07000*%
%ADD16C,0.05512*%
%ADD17C,0.12677*%
%ADD18C,0.02578*%
%ADD19C,0.02400*%
%ADD20C,0.00500*%
D10*
X0277863Y0213536D03*
X0377863Y0213536D03*
D11*
X0387863Y0213536D03*
X0387863Y0203536D03*
X0377863Y0203536D03*
X0377863Y0193536D03*
X0387863Y0193536D03*
X0387863Y0183536D03*
X0377863Y0183536D03*
X0377863Y0173536D03*
X0387863Y0173536D03*
X0387863Y0163536D03*
X0377863Y0163536D03*
X0377863Y0153536D03*
X0387863Y0153536D03*
X0387863Y0143536D03*
X0377863Y0143536D03*
X0377863Y0133536D03*
X0387863Y0133536D03*
X0387863Y0123536D03*
X0377863Y0123536D03*
X0377863Y0113536D03*
X0387863Y0113536D03*
X0387863Y0103536D03*
X0377863Y0103536D03*
X0377863Y0093536D03*
X0387863Y0093536D03*
X0387863Y0083536D03*
X0377863Y0083536D03*
X0377863Y0073536D03*
X0387863Y0073536D03*
X0387863Y0063536D03*
X0377863Y0063536D03*
X0377863Y0053536D03*
X0387863Y0053536D03*
X0387863Y0043536D03*
X0377863Y0043536D03*
X0287863Y0043536D03*
X0277863Y0043536D03*
X0277863Y0053536D03*
X0287863Y0053536D03*
X0287863Y0063536D03*
X0277863Y0063536D03*
X0277863Y0073536D03*
X0287863Y0073536D03*
X0287863Y0083536D03*
X0277863Y0083536D03*
X0277863Y0093536D03*
X0287863Y0093536D03*
X0287863Y0103536D03*
X0277863Y0103536D03*
X0277863Y0113536D03*
X0287863Y0113536D03*
X0287863Y0123536D03*
X0277863Y0123536D03*
X0277863Y0133536D03*
X0287863Y0133536D03*
X0287863Y0143536D03*
X0277863Y0143536D03*
X0277863Y0153536D03*
X0287863Y0153536D03*
X0287863Y0163536D03*
X0277863Y0163536D03*
X0277863Y0173536D03*
X0287863Y0173536D03*
X0287863Y0183536D03*
X0277863Y0183536D03*
X0277863Y0193536D03*
X0287863Y0193536D03*
X0287863Y0203536D03*
X0277863Y0203536D03*
X0287863Y0213536D03*
D12*
X0224737Y0028800D03*
X0216863Y0028800D03*
D13*
X0041430Y0072906D03*
D14*
X0061115Y0052828D03*
X0061115Y0063457D03*
X0061115Y0082355D03*
X0061115Y0092985D03*
D15*
X0062800Y0144800D03*
X0072800Y0144800D03*
X0082800Y0144800D03*
X0092800Y0144800D03*
X0102800Y0144800D03*
X0112800Y0144800D03*
X0052800Y0144800D03*
X0042800Y0144800D03*
X0041800Y0216300D03*
X0051800Y0216300D03*
X0061800Y0216300D03*
X0071800Y0216300D03*
X0081800Y0216300D03*
X0091800Y0216300D03*
X0101800Y0216300D03*
X0111800Y0216300D03*
X0121800Y0216300D03*
X0031800Y0216300D03*
D16*
X0194520Y0184158D03*
X0204363Y0184158D03*
X0212237Y0184158D03*
X0222080Y0184158D03*
D17*
X0234166Y0194828D03*
X0182434Y0194828D03*
D18*
X0162800Y0091300D03*
X0179800Y0085300D03*
X0197300Y0071300D03*
X0204800Y0089300D03*
X0108300Y0067300D03*
X0108300Y0062300D03*
X0098800Y0061300D03*
X0098800Y0086800D03*
D19*
X0115300Y0078800D03*
X0129300Y0082800D03*
X0142300Y0072800D03*
X0146800Y0066800D03*
X0151300Y0072800D03*
X0143800Y0055800D03*
X0146300Y0041300D03*
X0152800Y0041300D03*
X0139300Y0041300D03*
X0148800Y0032300D03*
X0146300Y0097300D03*
X0138300Y0097300D03*
X0129800Y0097300D03*
X0115300Y0096800D03*
X0174300Y0097300D03*
X0092800Y0165800D03*
X0052800Y0165800D03*
D20*
X0102300Y0159300D02*
X0045300Y0216300D01*
X0041800Y0216300D01*
X0091800Y0216300D02*
X0138800Y0169300D01*
X0277800Y0169300D01*
X0283300Y0163800D01*
X0287800Y0163800D01*
X0287863Y0163536D01*
X0283300Y0153800D02*
X0277800Y0159300D01*
X0102300Y0159300D01*
X0106300Y0211800D02*
X0101800Y0216300D01*
X0106300Y0211800D02*
X0199800Y0211800D01*
X0224300Y0187300D01*
X0279800Y0187300D01*
X0283300Y0183800D01*
X0287800Y0183800D01*
X0287863Y0183536D01*
X0287800Y0153800D02*
X0283300Y0153800D01*
X0287800Y0153800D02*
X0287863Y0153536D01*
X0288300Y0103800D02*
X0287863Y0103536D01*
X0377800Y0153300D02*
X0377863Y0153536D01*
X0384800Y0213800D02*
X0381300Y0217300D01*
X0122800Y0217300D01*
X0121800Y0216300D01*
X0384800Y0213800D02*
X0387800Y0213800D01*
X0387863Y0213536D01*
M02*
