G75*
%MOIN*%
%OFA0B0*%
%FSLAX25Y25*%
%IPPOS*%
%LPD*%
%AMOC8*
5,1,8,0,0,1.08239X$1,22.5*
%
%ADD10R,0.06600X0.06600*%
%ADD11OC8,0.06600*%
%ADD12C,0.06200*%
%ADD13C,0.10600*%
%ADD14C,0.08868*%
%ADD15C,0.06506*%
%ADD16OC8,0.07600*%
%ADD17C,0.06112*%
%ADD18C,0.13277*%
D10*
X0277863Y0213536D03*
X0377863Y0213536D03*
D11*
X0387863Y0213536D03*
X0387863Y0203536D03*
X0377863Y0203536D03*
X0377863Y0193536D03*
X0387863Y0193536D03*
X0387863Y0183536D03*
X0377863Y0183536D03*
X0377863Y0173536D03*
X0387863Y0173536D03*
X0387863Y0163536D03*
X0377863Y0163536D03*
X0377863Y0153536D03*
X0387863Y0153536D03*
X0387863Y0143536D03*
X0377863Y0143536D03*
X0377863Y0133536D03*
X0387863Y0133536D03*
X0387863Y0123536D03*
X0377863Y0123536D03*
X0377863Y0113536D03*
X0387863Y0113536D03*
X0387863Y0103536D03*
X0377863Y0103536D03*
X0377863Y0093536D03*
X0387863Y0093536D03*
X0387863Y0083536D03*
X0377863Y0083536D03*
X0377863Y0073536D03*
X0387863Y0073536D03*
X0387863Y0063536D03*
X0377863Y0063536D03*
X0377863Y0053536D03*
X0387863Y0053536D03*
X0387863Y0043536D03*
X0377863Y0043536D03*
X0287863Y0043536D03*
X0277863Y0043536D03*
X0277863Y0053536D03*
X0287863Y0053536D03*
X0287863Y0063536D03*
X0277863Y0063536D03*
X0277863Y0073536D03*
X0287863Y0073536D03*
X0287863Y0083536D03*
X0277863Y0083536D03*
X0277863Y0093536D03*
X0287863Y0093536D03*
X0287863Y0103536D03*
X0277863Y0103536D03*
X0277863Y0113536D03*
X0287863Y0113536D03*
X0287863Y0123536D03*
X0277863Y0123536D03*
X0277863Y0133536D03*
X0287863Y0133536D03*
X0287863Y0143536D03*
X0277863Y0143536D03*
X0277863Y0153536D03*
X0287863Y0153536D03*
X0287863Y0163536D03*
X0277863Y0163536D03*
X0277863Y0173536D03*
X0287863Y0173536D03*
X0287863Y0183536D03*
X0277863Y0183536D03*
X0277863Y0193536D03*
X0287863Y0193536D03*
X0287863Y0203536D03*
X0277863Y0203536D03*
X0287863Y0213536D03*
D12*
X0224737Y0028800D03*
X0216863Y0028800D03*
D13*
X0041430Y0072906D03*
D14*
X0061115Y0052828D03*
X0061115Y0063457D03*
X0061115Y0082355D03*
X0061115Y0092985D03*
D15*
X0041430Y0092591D03*
X0061115Y0072906D03*
X0041430Y0053221D03*
D16*
X0042800Y0144800D03*
X0052800Y0144800D03*
X0062800Y0144800D03*
X0072800Y0144800D03*
X0082800Y0144800D03*
X0092800Y0144800D03*
X0102800Y0144800D03*
X0112800Y0144800D03*
X0111800Y0216300D03*
X0101800Y0216300D03*
X0091800Y0216300D03*
X0081800Y0216300D03*
X0071800Y0216300D03*
X0061800Y0216300D03*
X0051800Y0216300D03*
X0041800Y0216300D03*
X0031800Y0216300D03*
X0121800Y0216300D03*
D17*
X0194520Y0184158D03*
X0204363Y0184158D03*
X0212237Y0184158D03*
X0222080Y0184158D03*
D18*
X0234166Y0194828D03*
X0182434Y0194828D03*
M02*
