%
M48
M72
T01C0.0120
T02C0.0138
T03C0.0315
T04C0.0350
T05C0.0394
T06C0.0400
T07C0.0591
T08C0.0906
%
T01
X11530Y7880
X12930Y8280
X14230Y7280
X14680Y6680
X15130Y7280
X14380Y5580
X14630Y4130
X15280Y4130
X13930Y4130
X14880Y3230
X14630Y9730
X13830Y9730
X12980Y9730
X11530Y9680
X17430Y9730
X9280Y16580
X5280Y16580
T02
X16280Y9130
X17980Y8530
X19730Y7130
X20480Y8930
X10830Y6730
X10830Y6230
X9880Y6130
X9880Y8680
T03
X21686Y2880
X22474Y2880
T04
X27786Y4354
X28786Y4354
X28786Y5354
X27786Y5354
X27786Y6354
X28786Y6354
X28786Y7354
X27786Y7354
X27786Y8354
X28786Y8354
X28786Y9354
X27786Y9354
X27786Y10354
X28786Y10354
X28786Y11354
X27786Y11354
X27786Y12354
X28786Y12354
X28786Y13354
X27786Y13354
X27786Y14354
X28786Y14354
X28786Y15354
X27786Y15354
X27786Y16354
X28786Y16354
X28786Y17354
X27786Y17354
X27786Y18354
X28786Y18354
X28786Y19354
X27786Y19354
X27786Y20354
X28786Y20354
X28786Y21354
X27786Y21354
X37786Y21354
X38786Y21354
X38786Y20354
X37786Y20354
X37786Y19354
X38786Y19354
X38786Y18354
X37786Y18354
X37786Y17354
X38786Y17354
X38786Y16354
X37786Y16354
X37786Y15354
X38786Y15354
X38786Y14354
X37786Y14354
X37786Y13354
X38786Y13354
X38786Y12354
X37786Y12354
X37786Y11354
X38786Y11354
X38786Y10354
X37786Y10354
X37786Y9354
X38786Y9354
X38786Y8354
X37786Y8354
X37786Y7354
X38786Y7354
X38786Y6354
X37786Y6354
X37786Y5354
X38786Y5354
X38786Y4354
X37786Y4354
T05
X22208Y18416
X21224Y18416
X20436Y18416
X19452Y18416
T06
X12180Y21630
X11180Y21630
X10180Y21630
X9180Y21630
X8180Y21630
X7180Y21630
X6180Y21630
X5180Y21630
X4180Y21630
X3180Y21630
X4280Y14480
X5280Y14480
X6280Y14480
X7280Y14480
X8280Y14480
X9280Y14480
X10280Y14480
X11280Y14480
T07
X6111Y5283
X6111Y6346
X6111Y7291
X6111Y8236
X6111Y9299
X4143Y9259
X4143Y7291
X4143Y5322
T08
X18243Y19483
X23417Y19483
M30
