G75*
%MOIN*%
%OFA0B0*%
%FSLAX25Y25*%
%IPPOS*%
%LPD*%
%AMOC8*
5,1,8,0,0,1.08239X$1,22.5*
%
%ADD10R,0.02400X0.02000*%
%ADD11R,0.02000X0.02400*%
%ADD12R,0.03543X0.02756*%
%ADD13R,0.03900X0.01200*%
%ADD14R,0.00800X0.01600*%
%ADD15C,0.04000*%
D10*
X0106100Y0071300D03*
X0110500Y0071300D03*
X0110500Y0076300D03*
X0106100Y0076300D03*
X0126600Y0077800D03*
X0131000Y0077800D03*
X0131000Y0087800D03*
X0126600Y0087800D03*
X0144600Y0091800D03*
X0149000Y0091800D03*
X0168100Y0087800D03*
X0172500Y0087800D03*
X0172500Y0082800D03*
X0168100Y0082800D03*
X0153000Y0050300D03*
X0148600Y0050300D03*
X0143500Y0050300D03*
X0139100Y0050300D03*
X0139100Y0032300D03*
X0143500Y0032300D03*
D11*
X0122800Y0065100D03*
X0122800Y0069500D03*
X0098800Y0071000D03*
X0098800Y0066600D03*
X0098800Y0076600D03*
X0098800Y0081000D03*
X0197300Y0080000D03*
X0197300Y0075600D03*
X0204800Y0080100D03*
X0204800Y0084500D03*
X0092800Y0155600D03*
X0092800Y0160000D03*
X0052800Y0159500D03*
X0052800Y0155100D03*
D12*
X0115800Y0067359D03*
X0115800Y0062241D03*
D13*
X0135313Y0064784D03*
X0135313Y0067343D03*
X0135313Y0069902D03*
X0135313Y0072461D03*
X0135313Y0075020D03*
X0135313Y0077580D03*
X0135313Y0080139D03*
X0135313Y0082698D03*
X0135313Y0085257D03*
X0135313Y0087816D03*
X0158287Y0087816D03*
X0158287Y0085257D03*
X0158287Y0082698D03*
X0158287Y0080139D03*
X0158287Y0077580D03*
X0158287Y0075020D03*
X0158287Y0072461D03*
X0158287Y0069902D03*
X0158287Y0067343D03*
X0158287Y0064784D03*
D14*
X0148627Y0044599D03*
X0143509Y0044599D03*
X0143509Y0037513D03*
X0146068Y0037513D03*
X0148627Y0037513D03*
D15*
X0020300Y0018300D03*
X0019300Y0233300D03*
X0398300Y0018800D03*
M02*
