G75*
%MOIN*%
%OFA0B0*%
%FSLAX25Y25*%
%IPPOS*%
%LPD*%
%AMOC8*
5,1,8,0,0,1.08239X$1,22.5*
%
%ADD10C,0.04900*%
%ADD11C,0.04409*%
%ADD12C,0.08268*%
%ADD13C,0.05600*%
%ADD14C,0.05512*%
%ADD15C,0.12677*%
%ADD16C,0.01000*%
%ADD17C,0.02578*%
%ADD18C,0.02400*%
D10*
X0277863Y0043536D03*
X0287863Y0043536D03*
X0287863Y0053536D03*
X0277863Y0053536D03*
X0277863Y0063536D03*
X0287863Y0063536D03*
X0287863Y0073536D03*
X0277863Y0073536D03*
X0277863Y0083536D03*
X0287863Y0083536D03*
X0287863Y0093536D03*
X0277863Y0093536D03*
X0277863Y0103536D03*
X0287863Y0103536D03*
X0287863Y0113536D03*
X0277863Y0113536D03*
X0277863Y0123536D03*
X0287863Y0123536D03*
X0287863Y0133536D03*
X0277863Y0133536D03*
X0277863Y0143536D03*
X0287863Y0143536D03*
X0287863Y0153536D03*
X0277863Y0153536D03*
X0277863Y0163536D03*
X0287863Y0163536D03*
X0287863Y0173536D03*
X0277863Y0173536D03*
X0277863Y0183536D03*
X0287863Y0183536D03*
X0287863Y0193536D03*
X0277863Y0193536D03*
X0277863Y0203536D03*
X0287863Y0203536D03*
X0287863Y0213536D03*
X0277863Y0213536D03*
X0377863Y0213536D03*
X0387863Y0213536D03*
X0387863Y0203536D03*
X0377863Y0203536D03*
X0377863Y0193536D03*
X0387863Y0193536D03*
X0387863Y0183536D03*
X0377863Y0183536D03*
X0377863Y0173536D03*
X0387863Y0173536D03*
X0387863Y0163536D03*
X0377863Y0163536D03*
X0377863Y0153536D03*
X0387863Y0153536D03*
X0387863Y0143536D03*
X0377863Y0143536D03*
X0377863Y0133536D03*
X0387863Y0133536D03*
X0387863Y0123536D03*
X0377863Y0123536D03*
X0377863Y0113536D03*
X0387863Y0113536D03*
X0387863Y0103536D03*
X0377863Y0103536D03*
X0377863Y0093536D03*
X0387863Y0093536D03*
X0387863Y0083536D03*
X0377863Y0083536D03*
X0377863Y0073536D03*
X0387863Y0073536D03*
X0387863Y0063536D03*
X0377863Y0063536D03*
X0377863Y0053536D03*
X0387863Y0053536D03*
X0387863Y0043536D03*
X0377863Y0043536D03*
D11*
X0224737Y0028800D03*
X0216863Y0028800D03*
D12*
X0061115Y0052828D03*
X0061115Y0063457D03*
X0041430Y0072906D03*
X0061115Y0082355D03*
X0061115Y0092985D03*
D13*
X0062800Y0144800D03*
X0072800Y0144800D03*
X0082800Y0144800D03*
X0092800Y0144800D03*
X0102800Y0144800D03*
X0112800Y0144800D03*
X0052800Y0144800D03*
X0042800Y0144800D03*
X0041800Y0216300D03*
X0051800Y0216300D03*
X0061800Y0216300D03*
X0071800Y0216300D03*
X0081800Y0216300D03*
X0091800Y0216300D03*
X0101800Y0216300D03*
X0111800Y0216300D03*
X0121800Y0216300D03*
X0031800Y0216300D03*
D14*
X0194520Y0184158D03*
X0204363Y0184158D03*
X0212237Y0184158D03*
X0222080Y0184158D03*
D15*
X0234166Y0194828D03*
X0182434Y0194828D03*
D16*
X0013000Y0239600D02*
X0013000Y0013000D01*
X0404600Y0013000D01*
X0404600Y0239600D01*
X0013000Y0239600D01*
X0013000Y0238961D02*
X0404600Y0238961D01*
X0404600Y0237962D02*
X0013000Y0237962D01*
X0013000Y0236964D02*
X0404600Y0236964D01*
X0404600Y0235965D02*
X0013000Y0235965D01*
X0013000Y0234967D02*
X0404600Y0234967D01*
X0404600Y0233968D02*
X0013000Y0233968D01*
X0013000Y0232970D02*
X0404600Y0232970D01*
X0404600Y0231971D02*
X0013000Y0231971D01*
X0013000Y0230972D02*
X0404600Y0230972D01*
X0404600Y0229974D02*
X0013000Y0229974D01*
X0013000Y0228975D02*
X0404600Y0228975D01*
X0404600Y0227977D02*
X0013000Y0227977D01*
X0013000Y0226978D02*
X0404600Y0226978D01*
X0404600Y0225980D02*
X0013000Y0225980D01*
X0013000Y0224981D02*
X0404600Y0224981D01*
X0404600Y0223983D02*
X0013000Y0223983D01*
X0013000Y0222984D02*
X0404600Y0222984D01*
X0404600Y0221986D02*
X0013000Y0221986D01*
X0013000Y0220987D02*
X0404600Y0220987D01*
X0404600Y0219989D02*
X0124475Y0219989D01*
X0124349Y0220115D02*
X0122695Y0220800D01*
X0120905Y0220800D01*
X0119251Y0220115D01*
X0117985Y0218849D01*
X0117300Y0217195D01*
X0117300Y0215405D01*
X0117985Y0213751D01*
X0119251Y0212485D01*
X0120905Y0211800D01*
X0122695Y0211800D01*
X0124349Y0212485D01*
X0125615Y0213751D01*
X0126300Y0215405D01*
X0126300Y0217195D01*
X0125615Y0218849D01*
X0124349Y0220115D01*
X0125474Y0218990D02*
X0404600Y0218990D01*
X0404600Y0217992D02*
X0125970Y0217992D01*
X0126300Y0216993D02*
X0275451Y0216993D01*
X0275512Y0217054D02*
X0274345Y0215887D01*
X0273713Y0214362D01*
X0273713Y0212711D01*
X0274345Y0211185D01*
X0275512Y0210018D01*
X0277038Y0209386D01*
X0278688Y0209386D01*
X0280214Y0210018D01*
X0281381Y0211185D01*
X0282013Y0212711D01*
X0282013Y0214362D01*
X0281381Y0215887D01*
X0280214Y0217054D01*
X0278688Y0217686D01*
X0277038Y0217686D01*
X0275512Y0217054D01*
X0274453Y0215995D02*
X0126300Y0215995D01*
X0126131Y0214996D02*
X0273976Y0214996D01*
X0273713Y0213998D02*
X0125717Y0213998D01*
X0124863Y0212999D02*
X0273713Y0212999D01*
X0274007Y0212001D02*
X0123180Y0212001D01*
X0120420Y0212001D02*
X0113180Y0212001D01*
X0112695Y0211800D02*
X0114349Y0212485D01*
X0115615Y0213751D01*
X0116300Y0215405D01*
X0116300Y0217195D01*
X0115615Y0218849D01*
X0114349Y0220115D01*
X0112695Y0220800D01*
X0110905Y0220800D01*
X0109251Y0220115D01*
X0107985Y0218849D01*
X0107300Y0217195D01*
X0107300Y0215405D01*
X0107985Y0213751D01*
X0109251Y0212485D01*
X0110905Y0211800D01*
X0112695Y0211800D01*
X0110420Y0212001D02*
X0103180Y0212001D01*
X0102695Y0211800D02*
X0104349Y0212485D01*
X0105615Y0213751D01*
X0106300Y0215405D01*
X0106300Y0217195D01*
X0105615Y0218849D01*
X0104349Y0220115D01*
X0102695Y0220800D01*
X0100905Y0220800D01*
X0099251Y0220115D01*
X0097985Y0218849D01*
X0097300Y0217195D01*
X0097300Y0215405D01*
X0097985Y0213751D01*
X0099251Y0212485D01*
X0100905Y0211800D01*
X0102695Y0211800D01*
X0100420Y0212001D02*
X0093180Y0212001D01*
X0092695Y0211800D02*
X0094349Y0212485D01*
X0095615Y0213751D01*
X0096300Y0215405D01*
X0096300Y0217195D01*
X0095615Y0218849D01*
X0094349Y0220115D01*
X0092695Y0220800D01*
X0090905Y0220800D01*
X0089251Y0220115D01*
X0087985Y0218849D01*
X0087300Y0217195D01*
X0087300Y0215405D01*
X0087985Y0213751D01*
X0089251Y0212485D01*
X0090905Y0211800D01*
X0092695Y0211800D01*
X0090420Y0212001D02*
X0083180Y0212001D01*
X0082695Y0211800D02*
X0084349Y0212485D01*
X0085615Y0213751D01*
X0086300Y0215405D01*
X0086300Y0217195D01*
X0085615Y0218849D01*
X0084349Y0220115D01*
X0082695Y0220800D01*
X0080905Y0220800D01*
X0079251Y0220115D01*
X0077985Y0218849D01*
X0077300Y0217195D01*
X0077300Y0215405D01*
X0077985Y0213751D01*
X0079251Y0212485D01*
X0080905Y0211800D01*
X0082695Y0211800D01*
X0080420Y0212001D02*
X0073180Y0212001D01*
X0072695Y0211800D02*
X0074349Y0212485D01*
X0075615Y0213751D01*
X0076300Y0215405D01*
X0076300Y0217195D01*
X0075615Y0218849D01*
X0074349Y0220115D01*
X0072695Y0220800D01*
X0070905Y0220800D01*
X0069251Y0220115D01*
X0067985Y0218849D01*
X0067300Y0217195D01*
X0067300Y0215405D01*
X0067985Y0213751D01*
X0069251Y0212485D01*
X0070905Y0211800D01*
X0072695Y0211800D01*
X0070420Y0212001D02*
X0063180Y0212001D01*
X0062695Y0211800D02*
X0064349Y0212485D01*
X0065615Y0213751D01*
X0066300Y0215405D01*
X0066300Y0217195D01*
X0065615Y0218849D01*
X0064349Y0220115D01*
X0062695Y0220800D01*
X0060905Y0220800D01*
X0059251Y0220115D01*
X0057985Y0218849D01*
X0057300Y0217195D01*
X0057300Y0215405D01*
X0057985Y0213751D01*
X0059251Y0212485D01*
X0060905Y0211800D01*
X0062695Y0211800D01*
X0060420Y0212001D02*
X0053180Y0212001D01*
X0052695Y0211800D02*
X0054349Y0212485D01*
X0055615Y0213751D01*
X0056300Y0215405D01*
X0056300Y0217195D01*
X0055615Y0218849D01*
X0054349Y0220115D01*
X0052695Y0220800D01*
X0050905Y0220800D01*
X0049251Y0220115D01*
X0047985Y0218849D01*
X0047300Y0217195D01*
X0047300Y0215405D01*
X0047985Y0213751D01*
X0049251Y0212485D01*
X0050905Y0211800D01*
X0052695Y0211800D01*
X0050420Y0212001D02*
X0043180Y0212001D01*
X0042695Y0211800D02*
X0044349Y0212485D01*
X0045615Y0213751D01*
X0046300Y0215405D01*
X0046300Y0217195D01*
X0045615Y0218849D01*
X0044349Y0220115D01*
X0042695Y0220800D01*
X0040905Y0220800D01*
X0039251Y0220115D01*
X0037985Y0218849D01*
X0037300Y0217195D01*
X0037300Y0215405D01*
X0037985Y0213751D01*
X0039251Y0212485D01*
X0040905Y0211800D01*
X0042695Y0211800D01*
X0040420Y0212001D02*
X0013000Y0212001D01*
X0013000Y0212999D02*
X0029027Y0212999D01*
X0028999Y0213020D02*
X0029546Y0212622D01*
X0030149Y0212315D01*
X0030793Y0212106D01*
X0031300Y0212026D01*
X0031300Y0215800D01*
X0027526Y0215800D01*
X0027606Y0215293D01*
X0027815Y0214649D01*
X0028122Y0214046D01*
X0028520Y0213499D01*
X0028999Y0213020D01*
X0028158Y0213998D02*
X0013000Y0213998D01*
X0013000Y0214996D02*
X0027702Y0214996D01*
X0027526Y0216800D02*
X0031300Y0216800D01*
X0031300Y0220574D01*
X0030793Y0220494D01*
X0030149Y0220285D01*
X0029546Y0219978D01*
X0028999Y0219580D01*
X0028520Y0219101D01*
X0028122Y0218554D01*
X0027815Y0217951D01*
X0027606Y0217307D01*
X0027526Y0216800D01*
X0027556Y0216993D02*
X0013000Y0216993D01*
X0013000Y0215995D02*
X0031300Y0215995D01*
X0031300Y0215800D02*
X0031300Y0216800D01*
X0032300Y0216800D01*
X0032300Y0220574D01*
X0032807Y0220494D01*
X0033451Y0220285D01*
X0034054Y0219978D01*
X0034601Y0219580D01*
X0035080Y0219101D01*
X0035478Y0218554D01*
X0035785Y0217951D01*
X0035994Y0217307D01*
X0036074Y0216800D01*
X0032300Y0216800D01*
X0032300Y0215800D01*
X0036074Y0215800D01*
X0035994Y0215293D01*
X0035785Y0214649D01*
X0035478Y0214046D01*
X0035080Y0213499D01*
X0034601Y0213020D01*
X0034054Y0212622D01*
X0033451Y0212315D01*
X0032807Y0212106D01*
X0032300Y0212026D01*
X0032300Y0215800D01*
X0031300Y0215800D01*
X0031300Y0214996D02*
X0032300Y0214996D01*
X0032300Y0213998D02*
X0031300Y0213998D01*
X0031300Y0212999D02*
X0032300Y0212999D01*
X0034573Y0212999D02*
X0038737Y0212999D01*
X0037883Y0213998D02*
X0035442Y0213998D01*
X0035898Y0214996D02*
X0037469Y0214996D01*
X0037300Y0215995D02*
X0032300Y0215995D01*
X0032300Y0216993D02*
X0031300Y0216993D01*
X0031300Y0217992D02*
X0032300Y0217992D01*
X0032300Y0218990D02*
X0031300Y0218990D01*
X0031300Y0219989D02*
X0032300Y0219989D01*
X0034032Y0219989D02*
X0039125Y0219989D01*
X0038126Y0218990D02*
X0035160Y0218990D01*
X0035764Y0217992D02*
X0037630Y0217992D01*
X0037300Y0216993D02*
X0036044Y0216993D01*
X0029568Y0219989D02*
X0013000Y0219989D01*
X0013000Y0218990D02*
X0028440Y0218990D01*
X0027836Y0217992D02*
X0013000Y0217992D01*
X0013000Y0211002D02*
X0274528Y0211002D01*
X0275547Y0210004D02*
X0013000Y0210004D01*
X0013000Y0209005D02*
X0404600Y0209005D01*
X0404600Y0208007D02*
X0013000Y0208007D01*
X0013000Y0207008D02*
X0275466Y0207008D01*
X0275512Y0207054D02*
X0274345Y0205887D01*
X0273713Y0204362D01*
X0273713Y0202711D01*
X0274345Y0201185D01*
X0275512Y0200018D01*
X0277038Y0199386D01*
X0278688Y0199386D01*
X0280214Y0200018D01*
X0281381Y0201185D01*
X0282013Y0202711D01*
X0282013Y0204362D01*
X0281381Y0205887D01*
X0280214Y0207054D01*
X0278688Y0207686D01*
X0277038Y0207686D01*
X0275512Y0207054D01*
X0274468Y0206010D02*
X0013000Y0206010D01*
X0013000Y0205011D02*
X0273982Y0205011D01*
X0273713Y0204013D02*
X0013000Y0204013D01*
X0013000Y0203014D02*
X0273713Y0203014D01*
X0274001Y0202016D02*
X0237819Y0202016D01*
X0238720Y0201643D02*
X0235765Y0202867D01*
X0232567Y0202867D01*
X0229613Y0201643D01*
X0227351Y0199381D01*
X0226128Y0196427D01*
X0226128Y0193229D01*
X0227351Y0190274D01*
X0229613Y0188013D01*
X0232567Y0186789D01*
X0235765Y0186789D01*
X0238720Y0188013D01*
X0240981Y0190274D01*
X0242205Y0193229D01*
X0242205Y0196427D01*
X0240981Y0199381D01*
X0238720Y0201643D01*
X0239345Y0201017D02*
X0274513Y0201017D01*
X0275512Y0200019D02*
X0240344Y0200019D01*
X0241131Y0199020D02*
X0404600Y0199020D01*
X0404600Y0198022D02*
X0241544Y0198022D01*
X0241958Y0197023D02*
X0275481Y0197023D01*
X0275512Y0197054D02*
X0274345Y0195887D01*
X0273713Y0194362D01*
X0273713Y0192711D01*
X0274345Y0191185D01*
X0275512Y0190018D01*
X0277038Y0189386D01*
X0278688Y0189386D01*
X0280214Y0190018D01*
X0281381Y0191185D01*
X0282013Y0192711D01*
X0282013Y0194362D01*
X0281381Y0195887D01*
X0280214Y0197054D01*
X0278688Y0197686D01*
X0277038Y0197686D01*
X0275512Y0197054D01*
X0274482Y0196025D02*
X0242205Y0196025D01*
X0242205Y0195026D02*
X0273988Y0195026D01*
X0273713Y0194028D02*
X0242205Y0194028D01*
X0242122Y0193029D02*
X0273713Y0193029D01*
X0273995Y0192031D02*
X0241708Y0192031D01*
X0241295Y0191032D02*
X0274498Y0191032D01*
X0275497Y0190034D02*
X0240740Y0190034D01*
X0239741Y0189035D02*
X0404600Y0189035D01*
X0404600Y0188037D02*
X0238743Y0188037D01*
X0236365Y0187038D02*
X0275496Y0187038D01*
X0275512Y0187054D02*
X0274345Y0185887D01*
X0273713Y0184362D01*
X0273713Y0182711D01*
X0274345Y0181185D01*
X0275512Y0180018D01*
X0277038Y0179386D01*
X0278688Y0179386D01*
X0280214Y0180018D01*
X0281381Y0181185D01*
X0282013Y0182711D01*
X0282013Y0184362D01*
X0281381Y0185887D01*
X0280214Y0187054D01*
X0278688Y0187686D01*
X0277038Y0187686D01*
X0275512Y0187054D01*
X0274497Y0186039D02*
X0226123Y0186039D01*
X0225857Y0186682D02*
X0224604Y0187936D01*
X0222966Y0188614D01*
X0221193Y0188614D01*
X0219555Y0187936D01*
X0218302Y0186682D01*
X0217624Y0185045D01*
X0217624Y0183272D01*
X0218302Y0181634D01*
X0219555Y0180381D01*
X0221193Y0179702D01*
X0222966Y0179702D01*
X0224604Y0180381D01*
X0225857Y0181634D01*
X0226535Y0183272D01*
X0226535Y0185045D01*
X0225857Y0186682D01*
X0225501Y0187038D02*
X0231967Y0187038D01*
X0229589Y0188037D02*
X0224360Y0188037D01*
X0226535Y0185041D02*
X0273994Y0185041D01*
X0273713Y0184042D02*
X0226535Y0184042D01*
X0226441Y0183044D02*
X0273713Y0183044D01*
X0273989Y0182045D02*
X0226027Y0182045D01*
X0225270Y0181047D02*
X0274483Y0181047D01*
X0275482Y0180048D02*
X0223801Y0180048D01*
X0220358Y0180048D02*
X0213959Y0180048D01*
X0214761Y0180381D02*
X0216015Y0181634D01*
X0216693Y0183272D01*
X0216693Y0185045D01*
X0216015Y0186682D01*
X0214761Y0187936D01*
X0213123Y0188614D01*
X0211351Y0188614D01*
X0209713Y0187936D01*
X0208459Y0186682D01*
X0208300Y0186297D01*
X0208141Y0186682D01*
X0206887Y0187936D01*
X0205249Y0188614D01*
X0203477Y0188614D01*
X0201839Y0187936D01*
X0200585Y0186682D01*
X0199907Y0185045D01*
X0199907Y0183272D01*
X0200585Y0181634D01*
X0201839Y0180381D01*
X0203477Y0179702D01*
X0205249Y0179702D01*
X0206887Y0180381D01*
X0208141Y0181634D01*
X0208300Y0182019D01*
X0208459Y0181634D01*
X0209713Y0180381D01*
X0211351Y0179702D01*
X0213123Y0179702D01*
X0214761Y0180381D01*
X0215427Y0181047D02*
X0218889Y0181047D01*
X0218132Y0182045D02*
X0216185Y0182045D01*
X0216598Y0183044D02*
X0217718Y0183044D01*
X0217624Y0184042D02*
X0216693Y0184042D01*
X0216693Y0185041D02*
X0217624Y0185041D01*
X0218036Y0186039D02*
X0216281Y0186039D01*
X0215659Y0187038D02*
X0218658Y0187038D01*
X0219799Y0188037D02*
X0214518Y0188037D01*
X0209956Y0188037D02*
X0206644Y0188037D01*
X0207785Y0187038D02*
X0208815Y0187038D01*
X0202082Y0188037D02*
X0196283Y0188037D01*
X0196154Y0188102D02*
X0196751Y0187798D01*
X0197293Y0187404D01*
X0197767Y0186931D01*
X0198160Y0186389D01*
X0198465Y0185792D01*
X0198672Y0185155D01*
X0198753Y0184643D01*
X0195005Y0184643D01*
X0194036Y0184643D01*
X0194036Y0188391D01*
X0193524Y0188309D01*
X0192887Y0188102D01*
X0192290Y0187798D01*
X0191748Y0187404D01*
X0191274Y0186931D01*
X0190880Y0186389D01*
X0190576Y0185792D01*
X0190369Y0185155D01*
X0190288Y0184643D01*
X0194036Y0184643D01*
X0194036Y0183674D01*
X0190288Y0183674D01*
X0190369Y0183162D01*
X0190576Y0182525D01*
X0190880Y0181928D01*
X0191274Y0181386D01*
X0191748Y0180912D01*
X0192290Y0180518D01*
X0192887Y0180214D01*
X0193524Y0180007D01*
X0194036Y0179926D01*
X0194036Y0183674D01*
X0195005Y0183674D01*
X0195005Y0184643D01*
X0195005Y0188391D01*
X0195517Y0188309D01*
X0196154Y0188102D01*
X0195005Y0188037D02*
X0194036Y0188037D01*
X0194036Y0187038D02*
X0195005Y0187038D01*
X0195005Y0186039D02*
X0194036Y0186039D01*
X0194036Y0185041D02*
X0195005Y0185041D01*
X0195005Y0184042D02*
X0199907Y0184042D01*
X0199907Y0185041D02*
X0198690Y0185041D01*
X0198338Y0186039D02*
X0200319Y0186039D01*
X0200941Y0187038D02*
X0197659Y0187038D01*
X0192758Y0188037D02*
X0187011Y0188037D01*
X0186987Y0188013D02*
X0189249Y0190274D01*
X0190472Y0193229D01*
X0190472Y0196427D01*
X0189249Y0199381D01*
X0186987Y0201643D01*
X0184033Y0202867D01*
X0180835Y0202867D01*
X0177880Y0201643D01*
X0175619Y0199381D01*
X0174395Y0196427D01*
X0174395Y0193229D01*
X0175619Y0190274D01*
X0177880Y0188013D01*
X0180835Y0186789D01*
X0184033Y0186789D01*
X0186987Y0188013D01*
X0188009Y0189035D02*
X0228591Y0189035D01*
X0227592Y0190034D02*
X0189008Y0190034D01*
X0189562Y0191032D02*
X0227038Y0191032D01*
X0226624Y0192031D02*
X0189976Y0192031D01*
X0190390Y0193029D02*
X0226210Y0193029D01*
X0226128Y0194028D02*
X0190472Y0194028D01*
X0190472Y0195026D02*
X0226128Y0195026D01*
X0226128Y0196025D02*
X0190472Y0196025D01*
X0190225Y0197023D02*
X0226375Y0197023D01*
X0226788Y0198022D02*
X0189812Y0198022D01*
X0189398Y0199020D02*
X0227202Y0199020D01*
X0227989Y0200019D02*
X0188611Y0200019D01*
X0187613Y0201017D02*
X0228987Y0201017D01*
X0230513Y0202016D02*
X0186087Y0202016D01*
X0178781Y0202016D02*
X0013000Y0202016D01*
X0013000Y0201017D02*
X0177255Y0201017D01*
X0176256Y0200019D02*
X0013000Y0200019D01*
X0013000Y0199020D02*
X0175469Y0199020D01*
X0175056Y0198022D02*
X0013000Y0198022D01*
X0013000Y0197023D02*
X0174642Y0197023D01*
X0174395Y0196025D02*
X0013000Y0196025D01*
X0013000Y0195026D02*
X0174395Y0195026D01*
X0174395Y0194028D02*
X0013000Y0194028D01*
X0013000Y0193029D02*
X0174478Y0193029D01*
X0174892Y0192031D02*
X0013000Y0192031D01*
X0013000Y0191032D02*
X0175305Y0191032D01*
X0175860Y0190034D02*
X0013000Y0190034D01*
X0013000Y0189035D02*
X0176859Y0189035D01*
X0177857Y0188037D02*
X0013000Y0188037D01*
X0013000Y0187038D02*
X0180235Y0187038D01*
X0184633Y0187038D02*
X0191381Y0187038D01*
X0190702Y0186039D02*
X0013000Y0186039D01*
X0013000Y0185041D02*
X0190351Y0185041D01*
X0190408Y0183044D02*
X0013000Y0183044D01*
X0013000Y0184042D02*
X0194036Y0184042D01*
X0194036Y0183044D02*
X0195005Y0183044D01*
X0195005Y0183674D02*
X0195005Y0179926D01*
X0195517Y0180007D01*
X0196154Y0180214D01*
X0196751Y0180518D01*
X0197293Y0180912D01*
X0197767Y0181386D01*
X0198160Y0181928D01*
X0198465Y0182525D01*
X0198672Y0183162D01*
X0198753Y0183674D01*
X0195005Y0183674D01*
X0195005Y0182045D02*
X0194036Y0182045D01*
X0194036Y0181047D02*
X0195005Y0181047D01*
X0195005Y0180048D02*
X0194036Y0180048D01*
X0193397Y0180048D02*
X0013000Y0180048D01*
X0013000Y0179050D02*
X0404600Y0179050D01*
X0404600Y0180048D02*
X0390244Y0180048D01*
X0390214Y0180018D02*
X0391381Y0181185D01*
X0392013Y0182711D01*
X0392013Y0184362D01*
X0391381Y0185887D01*
X0390214Y0187054D01*
X0388688Y0187686D01*
X0387037Y0187686D01*
X0385512Y0187054D01*
X0384345Y0185887D01*
X0383713Y0184362D01*
X0383713Y0182711D01*
X0384345Y0181185D01*
X0385512Y0180018D01*
X0387037Y0179386D01*
X0388688Y0179386D01*
X0390214Y0180018D01*
X0391243Y0181047D02*
X0404600Y0181047D01*
X0404600Y0182045D02*
X0391737Y0182045D01*
X0392013Y0183044D02*
X0404600Y0183044D01*
X0404600Y0184042D02*
X0392013Y0184042D01*
X0391732Y0185041D02*
X0404600Y0185041D01*
X0404600Y0186039D02*
X0391229Y0186039D01*
X0390230Y0187038D02*
X0404600Y0187038D01*
X0404600Y0190034D02*
X0390229Y0190034D01*
X0390214Y0190018D02*
X0391381Y0191185D01*
X0392013Y0192711D01*
X0392013Y0194362D01*
X0391381Y0195887D01*
X0390214Y0197054D01*
X0388688Y0197686D01*
X0387037Y0197686D01*
X0385512Y0197054D01*
X0384345Y0195887D01*
X0383713Y0194362D01*
X0383713Y0192711D01*
X0384345Y0191185D01*
X0385512Y0190018D01*
X0387037Y0189386D01*
X0388688Y0189386D01*
X0390214Y0190018D01*
X0391228Y0191032D02*
X0404600Y0191032D01*
X0404600Y0192031D02*
X0391731Y0192031D01*
X0392013Y0193029D02*
X0404600Y0193029D01*
X0404600Y0194028D02*
X0392013Y0194028D01*
X0391738Y0195026D02*
X0404600Y0195026D01*
X0404600Y0196025D02*
X0391244Y0196025D01*
X0390245Y0197023D02*
X0404600Y0197023D01*
X0404600Y0200019D02*
X0390214Y0200019D01*
X0390214Y0200018D02*
X0391381Y0201185D01*
X0392013Y0202711D01*
X0392013Y0204362D01*
X0391381Y0205887D01*
X0390214Y0207054D01*
X0388688Y0207686D01*
X0387037Y0207686D01*
X0385512Y0207054D01*
X0384345Y0205887D01*
X0383713Y0204362D01*
X0383713Y0202711D01*
X0384345Y0201185D01*
X0385512Y0200018D01*
X0387037Y0199386D01*
X0388688Y0199386D01*
X0390214Y0200018D01*
X0391213Y0201017D02*
X0404600Y0201017D01*
X0404600Y0202016D02*
X0391725Y0202016D01*
X0392013Y0203014D02*
X0404600Y0203014D01*
X0404600Y0204013D02*
X0392013Y0204013D01*
X0391744Y0205011D02*
X0404600Y0205011D01*
X0404600Y0206010D02*
X0391258Y0206010D01*
X0390260Y0207008D02*
X0404600Y0207008D01*
X0404600Y0210004D02*
X0390179Y0210004D01*
X0390214Y0210018D02*
X0391381Y0211185D01*
X0392013Y0212711D01*
X0392013Y0214362D01*
X0391381Y0215887D01*
X0390214Y0217054D01*
X0388688Y0217686D01*
X0387037Y0217686D01*
X0385512Y0217054D01*
X0384345Y0215887D01*
X0383713Y0214362D01*
X0383713Y0212711D01*
X0384345Y0211185D01*
X0385512Y0210018D01*
X0387037Y0209386D01*
X0388688Y0209386D01*
X0390214Y0210018D01*
X0391198Y0211002D02*
X0404600Y0211002D01*
X0404600Y0212001D02*
X0391719Y0212001D01*
X0392013Y0212999D02*
X0404600Y0212999D01*
X0404600Y0213998D02*
X0392013Y0213998D01*
X0391750Y0214996D02*
X0404600Y0214996D01*
X0404600Y0215995D02*
X0391273Y0215995D01*
X0390275Y0216993D02*
X0404600Y0216993D01*
X0385451Y0216993D02*
X0380275Y0216993D01*
X0380214Y0217054D02*
X0378688Y0217686D01*
X0377037Y0217686D01*
X0375512Y0217054D01*
X0374345Y0215887D01*
X0373713Y0214362D01*
X0373713Y0212711D01*
X0374345Y0211185D01*
X0375512Y0210018D01*
X0377037Y0209386D01*
X0378688Y0209386D01*
X0380214Y0210018D01*
X0381381Y0211185D01*
X0382013Y0212711D01*
X0382013Y0214362D01*
X0381381Y0215887D01*
X0380214Y0217054D01*
X0381273Y0215995D02*
X0384453Y0215995D01*
X0383976Y0214996D02*
X0381750Y0214996D01*
X0382013Y0213998D02*
X0383713Y0213998D01*
X0383713Y0212999D02*
X0382013Y0212999D01*
X0381719Y0212001D02*
X0384007Y0212001D01*
X0384528Y0211002D02*
X0381198Y0211002D01*
X0380179Y0210004D02*
X0385547Y0210004D01*
X0385466Y0207008D02*
X0380260Y0207008D01*
X0380214Y0207054D02*
X0378688Y0207686D01*
X0377037Y0207686D01*
X0375512Y0207054D01*
X0374345Y0205887D01*
X0373713Y0204362D01*
X0373713Y0202711D01*
X0374345Y0201185D01*
X0375512Y0200018D01*
X0377037Y0199386D01*
X0378688Y0199386D01*
X0380214Y0200018D01*
X0381381Y0201185D01*
X0382013Y0202711D01*
X0382013Y0204362D01*
X0381381Y0205887D01*
X0380214Y0207054D01*
X0381258Y0206010D02*
X0384468Y0206010D01*
X0383982Y0205011D02*
X0381744Y0205011D01*
X0382013Y0204013D02*
X0383713Y0204013D01*
X0383713Y0203014D02*
X0382013Y0203014D01*
X0381725Y0202016D02*
X0384001Y0202016D01*
X0384513Y0201017D02*
X0381213Y0201017D01*
X0380214Y0200019D02*
X0385512Y0200019D01*
X0381381Y0195887D02*
X0380214Y0197054D01*
X0378688Y0197686D01*
X0377037Y0197686D01*
X0375512Y0197054D01*
X0374345Y0195887D01*
X0373713Y0194362D01*
X0373713Y0192711D01*
X0374345Y0191185D01*
X0375512Y0190018D01*
X0377037Y0189386D01*
X0378688Y0189386D01*
X0380214Y0190018D01*
X0381381Y0191185D01*
X0382013Y0192711D01*
X0382013Y0194362D01*
X0381381Y0195887D01*
X0381244Y0196025D02*
X0384482Y0196025D01*
X0383988Y0195026D02*
X0381738Y0195026D01*
X0382013Y0194028D02*
X0383713Y0194028D01*
X0383713Y0193029D02*
X0382013Y0193029D01*
X0381731Y0192031D02*
X0383995Y0192031D01*
X0384498Y0191032D02*
X0381228Y0191032D01*
X0380229Y0190034D02*
X0385497Y0190034D01*
X0385496Y0187038D02*
X0380230Y0187038D01*
X0380214Y0187054D02*
X0378688Y0187686D01*
X0377037Y0187686D01*
X0375512Y0187054D01*
X0374345Y0185887D01*
X0373713Y0184362D01*
X0373713Y0182711D01*
X0374345Y0181185D01*
X0375512Y0180018D01*
X0377037Y0179386D01*
X0378688Y0179386D01*
X0380214Y0180018D01*
X0381381Y0181185D01*
X0382013Y0182711D01*
X0382013Y0184362D01*
X0381381Y0185887D01*
X0380214Y0187054D01*
X0381229Y0186039D02*
X0384497Y0186039D01*
X0383994Y0185041D02*
X0381732Y0185041D01*
X0382013Y0184042D02*
X0383713Y0184042D01*
X0383713Y0183044D02*
X0382013Y0183044D01*
X0381737Y0182045D02*
X0383989Y0182045D01*
X0384483Y0181047D02*
X0381243Y0181047D01*
X0380244Y0180048D02*
X0385482Y0180048D01*
X0387037Y0177686D02*
X0385512Y0177054D01*
X0384345Y0175887D01*
X0383713Y0174362D01*
X0383713Y0172711D01*
X0384345Y0171185D01*
X0385512Y0170018D01*
X0387037Y0169386D01*
X0388688Y0169386D01*
X0390214Y0170018D01*
X0391381Y0171185D01*
X0392013Y0172711D01*
X0392013Y0174362D01*
X0391381Y0175887D01*
X0390214Y0177054D01*
X0388688Y0177686D01*
X0387037Y0177686D01*
X0385511Y0177053D02*
X0380215Y0177053D01*
X0380214Y0177054D02*
X0378688Y0177686D01*
X0377037Y0177686D01*
X0375512Y0177054D01*
X0374345Y0175887D01*
X0373713Y0174362D01*
X0373713Y0172711D01*
X0374345Y0171185D01*
X0375512Y0170018D01*
X0377037Y0169386D01*
X0378688Y0169386D01*
X0380214Y0170018D01*
X0381381Y0171185D01*
X0382013Y0172711D01*
X0382013Y0174362D01*
X0381381Y0175887D01*
X0380214Y0177054D01*
X0381214Y0176054D02*
X0384512Y0176054D01*
X0384001Y0175056D02*
X0381725Y0175056D01*
X0382013Y0174057D02*
X0383713Y0174057D01*
X0383713Y0173059D02*
X0382013Y0173059D01*
X0381744Y0172060D02*
X0383982Y0172060D01*
X0384468Y0171062D02*
X0381258Y0171062D01*
X0380259Y0170063D02*
X0385467Y0170063D01*
X0387037Y0167686D02*
X0385512Y0167054D01*
X0384345Y0165887D01*
X0383713Y0164362D01*
X0383713Y0162711D01*
X0384345Y0161185D01*
X0385512Y0160018D01*
X0387037Y0159386D01*
X0388688Y0159386D01*
X0390214Y0160018D01*
X0391381Y0161185D01*
X0392013Y0162711D01*
X0392013Y0164362D01*
X0391381Y0165887D01*
X0390214Y0167054D01*
X0388688Y0167686D01*
X0387037Y0167686D01*
X0385544Y0167068D02*
X0380182Y0167068D01*
X0380214Y0167054D02*
X0378688Y0167686D01*
X0377037Y0167686D01*
X0375512Y0167054D01*
X0374345Y0165887D01*
X0373713Y0164362D01*
X0373713Y0162711D01*
X0374345Y0161185D01*
X0375512Y0160018D01*
X0377037Y0159386D01*
X0378688Y0159386D01*
X0380214Y0160018D01*
X0381381Y0161185D01*
X0382013Y0162711D01*
X0382013Y0164362D01*
X0381381Y0165887D01*
X0380214Y0167054D01*
X0381199Y0166069D02*
X0384527Y0166069D01*
X0384007Y0165071D02*
X0381719Y0165071D01*
X0382013Y0164072D02*
X0383713Y0164072D01*
X0383713Y0163074D02*
X0382013Y0163074D01*
X0381750Y0162075D02*
X0383976Y0162075D01*
X0384454Y0161077D02*
X0381272Y0161077D01*
X0380274Y0160078D02*
X0385452Y0160078D01*
X0387037Y0157686D02*
X0385512Y0157054D01*
X0384345Y0155887D01*
X0383713Y0154362D01*
X0383713Y0152711D01*
X0384345Y0151185D01*
X0385512Y0150018D01*
X0387037Y0149386D01*
X0388688Y0149386D01*
X0390214Y0150018D01*
X0391381Y0151185D01*
X0392013Y0152711D01*
X0392013Y0154362D01*
X0391381Y0155887D01*
X0390214Y0157054D01*
X0388688Y0157686D01*
X0387037Y0157686D01*
X0385580Y0157083D02*
X0380146Y0157083D01*
X0380214Y0157054D02*
X0378688Y0157686D01*
X0377037Y0157686D01*
X0375512Y0157054D01*
X0374345Y0155887D01*
X0373713Y0154362D01*
X0373713Y0152711D01*
X0374345Y0151185D01*
X0375512Y0150018D01*
X0377037Y0149386D01*
X0378688Y0149386D01*
X0380214Y0150018D01*
X0381381Y0151185D01*
X0382013Y0152711D01*
X0382013Y0154362D01*
X0381381Y0155887D01*
X0380214Y0157054D01*
X0381184Y0156084D02*
X0384542Y0156084D01*
X0384013Y0155086D02*
X0381713Y0155086D01*
X0382013Y0154087D02*
X0383713Y0154087D01*
X0383713Y0153089D02*
X0382013Y0153089D01*
X0381756Y0152090D02*
X0383970Y0152090D01*
X0384439Y0151092D02*
X0381287Y0151092D01*
X0380289Y0150093D02*
X0385437Y0150093D01*
X0387037Y0147686D02*
X0385512Y0147054D01*
X0384345Y0145887D01*
X0383713Y0144362D01*
X0383713Y0142711D01*
X0384345Y0141185D01*
X0385512Y0140018D01*
X0387037Y0139386D01*
X0388688Y0139386D01*
X0390214Y0140018D01*
X0391381Y0141185D01*
X0392013Y0142711D01*
X0392013Y0144362D01*
X0391381Y0145887D01*
X0390214Y0147054D01*
X0388688Y0147686D01*
X0387037Y0147686D01*
X0385616Y0147098D02*
X0379587Y0147098D01*
X0379734Y0147037D02*
X0379015Y0147334D01*
X0378252Y0147486D01*
X0378238Y0147486D01*
X0378238Y0143911D01*
X0381813Y0143911D01*
X0381813Y0143925D01*
X0381661Y0144688D01*
X0381363Y0145407D01*
X0380931Y0146054D01*
X0380381Y0146604D01*
X0379734Y0147037D01*
X0380886Y0146099D02*
X0384557Y0146099D01*
X0384019Y0145101D02*
X0381490Y0145101D01*
X0381778Y0144102D02*
X0383713Y0144102D01*
X0383713Y0143103D02*
X0381804Y0143103D01*
X0381813Y0143147D02*
X0381813Y0143161D01*
X0378238Y0143161D01*
X0378238Y0139586D01*
X0378252Y0139586D01*
X0379015Y0139738D01*
X0379734Y0140036D01*
X0380381Y0140468D01*
X0380931Y0141018D01*
X0381363Y0141665D01*
X0381661Y0142384D01*
X0381813Y0143147D01*
X0381546Y0142105D02*
X0383964Y0142105D01*
X0384424Y0141106D02*
X0380990Y0141106D01*
X0379842Y0140108D02*
X0385422Y0140108D01*
X0387037Y0137686D02*
X0385512Y0137054D01*
X0384345Y0135887D01*
X0383713Y0134362D01*
X0383713Y0132711D01*
X0384345Y0131185D01*
X0385512Y0130018D01*
X0387037Y0129386D01*
X0388688Y0129386D01*
X0390214Y0130018D01*
X0391381Y0131185D01*
X0392013Y0132711D01*
X0392013Y0134362D01*
X0391381Y0135887D01*
X0390214Y0137054D01*
X0388688Y0137686D01*
X0387037Y0137686D01*
X0385652Y0137112D02*
X0380074Y0137112D01*
X0380214Y0137054D02*
X0378688Y0137686D01*
X0377037Y0137686D01*
X0375512Y0137054D01*
X0374345Y0135887D01*
X0373713Y0134362D01*
X0373713Y0132711D01*
X0374345Y0131185D01*
X0375512Y0130018D01*
X0377037Y0129386D01*
X0378688Y0129386D01*
X0380214Y0130018D01*
X0381381Y0131185D01*
X0382013Y0132711D01*
X0382013Y0134362D01*
X0381381Y0135887D01*
X0380214Y0137054D01*
X0381154Y0136114D02*
X0384572Y0136114D01*
X0384025Y0135115D02*
X0381701Y0135115D01*
X0382013Y0134117D02*
X0383713Y0134117D01*
X0383713Y0133118D02*
X0382013Y0133118D01*
X0381768Y0132120D02*
X0383958Y0132120D01*
X0384409Y0131121D02*
X0381317Y0131121D01*
X0380319Y0130123D02*
X0385407Y0130123D01*
X0387037Y0127686D02*
X0385512Y0127054D01*
X0384345Y0125887D01*
X0383713Y0124362D01*
X0383713Y0122711D01*
X0384345Y0121185D01*
X0385512Y0120018D01*
X0387037Y0119386D01*
X0388688Y0119386D01*
X0390214Y0120018D01*
X0391381Y0121185D01*
X0392013Y0122711D01*
X0392013Y0124362D01*
X0391381Y0125887D01*
X0390214Y0127054D01*
X0388688Y0127686D01*
X0387037Y0127686D01*
X0385688Y0127127D02*
X0380038Y0127127D01*
X0380214Y0127054D02*
X0378688Y0127686D01*
X0377037Y0127686D01*
X0375512Y0127054D01*
X0374345Y0125887D01*
X0373713Y0124362D01*
X0373713Y0122711D01*
X0374345Y0121185D01*
X0375512Y0120018D01*
X0377037Y0119386D01*
X0378688Y0119386D01*
X0380214Y0120018D01*
X0381381Y0121185D01*
X0382013Y0122711D01*
X0382013Y0124362D01*
X0381381Y0125887D01*
X0380214Y0127054D01*
X0381139Y0126129D02*
X0384587Y0126129D01*
X0384031Y0125130D02*
X0381695Y0125130D01*
X0382013Y0124132D02*
X0383713Y0124132D01*
X0383713Y0123133D02*
X0382013Y0123133D01*
X0381774Y0122135D02*
X0383952Y0122135D01*
X0384394Y0121136D02*
X0381332Y0121136D01*
X0380333Y0120138D02*
X0385392Y0120138D01*
X0387037Y0117686D02*
X0385512Y0117054D01*
X0384345Y0115887D01*
X0383713Y0114362D01*
X0383713Y0112711D01*
X0384345Y0111185D01*
X0385512Y0110018D01*
X0387037Y0109386D01*
X0388688Y0109386D01*
X0390214Y0110018D01*
X0391381Y0111185D01*
X0392013Y0112711D01*
X0392013Y0114362D01*
X0391381Y0115887D01*
X0390214Y0117054D01*
X0388688Y0117686D01*
X0387037Y0117686D01*
X0385724Y0117142D02*
X0379479Y0117142D01*
X0379734Y0117037D02*
X0379015Y0117334D01*
X0378252Y0117486D01*
X0378238Y0117486D01*
X0378238Y0113911D01*
X0381813Y0113911D01*
X0381813Y0113925D01*
X0381661Y0114688D01*
X0381363Y0115407D01*
X0380931Y0116054D01*
X0380381Y0116604D01*
X0379734Y0117037D01*
X0380842Y0116144D02*
X0384601Y0116144D01*
X0384038Y0115145D02*
X0381472Y0115145D01*
X0381769Y0114147D02*
X0383713Y0114147D01*
X0383713Y0113148D02*
X0381813Y0113148D01*
X0381813Y0113147D02*
X0381813Y0113161D01*
X0378238Y0113161D01*
X0378238Y0109586D01*
X0378252Y0109586D01*
X0379015Y0109738D01*
X0379734Y0110036D01*
X0380381Y0110468D01*
X0380931Y0111018D01*
X0381363Y0111665D01*
X0381661Y0112384D01*
X0381813Y0113147D01*
X0381564Y0112150D02*
X0383945Y0112150D01*
X0384379Y0111151D02*
X0381020Y0111151D01*
X0379909Y0110153D02*
X0385378Y0110153D01*
X0387037Y0107686D02*
X0385512Y0107054D01*
X0384345Y0105887D01*
X0383713Y0104362D01*
X0383713Y0102711D01*
X0384345Y0101185D01*
X0385512Y0100018D01*
X0387037Y0099386D01*
X0388688Y0099386D01*
X0390214Y0100018D01*
X0391381Y0101185D01*
X0392013Y0102711D01*
X0392013Y0104362D01*
X0391381Y0105887D01*
X0390214Y0107054D01*
X0388688Y0107686D01*
X0387037Y0107686D01*
X0385760Y0107157D02*
X0379966Y0107157D01*
X0380214Y0107054D02*
X0378688Y0107686D01*
X0377037Y0107686D01*
X0375512Y0107054D01*
X0374345Y0105887D01*
X0373713Y0104362D01*
X0373713Y0102711D01*
X0374345Y0101185D01*
X0375512Y0100018D01*
X0377037Y0099386D01*
X0378688Y0099386D01*
X0380214Y0100018D01*
X0381381Y0101185D01*
X0382013Y0102711D01*
X0382013Y0104362D01*
X0381381Y0105887D01*
X0380214Y0107054D01*
X0381110Y0106159D02*
X0384616Y0106159D01*
X0384044Y0105160D02*
X0381682Y0105160D01*
X0382013Y0104162D02*
X0383713Y0104162D01*
X0383713Y0103163D02*
X0382013Y0103163D01*
X0381787Y0102165D02*
X0383939Y0102165D01*
X0384364Y0101166D02*
X0381362Y0101166D01*
X0380363Y0100168D02*
X0385363Y0100168D01*
X0387037Y0097686D02*
X0385512Y0097054D01*
X0384345Y0095887D01*
X0383713Y0094362D01*
X0383713Y0092711D01*
X0384345Y0091185D01*
X0385512Y0090018D01*
X0387037Y0089386D01*
X0388688Y0089386D01*
X0390214Y0090018D01*
X0391381Y0091185D01*
X0392013Y0092711D01*
X0392013Y0094362D01*
X0391381Y0095887D01*
X0390214Y0097054D01*
X0388688Y0097686D01*
X0387037Y0097686D01*
X0385796Y0097172D02*
X0379930Y0097172D01*
X0380214Y0097054D02*
X0378688Y0097686D01*
X0377037Y0097686D01*
X0375512Y0097054D01*
X0374345Y0095887D01*
X0373713Y0094362D01*
X0373713Y0092711D01*
X0374345Y0091185D01*
X0375512Y0090018D01*
X0377037Y0089386D01*
X0378688Y0089386D01*
X0380214Y0090018D01*
X0381381Y0091185D01*
X0382013Y0092711D01*
X0382013Y0094362D01*
X0381381Y0095887D01*
X0380214Y0097054D01*
X0381095Y0096173D02*
X0384631Y0096173D01*
X0384050Y0095175D02*
X0381676Y0095175D01*
X0382013Y0094176D02*
X0383713Y0094176D01*
X0383713Y0093178D02*
X0382013Y0093178D01*
X0381793Y0092179D02*
X0383933Y0092179D01*
X0384349Y0091181D02*
X0381377Y0091181D01*
X0380378Y0090182D02*
X0385348Y0090182D01*
X0387037Y0087686D02*
X0385512Y0087054D01*
X0384345Y0085887D01*
X0383713Y0084362D01*
X0383713Y0082711D01*
X0384345Y0081185D01*
X0385512Y0080018D01*
X0387037Y0079386D01*
X0388688Y0079386D01*
X0390214Y0080018D01*
X0391381Y0081185D01*
X0392013Y0082711D01*
X0392013Y0084362D01*
X0391381Y0085887D01*
X0390214Y0087054D01*
X0388688Y0087686D01*
X0387037Y0087686D01*
X0385832Y0087187D02*
X0379894Y0087187D01*
X0380214Y0087054D02*
X0378688Y0087686D01*
X0377037Y0087686D01*
X0375512Y0087054D01*
X0374345Y0085887D01*
X0373713Y0084362D01*
X0373713Y0082711D01*
X0374345Y0081185D01*
X0375512Y0080018D01*
X0377037Y0079386D01*
X0378688Y0079386D01*
X0380214Y0080018D01*
X0381381Y0081185D01*
X0382013Y0082711D01*
X0382013Y0084362D01*
X0381381Y0085887D01*
X0380214Y0087054D01*
X0381080Y0086188D02*
X0384646Y0086188D01*
X0384056Y0085190D02*
X0381670Y0085190D01*
X0382013Y0084191D02*
X0383713Y0084191D01*
X0383713Y0083193D02*
X0382013Y0083193D01*
X0381799Y0082194D02*
X0383927Y0082194D01*
X0384341Y0081196D02*
X0381385Y0081196D01*
X0380393Y0080197D02*
X0385333Y0080197D01*
X0387037Y0077686D02*
X0385512Y0077054D01*
X0384345Y0075887D01*
X0383713Y0074362D01*
X0383713Y0072711D01*
X0384345Y0071185D01*
X0385512Y0070018D01*
X0387037Y0069386D01*
X0388688Y0069386D01*
X0390214Y0070018D01*
X0391381Y0071185D01*
X0392013Y0072711D01*
X0392013Y0074362D01*
X0391381Y0075887D01*
X0390214Y0077054D01*
X0388688Y0077686D01*
X0387037Y0077686D01*
X0385868Y0077202D02*
X0379858Y0077202D01*
X0380214Y0077054D02*
X0378688Y0077686D01*
X0377037Y0077686D01*
X0375512Y0077054D01*
X0374345Y0075887D01*
X0373713Y0074362D01*
X0373713Y0072711D01*
X0374345Y0071185D01*
X0375512Y0070018D01*
X0377037Y0069386D01*
X0378688Y0069386D01*
X0380214Y0070018D01*
X0381381Y0071185D01*
X0382013Y0072711D01*
X0382013Y0074362D01*
X0381381Y0075887D01*
X0380214Y0077054D01*
X0381065Y0076203D02*
X0384661Y0076203D01*
X0384062Y0075205D02*
X0381664Y0075205D01*
X0382013Y0074206D02*
X0383713Y0074206D01*
X0383713Y0073208D02*
X0382013Y0073208D01*
X0381805Y0072209D02*
X0383921Y0072209D01*
X0384334Y0071211D02*
X0381392Y0071211D01*
X0380408Y0070212D02*
X0385318Y0070212D01*
X0385904Y0067217D02*
X0379822Y0067217D01*
X0380214Y0067054D02*
X0378688Y0067686D01*
X0377037Y0067686D01*
X0375512Y0067054D01*
X0374345Y0065887D01*
X0373713Y0064362D01*
X0373713Y0062711D01*
X0374345Y0061185D01*
X0375512Y0060018D01*
X0377037Y0059386D01*
X0378688Y0059386D01*
X0380214Y0060018D01*
X0381381Y0061185D01*
X0382013Y0062711D01*
X0382013Y0064362D01*
X0381381Y0065887D01*
X0380214Y0067054D01*
X0381050Y0066218D02*
X0384676Y0066218D01*
X0384345Y0065887D02*
X0383713Y0064362D01*
X0383713Y0062711D01*
X0384345Y0061185D01*
X0385512Y0060018D01*
X0387037Y0059386D01*
X0388688Y0059386D01*
X0390214Y0060018D01*
X0391381Y0061185D01*
X0392013Y0062711D01*
X0392013Y0064362D01*
X0391381Y0065887D01*
X0390214Y0067054D01*
X0388688Y0067686D01*
X0387037Y0067686D01*
X0385512Y0067054D01*
X0384345Y0065887D01*
X0384068Y0065220D02*
X0381658Y0065220D01*
X0382013Y0064221D02*
X0383713Y0064221D01*
X0383713Y0063223D02*
X0382013Y0063223D01*
X0381811Y0062224D02*
X0383915Y0062224D01*
X0384328Y0061226D02*
X0381398Y0061226D01*
X0380423Y0060227D02*
X0385303Y0060227D01*
X0385940Y0057232D02*
X0379786Y0057232D01*
X0380214Y0057054D02*
X0378688Y0057686D01*
X0377037Y0057686D01*
X0375512Y0057054D01*
X0374345Y0055887D01*
X0373713Y0054362D01*
X0373713Y0052711D01*
X0374345Y0051185D01*
X0375512Y0050018D01*
X0377037Y0049386D01*
X0378688Y0049386D01*
X0380214Y0050018D01*
X0381381Y0051185D01*
X0382013Y0052711D01*
X0382013Y0054362D01*
X0381381Y0055887D01*
X0380214Y0057054D01*
X0381035Y0056233D02*
X0384691Y0056233D01*
X0384345Y0055887D02*
X0383713Y0054362D01*
X0383713Y0052711D01*
X0384345Y0051185D01*
X0385512Y0050018D01*
X0387037Y0049386D01*
X0388688Y0049386D01*
X0390214Y0050018D01*
X0391381Y0051185D01*
X0392013Y0052711D01*
X0392013Y0054362D01*
X0391381Y0055887D01*
X0390214Y0057054D01*
X0388688Y0057686D01*
X0387037Y0057686D01*
X0385512Y0057054D01*
X0384345Y0055887D01*
X0384075Y0055234D02*
X0381651Y0055234D01*
X0382013Y0054236D02*
X0383713Y0054236D01*
X0383713Y0053237D02*
X0382013Y0053237D01*
X0381818Y0052239D02*
X0383908Y0052239D01*
X0384322Y0051240D02*
X0381404Y0051240D01*
X0380438Y0050242D02*
X0385288Y0050242D01*
X0385976Y0047246D02*
X0379750Y0047246D01*
X0380214Y0047054D02*
X0378688Y0047686D01*
X0377037Y0047686D01*
X0375512Y0047054D01*
X0374345Y0045887D01*
X0373713Y0044362D01*
X0373713Y0042711D01*
X0374345Y0041185D01*
X0375512Y0040018D01*
X0377037Y0039386D01*
X0378688Y0039386D01*
X0380214Y0040018D01*
X0381381Y0041185D01*
X0382013Y0042711D01*
X0382013Y0044362D01*
X0381381Y0045887D01*
X0380214Y0047054D01*
X0381020Y0046248D02*
X0384706Y0046248D01*
X0384345Y0045887D02*
X0383713Y0044362D01*
X0383713Y0042711D01*
X0384345Y0041185D01*
X0385512Y0040018D01*
X0387037Y0039386D01*
X0388688Y0039386D01*
X0390214Y0040018D01*
X0391381Y0041185D01*
X0392013Y0042711D01*
X0392013Y0044362D01*
X0391381Y0045887D01*
X0390214Y0047054D01*
X0388688Y0047686D01*
X0387037Y0047686D01*
X0385512Y0047054D01*
X0384345Y0045887D01*
X0384081Y0045249D02*
X0381645Y0045249D01*
X0382013Y0044251D02*
X0383713Y0044251D01*
X0383713Y0043252D02*
X0382013Y0043252D01*
X0381824Y0042254D02*
X0383902Y0042254D01*
X0384316Y0041255D02*
X0381410Y0041255D01*
X0380453Y0040257D02*
X0385273Y0040257D01*
X0390453Y0040257D02*
X0404600Y0040257D01*
X0404600Y0041255D02*
X0391410Y0041255D01*
X0391824Y0042254D02*
X0404600Y0042254D01*
X0404600Y0043252D02*
X0392013Y0043252D01*
X0392013Y0044251D02*
X0404600Y0044251D01*
X0404600Y0045249D02*
X0391645Y0045249D01*
X0391020Y0046248D02*
X0404600Y0046248D01*
X0404600Y0047246D02*
X0389750Y0047246D01*
X0390438Y0050242D02*
X0404600Y0050242D01*
X0404600Y0051240D02*
X0391404Y0051240D01*
X0391818Y0052239D02*
X0404600Y0052239D01*
X0404600Y0053237D02*
X0392013Y0053237D01*
X0392013Y0054236D02*
X0404600Y0054236D01*
X0404600Y0055234D02*
X0391651Y0055234D01*
X0391035Y0056233D02*
X0404600Y0056233D01*
X0404600Y0057232D02*
X0389786Y0057232D01*
X0390423Y0060227D02*
X0404600Y0060227D01*
X0404600Y0059229D02*
X0065136Y0059229D01*
X0064420Y0058512D02*
X0066061Y0060153D01*
X0066949Y0062297D01*
X0066949Y0064618D01*
X0066061Y0066762D01*
X0064420Y0068403D01*
X0063411Y0068821D01*
X0063751Y0068962D01*
X0065059Y0070271D01*
X0065768Y0071981D01*
X0065768Y0073832D01*
X0065059Y0075542D01*
X0063751Y0076851D01*
X0063411Y0076991D01*
X0064420Y0077409D01*
X0066061Y0079050D01*
X0066949Y0081195D01*
X0066949Y0083516D01*
X0066061Y0085660D01*
X0064420Y0087301D01*
X0063528Y0087670D01*
X0064420Y0088039D01*
X0066061Y0089680D01*
X0066949Y0091825D01*
X0066949Y0094145D01*
X0066061Y0096290D01*
X0064420Y0097931D01*
X0062275Y0098819D01*
X0059955Y0098819D01*
X0057810Y0097931D01*
X0056169Y0096290D01*
X0055281Y0094145D01*
X0055281Y0091825D01*
X0056169Y0089680D01*
X0057810Y0088039D01*
X0058702Y0087670D01*
X0057810Y0087301D01*
X0056169Y0085660D01*
X0055281Y0083516D01*
X0055281Y0081195D01*
X0056169Y0079050D01*
X0057810Y0077409D01*
X0058819Y0076991D01*
X0058479Y0076851D01*
X0057171Y0075542D01*
X0056462Y0073832D01*
X0056462Y0071981D01*
X0057171Y0070271D01*
X0058479Y0068962D01*
X0058819Y0068821D01*
X0057810Y0068403D01*
X0056169Y0066762D01*
X0055281Y0064618D01*
X0055281Y0062297D01*
X0056169Y0060153D01*
X0057810Y0058512D01*
X0058702Y0058143D01*
X0057810Y0057773D01*
X0056169Y0056132D01*
X0055281Y0053988D01*
X0055281Y0051667D01*
X0056169Y0049523D01*
X0057810Y0047882D01*
X0059955Y0046994D01*
X0062275Y0046994D01*
X0064420Y0047882D01*
X0066061Y0049523D01*
X0066949Y0051667D01*
X0066949Y0053988D01*
X0066061Y0056132D01*
X0064420Y0057773D01*
X0063528Y0058143D01*
X0064420Y0058512D01*
X0063739Y0058230D02*
X0142129Y0058230D01*
X0142157Y0058258D02*
X0141341Y0057443D01*
X0140900Y0056377D01*
X0140900Y0055223D01*
X0141341Y0054157D01*
X0142157Y0053341D01*
X0143223Y0052900D01*
X0144377Y0052900D01*
X0145443Y0053341D01*
X0146258Y0054157D01*
X0146700Y0055223D01*
X0146700Y0056377D01*
X0146258Y0057443D01*
X0145443Y0058258D01*
X0144377Y0058700D01*
X0143223Y0058700D01*
X0142157Y0058258D01*
X0141254Y0057232D02*
X0064961Y0057232D01*
X0065960Y0056233D02*
X0140900Y0056233D01*
X0140900Y0055234D02*
X0066432Y0055234D01*
X0066846Y0054236D02*
X0141309Y0054236D01*
X0142408Y0053237D02*
X0066949Y0053237D01*
X0066949Y0052239D02*
X0273908Y0052239D01*
X0273713Y0052711D02*
X0274345Y0051185D01*
X0275512Y0050018D01*
X0277038Y0049386D01*
X0278688Y0049386D01*
X0280214Y0050018D01*
X0281381Y0051185D01*
X0282013Y0052711D01*
X0282013Y0054362D01*
X0281381Y0055887D01*
X0280214Y0057054D01*
X0278688Y0057686D01*
X0277038Y0057686D01*
X0275512Y0057054D01*
X0274345Y0055887D01*
X0273713Y0054362D01*
X0273713Y0052711D01*
X0273713Y0053237D02*
X0145192Y0053237D01*
X0146291Y0054236D02*
X0273713Y0054236D01*
X0274075Y0055234D02*
X0146700Y0055234D01*
X0146700Y0056233D02*
X0274691Y0056233D01*
X0275940Y0057232D02*
X0146346Y0057232D01*
X0145471Y0058230D02*
X0404600Y0058230D01*
X0404600Y0061226D02*
X0391398Y0061226D01*
X0391811Y0062224D02*
X0404600Y0062224D01*
X0404600Y0063223D02*
X0392013Y0063223D01*
X0392013Y0064221D02*
X0404600Y0064221D01*
X0404600Y0065220D02*
X0391658Y0065220D01*
X0391050Y0066218D02*
X0404600Y0066218D01*
X0404600Y0067217D02*
X0389822Y0067217D01*
X0390408Y0070212D02*
X0404600Y0070212D01*
X0404600Y0069214D02*
X0110613Y0069214D01*
X0110834Y0068993D02*
X0109993Y0069834D01*
X0108895Y0070289D01*
X0107705Y0070289D01*
X0106607Y0069834D01*
X0105766Y0068993D01*
X0105311Y0067895D01*
X0105311Y0066705D01*
X0105766Y0065607D01*
X0106607Y0064766D01*
X0107705Y0064311D01*
X0108895Y0064311D01*
X0109993Y0064766D01*
X0110834Y0065607D01*
X0111289Y0066705D01*
X0111289Y0067895D01*
X0110834Y0068993D01*
X0111156Y0068215D02*
X0404600Y0068215D01*
X0404600Y0071211D02*
X0391392Y0071211D01*
X0391805Y0072209D02*
X0404600Y0072209D01*
X0404600Y0073208D02*
X0392013Y0073208D01*
X0392013Y0074206D02*
X0404600Y0074206D01*
X0404600Y0075205D02*
X0391664Y0075205D01*
X0391065Y0076203D02*
X0404600Y0076203D01*
X0404600Y0077202D02*
X0389858Y0077202D01*
X0390393Y0080197D02*
X0404600Y0080197D01*
X0404600Y0079199D02*
X0066122Y0079199D01*
X0066536Y0080197D02*
X0275333Y0080197D01*
X0275512Y0080018D02*
X0277038Y0079386D01*
X0278688Y0079386D01*
X0280214Y0080018D01*
X0281381Y0081185D01*
X0282013Y0082711D01*
X0282013Y0084362D01*
X0281381Y0085887D01*
X0280214Y0087054D01*
X0278688Y0087686D01*
X0277038Y0087686D01*
X0275512Y0087054D01*
X0274345Y0085887D01*
X0273713Y0084362D01*
X0273713Y0082711D01*
X0274345Y0081185D01*
X0275512Y0080018D01*
X0274341Y0081196D02*
X0066949Y0081196D01*
X0066949Y0082194D02*
X0273927Y0082194D01*
X0273713Y0083193D02*
X0066949Y0083193D01*
X0066669Y0084191D02*
X0273713Y0084191D01*
X0274056Y0085190D02*
X0066255Y0085190D01*
X0065532Y0086188D02*
X0274646Y0086188D01*
X0275832Y0087187D02*
X0206914Y0087187D01*
X0207334Y0087607D02*
X0207789Y0088705D01*
X0207789Y0089895D01*
X0207334Y0090993D01*
X0206493Y0091834D01*
X0205395Y0092289D01*
X0204205Y0092289D01*
X0203107Y0091834D01*
X0202266Y0090993D01*
X0201811Y0089895D01*
X0201811Y0088705D01*
X0202266Y0087607D01*
X0203107Y0086766D01*
X0204205Y0086311D01*
X0205395Y0086311D01*
X0206493Y0086766D01*
X0207334Y0087607D01*
X0207574Y0088185D02*
X0404600Y0088185D01*
X0404600Y0087187D02*
X0389894Y0087187D01*
X0391080Y0086188D02*
X0404600Y0086188D01*
X0404600Y0085190D02*
X0391670Y0085190D01*
X0392013Y0084191D02*
X0404600Y0084191D01*
X0404600Y0083193D02*
X0392013Y0083193D01*
X0391799Y0082194D02*
X0404600Y0082194D01*
X0404600Y0081196D02*
X0391385Y0081196D01*
X0390378Y0090182D02*
X0404600Y0090182D01*
X0404600Y0089184D02*
X0207789Y0089184D01*
X0207670Y0090182D02*
X0275348Y0090182D01*
X0275512Y0090018D02*
X0277038Y0089386D01*
X0278688Y0089386D01*
X0280214Y0090018D01*
X0281381Y0091185D01*
X0282013Y0092711D01*
X0282013Y0094362D01*
X0281381Y0095887D01*
X0280214Y0097054D01*
X0278688Y0097686D01*
X0277038Y0097686D01*
X0275512Y0097054D01*
X0274345Y0095887D01*
X0273713Y0094362D01*
X0273713Y0092711D01*
X0274345Y0091185D01*
X0275512Y0090018D01*
X0274349Y0091181D02*
X0207146Y0091181D01*
X0205659Y0092179D02*
X0273933Y0092179D01*
X0273713Y0093178D02*
X0165149Y0093178D01*
X0165334Y0092993D02*
X0164493Y0093834D01*
X0163395Y0094289D01*
X0162205Y0094289D01*
X0161107Y0093834D01*
X0160266Y0092993D01*
X0159811Y0091895D01*
X0159811Y0090705D01*
X0160266Y0089607D01*
X0161107Y0088766D01*
X0162205Y0088311D01*
X0163395Y0088311D01*
X0164493Y0088766D01*
X0165334Y0089607D01*
X0165789Y0090705D01*
X0165789Y0091895D01*
X0165334Y0092993D01*
X0165671Y0092179D02*
X0203941Y0092179D01*
X0202454Y0091181D02*
X0165789Y0091181D01*
X0165572Y0090182D02*
X0201930Y0090182D01*
X0201811Y0089184D02*
X0164911Y0089184D01*
X0160689Y0089184D02*
X0065564Y0089184D01*
X0066269Y0090182D02*
X0160028Y0090182D01*
X0159811Y0091181D02*
X0066682Y0091181D01*
X0066949Y0092179D02*
X0159929Y0092179D01*
X0160451Y0093178D02*
X0066949Y0093178D01*
X0066936Y0094176D02*
X0161934Y0094176D01*
X0163666Y0094176D02*
X0273713Y0094176D01*
X0274050Y0095175D02*
X0066522Y0095175D01*
X0066109Y0096173D02*
X0274631Y0096173D01*
X0275796Y0097172D02*
X0065178Y0097172D01*
X0063841Y0098170D02*
X0404600Y0098170D01*
X0404600Y0097172D02*
X0389930Y0097172D01*
X0391095Y0096173D02*
X0404600Y0096173D01*
X0404600Y0095175D02*
X0391676Y0095175D01*
X0392013Y0094176D02*
X0404600Y0094176D01*
X0404600Y0093178D02*
X0392013Y0093178D01*
X0391793Y0092179D02*
X0404600Y0092179D01*
X0404600Y0091181D02*
X0391377Y0091181D01*
X0390363Y0100168D02*
X0404600Y0100168D01*
X0404600Y0101166D02*
X0391362Y0101166D01*
X0391787Y0102165D02*
X0404600Y0102165D01*
X0404600Y0103163D02*
X0392013Y0103163D01*
X0392013Y0104162D02*
X0404600Y0104162D01*
X0404600Y0105160D02*
X0391682Y0105160D01*
X0391110Y0106159D02*
X0404600Y0106159D01*
X0404600Y0107157D02*
X0389966Y0107157D01*
X0390348Y0110153D02*
X0404600Y0110153D01*
X0404600Y0111151D02*
X0391347Y0111151D01*
X0391781Y0112150D02*
X0404600Y0112150D01*
X0404600Y0113148D02*
X0392013Y0113148D01*
X0392013Y0114147D02*
X0404600Y0114147D01*
X0404600Y0115145D02*
X0391688Y0115145D01*
X0391124Y0116144D02*
X0404600Y0116144D01*
X0404600Y0117142D02*
X0390002Y0117142D01*
X0390333Y0120138D02*
X0404600Y0120138D01*
X0404600Y0121136D02*
X0391332Y0121136D01*
X0391774Y0122135D02*
X0404600Y0122135D01*
X0404600Y0123133D02*
X0392013Y0123133D01*
X0392013Y0124132D02*
X0404600Y0124132D01*
X0404600Y0125130D02*
X0391695Y0125130D01*
X0391139Y0126129D02*
X0404600Y0126129D01*
X0404600Y0127127D02*
X0390038Y0127127D01*
X0390319Y0130123D02*
X0404600Y0130123D01*
X0404600Y0131121D02*
X0391317Y0131121D01*
X0391768Y0132120D02*
X0404600Y0132120D01*
X0404600Y0133118D02*
X0392013Y0133118D01*
X0392013Y0134117D02*
X0404600Y0134117D01*
X0404600Y0135115D02*
X0391701Y0135115D01*
X0391154Y0136114D02*
X0404600Y0136114D01*
X0404600Y0137112D02*
X0390074Y0137112D01*
X0390304Y0140108D02*
X0404600Y0140108D01*
X0404600Y0141106D02*
X0391302Y0141106D01*
X0391762Y0142105D02*
X0404600Y0142105D01*
X0404600Y0143103D02*
X0392013Y0143103D01*
X0392013Y0144102D02*
X0404600Y0144102D01*
X0404600Y0145101D02*
X0391707Y0145101D01*
X0391169Y0146099D02*
X0404600Y0146099D01*
X0404600Y0147098D02*
X0390110Y0147098D01*
X0390289Y0150093D02*
X0404600Y0150093D01*
X0404600Y0149095D02*
X0104191Y0149095D01*
X0103695Y0149300D02*
X0101905Y0149300D01*
X0100251Y0148615D01*
X0098985Y0147349D01*
X0098300Y0145695D01*
X0098300Y0143905D01*
X0098985Y0142251D01*
X0100251Y0140985D01*
X0101905Y0140300D01*
X0103695Y0140300D01*
X0105349Y0140985D01*
X0106615Y0142251D01*
X0107300Y0143905D01*
X0107300Y0145695D01*
X0106615Y0147349D01*
X0105349Y0148615D01*
X0103695Y0149300D01*
X0101409Y0149095D02*
X0094191Y0149095D01*
X0093695Y0149300D02*
X0091905Y0149300D01*
X0090251Y0148615D01*
X0088985Y0147349D01*
X0088300Y0145695D01*
X0088300Y0143905D01*
X0088985Y0142251D01*
X0090251Y0140985D01*
X0091905Y0140300D01*
X0093695Y0140300D01*
X0095349Y0140985D01*
X0096615Y0142251D01*
X0097300Y0143905D01*
X0097300Y0145695D01*
X0096615Y0147349D01*
X0095349Y0148615D01*
X0093695Y0149300D01*
X0091409Y0149095D02*
X0084191Y0149095D01*
X0083695Y0149300D02*
X0081905Y0149300D01*
X0080251Y0148615D01*
X0078985Y0147349D01*
X0078300Y0145695D01*
X0078300Y0143905D01*
X0078985Y0142251D01*
X0080251Y0140985D01*
X0081905Y0140300D01*
X0083695Y0140300D01*
X0085349Y0140985D01*
X0086615Y0142251D01*
X0087300Y0143905D01*
X0087300Y0145695D01*
X0086615Y0147349D01*
X0085349Y0148615D01*
X0083695Y0149300D01*
X0081409Y0149095D02*
X0074191Y0149095D01*
X0073695Y0149300D02*
X0071905Y0149300D01*
X0070251Y0148615D01*
X0068985Y0147349D01*
X0068300Y0145695D01*
X0068300Y0143905D01*
X0068985Y0142251D01*
X0070251Y0140985D01*
X0071905Y0140300D01*
X0073695Y0140300D01*
X0075349Y0140985D01*
X0076615Y0142251D01*
X0077300Y0143905D01*
X0077300Y0145695D01*
X0076615Y0147349D01*
X0075349Y0148615D01*
X0073695Y0149300D01*
X0071409Y0149095D02*
X0064191Y0149095D01*
X0063695Y0149300D02*
X0061905Y0149300D01*
X0060251Y0148615D01*
X0058985Y0147349D01*
X0058300Y0145695D01*
X0058300Y0143905D01*
X0058985Y0142251D01*
X0060251Y0140985D01*
X0061905Y0140300D01*
X0063695Y0140300D01*
X0065349Y0140985D01*
X0066615Y0142251D01*
X0067300Y0143905D01*
X0067300Y0145695D01*
X0066615Y0147349D01*
X0065349Y0148615D01*
X0063695Y0149300D01*
X0061409Y0149095D02*
X0054191Y0149095D01*
X0053695Y0149300D02*
X0051905Y0149300D01*
X0050251Y0148615D01*
X0048985Y0147349D01*
X0048300Y0145695D01*
X0048300Y0143905D01*
X0048985Y0142251D01*
X0050251Y0140985D01*
X0051905Y0140300D01*
X0053695Y0140300D01*
X0055349Y0140985D01*
X0056615Y0142251D01*
X0057300Y0143905D01*
X0057300Y0145695D01*
X0056615Y0147349D01*
X0055349Y0148615D01*
X0053695Y0149300D01*
X0051409Y0149095D02*
X0044191Y0149095D01*
X0043695Y0149300D02*
X0041905Y0149300D01*
X0040251Y0148615D01*
X0038985Y0147349D01*
X0038300Y0145695D01*
X0038300Y0143905D01*
X0038985Y0142251D01*
X0040251Y0140985D01*
X0041905Y0140300D01*
X0043695Y0140300D01*
X0045349Y0140985D01*
X0046615Y0142251D01*
X0047300Y0143905D01*
X0047300Y0145695D01*
X0046615Y0147349D01*
X0045349Y0148615D01*
X0043695Y0149300D01*
X0041409Y0149095D02*
X0013000Y0149095D01*
X0013000Y0150093D02*
X0275437Y0150093D01*
X0275512Y0150018D02*
X0277038Y0149386D01*
X0278688Y0149386D01*
X0280214Y0150018D01*
X0281381Y0151185D01*
X0282013Y0152711D01*
X0282013Y0154362D01*
X0281381Y0155887D01*
X0280214Y0157054D01*
X0278688Y0157686D01*
X0277038Y0157686D01*
X0275512Y0157054D01*
X0274345Y0155887D01*
X0273713Y0154362D01*
X0273713Y0152711D01*
X0274345Y0151185D01*
X0275512Y0150018D01*
X0274439Y0151092D02*
X0013000Y0151092D01*
X0013000Y0152090D02*
X0273970Y0152090D01*
X0273713Y0153089D02*
X0013000Y0153089D01*
X0013000Y0154087D02*
X0273713Y0154087D01*
X0274013Y0155086D02*
X0013000Y0155086D01*
X0013000Y0156084D02*
X0274542Y0156084D01*
X0275580Y0157083D02*
X0013000Y0157083D01*
X0013000Y0158081D02*
X0404600Y0158081D01*
X0404600Y0157083D02*
X0390146Y0157083D01*
X0391184Y0156084D02*
X0404600Y0156084D01*
X0404600Y0155086D02*
X0391713Y0155086D01*
X0392013Y0154087D02*
X0404600Y0154087D01*
X0404600Y0153089D02*
X0392013Y0153089D01*
X0391756Y0152090D02*
X0404600Y0152090D01*
X0404600Y0151092D02*
X0391287Y0151092D01*
X0404600Y0148096D02*
X0115579Y0148096D01*
X0115601Y0148080D02*
X0115054Y0148478D01*
X0114451Y0148785D01*
X0113807Y0148994D01*
X0113300Y0149074D01*
X0113300Y0145300D01*
X0112300Y0145300D01*
X0112300Y0149074D01*
X0111793Y0148994D01*
X0111149Y0148785D01*
X0110546Y0148478D01*
X0109999Y0148080D01*
X0109520Y0147601D01*
X0109122Y0147054D01*
X0108815Y0146451D01*
X0108606Y0145807D01*
X0108526Y0145300D01*
X0112300Y0145300D01*
X0112300Y0144300D01*
X0108526Y0144300D01*
X0108606Y0143793D01*
X0108815Y0143149D01*
X0109122Y0142546D01*
X0109520Y0141999D01*
X0109999Y0141520D01*
X0110546Y0141122D01*
X0111149Y0140815D01*
X0111793Y0140606D01*
X0112300Y0140526D01*
X0112300Y0144300D01*
X0113300Y0144300D01*
X0113300Y0145300D01*
X0117074Y0145300D01*
X0116994Y0145807D01*
X0116785Y0146451D01*
X0116478Y0147054D01*
X0116080Y0147601D01*
X0115601Y0148080D01*
X0116446Y0147098D02*
X0276139Y0147098D01*
X0275992Y0147037D02*
X0275345Y0146604D01*
X0274795Y0146054D01*
X0274363Y0145407D01*
X0274065Y0144688D01*
X0273913Y0143925D01*
X0273913Y0143911D01*
X0277488Y0143911D01*
X0277488Y0143161D01*
X0278238Y0143161D01*
X0278238Y0139586D01*
X0278252Y0139586D01*
X0279015Y0139738D01*
X0279734Y0140036D01*
X0280381Y0140468D01*
X0280931Y0141018D01*
X0281363Y0141665D01*
X0281661Y0142384D01*
X0281813Y0143147D01*
X0281813Y0143161D01*
X0278238Y0143161D01*
X0278238Y0143911D01*
X0281813Y0143911D01*
X0281813Y0143925D01*
X0281661Y0144688D01*
X0281363Y0145407D01*
X0280931Y0146054D01*
X0280381Y0146604D01*
X0279734Y0147037D01*
X0279015Y0147334D01*
X0278252Y0147486D01*
X0278238Y0147486D01*
X0278238Y0143911D01*
X0277488Y0143911D01*
X0277488Y0147486D01*
X0277474Y0147486D01*
X0276711Y0147334D01*
X0275992Y0147037D01*
X0274840Y0146099D02*
X0116899Y0146099D01*
X0117074Y0144300D02*
X0113300Y0144300D01*
X0113300Y0140526D01*
X0113807Y0140606D01*
X0114451Y0140815D01*
X0115054Y0141122D01*
X0115601Y0141520D01*
X0116080Y0141999D01*
X0116478Y0142546D01*
X0116785Y0143149D01*
X0116994Y0143793D01*
X0117074Y0144300D01*
X0117043Y0144102D02*
X0273948Y0144102D01*
X0273913Y0143161D02*
X0273913Y0143147D01*
X0274065Y0142384D01*
X0274363Y0141665D01*
X0274795Y0141018D01*
X0275345Y0140468D01*
X0275992Y0140036D01*
X0276711Y0139738D01*
X0277474Y0139586D01*
X0277488Y0139586D01*
X0277488Y0143161D01*
X0273913Y0143161D01*
X0273922Y0143103D02*
X0116762Y0143103D01*
X0116157Y0142105D02*
X0274180Y0142105D01*
X0274736Y0141106D02*
X0115023Y0141106D01*
X0113300Y0141106D02*
X0112300Y0141106D01*
X0112300Y0142105D02*
X0113300Y0142105D01*
X0113300Y0143103D02*
X0112300Y0143103D01*
X0112300Y0144102D02*
X0113300Y0144102D01*
X0113300Y0145101D02*
X0274236Y0145101D01*
X0277488Y0145101D02*
X0278238Y0145101D01*
X0278238Y0146099D02*
X0277488Y0146099D01*
X0277488Y0147098D02*
X0278238Y0147098D01*
X0279587Y0147098D02*
X0286139Y0147098D01*
X0285992Y0147037D02*
X0285345Y0146604D01*
X0284795Y0146054D01*
X0284363Y0145407D01*
X0284065Y0144688D01*
X0283913Y0143925D01*
X0283913Y0143911D01*
X0287488Y0143911D01*
X0287488Y0143161D01*
X0288238Y0143161D01*
X0288238Y0139586D01*
X0288252Y0139586D01*
X0289015Y0139738D01*
X0289734Y0140036D01*
X0290381Y0140468D01*
X0290931Y0141018D01*
X0291363Y0141665D01*
X0291661Y0142384D01*
X0291813Y0143147D01*
X0291813Y0143161D01*
X0288238Y0143161D01*
X0288238Y0143911D01*
X0291813Y0143911D01*
X0291813Y0143925D01*
X0291661Y0144688D01*
X0291363Y0145407D01*
X0290931Y0146054D01*
X0290381Y0146604D01*
X0289734Y0147037D01*
X0289015Y0147334D01*
X0288252Y0147486D01*
X0288238Y0147486D01*
X0288238Y0143911D01*
X0287488Y0143911D01*
X0287488Y0147486D01*
X0287474Y0147486D01*
X0286711Y0147334D01*
X0285992Y0147037D01*
X0284840Y0146099D02*
X0280886Y0146099D01*
X0281490Y0145101D02*
X0284236Y0145101D01*
X0283948Y0144102D02*
X0281778Y0144102D01*
X0281804Y0143103D02*
X0283922Y0143103D01*
X0283913Y0143147D02*
X0284065Y0142384D01*
X0284363Y0141665D01*
X0284795Y0141018D01*
X0285345Y0140468D01*
X0285992Y0140036D01*
X0286711Y0139738D01*
X0287474Y0139586D01*
X0287488Y0139586D01*
X0287488Y0143161D01*
X0283913Y0143161D01*
X0283913Y0143147D01*
X0284180Y0142105D02*
X0281546Y0142105D01*
X0280990Y0141106D02*
X0284736Y0141106D01*
X0285884Y0140108D02*
X0279842Y0140108D01*
X0278238Y0140108D02*
X0277488Y0140108D01*
X0277488Y0141106D02*
X0278238Y0141106D01*
X0278238Y0142105D02*
X0277488Y0142105D01*
X0277488Y0143103D02*
X0278238Y0143103D01*
X0278238Y0144102D02*
X0277488Y0144102D01*
X0275884Y0140108D02*
X0013000Y0140108D01*
X0013000Y0141106D02*
X0040130Y0141106D01*
X0039131Y0142105D02*
X0013000Y0142105D01*
X0013000Y0143103D02*
X0038632Y0143103D01*
X0038300Y0144102D02*
X0013000Y0144102D01*
X0013000Y0145101D02*
X0038300Y0145101D01*
X0038467Y0146099D02*
X0013000Y0146099D01*
X0013000Y0147098D02*
X0038881Y0147098D01*
X0039732Y0148096D02*
X0013000Y0148096D01*
X0013000Y0139109D02*
X0404600Y0139109D01*
X0404600Y0138111D02*
X0013000Y0138111D01*
X0013000Y0137112D02*
X0275652Y0137112D01*
X0275512Y0137054D02*
X0277038Y0137686D01*
X0278688Y0137686D01*
X0280214Y0137054D01*
X0281381Y0135887D01*
X0282013Y0134362D01*
X0282013Y0132711D01*
X0281381Y0131185D01*
X0280214Y0130018D01*
X0278688Y0129386D01*
X0277038Y0129386D01*
X0275512Y0130018D01*
X0274345Y0131185D01*
X0273713Y0132711D01*
X0273713Y0134362D01*
X0274345Y0135887D01*
X0275512Y0137054D01*
X0274572Y0136114D02*
X0013000Y0136114D01*
X0013000Y0135115D02*
X0274025Y0135115D01*
X0273713Y0134117D02*
X0013000Y0134117D01*
X0013000Y0133118D02*
X0273713Y0133118D01*
X0273958Y0132120D02*
X0013000Y0132120D01*
X0013000Y0131121D02*
X0274409Y0131121D01*
X0275407Y0130123D02*
X0013000Y0130123D01*
X0013000Y0129124D02*
X0404600Y0129124D01*
X0404600Y0128126D02*
X0013000Y0128126D01*
X0013000Y0127127D02*
X0275688Y0127127D01*
X0275512Y0127054D02*
X0277038Y0127686D01*
X0278688Y0127686D01*
X0280214Y0127054D01*
X0281381Y0125887D01*
X0282013Y0124362D01*
X0282013Y0122711D01*
X0281381Y0121185D01*
X0280214Y0120018D01*
X0278688Y0119386D01*
X0277038Y0119386D01*
X0275512Y0120018D01*
X0274345Y0121185D01*
X0273713Y0122711D01*
X0273713Y0124362D01*
X0274345Y0125887D01*
X0275512Y0127054D01*
X0274587Y0126129D02*
X0013000Y0126129D01*
X0013000Y0125130D02*
X0274031Y0125130D01*
X0273713Y0124132D02*
X0013000Y0124132D01*
X0013000Y0123133D02*
X0273713Y0123133D01*
X0273952Y0122135D02*
X0013000Y0122135D01*
X0013000Y0121136D02*
X0274394Y0121136D01*
X0275392Y0120138D02*
X0013000Y0120138D01*
X0013000Y0119139D02*
X0404600Y0119139D01*
X0404600Y0118141D02*
X0013000Y0118141D01*
X0013000Y0117142D02*
X0275724Y0117142D01*
X0275512Y0117054D02*
X0277038Y0117686D01*
X0278688Y0117686D01*
X0280214Y0117054D01*
X0281381Y0115887D01*
X0282013Y0114362D01*
X0282013Y0112711D01*
X0281381Y0111185D01*
X0280214Y0110018D01*
X0278688Y0109386D01*
X0277038Y0109386D01*
X0275512Y0110018D01*
X0274345Y0111185D01*
X0273713Y0112711D01*
X0273713Y0114362D01*
X0274345Y0115887D01*
X0275512Y0117054D01*
X0274601Y0116144D02*
X0013000Y0116144D01*
X0013000Y0115145D02*
X0274038Y0115145D01*
X0273713Y0114147D02*
X0013000Y0114147D01*
X0013000Y0113148D02*
X0273713Y0113148D01*
X0273945Y0112150D02*
X0013000Y0112150D01*
X0013000Y0111151D02*
X0274379Y0111151D01*
X0275378Y0110153D02*
X0013000Y0110153D01*
X0013000Y0109154D02*
X0404600Y0109154D01*
X0404600Y0108156D02*
X0013000Y0108156D01*
X0013000Y0107157D02*
X0275760Y0107157D01*
X0275512Y0107054D02*
X0277038Y0107686D01*
X0278688Y0107686D01*
X0280214Y0107054D01*
X0281381Y0105887D01*
X0282013Y0104362D01*
X0282013Y0102711D01*
X0281381Y0101185D01*
X0280214Y0100018D01*
X0278688Y0099386D01*
X0277038Y0099386D01*
X0275512Y0100018D01*
X0274345Y0101185D01*
X0273713Y0102711D01*
X0273713Y0104362D01*
X0274345Y0105887D01*
X0275512Y0107054D01*
X0274616Y0106159D02*
X0013000Y0106159D01*
X0013000Y0105160D02*
X0274044Y0105160D01*
X0273713Y0104162D02*
X0013000Y0104162D01*
X0013000Y0103163D02*
X0273713Y0103163D01*
X0273939Y0102165D02*
X0013000Y0102165D01*
X0013000Y0101166D02*
X0274364Y0101166D01*
X0275363Y0100168D02*
X0013000Y0100168D01*
X0013000Y0099169D02*
X0404600Y0099169D01*
X0378238Y0110153D02*
X0377488Y0110153D01*
X0377488Y0109586D02*
X0377488Y0113161D01*
X0378238Y0113161D01*
X0378238Y0113911D01*
X0377488Y0113911D01*
X0377488Y0113161D01*
X0373913Y0113161D01*
X0373913Y0113147D01*
X0374065Y0112384D01*
X0374363Y0111665D01*
X0374795Y0111018D01*
X0375345Y0110468D01*
X0375992Y0110036D01*
X0376711Y0109738D01*
X0377474Y0109586D01*
X0377488Y0109586D01*
X0377488Y0111151D02*
X0378238Y0111151D01*
X0378238Y0112150D02*
X0377488Y0112150D01*
X0377488Y0113148D02*
X0378238Y0113148D01*
X0378238Y0114147D02*
X0377488Y0114147D01*
X0377488Y0113911D02*
X0377488Y0117486D01*
X0377474Y0117486D01*
X0376711Y0117334D01*
X0375992Y0117037D01*
X0375345Y0116604D01*
X0374795Y0116054D01*
X0374363Y0115407D01*
X0374065Y0114688D01*
X0373913Y0113925D01*
X0373913Y0113911D01*
X0377488Y0113911D01*
X0377488Y0115145D02*
X0378238Y0115145D01*
X0378238Y0116144D02*
X0377488Y0116144D01*
X0377488Y0117142D02*
X0378238Y0117142D01*
X0376247Y0117142D02*
X0289479Y0117142D01*
X0289734Y0117037D02*
X0289015Y0117334D01*
X0288252Y0117486D01*
X0288238Y0117486D01*
X0288238Y0113911D01*
X0291813Y0113911D01*
X0291813Y0113925D01*
X0291661Y0114688D01*
X0291363Y0115407D01*
X0290931Y0116054D01*
X0290381Y0116604D01*
X0289734Y0117037D01*
X0290842Y0116144D02*
X0374884Y0116144D01*
X0374254Y0115145D02*
X0291472Y0115145D01*
X0291769Y0114147D02*
X0373957Y0114147D01*
X0373913Y0113148D02*
X0291813Y0113148D01*
X0291813Y0113147D02*
X0291813Y0113161D01*
X0288238Y0113161D01*
X0288238Y0109586D01*
X0288252Y0109586D01*
X0289015Y0109738D01*
X0289734Y0110036D01*
X0290381Y0110468D01*
X0290931Y0111018D01*
X0291363Y0111665D01*
X0291661Y0112384D01*
X0291813Y0113147D01*
X0291564Y0112150D02*
X0374162Y0112150D01*
X0374706Y0111151D02*
X0291020Y0111151D01*
X0289909Y0110153D02*
X0375817Y0110153D01*
X0375760Y0107157D02*
X0289966Y0107157D01*
X0290214Y0107054D02*
X0288688Y0107686D01*
X0287038Y0107686D01*
X0285512Y0107054D01*
X0284345Y0105887D01*
X0283713Y0104362D01*
X0283713Y0102711D01*
X0284345Y0101185D01*
X0285512Y0100018D01*
X0287038Y0099386D01*
X0288688Y0099386D01*
X0290214Y0100018D01*
X0291381Y0101185D01*
X0292013Y0102711D01*
X0292013Y0104362D01*
X0291381Y0105887D01*
X0290214Y0107054D01*
X0291110Y0106159D02*
X0374616Y0106159D01*
X0374044Y0105160D02*
X0291682Y0105160D01*
X0292013Y0104162D02*
X0373713Y0104162D01*
X0373713Y0103163D02*
X0292013Y0103163D01*
X0291787Y0102165D02*
X0373939Y0102165D01*
X0374364Y0101166D02*
X0291362Y0101166D01*
X0290363Y0100168D02*
X0375363Y0100168D01*
X0375796Y0097172D02*
X0289930Y0097172D01*
X0290214Y0097054D02*
X0288688Y0097686D01*
X0287038Y0097686D01*
X0285512Y0097054D01*
X0284345Y0095887D01*
X0283713Y0094362D01*
X0283713Y0092711D01*
X0284345Y0091185D01*
X0285512Y0090018D01*
X0287038Y0089386D01*
X0288688Y0089386D01*
X0290214Y0090018D01*
X0291381Y0091185D01*
X0292013Y0092711D01*
X0292013Y0094362D01*
X0291381Y0095887D01*
X0290214Y0097054D01*
X0291095Y0096173D02*
X0374631Y0096173D01*
X0374050Y0095175D02*
X0291676Y0095175D01*
X0292013Y0094176D02*
X0373713Y0094176D01*
X0373713Y0093178D02*
X0292013Y0093178D01*
X0291793Y0092179D02*
X0373933Y0092179D01*
X0374349Y0091181D02*
X0291377Y0091181D01*
X0290378Y0090182D02*
X0375348Y0090182D01*
X0375832Y0087187D02*
X0289894Y0087187D01*
X0290214Y0087054D02*
X0288688Y0087686D01*
X0287038Y0087686D01*
X0285512Y0087054D01*
X0284345Y0085887D01*
X0283713Y0084362D01*
X0283713Y0082711D01*
X0284345Y0081185D01*
X0285512Y0080018D01*
X0287038Y0079386D01*
X0288688Y0079386D01*
X0290214Y0080018D01*
X0291381Y0081185D01*
X0292013Y0082711D01*
X0292013Y0084362D01*
X0291381Y0085887D01*
X0290214Y0087054D01*
X0291080Y0086188D02*
X0374646Y0086188D01*
X0374056Y0085190D02*
X0291670Y0085190D01*
X0292013Y0084191D02*
X0373713Y0084191D01*
X0373713Y0083193D02*
X0292013Y0083193D01*
X0291799Y0082194D02*
X0373927Y0082194D01*
X0374341Y0081196D02*
X0291385Y0081196D01*
X0290393Y0080197D02*
X0375333Y0080197D01*
X0375868Y0077202D02*
X0289858Y0077202D01*
X0290214Y0077054D02*
X0288688Y0077686D01*
X0287038Y0077686D01*
X0285512Y0077054D01*
X0284345Y0075887D01*
X0283713Y0074362D01*
X0283713Y0072711D01*
X0284345Y0071185D01*
X0285512Y0070018D01*
X0287038Y0069386D01*
X0288688Y0069386D01*
X0290214Y0070018D01*
X0291381Y0071185D01*
X0292013Y0072711D01*
X0292013Y0074362D01*
X0291381Y0075887D01*
X0290214Y0077054D01*
X0291065Y0076203D02*
X0374661Y0076203D01*
X0374062Y0075205D02*
X0291664Y0075205D01*
X0292013Y0074206D02*
X0373713Y0074206D01*
X0373713Y0073208D02*
X0292013Y0073208D01*
X0291805Y0072209D02*
X0373921Y0072209D01*
X0374334Y0071211D02*
X0291392Y0071211D01*
X0290408Y0070212D02*
X0375318Y0070212D01*
X0375904Y0067217D02*
X0289822Y0067217D01*
X0290214Y0067054D02*
X0288688Y0067686D01*
X0287038Y0067686D01*
X0285512Y0067054D01*
X0284345Y0065887D01*
X0283713Y0064362D01*
X0283713Y0062711D01*
X0284345Y0061185D01*
X0285512Y0060018D01*
X0287038Y0059386D01*
X0288688Y0059386D01*
X0290214Y0060018D01*
X0291381Y0061185D01*
X0292013Y0062711D01*
X0292013Y0064362D01*
X0291381Y0065887D01*
X0290214Y0067054D01*
X0291050Y0066218D02*
X0374676Y0066218D01*
X0374068Y0065220D02*
X0291658Y0065220D01*
X0292013Y0064221D02*
X0373713Y0064221D01*
X0373713Y0063223D02*
X0292013Y0063223D01*
X0291811Y0062224D02*
X0373915Y0062224D01*
X0374328Y0061226D02*
X0291398Y0061226D01*
X0290423Y0060227D02*
X0375303Y0060227D01*
X0375940Y0057232D02*
X0289786Y0057232D01*
X0290214Y0057054D02*
X0288688Y0057686D01*
X0287038Y0057686D01*
X0285512Y0057054D01*
X0284345Y0055887D01*
X0283713Y0054362D01*
X0283713Y0052711D01*
X0284345Y0051185D01*
X0285512Y0050018D01*
X0287038Y0049386D01*
X0288688Y0049386D01*
X0290214Y0050018D01*
X0291381Y0051185D01*
X0292013Y0052711D01*
X0292013Y0054362D01*
X0291381Y0055887D01*
X0290214Y0057054D01*
X0291035Y0056233D02*
X0374691Y0056233D01*
X0374075Y0055234D02*
X0291651Y0055234D01*
X0292013Y0054236D02*
X0373713Y0054236D01*
X0373713Y0053237D02*
X0292013Y0053237D01*
X0291818Y0052239D02*
X0373908Y0052239D01*
X0374322Y0051240D02*
X0291404Y0051240D01*
X0290438Y0050242D02*
X0375288Y0050242D01*
X0375976Y0047246D02*
X0289750Y0047246D01*
X0290214Y0047054D02*
X0288688Y0047686D01*
X0287038Y0047686D01*
X0285512Y0047054D01*
X0284345Y0045887D01*
X0283713Y0044362D01*
X0283713Y0042711D01*
X0284345Y0041185D01*
X0285512Y0040018D01*
X0287038Y0039386D01*
X0288688Y0039386D01*
X0290214Y0040018D01*
X0291381Y0041185D01*
X0292013Y0042711D01*
X0292013Y0044362D01*
X0291381Y0045887D01*
X0290214Y0047054D01*
X0291020Y0046248D02*
X0374706Y0046248D01*
X0374081Y0045249D02*
X0291645Y0045249D01*
X0292013Y0044251D02*
X0373713Y0044251D01*
X0373713Y0043252D02*
X0292013Y0043252D01*
X0291824Y0042254D02*
X0373902Y0042254D01*
X0374316Y0041255D02*
X0291410Y0041255D01*
X0290453Y0040257D02*
X0375273Y0040257D01*
X0404600Y0039258D02*
X0013000Y0039258D01*
X0013000Y0038260D02*
X0404600Y0038260D01*
X0404600Y0037261D02*
X0013000Y0037261D01*
X0013000Y0036263D02*
X0404600Y0036263D01*
X0404600Y0035264D02*
X0013000Y0035264D01*
X0013000Y0034266D02*
X0146665Y0034266D01*
X0146341Y0033943D02*
X0145900Y0032877D01*
X0145900Y0031723D01*
X0146341Y0030657D01*
X0147157Y0029841D01*
X0148223Y0029400D01*
X0149377Y0029400D01*
X0150443Y0029841D01*
X0151258Y0030657D01*
X0151700Y0031723D01*
X0151700Y0032877D01*
X0151258Y0033943D01*
X0150443Y0034758D01*
X0149377Y0035200D01*
X0148223Y0035200D01*
X0147157Y0034758D01*
X0146341Y0033943D01*
X0146062Y0033267D02*
X0013000Y0033267D01*
X0013000Y0032269D02*
X0145900Y0032269D01*
X0146088Y0031270D02*
X0013000Y0031270D01*
X0013000Y0030272D02*
X0146727Y0030272D01*
X0150873Y0030272D02*
X0213463Y0030272D01*
X0213580Y0030555D02*
X0213301Y0029881D01*
X0213158Y0029165D01*
X0213158Y0029087D01*
X0216576Y0029087D01*
X0216576Y0028513D01*
X0217150Y0028513D01*
X0217150Y0029087D01*
X0220568Y0029087D01*
X0220568Y0029165D01*
X0220425Y0029881D01*
X0220146Y0030555D01*
X0219741Y0031162D01*
X0219225Y0031678D01*
X0218618Y0032083D01*
X0217944Y0032362D01*
X0217228Y0032505D01*
X0217150Y0032505D01*
X0217150Y0029087D01*
X0216576Y0029087D01*
X0216576Y0032505D01*
X0216498Y0032505D01*
X0215782Y0032362D01*
X0215108Y0032083D01*
X0214501Y0031678D01*
X0213985Y0031162D01*
X0213580Y0030555D01*
X0214094Y0031270D02*
X0151512Y0031270D01*
X0151700Y0032269D02*
X0215556Y0032269D01*
X0216576Y0032269D02*
X0217150Y0032269D01*
X0217150Y0031270D02*
X0216576Y0031270D01*
X0216576Y0030272D02*
X0217150Y0030272D01*
X0217150Y0029273D02*
X0216576Y0029273D01*
X0216576Y0028513D02*
X0213158Y0028513D01*
X0213158Y0028435D01*
X0213301Y0027719D01*
X0213580Y0027045D01*
X0213985Y0026438D01*
X0214501Y0025922D01*
X0215108Y0025517D01*
X0215782Y0025238D01*
X0216498Y0025095D01*
X0216576Y0025095D01*
X0216576Y0028513D01*
X0216576Y0028275D02*
X0217150Y0028275D01*
X0217150Y0028513D02*
X0217150Y0025095D01*
X0217228Y0025095D01*
X0217944Y0025238D01*
X0218618Y0025517D01*
X0219225Y0025922D01*
X0219741Y0026438D01*
X0220146Y0027045D01*
X0220425Y0027719D01*
X0220568Y0028435D01*
X0220568Y0028513D01*
X0217150Y0028513D01*
X0217150Y0027276D02*
X0216576Y0027276D01*
X0216576Y0026278D02*
X0217150Y0026278D01*
X0217150Y0025279D02*
X0216576Y0025279D01*
X0215682Y0025279D02*
X0013000Y0025279D01*
X0013000Y0024281D02*
X0404600Y0024281D01*
X0404600Y0025279D02*
X0226440Y0025279D01*
X0226949Y0025490D02*
X0228047Y0026588D01*
X0228642Y0028023D01*
X0228642Y0029577D01*
X0228047Y0031012D01*
X0226949Y0032110D01*
X0225514Y0032705D01*
X0223960Y0032705D01*
X0222525Y0032110D01*
X0221427Y0031012D01*
X0220832Y0029577D01*
X0220832Y0028023D01*
X0221427Y0026588D01*
X0222525Y0025490D01*
X0223960Y0024895D01*
X0225514Y0024895D01*
X0226949Y0025490D01*
X0227737Y0026278D02*
X0404600Y0026278D01*
X0404600Y0027276D02*
X0228332Y0027276D01*
X0228642Y0028275D02*
X0404600Y0028275D01*
X0404600Y0029273D02*
X0228642Y0029273D01*
X0228354Y0030272D02*
X0404600Y0030272D01*
X0404600Y0031270D02*
X0227789Y0031270D01*
X0226566Y0032269D02*
X0404600Y0032269D01*
X0404600Y0033267D02*
X0151538Y0033267D01*
X0150935Y0034266D02*
X0404600Y0034266D01*
X0404600Y0023282D02*
X0013000Y0023282D01*
X0013000Y0022284D02*
X0404600Y0022284D01*
X0404600Y0021285D02*
X0013000Y0021285D01*
X0013000Y0020287D02*
X0404600Y0020287D01*
X0404600Y0019288D02*
X0013000Y0019288D01*
X0013000Y0018290D02*
X0404600Y0018290D01*
X0404600Y0017291D02*
X0013000Y0017291D01*
X0013000Y0016293D02*
X0404600Y0016293D01*
X0404600Y0015294D02*
X0013000Y0015294D01*
X0013000Y0014296D02*
X0404600Y0014296D01*
X0404600Y0013297D02*
X0013000Y0013297D01*
X0013000Y0026278D02*
X0214146Y0026278D01*
X0213484Y0027276D02*
X0013000Y0027276D01*
X0013000Y0028275D02*
X0213190Y0028275D01*
X0213180Y0029273D02*
X0013000Y0029273D01*
X0013000Y0040257D02*
X0275273Y0040257D01*
X0275512Y0040018D02*
X0277038Y0039386D01*
X0278688Y0039386D01*
X0280214Y0040018D01*
X0281381Y0041185D01*
X0282013Y0042711D01*
X0282013Y0044362D01*
X0281381Y0045887D01*
X0280214Y0047054D01*
X0278688Y0047686D01*
X0277038Y0047686D01*
X0275512Y0047054D01*
X0274345Y0045887D01*
X0273713Y0044362D01*
X0273713Y0042711D01*
X0274345Y0041185D01*
X0275512Y0040018D01*
X0274316Y0041255D02*
X0013000Y0041255D01*
X0013000Y0042254D02*
X0273902Y0042254D01*
X0273713Y0043252D02*
X0013000Y0043252D01*
X0013000Y0044251D02*
X0273713Y0044251D01*
X0274081Y0045249D02*
X0013000Y0045249D01*
X0013000Y0046248D02*
X0274706Y0046248D01*
X0275976Y0047246D02*
X0062885Y0047246D01*
X0064783Y0048245D02*
X0404600Y0048245D01*
X0404600Y0049243D02*
X0065781Y0049243D01*
X0066358Y0050242D02*
X0275288Y0050242D01*
X0274322Y0051240D02*
X0066772Y0051240D01*
X0059344Y0047246D02*
X0013000Y0047246D01*
X0013000Y0048245D02*
X0057447Y0048245D01*
X0056449Y0049243D02*
X0043985Y0049243D01*
X0044065Y0049277D02*
X0045374Y0050586D01*
X0046083Y0052296D01*
X0046083Y0054147D01*
X0045374Y0055857D01*
X0044065Y0057166D01*
X0042355Y0057874D01*
X0040504Y0057874D01*
X0038794Y0057166D01*
X0037486Y0055857D01*
X0036777Y0054147D01*
X0036777Y0052296D01*
X0037486Y0050586D01*
X0038794Y0049277D01*
X0040504Y0048569D01*
X0042355Y0048569D01*
X0044065Y0049277D01*
X0045031Y0050242D02*
X0055871Y0050242D01*
X0055458Y0051240D02*
X0045646Y0051240D01*
X0046059Y0052239D02*
X0055281Y0052239D01*
X0055281Y0053237D02*
X0046083Y0053237D01*
X0046046Y0054236D02*
X0055384Y0054236D01*
X0055797Y0055234D02*
X0045632Y0055234D01*
X0044998Y0056233D02*
X0056270Y0056233D01*
X0057269Y0057232D02*
X0043906Y0057232D01*
X0038953Y0057232D02*
X0013000Y0057232D01*
X0013000Y0058230D02*
X0058491Y0058230D01*
X0057094Y0059229D02*
X0013000Y0059229D01*
X0013000Y0060227D02*
X0056139Y0060227D01*
X0055725Y0061226D02*
X0013000Y0061226D01*
X0013000Y0062224D02*
X0055311Y0062224D01*
X0055281Y0063223D02*
X0013000Y0063223D01*
X0013000Y0064221D02*
X0055281Y0064221D01*
X0055530Y0065220D02*
X0013000Y0065220D01*
X0013000Y0066218D02*
X0055944Y0066218D01*
X0056624Y0067217D02*
X0013000Y0067217D01*
X0013000Y0068215D02*
X0038302Y0068215D01*
X0038477Y0068088D02*
X0037760Y0068609D01*
X0037133Y0069236D01*
X0036611Y0069954D01*
X0036209Y0070744D01*
X0035935Y0071587D01*
X0035805Y0072406D01*
X0040930Y0072406D01*
X0041930Y0072406D01*
X0041930Y0067281D01*
X0042749Y0067411D01*
X0043593Y0067685D01*
X0044383Y0068088D01*
X0045100Y0068609D01*
X0045727Y0069236D01*
X0046248Y0069954D01*
X0046651Y0070744D01*
X0046925Y0071587D01*
X0047055Y0072406D01*
X0041930Y0072406D01*
X0041930Y0073406D01*
X0047055Y0073406D01*
X0046925Y0074226D01*
X0046651Y0075069D01*
X0046248Y0075859D01*
X0045727Y0076577D01*
X0045100Y0077204D01*
X0044383Y0077725D01*
X0043593Y0078127D01*
X0042749Y0078401D01*
X0041930Y0078531D01*
X0041930Y0073406D01*
X0040930Y0073406D01*
X0040930Y0072406D01*
X0040930Y0067281D01*
X0040111Y0067411D01*
X0039267Y0067685D01*
X0038477Y0068088D01*
X0037155Y0069214D02*
X0013000Y0069214D01*
X0013000Y0070212D02*
X0036480Y0070212D01*
X0036057Y0071211D02*
X0013000Y0071211D01*
X0013000Y0072209D02*
X0035836Y0072209D01*
X0035805Y0073406D02*
X0040930Y0073406D01*
X0040930Y0078531D01*
X0040111Y0078401D01*
X0039267Y0078127D01*
X0038477Y0077725D01*
X0037760Y0077204D01*
X0037133Y0076577D01*
X0036611Y0075859D01*
X0036209Y0075069D01*
X0035935Y0074226D01*
X0035805Y0073406D01*
X0035932Y0074206D02*
X0013000Y0074206D01*
X0013000Y0073208D02*
X0040930Y0073208D01*
X0040930Y0074206D02*
X0041930Y0074206D01*
X0041930Y0073208D02*
X0056462Y0073208D01*
X0056462Y0072209D02*
X0047024Y0072209D01*
X0046803Y0071211D02*
X0056781Y0071211D01*
X0057229Y0070212D02*
X0046380Y0070212D01*
X0045705Y0069214D02*
X0058228Y0069214D01*
X0057622Y0068215D02*
X0044558Y0068215D01*
X0041930Y0068215D02*
X0040930Y0068215D01*
X0040930Y0069214D02*
X0041930Y0069214D01*
X0041930Y0070212D02*
X0040930Y0070212D01*
X0040930Y0071211D02*
X0041930Y0071211D01*
X0041930Y0072209D02*
X0040930Y0072209D01*
X0040930Y0075205D02*
X0041930Y0075205D01*
X0041930Y0076203D02*
X0040930Y0076203D01*
X0040930Y0077202D02*
X0041930Y0077202D01*
X0041930Y0078200D02*
X0040930Y0078200D01*
X0039492Y0078200D02*
X0013000Y0078200D01*
X0013000Y0077202D02*
X0037758Y0077202D01*
X0036861Y0076203D02*
X0013000Y0076203D01*
X0013000Y0075205D02*
X0036278Y0075205D01*
X0043368Y0078200D02*
X0057019Y0078200D01*
X0056108Y0079199D02*
X0013000Y0079199D01*
X0013000Y0080197D02*
X0055694Y0080197D01*
X0055281Y0081196D02*
X0013000Y0081196D01*
X0013000Y0082194D02*
X0055281Y0082194D01*
X0055281Y0083193D02*
X0013000Y0083193D01*
X0013000Y0084191D02*
X0055561Y0084191D01*
X0055975Y0085190D02*
X0013000Y0085190D01*
X0013000Y0086188D02*
X0056698Y0086188D01*
X0057696Y0087187D02*
X0013000Y0087187D01*
X0013000Y0088185D02*
X0039909Y0088185D01*
X0040504Y0087939D02*
X0042355Y0087939D01*
X0044065Y0088647D01*
X0045374Y0089956D01*
X0046083Y0091666D01*
X0046083Y0093517D01*
X0045374Y0095227D01*
X0044065Y0096536D01*
X0042355Y0097244D01*
X0040504Y0097244D01*
X0038794Y0096536D01*
X0037486Y0095227D01*
X0036777Y0093517D01*
X0036777Y0091666D01*
X0037486Y0089956D01*
X0038794Y0088647D01*
X0040504Y0087939D01*
X0042951Y0088185D02*
X0057664Y0088185D01*
X0056666Y0089184D02*
X0044602Y0089184D01*
X0045468Y0090182D02*
X0055961Y0090182D01*
X0055548Y0091181D02*
X0045882Y0091181D01*
X0046083Y0092179D02*
X0055281Y0092179D01*
X0055281Y0093178D02*
X0046083Y0093178D01*
X0045809Y0094176D02*
X0055294Y0094176D01*
X0055708Y0095175D02*
X0045396Y0095175D01*
X0044428Y0096173D02*
X0056121Y0096173D01*
X0057052Y0097172D02*
X0042530Y0097172D01*
X0040330Y0097172D02*
X0013000Y0097172D01*
X0013000Y0098170D02*
X0058389Y0098170D01*
X0064566Y0088185D02*
X0202026Y0088185D01*
X0202686Y0087187D02*
X0064534Y0087187D01*
X0065210Y0078200D02*
X0404600Y0078200D01*
X0375392Y0120138D02*
X0290333Y0120138D01*
X0290214Y0120018D02*
X0291381Y0121185D01*
X0292013Y0122711D01*
X0292013Y0124362D01*
X0291381Y0125887D01*
X0290214Y0127054D01*
X0288688Y0127686D01*
X0287038Y0127686D01*
X0285512Y0127054D01*
X0284345Y0125887D01*
X0283713Y0124362D01*
X0283713Y0122711D01*
X0284345Y0121185D01*
X0285512Y0120018D01*
X0287038Y0119386D01*
X0288688Y0119386D01*
X0290214Y0120018D01*
X0291332Y0121136D02*
X0374394Y0121136D01*
X0373952Y0122135D02*
X0291774Y0122135D01*
X0292013Y0123133D02*
X0373713Y0123133D01*
X0373713Y0124132D02*
X0292013Y0124132D01*
X0291695Y0125130D02*
X0374031Y0125130D01*
X0374587Y0126129D02*
X0291139Y0126129D01*
X0290038Y0127127D02*
X0375688Y0127127D01*
X0375407Y0130123D02*
X0290319Y0130123D01*
X0290214Y0130018D02*
X0291381Y0131185D01*
X0292013Y0132711D01*
X0292013Y0134362D01*
X0291381Y0135887D01*
X0290214Y0137054D01*
X0288688Y0137686D01*
X0287038Y0137686D01*
X0285512Y0137054D01*
X0284345Y0135887D01*
X0283713Y0134362D01*
X0283713Y0132711D01*
X0284345Y0131185D01*
X0285512Y0130018D01*
X0287038Y0129386D01*
X0288688Y0129386D01*
X0290214Y0130018D01*
X0291317Y0131121D02*
X0374409Y0131121D01*
X0373958Y0132120D02*
X0291768Y0132120D01*
X0292013Y0133118D02*
X0373713Y0133118D01*
X0373713Y0134117D02*
X0292013Y0134117D01*
X0291701Y0135115D02*
X0374025Y0135115D01*
X0374572Y0136114D02*
X0291154Y0136114D01*
X0290074Y0137112D02*
X0375652Y0137112D01*
X0376711Y0139738D02*
X0377474Y0139586D01*
X0377488Y0139586D01*
X0377488Y0143161D01*
X0378238Y0143161D01*
X0378238Y0143911D01*
X0377488Y0143911D01*
X0377488Y0143161D01*
X0373913Y0143161D01*
X0373913Y0143147D01*
X0374065Y0142384D01*
X0374363Y0141665D01*
X0374795Y0141018D01*
X0375345Y0140468D01*
X0375992Y0140036D01*
X0376711Y0139738D01*
X0377488Y0140108D02*
X0378238Y0140108D01*
X0378238Y0141106D02*
X0377488Y0141106D01*
X0377488Y0142105D02*
X0378238Y0142105D01*
X0378238Y0143103D02*
X0377488Y0143103D01*
X0377488Y0143911D02*
X0373913Y0143911D01*
X0373913Y0143925D01*
X0374065Y0144688D01*
X0374363Y0145407D01*
X0374795Y0146054D01*
X0375345Y0146604D01*
X0375992Y0147037D01*
X0376711Y0147334D01*
X0377474Y0147486D01*
X0377488Y0147486D01*
X0377488Y0143911D01*
X0377488Y0144102D02*
X0378238Y0144102D01*
X0378238Y0145101D02*
X0377488Y0145101D01*
X0377488Y0146099D02*
X0378238Y0146099D01*
X0378238Y0147098D02*
X0377488Y0147098D01*
X0376139Y0147098D02*
X0289587Y0147098D01*
X0288238Y0147098D02*
X0287488Y0147098D01*
X0287488Y0146099D02*
X0288238Y0146099D01*
X0288238Y0145101D02*
X0287488Y0145101D01*
X0287488Y0144102D02*
X0288238Y0144102D01*
X0288238Y0143103D02*
X0287488Y0143103D01*
X0287488Y0142105D02*
X0288238Y0142105D01*
X0288238Y0141106D02*
X0287488Y0141106D01*
X0287488Y0140108D02*
X0288238Y0140108D01*
X0289842Y0140108D02*
X0375884Y0140108D01*
X0374736Y0141106D02*
X0290990Y0141106D01*
X0291546Y0142105D02*
X0374180Y0142105D01*
X0373922Y0143103D02*
X0291804Y0143103D01*
X0291778Y0144102D02*
X0373948Y0144102D01*
X0374236Y0145101D02*
X0291490Y0145101D01*
X0290886Y0146099D02*
X0374840Y0146099D01*
X0375437Y0150093D02*
X0290289Y0150093D01*
X0290214Y0150018D02*
X0291381Y0151185D01*
X0292013Y0152711D01*
X0292013Y0154362D01*
X0291381Y0155887D01*
X0290214Y0157054D01*
X0288688Y0157686D01*
X0287038Y0157686D01*
X0285512Y0157054D01*
X0284345Y0155887D01*
X0283713Y0154362D01*
X0283713Y0152711D01*
X0284345Y0151185D01*
X0285512Y0150018D01*
X0287038Y0149386D01*
X0288688Y0149386D01*
X0290214Y0150018D01*
X0291287Y0151092D02*
X0374439Y0151092D01*
X0373970Y0152090D02*
X0291756Y0152090D01*
X0292013Y0153089D02*
X0373713Y0153089D01*
X0373713Y0154087D02*
X0292013Y0154087D01*
X0291713Y0155086D02*
X0374013Y0155086D01*
X0374542Y0156084D02*
X0291184Y0156084D01*
X0290146Y0157083D02*
X0375580Y0157083D01*
X0375452Y0160078D02*
X0290274Y0160078D01*
X0290214Y0160018D02*
X0291381Y0161185D01*
X0292013Y0162711D01*
X0292013Y0164362D01*
X0291381Y0165887D01*
X0290214Y0167054D01*
X0288688Y0167686D01*
X0287038Y0167686D01*
X0285512Y0167054D01*
X0284345Y0165887D01*
X0283713Y0164362D01*
X0283713Y0162711D01*
X0284345Y0161185D01*
X0285512Y0160018D01*
X0287038Y0159386D01*
X0288688Y0159386D01*
X0290214Y0160018D01*
X0291272Y0161077D02*
X0374454Y0161077D01*
X0373976Y0162075D02*
X0291750Y0162075D01*
X0292013Y0163074D02*
X0373713Y0163074D01*
X0373713Y0164072D02*
X0292013Y0164072D01*
X0291719Y0165071D02*
X0374007Y0165071D01*
X0374527Y0166069D02*
X0291199Y0166069D01*
X0290182Y0167068D02*
X0375544Y0167068D01*
X0375467Y0170063D02*
X0290259Y0170063D01*
X0290214Y0170018D02*
X0291381Y0171185D01*
X0292013Y0172711D01*
X0292013Y0174362D01*
X0291381Y0175887D01*
X0290214Y0177054D01*
X0288688Y0177686D01*
X0287038Y0177686D01*
X0285512Y0177054D01*
X0284345Y0175887D01*
X0283713Y0174362D01*
X0283713Y0172711D01*
X0284345Y0171185D01*
X0285512Y0170018D01*
X0287038Y0169386D01*
X0288688Y0169386D01*
X0290214Y0170018D01*
X0291258Y0171062D02*
X0374468Y0171062D01*
X0373982Y0172060D02*
X0291744Y0172060D01*
X0292013Y0173059D02*
X0373713Y0173059D01*
X0373713Y0174057D02*
X0292013Y0174057D01*
X0291725Y0175056D02*
X0374001Y0175056D01*
X0374512Y0176054D02*
X0291214Y0176054D01*
X0290215Y0177053D02*
X0375511Y0177053D01*
X0375482Y0180048D02*
X0290244Y0180048D01*
X0290214Y0180018D02*
X0291381Y0181185D01*
X0292013Y0182711D01*
X0292013Y0184362D01*
X0291381Y0185887D01*
X0290214Y0187054D01*
X0288688Y0187686D01*
X0287038Y0187686D01*
X0285512Y0187054D01*
X0284345Y0185887D01*
X0283713Y0184362D01*
X0283713Y0182711D01*
X0284345Y0181185D01*
X0285512Y0180018D01*
X0287038Y0179386D01*
X0288688Y0179386D01*
X0290214Y0180018D01*
X0291243Y0181047D02*
X0374483Y0181047D01*
X0373989Y0182045D02*
X0291737Y0182045D01*
X0292013Y0183044D02*
X0373713Y0183044D01*
X0373713Y0184042D02*
X0292013Y0184042D01*
X0291732Y0185041D02*
X0373994Y0185041D01*
X0374497Y0186039D02*
X0291229Y0186039D01*
X0290230Y0187038D02*
X0375496Y0187038D01*
X0375497Y0190034D02*
X0290229Y0190034D01*
X0290214Y0190018D02*
X0291381Y0191185D01*
X0292013Y0192711D01*
X0292013Y0194362D01*
X0291381Y0195887D01*
X0290214Y0197054D01*
X0288688Y0197686D01*
X0287038Y0197686D01*
X0285512Y0197054D01*
X0284345Y0195887D01*
X0283713Y0194362D01*
X0283713Y0192711D01*
X0284345Y0191185D01*
X0285512Y0190018D01*
X0287038Y0189386D01*
X0288688Y0189386D01*
X0290214Y0190018D01*
X0291228Y0191032D02*
X0374498Y0191032D01*
X0373995Y0192031D02*
X0291731Y0192031D01*
X0292013Y0193029D02*
X0373713Y0193029D01*
X0373713Y0194028D02*
X0292013Y0194028D01*
X0291738Y0195026D02*
X0373988Y0195026D01*
X0374482Y0196025D02*
X0291244Y0196025D01*
X0290245Y0197023D02*
X0375481Y0197023D01*
X0375512Y0200019D02*
X0290214Y0200019D01*
X0290214Y0200018D02*
X0291381Y0201185D01*
X0292013Y0202711D01*
X0292013Y0204362D01*
X0291381Y0205887D01*
X0290214Y0207054D01*
X0288688Y0207686D01*
X0287038Y0207686D01*
X0285512Y0207054D01*
X0284345Y0205887D01*
X0283713Y0204362D01*
X0283713Y0202711D01*
X0284345Y0201185D01*
X0285512Y0200018D01*
X0287038Y0199386D01*
X0288688Y0199386D01*
X0290214Y0200018D01*
X0291213Y0201017D02*
X0374513Y0201017D01*
X0374001Y0202016D02*
X0291725Y0202016D01*
X0292013Y0203014D02*
X0373713Y0203014D01*
X0373713Y0204013D02*
X0292013Y0204013D01*
X0291744Y0205011D02*
X0373982Y0205011D01*
X0374468Y0206010D02*
X0291258Y0206010D01*
X0290260Y0207008D02*
X0375466Y0207008D01*
X0375547Y0210004D02*
X0290179Y0210004D01*
X0290214Y0210018D02*
X0291381Y0211185D01*
X0292013Y0212711D01*
X0292013Y0214362D01*
X0291381Y0215887D01*
X0290214Y0217054D01*
X0288688Y0217686D01*
X0287038Y0217686D01*
X0285512Y0217054D01*
X0284345Y0215887D01*
X0283713Y0214362D01*
X0283713Y0212711D01*
X0284345Y0211185D01*
X0285512Y0210018D01*
X0287038Y0209386D01*
X0288688Y0209386D01*
X0290214Y0210018D01*
X0291198Y0211002D02*
X0374528Y0211002D01*
X0374007Y0212001D02*
X0291719Y0212001D01*
X0292013Y0212999D02*
X0373713Y0212999D01*
X0373713Y0213998D02*
X0292013Y0213998D01*
X0291750Y0214996D02*
X0373976Y0214996D01*
X0374453Y0215995D02*
X0291273Y0215995D01*
X0290275Y0216993D02*
X0375451Y0216993D01*
X0380245Y0197023D02*
X0385481Y0197023D01*
X0390215Y0177053D02*
X0404600Y0177053D01*
X0404600Y0178051D02*
X0013000Y0178051D01*
X0013000Y0177053D02*
X0275511Y0177053D01*
X0275512Y0177054D02*
X0274345Y0175887D01*
X0273713Y0174362D01*
X0273713Y0172711D01*
X0274345Y0171185D01*
X0275512Y0170018D01*
X0277038Y0169386D01*
X0278688Y0169386D01*
X0280214Y0170018D01*
X0281381Y0171185D01*
X0282013Y0172711D01*
X0282013Y0174362D01*
X0281381Y0175887D01*
X0280214Y0177054D01*
X0278688Y0177686D01*
X0277038Y0177686D01*
X0275512Y0177054D01*
X0274512Y0176054D02*
X0013000Y0176054D01*
X0013000Y0175056D02*
X0274001Y0175056D01*
X0273713Y0174057D02*
X0013000Y0174057D01*
X0013000Y0173059D02*
X0273713Y0173059D01*
X0273982Y0172060D02*
X0013000Y0172060D01*
X0013000Y0171062D02*
X0274468Y0171062D01*
X0275467Y0170063D02*
X0013000Y0170063D01*
X0013000Y0169065D02*
X0404600Y0169065D01*
X0404600Y0170063D02*
X0390259Y0170063D01*
X0391258Y0171062D02*
X0404600Y0171062D01*
X0404600Y0172060D02*
X0391744Y0172060D01*
X0392013Y0173059D02*
X0404600Y0173059D01*
X0404600Y0174057D02*
X0392013Y0174057D01*
X0391725Y0175056D02*
X0404600Y0175056D01*
X0404600Y0176054D02*
X0391214Y0176054D01*
X0390182Y0167068D02*
X0404600Y0167068D01*
X0404600Y0168066D02*
X0094635Y0168066D01*
X0094443Y0168258D02*
X0093377Y0168700D01*
X0092223Y0168700D01*
X0091157Y0168258D01*
X0090341Y0167443D01*
X0089900Y0166377D01*
X0089900Y0165223D01*
X0090341Y0164157D01*
X0091157Y0163341D01*
X0092223Y0162900D01*
X0093377Y0162900D01*
X0094443Y0163341D01*
X0095258Y0164157D01*
X0095700Y0165223D01*
X0095700Y0166377D01*
X0095258Y0167443D01*
X0094443Y0168258D01*
X0095414Y0167068D02*
X0275544Y0167068D01*
X0275512Y0167054D02*
X0274345Y0165887D01*
X0273713Y0164362D01*
X0273713Y0162711D01*
X0274345Y0161185D01*
X0275512Y0160018D01*
X0277038Y0159386D01*
X0278688Y0159386D01*
X0280214Y0160018D01*
X0281381Y0161185D01*
X0282013Y0162711D01*
X0282013Y0164362D01*
X0281381Y0165887D01*
X0280214Y0167054D01*
X0278688Y0167686D01*
X0277038Y0167686D01*
X0275512Y0167054D01*
X0274527Y0166069D02*
X0095700Y0166069D01*
X0095637Y0165071D02*
X0274007Y0165071D01*
X0273713Y0164072D02*
X0095173Y0164072D01*
X0093796Y0163074D02*
X0273713Y0163074D01*
X0273976Y0162075D02*
X0013000Y0162075D01*
X0013000Y0161077D02*
X0274454Y0161077D01*
X0275452Y0160078D02*
X0013000Y0160078D01*
X0013000Y0159080D02*
X0404600Y0159080D01*
X0404600Y0160078D02*
X0390274Y0160078D01*
X0391272Y0161077D02*
X0404600Y0161077D01*
X0404600Y0162075D02*
X0391750Y0162075D01*
X0392013Y0163074D02*
X0404600Y0163074D01*
X0404600Y0164072D02*
X0392013Y0164072D01*
X0391719Y0165071D02*
X0404600Y0165071D01*
X0404600Y0166069D02*
X0391199Y0166069D01*
X0288238Y0117142D02*
X0287488Y0117142D01*
X0287488Y0117486D02*
X0287474Y0117486D01*
X0286711Y0117334D01*
X0285992Y0117037D01*
X0285345Y0116604D01*
X0284795Y0116054D01*
X0284363Y0115407D01*
X0284065Y0114688D01*
X0283913Y0113925D01*
X0283913Y0113911D01*
X0287488Y0113911D01*
X0287488Y0113161D01*
X0288238Y0113161D01*
X0288238Y0113911D01*
X0287488Y0113911D01*
X0287488Y0117486D01*
X0286247Y0117142D02*
X0280002Y0117142D01*
X0281124Y0116144D02*
X0284884Y0116144D01*
X0284254Y0115145D02*
X0281688Y0115145D01*
X0282013Y0114147D02*
X0283957Y0114147D01*
X0283913Y0113161D02*
X0283913Y0113147D01*
X0284065Y0112384D01*
X0284363Y0111665D01*
X0284795Y0111018D01*
X0285345Y0110468D01*
X0285992Y0110036D01*
X0286711Y0109738D01*
X0287474Y0109586D01*
X0287488Y0109586D01*
X0287488Y0113161D01*
X0283913Y0113161D01*
X0283913Y0113148D02*
X0282013Y0113148D01*
X0281781Y0112150D02*
X0284162Y0112150D01*
X0284706Y0111151D02*
X0281347Y0111151D01*
X0280348Y0110153D02*
X0285817Y0110153D01*
X0287488Y0110153D02*
X0288238Y0110153D01*
X0288238Y0111151D02*
X0287488Y0111151D01*
X0287488Y0112150D02*
X0288238Y0112150D01*
X0288238Y0113148D02*
X0287488Y0113148D01*
X0287488Y0114147D02*
X0288238Y0114147D01*
X0288238Y0115145D02*
X0287488Y0115145D01*
X0287488Y0116144D02*
X0288238Y0116144D01*
X0285392Y0120138D02*
X0280333Y0120138D01*
X0281332Y0121136D02*
X0284394Y0121136D01*
X0283952Y0122135D02*
X0281774Y0122135D01*
X0282013Y0123133D02*
X0283713Y0123133D01*
X0283713Y0124132D02*
X0282013Y0124132D01*
X0281695Y0125130D02*
X0284031Y0125130D01*
X0284587Y0126129D02*
X0281139Y0126129D01*
X0280038Y0127127D02*
X0285688Y0127127D01*
X0285407Y0130123D02*
X0280319Y0130123D01*
X0281317Y0131121D02*
X0284409Y0131121D01*
X0283958Y0132120D02*
X0281768Y0132120D01*
X0282013Y0133118D02*
X0283713Y0133118D01*
X0283713Y0134117D02*
X0282013Y0134117D01*
X0281701Y0135115D02*
X0284025Y0135115D01*
X0284572Y0136114D02*
X0281154Y0136114D01*
X0280074Y0137112D02*
X0285652Y0137112D01*
X0285437Y0150093D02*
X0280289Y0150093D01*
X0281287Y0151092D02*
X0284439Y0151092D01*
X0283970Y0152090D02*
X0281756Y0152090D01*
X0282013Y0153089D02*
X0283713Y0153089D01*
X0283713Y0154087D02*
X0282013Y0154087D01*
X0281713Y0155086D02*
X0284013Y0155086D01*
X0284542Y0156084D02*
X0281184Y0156084D01*
X0280146Y0157083D02*
X0285580Y0157083D01*
X0285452Y0160078D02*
X0280274Y0160078D01*
X0281272Y0161077D02*
X0284454Y0161077D01*
X0283976Y0162075D02*
X0281750Y0162075D01*
X0282013Y0163074D02*
X0283713Y0163074D01*
X0283713Y0164072D02*
X0282013Y0164072D01*
X0281719Y0165071D02*
X0284007Y0165071D01*
X0284527Y0166069D02*
X0281199Y0166069D01*
X0280182Y0167068D02*
X0285544Y0167068D01*
X0285467Y0170063D02*
X0280259Y0170063D01*
X0281258Y0171062D02*
X0284468Y0171062D01*
X0283982Y0172060D02*
X0281744Y0172060D01*
X0282013Y0173059D02*
X0283713Y0173059D01*
X0283713Y0174057D02*
X0282013Y0174057D01*
X0281725Y0175056D02*
X0284001Y0175056D01*
X0284512Y0176054D02*
X0281214Y0176054D01*
X0280215Y0177053D02*
X0285511Y0177053D01*
X0285482Y0180048D02*
X0280244Y0180048D01*
X0281243Y0181047D02*
X0284483Y0181047D01*
X0283989Y0182045D02*
X0281737Y0182045D01*
X0282013Y0183044D02*
X0283713Y0183044D01*
X0283713Y0184042D02*
X0282013Y0184042D01*
X0281732Y0185041D02*
X0283994Y0185041D01*
X0284497Y0186039D02*
X0281229Y0186039D01*
X0280230Y0187038D02*
X0285496Y0187038D01*
X0285497Y0190034D02*
X0280229Y0190034D01*
X0281228Y0191032D02*
X0284498Y0191032D01*
X0283995Y0192031D02*
X0281731Y0192031D01*
X0282013Y0193029D02*
X0283713Y0193029D01*
X0283713Y0194028D02*
X0282013Y0194028D01*
X0281738Y0195026D02*
X0283988Y0195026D01*
X0284482Y0196025D02*
X0281244Y0196025D01*
X0280245Y0197023D02*
X0285481Y0197023D01*
X0285512Y0200019D02*
X0280214Y0200019D01*
X0281213Y0201017D02*
X0284513Y0201017D01*
X0284001Y0202016D02*
X0281725Y0202016D01*
X0282013Y0203014D02*
X0283713Y0203014D01*
X0283713Y0204013D02*
X0282013Y0204013D01*
X0281744Y0205011D02*
X0283982Y0205011D01*
X0284468Y0206010D02*
X0281258Y0206010D01*
X0280260Y0207008D02*
X0285466Y0207008D01*
X0285547Y0210004D02*
X0280179Y0210004D01*
X0281198Y0211002D02*
X0284528Y0211002D01*
X0284007Y0212001D02*
X0281719Y0212001D01*
X0282013Y0212999D02*
X0283713Y0212999D01*
X0283713Y0213998D02*
X0282013Y0213998D01*
X0281750Y0214996D02*
X0283976Y0214996D01*
X0284453Y0215995D02*
X0281273Y0215995D01*
X0280275Y0216993D02*
X0285451Y0216993D01*
X0210515Y0180048D02*
X0206085Y0180048D01*
X0207553Y0181047D02*
X0209047Y0181047D01*
X0202641Y0180048D02*
X0195644Y0180048D01*
X0197428Y0181047D02*
X0201173Y0181047D01*
X0200415Y0182045D02*
X0198220Y0182045D01*
X0198633Y0183044D02*
X0200002Y0183044D01*
X0191613Y0181047D02*
X0013000Y0181047D01*
X0013000Y0182045D02*
X0190820Y0182045D01*
X0118737Y0212999D02*
X0114863Y0212999D01*
X0115717Y0213998D02*
X0117883Y0213998D01*
X0117469Y0214996D02*
X0116131Y0214996D01*
X0116300Y0215995D02*
X0117300Y0215995D01*
X0117300Y0216993D02*
X0116300Y0216993D01*
X0115970Y0217992D02*
X0117630Y0217992D01*
X0118126Y0218990D02*
X0115474Y0218990D01*
X0114475Y0219989D02*
X0119125Y0219989D01*
X0109125Y0219989D02*
X0104475Y0219989D01*
X0105474Y0218990D02*
X0108126Y0218990D01*
X0107630Y0217992D02*
X0105970Y0217992D01*
X0106300Y0216993D02*
X0107300Y0216993D01*
X0107300Y0215995D02*
X0106300Y0215995D01*
X0106131Y0214996D02*
X0107469Y0214996D01*
X0107883Y0213998D02*
X0105717Y0213998D01*
X0104863Y0212999D02*
X0108737Y0212999D01*
X0098737Y0212999D02*
X0094863Y0212999D01*
X0095717Y0213998D02*
X0097883Y0213998D01*
X0097469Y0214996D02*
X0096131Y0214996D01*
X0096300Y0215995D02*
X0097300Y0215995D01*
X0097300Y0216993D02*
X0096300Y0216993D01*
X0095970Y0217992D02*
X0097630Y0217992D01*
X0098126Y0218990D02*
X0095474Y0218990D01*
X0094475Y0219989D02*
X0099125Y0219989D01*
X0089125Y0219989D02*
X0084475Y0219989D01*
X0085474Y0218990D02*
X0088126Y0218990D01*
X0087630Y0217992D02*
X0085970Y0217992D01*
X0086300Y0216993D02*
X0087300Y0216993D01*
X0087300Y0215995D02*
X0086300Y0215995D01*
X0086131Y0214996D02*
X0087469Y0214996D01*
X0087883Y0213998D02*
X0085717Y0213998D01*
X0084863Y0212999D02*
X0088737Y0212999D01*
X0078737Y0212999D02*
X0074863Y0212999D01*
X0075717Y0213998D02*
X0077883Y0213998D01*
X0077469Y0214996D02*
X0076131Y0214996D01*
X0076300Y0215995D02*
X0077300Y0215995D01*
X0077300Y0216993D02*
X0076300Y0216993D01*
X0075970Y0217992D02*
X0077630Y0217992D01*
X0078126Y0218990D02*
X0075474Y0218990D01*
X0074475Y0219989D02*
X0079125Y0219989D01*
X0069125Y0219989D02*
X0064475Y0219989D01*
X0065474Y0218990D02*
X0068126Y0218990D01*
X0067630Y0217992D02*
X0065970Y0217992D01*
X0066300Y0216993D02*
X0067300Y0216993D01*
X0067300Y0215995D02*
X0066300Y0215995D01*
X0066131Y0214996D02*
X0067469Y0214996D01*
X0067883Y0213998D02*
X0065717Y0213998D01*
X0064863Y0212999D02*
X0068737Y0212999D01*
X0058737Y0212999D02*
X0054863Y0212999D01*
X0055717Y0213998D02*
X0057883Y0213998D01*
X0057469Y0214996D02*
X0056131Y0214996D01*
X0056300Y0215995D02*
X0057300Y0215995D01*
X0057300Y0216993D02*
X0056300Y0216993D01*
X0055970Y0217992D02*
X0057630Y0217992D01*
X0058126Y0218990D02*
X0055474Y0218990D01*
X0054475Y0219989D02*
X0059125Y0219989D01*
X0049125Y0219989D02*
X0044475Y0219989D01*
X0045474Y0218990D02*
X0048126Y0218990D01*
X0047630Y0217992D02*
X0045970Y0217992D01*
X0046300Y0216993D02*
X0047300Y0216993D01*
X0047300Y0215995D02*
X0046300Y0215995D01*
X0046131Y0214996D02*
X0047469Y0214996D01*
X0047883Y0213998D02*
X0045717Y0213998D01*
X0044863Y0212999D02*
X0048737Y0212999D01*
X0052223Y0168700D02*
X0051157Y0168258D01*
X0050341Y0167443D01*
X0049900Y0166377D01*
X0049900Y0165223D01*
X0050341Y0164157D01*
X0051157Y0163341D01*
X0052223Y0162900D01*
X0053377Y0162900D01*
X0054443Y0163341D01*
X0055258Y0164157D01*
X0055700Y0165223D01*
X0055700Y0166377D01*
X0055258Y0167443D01*
X0054443Y0168258D01*
X0053377Y0168700D01*
X0052223Y0168700D01*
X0050965Y0168066D02*
X0013000Y0168066D01*
X0013000Y0167068D02*
X0050186Y0167068D01*
X0049900Y0166069D02*
X0013000Y0166069D01*
X0013000Y0165071D02*
X0049963Y0165071D01*
X0050427Y0164072D02*
X0013000Y0164072D01*
X0013000Y0163074D02*
X0051804Y0163074D01*
X0053796Y0163074D02*
X0091804Y0163074D01*
X0090427Y0164072D02*
X0055173Y0164072D01*
X0055637Y0165071D02*
X0089963Y0165071D01*
X0089900Y0166069D02*
X0055700Y0166069D01*
X0055414Y0167068D02*
X0090186Y0167068D01*
X0090965Y0168066D02*
X0054635Y0168066D01*
X0055868Y0148096D02*
X0059732Y0148096D01*
X0058881Y0147098D02*
X0056719Y0147098D01*
X0057133Y0146099D02*
X0058467Y0146099D01*
X0058300Y0145101D02*
X0057300Y0145101D01*
X0057300Y0144102D02*
X0058300Y0144102D01*
X0058632Y0143103D02*
X0056968Y0143103D01*
X0056469Y0142105D02*
X0059131Y0142105D01*
X0060130Y0141106D02*
X0055470Y0141106D01*
X0050130Y0141106D02*
X0045470Y0141106D01*
X0046469Y0142105D02*
X0049131Y0142105D01*
X0048632Y0143103D02*
X0046968Y0143103D01*
X0047300Y0144102D02*
X0048300Y0144102D01*
X0048300Y0145101D02*
X0047300Y0145101D01*
X0047133Y0146099D02*
X0048467Y0146099D01*
X0048881Y0147098D02*
X0046719Y0147098D01*
X0045868Y0148096D02*
X0049732Y0148096D01*
X0065868Y0148096D02*
X0069732Y0148096D01*
X0068881Y0147098D02*
X0066719Y0147098D01*
X0067133Y0146099D02*
X0068467Y0146099D01*
X0068300Y0145101D02*
X0067300Y0145101D01*
X0067300Y0144102D02*
X0068300Y0144102D01*
X0068632Y0143103D02*
X0066968Y0143103D01*
X0066469Y0142105D02*
X0069131Y0142105D01*
X0070130Y0141106D02*
X0065470Y0141106D01*
X0075470Y0141106D02*
X0080130Y0141106D01*
X0079131Y0142105D02*
X0076469Y0142105D01*
X0076968Y0143103D02*
X0078632Y0143103D01*
X0078300Y0144102D02*
X0077300Y0144102D01*
X0077300Y0145101D02*
X0078300Y0145101D01*
X0078467Y0146099D02*
X0077133Y0146099D01*
X0076719Y0147098D02*
X0078881Y0147098D01*
X0079732Y0148096D02*
X0075868Y0148096D01*
X0085868Y0148096D02*
X0089732Y0148096D01*
X0088881Y0147098D02*
X0086719Y0147098D01*
X0087133Y0146099D02*
X0088467Y0146099D01*
X0088300Y0145101D02*
X0087300Y0145101D01*
X0087300Y0144102D02*
X0088300Y0144102D01*
X0088632Y0143103D02*
X0086968Y0143103D01*
X0086469Y0142105D02*
X0089131Y0142105D01*
X0090130Y0141106D02*
X0085470Y0141106D01*
X0095470Y0141106D02*
X0100130Y0141106D01*
X0099131Y0142105D02*
X0096469Y0142105D01*
X0096968Y0143103D02*
X0098632Y0143103D01*
X0098300Y0144102D02*
X0097300Y0144102D01*
X0097300Y0145101D02*
X0098300Y0145101D01*
X0098467Y0146099D02*
X0097133Y0146099D01*
X0096719Y0147098D02*
X0098881Y0147098D01*
X0099732Y0148096D02*
X0095868Y0148096D01*
X0105868Y0148096D02*
X0110021Y0148096D01*
X0109154Y0147098D02*
X0106719Y0147098D01*
X0107133Y0146099D02*
X0108701Y0146099D01*
X0107300Y0145101D02*
X0112300Y0145101D01*
X0112300Y0146099D02*
X0113300Y0146099D01*
X0113300Y0147098D02*
X0112300Y0147098D01*
X0112300Y0148096D02*
X0113300Y0148096D01*
X0108557Y0144102D02*
X0107300Y0144102D01*
X0106968Y0143103D02*
X0108838Y0143103D01*
X0109443Y0142105D02*
X0106469Y0142105D01*
X0105470Y0141106D02*
X0110577Y0141106D01*
X0038432Y0096173D02*
X0013000Y0096173D01*
X0013000Y0095175D02*
X0037464Y0095175D01*
X0037050Y0094176D02*
X0013000Y0094176D01*
X0013000Y0093178D02*
X0036777Y0093178D01*
X0036777Y0092179D02*
X0013000Y0092179D01*
X0013000Y0091181D02*
X0036978Y0091181D01*
X0037392Y0090182D02*
X0013000Y0090182D01*
X0013000Y0089184D02*
X0038257Y0089184D01*
X0045102Y0077202D02*
X0058312Y0077202D01*
X0057832Y0076203D02*
X0045998Y0076203D01*
X0046582Y0075205D02*
X0057031Y0075205D01*
X0056617Y0074206D02*
X0046928Y0074206D01*
X0063918Y0077202D02*
X0275868Y0077202D01*
X0275512Y0077054D02*
X0277038Y0077686D01*
X0278688Y0077686D01*
X0280214Y0077054D01*
X0281381Y0075887D01*
X0282013Y0074362D01*
X0282013Y0072711D01*
X0281381Y0071185D01*
X0280214Y0070018D01*
X0278688Y0069386D01*
X0277038Y0069386D01*
X0275512Y0070018D01*
X0274345Y0071185D01*
X0273713Y0072711D01*
X0273713Y0074362D01*
X0274345Y0075887D01*
X0275512Y0077054D01*
X0274661Y0076203D02*
X0064398Y0076203D01*
X0065199Y0075205D02*
X0274062Y0075205D01*
X0273713Y0074206D02*
X0065613Y0074206D01*
X0065768Y0073208D02*
X0273713Y0073208D01*
X0273921Y0072209D02*
X0065768Y0072209D01*
X0065449Y0071211D02*
X0274334Y0071211D01*
X0275318Y0070212D02*
X0109080Y0070212D01*
X0107520Y0070212D02*
X0065001Y0070212D01*
X0064002Y0069214D02*
X0105987Y0069214D01*
X0105444Y0068215D02*
X0064608Y0068215D01*
X0065606Y0067217D02*
X0105311Y0067217D01*
X0105513Y0066218D02*
X0066286Y0066218D01*
X0066700Y0065220D02*
X0106153Y0065220D01*
X0110447Y0065220D02*
X0274068Y0065220D01*
X0274345Y0065887D02*
X0273713Y0064362D01*
X0273713Y0062711D01*
X0274345Y0061185D01*
X0275512Y0060018D01*
X0277038Y0059386D01*
X0278688Y0059386D01*
X0280214Y0060018D01*
X0281381Y0061185D01*
X0282013Y0062711D01*
X0282013Y0064362D01*
X0281381Y0065887D01*
X0280214Y0067054D01*
X0278688Y0067686D01*
X0277038Y0067686D01*
X0275512Y0067054D01*
X0274345Y0065887D01*
X0274676Y0066218D02*
X0111087Y0066218D01*
X0111289Y0067217D02*
X0275904Y0067217D01*
X0273713Y0064221D02*
X0066949Y0064221D01*
X0066949Y0063223D02*
X0273713Y0063223D01*
X0273915Y0062224D02*
X0066919Y0062224D01*
X0066505Y0061226D02*
X0274328Y0061226D01*
X0275303Y0060227D02*
X0066091Y0060227D01*
X0037862Y0056233D02*
X0013000Y0056233D01*
X0013000Y0055234D02*
X0037228Y0055234D01*
X0036814Y0054236D02*
X0013000Y0054236D01*
X0013000Y0053237D02*
X0036777Y0053237D01*
X0036801Y0052239D02*
X0013000Y0052239D01*
X0013000Y0051240D02*
X0037214Y0051240D01*
X0037829Y0050242D02*
X0013000Y0050242D01*
X0013000Y0049243D02*
X0038875Y0049243D01*
X0218170Y0032269D02*
X0222908Y0032269D01*
X0221685Y0031270D02*
X0219632Y0031270D01*
X0220263Y0030272D02*
X0221120Y0030272D01*
X0220832Y0029273D02*
X0220546Y0029273D01*
X0220536Y0028275D02*
X0220832Y0028275D01*
X0221142Y0027276D02*
X0220242Y0027276D01*
X0219580Y0026278D02*
X0221737Y0026278D01*
X0223034Y0025279D02*
X0218044Y0025279D01*
X0279750Y0047246D02*
X0285976Y0047246D01*
X0284706Y0046248D02*
X0281020Y0046248D01*
X0281645Y0045249D02*
X0284081Y0045249D01*
X0283713Y0044251D02*
X0282013Y0044251D01*
X0282013Y0043252D02*
X0283713Y0043252D01*
X0283902Y0042254D02*
X0281824Y0042254D01*
X0281410Y0041255D02*
X0284316Y0041255D01*
X0285273Y0040257D02*
X0280453Y0040257D01*
X0280438Y0050242D02*
X0285288Y0050242D01*
X0284322Y0051240D02*
X0281404Y0051240D01*
X0281818Y0052239D02*
X0283908Y0052239D01*
X0283713Y0053237D02*
X0282013Y0053237D01*
X0282013Y0054236D02*
X0283713Y0054236D01*
X0284075Y0055234D02*
X0281651Y0055234D01*
X0281035Y0056233D02*
X0284691Y0056233D01*
X0285940Y0057232D02*
X0279786Y0057232D01*
X0280423Y0060227D02*
X0285303Y0060227D01*
X0284328Y0061226D02*
X0281398Y0061226D01*
X0281811Y0062224D02*
X0283915Y0062224D01*
X0283713Y0063223D02*
X0282013Y0063223D01*
X0282013Y0064221D02*
X0283713Y0064221D01*
X0284068Y0065220D02*
X0281658Y0065220D01*
X0281050Y0066218D02*
X0284676Y0066218D01*
X0285904Y0067217D02*
X0279822Y0067217D01*
X0280408Y0070212D02*
X0285318Y0070212D01*
X0284334Y0071211D02*
X0281392Y0071211D01*
X0281805Y0072209D02*
X0283921Y0072209D01*
X0283713Y0073208D02*
X0282013Y0073208D01*
X0282013Y0074206D02*
X0283713Y0074206D01*
X0284062Y0075205D02*
X0281664Y0075205D01*
X0281065Y0076203D02*
X0284661Y0076203D01*
X0285868Y0077202D02*
X0279858Y0077202D01*
X0280393Y0080197D02*
X0285333Y0080197D01*
X0284341Y0081196D02*
X0281385Y0081196D01*
X0281799Y0082194D02*
X0283927Y0082194D01*
X0283713Y0083193D02*
X0282013Y0083193D01*
X0282013Y0084191D02*
X0283713Y0084191D01*
X0284056Y0085190D02*
X0281670Y0085190D01*
X0281080Y0086188D02*
X0284646Y0086188D01*
X0285832Y0087187D02*
X0279894Y0087187D01*
X0280378Y0090182D02*
X0285348Y0090182D01*
X0284349Y0091181D02*
X0281377Y0091181D01*
X0281793Y0092179D02*
X0283933Y0092179D01*
X0283713Y0093178D02*
X0282013Y0093178D01*
X0282013Y0094176D02*
X0283713Y0094176D01*
X0284050Y0095175D02*
X0281676Y0095175D01*
X0281095Y0096173D02*
X0284631Y0096173D01*
X0285796Y0097172D02*
X0279930Y0097172D01*
X0280363Y0100168D02*
X0285363Y0100168D01*
X0284364Y0101166D02*
X0281362Y0101166D01*
X0281787Y0102165D02*
X0283939Y0102165D01*
X0283713Y0103163D02*
X0282013Y0103163D01*
X0282013Y0104162D02*
X0283713Y0104162D01*
X0284044Y0105160D02*
X0281682Y0105160D01*
X0281110Y0106159D02*
X0284616Y0106159D01*
X0285760Y0107157D02*
X0279966Y0107157D01*
D17*
X0204800Y0089300D03*
X0179800Y0085300D03*
X0162800Y0091300D03*
X0197300Y0071300D03*
X0108300Y0067300D03*
X0108300Y0062300D03*
X0098800Y0061300D03*
X0098800Y0086800D03*
D18*
X0115300Y0078800D03*
X0129300Y0082800D03*
X0142300Y0072800D03*
X0146800Y0066800D03*
X0151300Y0072800D03*
X0143800Y0055800D03*
X0146300Y0041300D03*
X0152800Y0041300D03*
X0139300Y0041300D03*
X0148800Y0032300D03*
X0146300Y0097300D03*
X0138300Y0097300D03*
X0129800Y0097300D03*
X0115300Y0096800D03*
X0174300Y0097300D03*
X0092800Y0165800D03*
X0052800Y0165800D03*
M02*
