G75*
%MOIN*%
%OFA0B0*%
%FSLAX25Y25*%
%IPPOS*%
%LPD*%
%AMOC8*
5,1,8,0,0,1.08239X$1,22.5*
%
%ADD10C,0.04900*%
%ADD11C,0.04409*%
%ADD12C,0.08268*%
%ADD13C,0.05600*%
%ADD14C,0.05512*%
%ADD15C,0.12677*%
%ADD16C,0.02578*%
%ADD17C,0.02400*%
%ADD18C,0.01000*%
%ADD19C,0.00600*%
D10*
X0277863Y0043536D03*
X0287863Y0043536D03*
X0287863Y0053536D03*
X0277863Y0053536D03*
X0277863Y0063536D03*
X0287863Y0063536D03*
X0287863Y0073536D03*
X0277863Y0073536D03*
X0277863Y0083536D03*
X0287863Y0083536D03*
X0287863Y0093536D03*
X0277863Y0093536D03*
X0277863Y0103536D03*
X0287863Y0103536D03*
X0287863Y0113536D03*
X0277863Y0113536D03*
X0277863Y0123536D03*
X0287863Y0123536D03*
X0287863Y0133536D03*
X0277863Y0133536D03*
X0277863Y0143536D03*
X0287863Y0143536D03*
X0287863Y0153536D03*
X0277863Y0153536D03*
X0277863Y0163536D03*
X0287863Y0163536D03*
X0287863Y0173536D03*
X0277863Y0173536D03*
X0277863Y0183536D03*
X0287863Y0183536D03*
X0287863Y0193536D03*
X0277863Y0193536D03*
X0277863Y0203536D03*
X0287863Y0203536D03*
X0287863Y0213536D03*
X0277863Y0213536D03*
X0377863Y0213536D03*
X0387863Y0213536D03*
X0387863Y0203536D03*
X0377863Y0203536D03*
X0377863Y0193536D03*
X0387863Y0193536D03*
X0387863Y0183536D03*
X0377863Y0183536D03*
X0377863Y0173536D03*
X0387863Y0173536D03*
X0387863Y0163536D03*
X0377863Y0163536D03*
X0377863Y0153536D03*
X0387863Y0153536D03*
X0387863Y0143536D03*
X0377863Y0143536D03*
X0377863Y0133536D03*
X0387863Y0133536D03*
X0387863Y0123536D03*
X0377863Y0123536D03*
X0377863Y0113536D03*
X0387863Y0113536D03*
X0387863Y0103536D03*
X0377863Y0103536D03*
X0377863Y0093536D03*
X0387863Y0093536D03*
X0387863Y0083536D03*
X0377863Y0083536D03*
X0377863Y0073536D03*
X0387863Y0073536D03*
X0387863Y0063536D03*
X0377863Y0063536D03*
X0377863Y0053536D03*
X0387863Y0053536D03*
X0387863Y0043536D03*
X0377863Y0043536D03*
D11*
X0224737Y0028800D03*
X0216863Y0028800D03*
D12*
X0061115Y0052828D03*
X0061115Y0063457D03*
X0041430Y0072906D03*
X0061115Y0082355D03*
X0061115Y0092985D03*
D13*
X0062800Y0144800D03*
X0072800Y0144800D03*
X0082800Y0144800D03*
X0092800Y0144800D03*
X0102800Y0144800D03*
X0112800Y0144800D03*
X0052800Y0144800D03*
X0042800Y0144800D03*
X0041800Y0216300D03*
X0051800Y0216300D03*
X0061800Y0216300D03*
X0071800Y0216300D03*
X0081800Y0216300D03*
X0091800Y0216300D03*
X0101800Y0216300D03*
X0111800Y0216300D03*
X0121800Y0216300D03*
X0031800Y0216300D03*
D14*
X0194520Y0184158D03*
X0204363Y0184158D03*
X0212237Y0184158D03*
X0222080Y0184158D03*
D15*
X0234166Y0194828D03*
X0182434Y0194828D03*
D16*
X0162800Y0091300D03*
X0179800Y0085300D03*
X0197300Y0071300D03*
X0204800Y0089300D03*
X0108300Y0067300D03*
X0108300Y0062300D03*
X0098800Y0061300D03*
X0098800Y0086800D03*
D17*
X0115300Y0078800D03*
X0129300Y0082800D03*
X0142300Y0072800D03*
X0146800Y0066800D03*
X0151300Y0072800D03*
X0143800Y0055800D03*
X0146300Y0041300D03*
X0152800Y0041300D03*
X0139300Y0041300D03*
X0148800Y0032300D03*
X0146300Y0097300D03*
X0138300Y0097300D03*
X0129800Y0097300D03*
X0115300Y0096800D03*
X0174300Y0097300D03*
X0092800Y0165800D03*
X0052800Y0165800D03*
D18*
X0032800Y0166069D02*
X0130800Y0166069D01*
X0130800Y0165071D02*
X0032800Y0165071D01*
X0032800Y0164072D02*
X0130800Y0164072D01*
X0130800Y0163074D02*
X0032800Y0163074D01*
X0032800Y0162075D02*
X0130800Y0162075D01*
X0130800Y0161077D02*
X0032800Y0161077D01*
X0032800Y0160078D02*
X0130800Y0160078D01*
X0130800Y0159080D02*
X0032800Y0159080D01*
X0032800Y0158081D02*
X0130800Y0158081D01*
X0130800Y0157083D02*
X0032800Y0157083D01*
X0032800Y0156084D02*
X0130800Y0156084D01*
X0130800Y0155086D02*
X0032800Y0155086D01*
X0032800Y0154087D02*
X0130800Y0154087D01*
X0130800Y0153089D02*
X0032800Y0153089D01*
X0032800Y0152090D02*
X0130800Y0152090D01*
X0130800Y0151092D02*
X0032800Y0151092D01*
X0032800Y0150093D02*
X0130800Y0150093D01*
X0130800Y0149800D02*
X0276039Y0149800D01*
X0277038Y0149386D01*
X0278688Y0149386D01*
X0279687Y0149800D01*
X0286039Y0149800D01*
X0287038Y0149386D01*
X0288688Y0149386D01*
X0289687Y0149800D01*
X0340300Y0149800D01*
X0371300Y0118800D01*
X0393300Y0118800D01*
X0395800Y0116300D01*
X0395800Y0097800D01*
X0365300Y0097800D01*
X0335300Y0127800D01*
X0032800Y0127800D01*
X0032800Y0173300D01*
X0130800Y0173300D01*
X0130800Y0149800D01*
X0117300Y0145695D02*
X0117300Y0143905D01*
X0116615Y0142251D01*
X0115349Y0140985D01*
X0113695Y0140300D01*
X0111905Y0140300D01*
X0110251Y0140985D01*
X0108985Y0142251D01*
X0108300Y0143905D01*
X0108300Y0145695D01*
X0108985Y0147349D01*
X0110251Y0148615D01*
X0111905Y0149300D01*
X0113695Y0149300D01*
X0115349Y0148615D01*
X0116615Y0147349D01*
X0117300Y0145695D01*
X0117133Y0146099D02*
X0274557Y0146099D01*
X0274345Y0145887D02*
X0273713Y0144362D01*
X0273713Y0142711D01*
X0274345Y0141185D01*
X0275512Y0140018D01*
X0277038Y0139386D01*
X0278688Y0139386D01*
X0280214Y0140018D01*
X0281381Y0141185D01*
X0282013Y0142711D01*
X0282013Y0144362D01*
X0281381Y0145887D01*
X0280214Y0147054D01*
X0278688Y0147686D01*
X0277038Y0147686D01*
X0275512Y0147054D01*
X0274345Y0145887D01*
X0274019Y0145101D02*
X0117300Y0145101D01*
X0117300Y0144102D02*
X0273713Y0144102D01*
X0273713Y0143103D02*
X0116968Y0143103D01*
X0116469Y0142105D02*
X0273964Y0142105D01*
X0274424Y0141106D02*
X0115470Y0141106D01*
X0110130Y0141106D02*
X0105023Y0141106D01*
X0105054Y0141122D02*
X0105601Y0141520D01*
X0106080Y0141999D01*
X0106478Y0142546D01*
X0106785Y0143149D01*
X0106994Y0143793D01*
X0107074Y0144300D01*
X0103300Y0144300D01*
X0103300Y0145300D01*
X0102300Y0145300D01*
X0102300Y0149074D01*
X0101793Y0148994D01*
X0101149Y0148785D01*
X0100546Y0148478D01*
X0099999Y0148080D01*
X0099520Y0147601D01*
X0099122Y0147054D01*
X0098815Y0146451D01*
X0098606Y0145807D01*
X0098526Y0145300D01*
X0102300Y0145300D01*
X0102300Y0144300D01*
X0098526Y0144300D01*
X0098606Y0143793D01*
X0098815Y0143149D01*
X0099122Y0142546D01*
X0099520Y0141999D01*
X0099999Y0141520D01*
X0100546Y0141122D01*
X0101149Y0140815D01*
X0101793Y0140606D01*
X0102300Y0140526D01*
X0102300Y0144300D01*
X0103300Y0144300D01*
X0103300Y0140526D01*
X0103807Y0140606D01*
X0104451Y0140815D01*
X0105054Y0141122D01*
X0106157Y0142105D02*
X0109131Y0142105D01*
X0108632Y0143103D02*
X0106762Y0143103D01*
X0107043Y0144102D02*
X0108300Y0144102D01*
X0108300Y0145101D02*
X0103300Y0145101D01*
X0103300Y0145300D02*
X0107074Y0145300D01*
X0106994Y0145807D01*
X0106785Y0146451D01*
X0106478Y0147054D01*
X0106080Y0147601D01*
X0105601Y0148080D01*
X0105054Y0148478D01*
X0104451Y0148785D01*
X0103807Y0148994D01*
X0103300Y0149074D01*
X0103300Y0145300D01*
X0103300Y0146099D02*
X0102300Y0146099D01*
X0102300Y0145101D02*
X0097300Y0145101D01*
X0097300Y0145695D02*
X0096615Y0147349D01*
X0095349Y0148615D01*
X0093695Y0149300D01*
X0091905Y0149300D01*
X0090251Y0148615D01*
X0088985Y0147349D01*
X0088300Y0145695D01*
X0088300Y0143905D01*
X0088985Y0142251D01*
X0090251Y0140985D01*
X0091905Y0140300D01*
X0093695Y0140300D01*
X0095349Y0140985D01*
X0096615Y0142251D01*
X0097300Y0143905D01*
X0097300Y0145695D01*
X0097133Y0146099D02*
X0098701Y0146099D01*
X0099154Y0147098D02*
X0096719Y0147098D01*
X0095868Y0148096D02*
X0100021Y0148096D01*
X0102300Y0148096D02*
X0103300Y0148096D01*
X0103300Y0147098D02*
X0102300Y0147098D01*
X0102300Y0144102D02*
X0103300Y0144102D01*
X0103300Y0143103D02*
X0102300Y0143103D01*
X0102300Y0142105D02*
X0103300Y0142105D01*
X0103300Y0141106D02*
X0102300Y0141106D01*
X0100577Y0141106D02*
X0095470Y0141106D01*
X0096469Y0142105D02*
X0099443Y0142105D01*
X0098838Y0143103D02*
X0096968Y0143103D01*
X0097300Y0144102D02*
X0098557Y0144102D01*
X0094191Y0149095D02*
X0111409Y0149095D01*
X0109732Y0148096D02*
X0105579Y0148096D01*
X0106446Y0147098D02*
X0108881Y0147098D01*
X0108467Y0146099D02*
X0106899Y0146099D01*
X0114191Y0149095D02*
X0341005Y0149095D01*
X0342004Y0148096D02*
X0115868Y0148096D01*
X0116719Y0147098D02*
X0275616Y0147098D01*
X0280110Y0147098D02*
X0285616Y0147098D01*
X0285512Y0147054D02*
X0284345Y0145887D01*
X0283713Y0144362D01*
X0283713Y0142711D01*
X0284345Y0141185D01*
X0285512Y0140018D01*
X0287038Y0139386D01*
X0288688Y0139386D01*
X0290214Y0140018D01*
X0291381Y0141185D01*
X0292013Y0142711D01*
X0292013Y0144362D01*
X0291381Y0145887D01*
X0290214Y0147054D01*
X0288688Y0147686D01*
X0287038Y0147686D01*
X0285512Y0147054D01*
X0284557Y0146099D02*
X0281169Y0146099D01*
X0281707Y0145101D02*
X0284019Y0145101D01*
X0283713Y0144102D02*
X0282013Y0144102D01*
X0282013Y0143103D02*
X0283713Y0143103D01*
X0283964Y0142105D02*
X0281762Y0142105D01*
X0281302Y0141106D02*
X0284424Y0141106D01*
X0285422Y0140108D02*
X0280304Y0140108D01*
X0278688Y0137686D02*
X0277038Y0137686D01*
X0275512Y0137054D01*
X0274345Y0135887D01*
X0273713Y0134362D01*
X0273713Y0132711D01*
X0274345Y0131185D01*
X0275512Y0130018D01*
X0277038Y0129386D01*
X0278688Y0129386D01*
X0280214Y0130018D01*
X0281381Y0131185D01*
X0282013Y0132711D01*
X0282013Y0134362D01*
X0281381Y0135887D01*
X0280214Y0137054D01*
X0278688Y0137686D01*
X0280074Y0137112D02*
X0285652Y0137112D01*
X0285512Y0137054D02*
X0284345Y0135887D01*
X0283713Y0134362D01*
X0283713Y0132711D01*
X0284345Y0131185D01*
X0285512Y0130018D01*
X0287038Y0129386D01*
X0288688Y0129386D01*
X0290214Y0130018D01*
X0291381Y0131185D01*
X0292013Y0132711D01*
X0292013Y0134362D01*
X0291381Y0135887D01*
X0290214Y0137054D01*
X0288688Y0137686D01*
X0287038Y0137686D01*
X0285512Y0137054D01*
X0284572Y0136114D02*
X0281154Y0136114D01*
X0281701Y0135115D02*
X0284025Y0135115D01*
X0283713Y0134117D02*
X0282013Y0134117D01*
X0282013Y0133118D02*
X0283713Y0133118D01*
X0283958Y0132120D02*
X0281768Y0132120D01*
X0281317Y0131121D02*
X0284409Y0131121D01*
X0285407Y0130123D02*
X0280319Y0130123D01*
X0275407Y0130123D02*
X0032800Y0130123D01*
X0032800Y0131121D02*
X0274409Y0131121D01*
X0273958Y0132120D02*
X0032800Y0132120D01*
X0032800Y0133118D02*
X0273713Y0133118D01*
X0273713Y0134117D02*
X0032800Y0134117D01*
X0032800Y0135115D02*
X0274025Y0135115D01*
X0274572Y0136114D02*
X0032800Y0136114D01*
X0032800Y0137112D02*
X0275652Y0137112D01*
X0275422Y0140108D02*
X0032800Y0140108D01*
X0032800Y0141106D02*
X0040577Y0141106D01*
X0040546Y0141122D02*
X0041149Y0140815D01*
X0041793Y0140606D01*
X0042300Y0140526D01*
X0042300Y0144300D01*
X0038526Y0144300D01*
X0038606Y0143793D01*
X0038815Y0143149D01*
X0039122Y0142546D01*
X0039520Y0141999D01*
X0039999Y0141520D01*
X0040546Y0141122D01*
X0039443Y0142105D02*
X0032800Y0142105D01*
X0032800Y0143103D02*
X0038838Y0143103D01*
X0038557Y0144102D02*
X0032800Y0144102D01*
X0032800Y0145101D02*
X0042300Y0145101D01*
X0042300Y0145300D02*
X0042300Y0144300D01*
X0043300Y0144300D01*
X0043300Y0145300D01*
X0042300Y0145300D01*
X0042300Y0149074D01*
X0041793Y0148994D01*
X0041149Y0148785D01*
X0040546Y0148478D01*
X0039999Y0148080D01*
X0039520Y0147601D01*
X0039122Y0147054D01*
X0038815Y0146451D01*
X0038606Y0145807D01*
X0038526Y0145300D01*
X0042300Y0145300D01*
X0042300Y0146099D02*
X0043300Y0146099D01*
X0043300Y0145300D02*
X0043300Y0149074D01*
X0043807Y0148994D01*
X0044451Y0148785D01*
X0045054Y0148478D01*
X0045601Y0148080D01*
X0046080Y0147601D01*
X0046478Y0147054D01*
X0046785Y0146451D01*
X0046994Y0145807D01*
X0047074Y0145300D01*
X0043300Y0145300D01*
X0043300Y0145101D02*
X0048300Y0145101D01*
X0048300Y0145695D02*
X0048300Y0143905D01*
X0048985Y0142251D01*
X0050251Y0140985D01*
X0051905Y0140300D01*
X0053695Y0140300D01*
X0055349Y0140985D01*
X0056615Y0142251D01*
X0057300Y0143905D01*
X0057300Y0145695D01*
X0056615Y0147349D01*
X0055349Y0148615D01*
X0053695Y0149300D01*
X0051905Y0149300D01*
X0050251Y0148615D01*
X0048985Y0147349D01*
X0048300Y0145695D01*
X0048467Y0146099D02*
X0046899Y0146099D01*
X0046446Y0147098D02*
X0048881Y0147098D01*
X0049732Y0148096D02*
X0045579Y0148096D01*
X0043300Y0148096D02*
X0042300Y0148096D01*
X0042300Y0147098D02*
X0043300Y0147098D01*
X0043300Y0144300D02*
X0047074Y0144300D01*
X0046994Y0143793D01*
X0046785Y0143149D01*
X0046478Y0142546D01*
X0046080Y0141999D01*
X0045601Y0141520D01*
X0045054Y0141122D01*
X0044451Y0140815D01*
X0043807Y0140606D01*
X0043300Y0140526D01*
X0043300Y0144300D01*
X0043300Y0144102D02*
X0042300Y0144102D01*
X0042300Y0143103D02*
X0043300Y0143103D01*
X0043300Y0142105D02*
X0042300Y0142105D01*
X0042300Y0141106D02*
X0043300Y0141106D01*
X0045023Y0141106D02*
X0050130Y0141106D01*
X0049131Y0142105D02*
X0046157Y0142105D01*
X0046762Y0143103D02*
X0048632Y0143103D01*
X0048300Y0144102D02*
X0047043Y0144102D01*
X0051409Y0149095D02*
X0032800Y0149095D01*
X0032800Y0148096D02*
X0040021Y0148096D01*
X0039154Y0147098D02*
X0032800Y0147098D01*
X0032800Y0146099D02*
X0038701Y0146099D01*
X0032800Y0139109D02*
X0350991Y0139109D01*
X0351989Y0138111D02*
X0032800Y0138111D01*
X0032800Y0129124D02*
X0360976Y0129124D01*
X0361974Y0128126D02*
X0032800Y0128126D01*
X0055470Y0141106D02*
X0060577Y0141106D01*
X0060546Y0141122D02*
X0061149Y0140815D01*
X0061793Y0140606D01*
X0062300Y0140526D01*
X0062300Y0144300D01*
X0058526Y0144300D01*
X0058606Y0143793D01*
X0058815Y0143149D01*
X0059122Y0142546D01*
X0059520Y0141999D01*
X0059999Y0141520D01*
X0060546Y0141122D01*
X0059443Y0142105D02*
X0056469Y0142105D01*
X0056968Y0143103D02*
X0058838Y0143103D01*
X0058557Y0144102D02*
X0057300Y0144102D01*
X0057300Y0145101D02*
X0062300Y0145101D01*
X0062300Y0145300D02*
X0062300Y0144300D01*
X0063300Y0144300D01*
X0063300Y0145300D01*
X0062300Y0145300D01*
X0062300Y0149074D01*
X0061793Y0148994D01*
X0061149Y0148785D01*
X0060546Y0148478D01*
X0059999Y0148080D01*
X0059520Y0147601D01*
X0059122Y0147054D01*
X0058815Y0146451D01*
X0058606Y0145807D01*
X0058526Y0145300D01*
X0062300Y0145300D01*
X0062300Y0146099D02*
X0063300Y0146099D01*
X0063300Y0145300D02*
X0063300Y0149074D01*
X0063807Y0148994D01*
X0064451Y0148785D01*
X0065054Y0148478D01*
X0065601Y0148080D01*
X0066080Y0147601D01*
X0066478Y0147054D01*
X0066785Y0146451D01*
X0066994Y0145807D01*
X0067074Y0145300D01*
X0063300Y0145300D01*
X0063300Y0145101D02*
X0068300Y0145101D01*
X0068300Y0145695D02*
X0068300Y0143905D01*
X0068985Y0142251D01*
X0070251Y0140985D01*
X0071905Y0140300D01*
X0073695Y0140300D01*
X0075349Y0140985D01*
X0076615Y0142251D01*
X0077300Y0143905D01*
X0077300Y0145695D01*
X0076615Y0147349D01*
X0075349Y0148615D01*
X0073695Y0149300D01*
X0071905Y0149300D01*
X0070251Y0148615D01*
X0068985Y0147349D01*
X0068300Y0145695D01*
X0068467Y0146099D02*
X0066899Y0146099D01*
X0066446Y0147098D02*
X0068881Y0147098D01*
X0069732Y0148096D02*
X0065579Y0148096D01*
X0063300Y0148096D02*
X0062300Y0148096D01*
X0062300Y0147098D02*
X0063300Y0147098D01*
X0063300Y0144300D02*
X0067074Y0144300D01*
X0066994Y0143793D01*
X0066785Y0143149D01*
X0066478Y0142546D01*
X0066080Y0141999D01*
X0065601Y0141520D01*
X0065054Y0141122D01*
X0064451Y0140815D01*
X0063807Y0140606D01*
X0063300Y0140526D01*
X0063300Y0144300D01*
X0063300Y0144102D02*
X0062300Y0144102D01*
X0062300Y0143103D02*
X0063300Y0143103D01*
X0063300Y0142105D02*
X0062300Y0142105D01*
X0062300Y0141106D02*
X0063300Y0141106D01*
X0065023Y0141106D02*
X0070130Y0141106D01*
X0069131Y0142105D02*
X0066157Y0142105D01*
X0066762Y0143103D02*
X0068632Y0143103D01*
X0068300Y0144102D02*
X0067043Y0144102D01*
X0071409Y0149095D02*
X0054191Y0149095D01*
X0055868Y0148096D02*
X0060021Y0148096D01*
X0059154Y0147098D02*
X0056719Y0147098D01*
X0057133Y0146099D02*
X0058701Y0146099D01*
X0074191Y0149095D02*
X0081409Y0149095D01*
X0081905Y0149300D02*
X0080251Y0148615D01*
X0078985Y0147349D01*
X0078300Y0145695D01*
X0078300Y0143905D01*
X0078985Y0142251D01*
X0080251Y0140985D01*
X0081905Y0140300D01*
X0083695Y0140300D01*
X0085349Y0140985D01*
X0086615Y0142251D01*
X0087300Y0143905D01*
X0087300Y0145695D01*
X0086615Y0147349D01*
X0085349Y0148615D01*
X0083695Y0149300D01*
X0081905Y0149300D01*
X0084191Y0149095D02*
X0091409Y0149095D01*
X0089732Y0148096D02*
X0085868Y0148096D01*
X0086719Y0147098D02*
X0088881Y0147098D01*
X0088467Y0146099D02*
X0087133Y0146099D01*
X0087300Y0145101D02*
X0088300Y0145101D01*
X0088300Y0144102D02*
X0087300Y0144102D01*
X0086968Y0143103D02*
X0088632Y0143103D01*
X0089131Y0142105D02*
X0086469Y0142105D01*
X0085470Y0141106D02*
X0090130Y0141106D01*
X0080130Y0141106D02*
X0075470Y0141106D01*
X0076469Y0142105D02*
X0079131Y0142105D01*
X0078632Y0143103D02*
X0076968Y0143103D01*
X0077300Y0144102D02*
X0078300Y0144102D01*
X0078300Y0145101D02*
X0077300Y0145101D01*
X0077133Y0146099D02*
X0078467Y0146099D01*
X0078881Y0147098D02*
X0076719Y0147098D01*
X0075868Y0148096D02*
X0079732Y0148096D01*
X0032800Y0167068D02*
X0130800Y0167068D01*
X0130800Y0168066D02*
X0032800Y0168066D01*
X0032800Y0169065D02*
X0130800Y0169065D01*
X0130800Y0170063D02*
X0032800Y0170063D01*
X0032800Y0171062D02*
X0130800Y0171062D01*
X0130800Y0172060D02*
X0032800Y0172060D01*
X0032800Y0173059D02*
X0130800Y0173059D01*
X0170300Y0096300D02*
X0170300Y0064800D01*
X0157800Y0052300D01*
X0103800Y0052300D01*
X0103800Y0073800D01*
X0125800Y0095800D01*
X0127282Y0095800D01*
X0127341Y0095657D01*
X0128157Y0094841D01*
X0129223Y0094400D01*
X0130377Y0094400D01*
X0131443Y0094841D01*
X0132258Y0095657D01*
X0132318Y0095800D01*
X0135782Y0095800D01*
X0135841Y0095657D01*
X0136657Y0094841D01*
X0137723Y0094400D01*
X0138877Y0094400D01*
X0139943Y0094841D01*
X0140758Y0095657D01*
X0140818Y0095800D01*
X0143782Y0095800D01*
X0143841Y0095657D01*
X0144657Y0094841D01*
X0145723Y0094400D01*
X0146877Y0094400D01*
X0147943Y0094841D01*
X0148758Y0095657D01*
X0148818Y0095800D01*
X0169800Y0095800D01*
X0170300Y0096300D01*
X0170300Y0096173D02*
X0170173Y0096173D01*
X0170300Y0095175D02*
X0148276Y0095175D01*
X0144324Y0095175D02*
X0140276Y0095175D01*
X0136324Y0095175D02*
X0131776Y0095175D01*
X0127824Y0095175D02*
X0125175Y0095175D01*
X0124176Y0094176D02*
X0170300Y0094176D01*
X0170300Y0093178D02*
X0123178Y0093178D01*
X0122179Y0092179D02*
X0170300Y0092179D01*
X0170300Y0091181D02*
X0121181Y0091181D01*
X0120182Y0090182D02*
X0170300Y0090182D01*
X0170300Y0089184D02*
X0119184Y0089184D01*
X0118185Y0088185D02*
X0170300Y0088185D01*
X0170300Y0087187D02*
X0117187Y0087187D01*
X0116188Y0086188D02*
X0170300Y0086188D01*
X0170300Y0085190D02*
X0131011Y0085190D01*
X0130943Y0085258D02*
X0129877Y0085700D01*
X0128723Y0085700D01*
X0127657Y0085258D01*
X0126841Y0084443D01*
X0126400Y0083377D01*
X0126400Y0082223D01*
X0126841Y0081157D01*
X0127657Y0080341D01*
X0128723Y0079900D01*
X0129877Y0079900D01*
X0130943Y0080341D01*
X0131758Y0081157D01*
X0132200Y0082223D01*
X0132200Y0083377D01*
X0131758Y0084443D01*
X0130943Y0085258D01*
X0131863Y0084191D02*
X0170300Y0084191D01*
X0170300Y0083193D02*
X0132200Y0083193D01*
X0132188Y0082194D02*
X0170300Y0082194D01*
X0170300Y0081196D02*
X0131774Y0081196D01*
X0130595Y0080197D02*
X0170300Y0080197D01*
X0170300Y0079199D02*
X0118200Y0079199D01*
X0118200Y0079377D02*
X0117758Y0080443D01*
X0116943Y0081258D01*
X0115877Y0081700D01*
X0114723Y0081700D01*
X0113657Y0081258D01*
X0112841Y0080443D01*
X0112400Y0079377D01*
X0112400Y0078223D01*
X0112841Y0077157D01*
X0113657Y0076341D01*
X0114723Y0075900D01*
X0115877Y0075900D01*
X0116943Y0076341D01*
X0117758Y0077157D01*
X0118200Y0078223D01*
X0118200Y0079377D01*
X0117860Y0080197D02*
X0128005Y0080197D01*
X0126826Y0081196D02*
X0117005Y0081196D01*
X0113595Y0081196D02*
X0111196Y0081196D01*
X0112194Y0082194D02*
X0126412Y0082194D01*
X0126400Y0083193D02*
X0113193Y0083193D01*
X0114191Y0084191D02*
X0126737Y0084191D01*
X0127589Y0085190D02*
X0115190Y0085190D01*
X0112740Y0080197D02*
X0110197Y0080197D01*
X0109199Y0079199D02*
X0112400Y0079199D01*
X0112409Y0078200D02*
X0108200Y0078200D01*
X0107202Y0077202D02*
X0112823Y0077202D01*
X0113991Y0076203D02*
X0106203Y0076203D01*
X0105205Y0075205D02*
X0140604Y0075205D01*
X0140657Y0075258D02*
X0139841Y0074443D01*
X0139400Y0073377D01*
X0139400Y0072223D01*
X0139841Y0071157D01*
X0140657Y0070341D01*
X0141723Y0069900D01*
X0142877Y0069900D01*
X0143943Y0070341D01*
X0144758Y0071157D01*
X0145200Y0072223D01*
X0145200Y0073377D01*
X0144758Y0074443D01*
X0143943Y0075258D01*
X0142877Y0075700D01*
X0141723Y0075700D01*
X0140657Y0075258D01*
X0139744Y0074206D02*
X0104206Y0074206D01*
X0103800Y0073208D02*
X0139400Y0073208D01*
X0139406Y0072209D02*
X0103800Y0072209D01*
X0103800Y0071211D02*
X0139819Y0071211D01*
X0140970Y0070212D02*
X0103800Y0070212D01*
X0103800Y0069214D02*
X0145112Y0069214D01*
X0145157Y0069258D02*
X0144341Y0068443D01*
X0143900Y0067377D01*
X0143900Y0066223D01*
X0144341Y0065157D01*
X0145157Y0064341D01*
X0146223Y0063900D01*
X0147377Y0063900D01*
X0148443Y0064341D01*
X0149258Y0065157D01*
X0149700Y0066223D01*
X0149700Y0067377D01*
X0149258Y0068443D01*
X0148443Y0069258D01*
X0147377Y0069700D01*
X0146223Y0069700D01*
X0145157Y0069258D01*
X0144247Y0068215D02*
X0103800Y0068215D01*
X0103800Y0067217D02*
X0143900Y0067217D01*
X0143902Y0066218D02*
X0103800Y0066218D01*
X0103800Y0065220D02*
X0107538Y0065220D01*
X0107705Y0065289D02*
X0106607Y0064834D01*
X0105766Y0063993D01*
X0105311Y0062895D01*
X0105311Y0061705D01*
X0105766Y0060607D01*
X0106607Y0059766D01*
X0107705Y0059311D01*
X0108895Y0059311D01*
X0109993Y0059766D01*
X0110834Y0060607D01*
X0111289Y0061705D01*
X0111289Y0062895D01*
X0110834Y0063993D01*
X0109993Y0064834D01*
X0108895Y0065289D01*
X0107705Y0065289D01*
X0109062Y0065220D02*
X0144316Y0065220D01*
X0145448Y0064221D02*
X0110606Y0064221D01*
X0111153Y0063223D02*
X0168723Y0063223D01*
X0169721Y0064221D02*
X0148152Y0064221D01*
X0149284Y0065220D02*
X0170300Y0065220D01*
X0170300Y0066218D02*
X0149698Y0066218D01*
X0149700Y0067217D02*
X0170300Y0067217D01*
X0170300Y0068215D02*
X0149353Y0068215D01*
X0148488Y0069214D02*
X0170300Y0069214D01*
X0170300Y0070212D02*
X0152630Y0070212D01*
X0152943Y0070341D02*
X0153758Y0071157D01*
X0154200Y0072223D01*
X0154200Y0073377D01*
X0153758Y0074443D01*
X0152943Y0075258D01*
X0151877Y0075700D01*
X0150723Y0075700D01*
X0149657Y0075258D01*
X0148841Y0074443D01*
X0148400Y0073377D01*
X0148400Y0072223D01*
X0148841Y0071157D01*
X0149657Y0070341D01*
X0150723Y0069900D01*
X0151877Y0069900D01*
X0152943Y0070341D01*
X0153781Y0071211D02*
X0170300Y0071211D01*
X0170300Y0072209D02*
X0154194Y0072209D01*
X0154200Y0073208D02*
X0170300Y0073208D01*
X0170300Y0074206D02*
X0153856Y0074206D01*
X0152996Y0075205D02*
X0170300Y0075205D01*
X0170300Y0076203D02*
X0116609Y0076203D01*
X0117777Y0077202D02*
X0170300Y0077202D01*
X0170300Y0078200D02*
X0118191Y0078200D01*
X0105994Y0064221D02*
X0103800Y0064221D01*
X0103800Y0063223D02*
X0105447Y0063223D01*
X0105311Y0062224D02*
X0103800Y0062224D01*
X0103800Y0061226D02*
X0105510Y0061226D01*
X0106146Y0060227D02*
X0103800Y0060227D01*
X0103800Y0059229D02*
X0164729Y0059229D01*
X0165727Y0060227D02*
X0110454Y0060227D01*
X0111090Y0061226D02*
X0166726Y0061226D01*
X0167724Y0062224D02*
X0111289Y0062224D01*
X0103800Y0058230D02*
X0163730Y0058230D01*
X0162732Y0057232D02*
X0103800Y0057232D01*
X0103800Y0056233D02*
X0161733Y0056233D01*
X0160734Y0055234D02*
X0103800Y0055234D01*
X0103800Y0054236D02*
X0159736Y0054236D01*
X0158737Y0053237D02*
X0103800Y0053237D01*
X0143630Y0070212D02*
X0149970Y0070212D01*
X0148819Y0071211D02*
X0144781Y0071211D01*
X0145194Y0072209D02*
X0148406Y0072209D01*
X0148400Y0073208D02*
X0145200Y0073208D01*
X0144856Y0074206D02*
X0148744Y0074206D01*
X0149604Y0075205D02*
X0143996Y0075205D01*
X0290319Y0130123D02*
X0359977Y0130123D01*
X0358979Y0131121D02*
X0291317Y0131121D01*
X0291768Y0132120D02*
X0357980Y0132120D01*
X0356982Y0133118D02*
X0292013Y0133118D01*
X0292013Y0134117D02*
X0355983Y0134117D01*
X0354985Y0135115D02*
X0291701Y0135115D01*
X0291154Y0136114D02*
X0353986Y0136114D01*
X0352988Y0137112D02*
X0290074Y0137112D01*
X0290304Y0140108D02*
X0349992Y0140108D01*
X0348994Y0141106D02*
X0291302Y0141106D01*
X0291762Y0142105D02*
X0347995Y0142105D01*
X0346997Y0143103D02*
X0292013Y0143103D01*
X0292013Y0144102D02*
X0345998Y0144102D01*
X0344999Y0145101D02*
X0291707Y0145101D01*
X0291169Y0146099D02*
X0344001Y0146099D01*
X0343002Y0147098D02*
X0290110Y0147098D01*
X0335973Y0127127D02*
X0362973Y0127127D01*
X0363971Y0126129D02*
X0336971Y0126129D01*
X0337970Y0125130D02*
X0364970Y0125130D01*
X0365968Y0124132D02*
X0338968Y0124132D01*
X0339967Y0123133D02*
X0366967Y0123133D01*
X0367965Y0122135D02*
X0340965Y0122135D01*
X0341964Y0121136D02*
X0368964Y0121136D01*
X0369962Y0120138D02*
X0342962Y0120138D01*
X0343961Y0119139D02*
X0370961Y0119139D01*
X0374345Y0115887D02*
X0375512Y0117054D01*
X0377037Y0117686D01*
X0378688Y0117686D01*
X0380214Y0117054D01*
X0381381Y0115887D01*
X0382013Y0114362D01*
X0382013Y0112711D01*
X0381381Y0111185D01*
X0380214Y0110018D01*
X0378688Y0109386D01*
X0377037Y0109386D01*
X0375512Y0110018D01*
X0374345Y0111185D01*
X0373713Y0112711D01*
X0373713Y0114362D01*
X0374345Y0115887D01*
X0374601Y0116144D02*
X0346956Y0116144D01*
X0345958Y0117142D02*
X0375724Y0117142D01*
X0374038Y0115145D02*
X0347955Y0115145D01*
X0348953Y0114147D02*
X0373713Y0114147D01*
X0373713Y0113148D02*
X0349952Y0113148D01*
X0350950Y0112150D02*
X0373945Y0112150D01*
X0374379Y0111151D02*
X0351949Y0111151D01*
X0352947Y0110153D02*
X0375378Y0110153D01*
X0376711Y0107334D02*
X0375992Y0107037D01*
X0375345Y0106604D01*
X0374795Y0106054D01*
X0374363Y0105407D01*
X0374065Y0104688D01*
X0373913Y0103925D01*
X0373913Y0103911D01*
X0377488Y0103911D01*
X0377488Y0103161D01*
X0378238Y0103161D01*
X0378238Y0099586D01*
X0378252Y0099586D01*
X0379015Y0099738D01*
X0379734Y0100036D01*
X0380381Y0100468D01*
X0380931Y0101018D01*
X0381363Y0101665D01*
X0381661Y0102384D01*
X0381813Y0103147D01*
X0381813Y0103161D01*
X0378238Y0103161D01*
X0378238Y0103911D01*
X0381813Y0103911D01*
X0381813Y0103925D01*
X0381661Y0104688D01*
X0381363Y0105407D01*
X0380931Y0106054D01*
X0380381Y0106604D01*
X0379734Y0107037D01*
X0379015Y0107334D01*
X0378252Y0107486D01*
X0378238Y0107486D01*
X0378238Y0103911D01*
X0377488Y0103911D01*
X0377488Y0107486D01*
X0377474Y0107486D01*
X0376711Y0107334D01*
X0376283Y0107157D02*
X0355943Y0107157D01*
X0356941Y0106159D02*
X0374899Y0106159D01*
X0374260Y0105160D02*
X0357940Y0105160D01*
X0358938Y0104162D02*
X0373960Y0104162D01*
X0373913Y0103161D02*
X0373913Y0103147D01*
X0374065Y0102384D01*
X0374363Y0101665D01*
X0374795Y0101018D01*
X0375345Y0100468D01*
X0375992Y0100036D01*
X0376711Y0099738D01*
X0377474Y0099586D01*
X0377488Y0099586D01*
X0377488Y0103161D01*
X0373913Y0103161D01*
X0374156Y0102165D02*
X0360935Y0102165D01*
X0359937Y0103163D02*
X0377488Y0103163D01*
X0378238Y0103163D02*
X0383713Y0103163D01*
X0383713Y0102711D02*
X0384345Y0101185D01*
X0385512Y0100018D01*
X0387037Y0099386D01*
X0388688Y0099386D01*
X0390214Y0100018D01*
X0391381Y0101185D01*
X0392013Y0102711D01*
X0392013Y0104362D01*
X0391381Y0105887D01*
X0390214Y0107054D01*
X0388688Y0107686D01*
X0387037Y0107686D01*
X0385512Y0107054D01*
X0384345Y0105887D01*
X0383713Y0104362D01*
X0383713Y0102711D01*
X0383939Y0102165D02*
X0381570Y0102165D01*
X0381030Y0101166D02*
X0384364Y0101166D01*
X0385363Y0100168D02*
X0379931Y0100168D01*
X0378238Y0100168D02*
X0377488Y0100168D01*
X0377488Y0101166D02*
X0378238Y0101166D01*
X0378238Y0102165D02*
X0377488Y0102165D01*
X0377488Y0104162D02*
X0378238Y0104162D01*
X0378238Y0105160D02*
X0377488Y0105160D01*
X0377488Y0106159D02*
X0378238Y0106159D01*
X0378238Y0107157D02*
X0377488Y0107157D01*
X0379443Y0107157D02*
X0385760Y0107157D01*
X0384616Y0106159D02*
X0380827Y0106159D01*
X0381466Y0105160D02*
X0384044Y0105160D01*
X0383713Y0104162D02*
X0381766Y0104162D01*
X0380348Y0110153D02*
X0385378Y0110153D01*
X0385512Y0110018D02*
X0387037Y0109386D01*
X0388688Y0109386D01*
X0390214Y0110018D01*
X0391381Y0111185D01*
X0392013Y0112711D01*
X0392013Y0114362D01*
X0391381Y0115887D01*
X0390214Y0117054D01*
X0388688Y0117686D01*
X0387037Y0117686D01*
X0385512Y0117054D01*
X0384345Y0115887D01*
X0383713Y0114362D01*
X0383713Y0112711D01*
X0384345Y0111185D01*
X0385512Y0110018D01*
X0384379Y0111151D02*
X0381347Y0111151D01*
X0381781Y0112150D02*
X0383945Y0112150D01*
X0383713Y0113148D02*
X0382013Y0113148D01*
X0382013Y0114147D02*
X0383713Y0114147D01*
X0384038Y0115145D02*
X0381688Y0115145D01*
X0381124Y0116144D02*
X0384601Y0116144D01*
X0385724Y0117142D02*
X0380002Y0117142D01*
X0390002Y0117142D02*
X0394958Y0117142D01*
X0395800Y0116144D02*
X0391124Y0116144D01*
X0391688Y0115145D02*
X0395800Y0115145D01*
X0395800Y0114147D02*
X0392013Y0114147D01*
X0392013Y0113148D02*
X0395800Y0113148D01*
X0395800Y0112150D02*
X0391781Y0112150D01*
X0391347Y0111151D02*
X0395800Y0111151D01*
X0395800Y0110153D02*
X0390348Y0110153D01*
X0389966Y0107157D02*
X0395800Y0107157D01*
X0395800Y0106159D02*
X0391110Y0106159D01*
X0391682Y0105160D02*
X0395800Y0105160D01*
X0395800Y0104162D02*
X0392013Y0104162D01*
X0392013Y0103163D02*
X0395800Y0103163D01*
X0395800Y0102165D02*
X0391787Y0102165D01*
X0391362Y0101166D02*
X0395800Y0101166D01*
X0395800Y0100168D02*
X0390363Y0100168D01*
X0395800Y0099169D02*
X0363931Y0099169D01*
X0364930Y0098170D02*
X0395800Y0098170D01*
X0395800Y0108156D02*
X0354944Y0108156D01*
X0353946Y0109154D02*
X0395800Y0109154D01*
X0393959Y0118141D02*
X0344959Y0118141D01*
X0361934Y0101166D02*
X0374696Y0101166D01*
X0375795Y0100168D02*
X0362932Y0100168D01*
D19*
X0012800Y0012800D02*
X0012800Y0239800D01*
X0404800Y0239800D01*
X0404800Y0012800D01*
X0012800Y0012800D01*
X0012800Y0013096D02*
X0404800Y0013096D01*
X0404800Y0013694D02*
X0012800Y0013694D01*
X0012800Y0014293D02*
X0404800Y0014293D01*
X0404800Y0014891D02*
X0012800Y0014891D01*
X0012800Y0015490D02*
X0404800Y0015490D01*
X0404800Y0016088D02*
X0012800Y0016088D01*
X0012800Y0016687D02*
X0404800Y0016687D01*
X0404800Y0017285D02*
X0012800Y0017285D01*
X0012800Y0017884D02*
X0404800Y0017884D01*
X0404800Y0018482D02*
X0012800Y0018482D01*
X0012800Y0019081D02*
X0404800Y0019081D01*
X0404800Y0019679D02*
X0012800Y0019679D01*
X0012800Y0020278D02*
X0404800Y0020278D01*
X0404800Y0020876D02*
X0012800Y0020876D01*
X0012800Y0021475D02*
X0404800Y0021475D01*
X0404800Y0022073D02*
X0012800Y0022073D01*
X0012800Y0022672D02*
X0404800Y0022672D01*
X0404800Y0023270D02*
X0012800Y0023270D01*
X0012800Y0023869D02*
X0404800Y0023869D01*
X0404800Y0024467D02*
X0012800Y0024467D01*
X0012800Y0025066D02*
X0404800Y0025066D01*
X0404800Y0025664D02*
X0226325Y0025664D01*
X0226397Y0025694D02*
X0226971Y0026078D01*
X0227459Y0026566D01*
X0227843Y0027140D01*
X0228107Y0027778D01*
X0228242Y0028455D01*
X0228242Y0028500D01*
X0225037Y0028500D01*
X0225037Y0029100D01*
X0224437Y0029100D01*
X0224437Y0028500D01*
X0221232Y0028500D01*
X0221232Y0028455D01*
X0221367Y0027778D01*
X0221631Y0027140D01*
X0222015Y0026566D01*
X0222503Y0026078D01*
X0223077Y0025694D01*
X0223715Y0025430D01*
X0224392Y0025295D01*
X0224437Y0025295D01*
X0224437Y0028500D01*
X0225037Y0028500D01*
X0225037Y0025295D01*
X0225082Y0025295D01*
X0225759Y0025430D01*
X0226397Y0025694D01*
X0227156Y0026263D02*
X0404800Y0026263D01*
X0404800Y0026861D02*
X0227657Y0026861D01*
X0227975Y0027460D02*
X0404800Y0027460D01*
X0404800Y0028058D02*
X0228163Y0028058D01*
X0228242Y0029100D02*
X0228242Y0029145D01*
X0228107Y0029822D01*
X0227843Y0030460D01*
X0227459Y0031034D01*
X0226971Y0031522D01*
X0226397Y0031906D01*
X0225759Y0032170D01*
X0225082Y0032305D01*
X0225037Y0032305D01*
X0225037Y0029100D01*
X0228242Y0029100D01*
X0228220Y0029255D02*
X0404800Y0029255D01*
X0404800Y0028657D02*
X0225037Y0028657D01*
X0225037Y0029255D02*
X0224437Y0029255D01*
X0224437Y0029100D02*
X0224437Y0032305D01*
X0224392Y0032305D01*
X0223715Y0032170D01*
X0223077Y0031906D01*
X0222503Y0031522D01*
X0222015Y0031034D01*
X0221631Y0030460D01*
X0221367Y0029822D01*
X0221232Y0029145D01*
X0221232Y0029100D01*
X0224437Y0029100D01*
X0224437Y0028657D02*
X0220568Y0028657D01*
X0220568Y0028063D02*
X0220004Y0026701D01*
X0218962Y0025659D01*
X0217600Y0025095D01*
X0216126Y0025095D01*
X0214764Y0025659D01*
X0213722Y0026701D01*
X0213158Y0028063D01*
X0213158Y0029537D01*
X0213722Y0030899D01*
X0214764Y0031941D01*
X0216126Y0032505D01*
X0217600Y0032505D01*
X0218962Y0031941D01*
X0220004Y0030899D01*
X0220568Y0029537D01*
X0220568Y0028063D01*
X0220566Y0028058D02*
X0221311Y0028058D01*
X0221499Y0027460D02*
X0220318Y0027460D01*
X0220070Y0026861D02*
X0221817Y0026861D01*
X0222318Y0026263D02*
X0219565Y0026263D01*
X0218967Y0025664D02*
X0223149Y0025664D01*
X0224437Y0025664D02*
X0225037Y0025664D01*
X0225037Y0026263D02*
X0224437Y0026263D01*
X0224437Y0026861D02*
X0225037Y0026861D01*
X0225037Y0027460D02*
X0224437Y0027460D01*
X0224437Y0028058D02*
X0225037Y0028058D01*
X0225037Y0029854D02*
X0224437Y0029854D01*
X0224437Y0030452D02*
X0225037Y0030452D01*
X0225037Y0031051D02*
X0224437Y0031051D01*
X0224437Y0031649D02*
X0225037Y0031649D01*
X0225037Y0032248D02*
X0224437Y0032248D01*
X0224106Y0032248D02*
X0218220Y0032248D01*
X0219253Y0031649D02*
X0222693Y0031649D01*
X0222031Y0031051D02*
X0219851Y0031051D01*
X0220189Y0030452D02*
X0221628Y0030452D01*
X0221380Y0029854D02*
X0220436Y0029854D01*
X0220568Y0029255D02*
X0221254Y0029255D01*
X0225368Y0032248D02*
X0404800Y0032248D01*
X0404800Y0032846D02*
X0012800Y0032846D01*
X0012800Y0032248D02*
X0215506Y0032248D01*
X0214473Y0031649D02*
X0012800Y0031649D01*
X0012800Y0031051D02*
X0213875Y0031051D01*
X0213537Y0030452D02*
X0012800Y0030452D01*
X0012800Y0029854D02*
X0213290Y0029854D01*
X0213158Y0029255D02*
X0012800Y0029255D01*
X0012800Y0028657D02*
X0213158Y0028657D01*
X0213160Y0028058D02*
X0012800Y0028058D01*
X0012800Y0027460D02*
X0213408Y0027460D01*
X0213656Y0026861D02*
X0012800Y0026861D01*
X0012800Y0026263D02*
X0214161Y0026263D01*
X0214759Y0025664D02*
X0012800Y0025664D01*
X0012800Y0033445D02*
X0404800Y0033445D01*
X0404800Y0034043D02*
X0012800Y0034043D01*
X0012800Y0034642D02*
X0404800Y0034642D01*
X0404800Y0035240D02*
X0012800Y0035240D01*
X0012800Y0035839D02*
X0404800Y0035839D01*
X0404800Y0036437D02*
X0012800Y0036437D01*
X0012800Y0037036D02*
X0404800Y0037036D01*
X0404800Y0037634D02*
X0012800Y0037634D01*
X0012800Y0038233D02*
X0404800Y0038233D01*
X0404800Y0038832D02*
X0153896Y0038832D01*
X0154329Y0039011D02*
X0155089Y0039771D01*
X0155500Y0040763D01*
X0155500Y0041837D01*
X0155089Y0042829D01*
X0154329Y0043589D01*
X0153337Y0044000D01*
X0152263Y0044000D01*
X0151271Y0043589D01*
X0150511Y0042829D01*
X0150100Y0041837D01*
X0150100Y0040763D01*
X0150511Y0039771D01*
X0151271Y0039011D01*
X0152263Y0038600D01*
X0153337Y0038600D01*
X0154329Y0039011D01*
X0154748Y0039430D02*
X0404800Y0039430D01*
X0404800Y0040029D02*
X0389717Y0040029D01*
X0390100Y0040188D02*
X0391212Y0041299D01*
X0391813Y0042751D01*
X0391813Y0044322D01*
X0391212Y0045774D01*
X0390100Y0046885D01*
X0388649Y0047486D01*
X0387077Y0047486D01*
X0385625Y0046885D01*
X0384514Y0045774D01*
X0383913Y0044322D01*
X0383913Y0042751D01*
X0384514Y0041299D01*
X0385625Y0040188D01*
X0387077Y0039586D01*
X0388649Y0039586D01*
X0390100Y0040188D01*
X0390540Y0040627D02*
X0404800Y0040627D01*
X0404800Y0041226D02*
X0391138Y0041226D01*
X0391429Y0041824D02*
X0404800Y0041824D01*
X0404800Y0042423D02*
X0391677Y0042423D01*
X0391813Y0043021D02*
X0404800Y0043021D01*
X0404800Y0043620D02*
X0391813Y0043620D01*
X0391813Y0044218D02*
X0404800Y0044218D01*
X0404800Y0044817D02*
X0391608Y0044817D01*
X0391360Y0045415D02*
X0404800Y0045415D01*
X0404800Y0046014D02*
X0390972Y0046014D01*
X0390373Y0046612D02*
X0404800Y0046612D01*
X0404800Y0047211D02*
X0389314Y0047211D01*
X0388649Y0049586D02*
X0387077Y0049586D01*
X0385625Y0050188D01*
X0384514Y0051299D01*
X0383913Y0052751D01*
X0383913Y0054322D01*
X0384514Y0055774D01*
X0385625Y0056885D01*
X0387077Y0057486D01*
X0388649Y0057486D01*
X0390100Y0056885D01*
X0391212Y0055774D01*
X0391813Y0054322D01*
X0391813Y0052751D01*
X0391212Y0051299D01*
X0390100Y0050188D01*
X0388649Y0049586D01*
X0388693Y0049605D02*
X0404800Y0049605D01*
X0404800Y0050203D02*
X0390116Y0050203D01*
X0390715Y0050802D02*
X0404800Y0050802D01*
X0404800Y0051400D02*
X0391254Y0051400D01*
X0391502Y0051999D02*
X0404800Y0051999D01*
X0404800Y0052597D02*
X0391750Y0052597D01*
X0391813Y0053196D02*
X0404800Y0053196D01*
X0404800Y0053794D02*
X0391813Y0053794D01*
X0391784Y0054393D02*
X0404800Y0054393D01*
X0404800Y0054991D02*
X0391536Y0054991D01*
X0391288Y0055590D02*
X0404800Y0055590D01*
X0404800Y0056188D02*
X0390797Y0056188D01*
X0390198Y0056787D02*
X0404800Y0056787D01*
X0404800Y0057385D02*
X0388892Y0057385D01*
X0386834Y0057385D02*
X0378892Y0057385D01*
X0378649Y0057486D02*
X0377077Y0057486D01*
X0375625Y0056885D01*
X0374514Y0055774D01*
X0373913Y0054322D01*
X0373913Y0052751D01*
X0374514Y0051299D01*
X0375625Y0050188D01*
X0377077Y0049586D01*
X0378649Y0049586D01*
X0380100Y0050188D01*
X0381212Y0051299D01*
X0381813Y0052751D01*
X0381813Y0054322D01*
X0381212Y0055774D01*
X0380100Y0056885D01*
X0378649Y0057486D01*
X0380198Y0056787D02*
X0385527Y0056787D01*
X0384929Y0056188D02*
X0380797Y0056188D01*
X0381288Y0055590D02*
X0384438Y0055590D01*
X0384190Y0054991D02*
X0381536Y0054991D01*
X0381784Y0054393D02*
X0383942Y0054393D01*
X0383913Y0053794D02*
X0381813Y0053794D01*
X0381813Y0053196D02*
X0383913Y0053196D01*
X0383976Y0052597D02*
X0381750Y0052597D01*
X0381502Y0051999D02*
X0384224Y0051999D01*
X0384472Y0051400D02*
X0381254Y0051400D01*
X0380715Y0050802D02*
X0385011Y0050802D01*
X0385610Y0050203D02*
X0380116Y0050203D01*
X0378693Y0049605D02*
X0387033Y0049605D01*
X0386412Y0047211D02*
X0379314Y0047211D01*
X0378649Y0047486D02*
X0377077Y0047486D01*
X0375625Y0046885D01*
X0374514Y0045774D01*
X0373913Y0044322D01*
X0373913Y0042751D01*
X0374514Y0041299D01*
X0375625Y0040188D01*
X0377077Y0039586D01*
X0378649Y0039586D01*
X0380100Y0040188D01*
X0381212Y0041299D01*
X0381813Y0042751D01*
X0381813Y0044322D01*
X0381212Y0045774D01*
X0380100Y0046885D01*
X0378649Y0047486D01*
X0380373Y0046612D02*
X0385353Y0046612D01*
X0384754Y0046014D02*
X0380972Y0046014D01*
X0381360Y0045415D02*
X0384366Y0045415D01*
X0384118Y0044817D02*
X0381608Y0044817D01*
X0381813Y0044218D02*
X0383913Y0044218D01*
X0383913Y0043620D02*
X0381813Y0043620D01*
X0381813Y0043021D02*
X0383913Y0043021D01*
X0384049Y0042423D02*
X0381677Y0042423D01*
X0381429Y0041824D02*
X0384297Y0041824D01*
X0384587Y0041226D02*
X0381138Y0041226D01*
X0380540Y0040627D02*
X0385186Y0040627D01*
X0386009Y0040029D02*
X0379717Y0040029D01*
X0376009Y0040029D02*
X0289717Y0040029D01*
X0290100Y0040188D02*
X0291212Y0041299D01*
X0291813Y0042751D01*
X0291813Y0044322D01*
X0291212Y0045774D01*
X0290100Y0046885D01*
X0288649Y0047486D01*
X0287077Y0047486D01*
X0285625Y0046885D01*
X0284514Y0045774D01*
X0283913Y0044322D01*
X0283913Y0042751D01*
X0284514Y0041299D01*
X0285625Y0040188D01*
X0287077Y0039586D01*
X0288649Y0039586D01*
X0290100Y0040188D01*
X0290540Y0040627D02*
X0375186Y0040627D01*
X0374587Y0041226D02*
X0291138Y0041226D01*
X0291429Y0041824D02*
X0374297Y0041824D01*
X0374049Y0042423D02*
X0291677Y0042423D01*
X0291813Y0043021D02*
X0373913Y0043021D01*
X0373913Y0043620D02*
X0291813Y0043620D01*
X0291813Y0044218D02*
X0373913Y0044218D01*
X0374118Y0044817D02*
X0291608Y0044817D01*
X0291360Y0045415D02*
X0374366Y0045415D01*
X0374754Y0046014D02*
X0290972Y0046014D01*
X0290373Y0046612D02*
X0375353Y0046612D01*
X0376412Y0047211D02*
X0289314Y0047211D01*
X0288649Y0049586D02*
X0287077Y0049586D01*
X0285625Y0050188D01*
X0284514Y0051299D01*
X0283913Y0052751D01*
X0283913Y0054322D01*
X0284514Y0055774D01*
X0285625Y0056885D01*
X0287077Y0057486D01*
X0288649Y0057486D01*
X0290100Y0056885D01*
X0291212Y0055774D01*
X0291813Y0054322D01*
X0291813Y0052751D01*
X0291212Y0051299D01*
X0290100Y0050188D01*
X0288649Y0049586D01*
X0288693Y0049605D02*
X0377033Y0049605D01*
X0375610Y0050203D02*
X0290116Y0050203D01*
X0290715Y0050802D02*
X0375011Y0050802D01*
X0374472Y0051400D02*
X0291254Y0051400D01*
X0291502Y0051999D02*
X0374224Y0051999D01*
X0373976Y0052597D02*
X0291750Y0052597D01*
X0291813Y0053196D02*
X0373913Y0053196D01*
X0373913Y0053794D02*
X0291813Y0053794D01*
X0291784Y0054393D02*
X0373942Y0054393D01*
X0374190Y0054991D02*
X0291536Y0054991D01*
X0291288Y0055590D02*
X0374438Y0055590D01*
X0374929Y0056188D02*
X0290797Y0056188D01*
X0290198Y0056787D02*
X0375527Y0056787D01*
X0376834Y0057385D02*
X0288892Y0057385D01*
X0286834Y0057385D02*
X0278892Y0057385D01*
X0278649Y0057486D02*
X0277077Y0057486D01*
X0275625Y0056885D01*
X0274514Y0055774D01*
X0273913Y0054322D01*
X0273913Y0052751D01*
X0274514Y0051299D01*
X0275625Y0050188D01*
X0277077Y0049586D01*
X0278649Y0049586D01*
X0280100Y0050188D01*
X0281212Y0051299D01*
X0281813Y0052751D01*
X0281813Y0054322D01*
X0281212Y0055774D01*
X0280100Y0056885D01*
X0278649Y0057486D01*
X0280198Y0056787D02*
X0285527Y0056787D01*
X0284929Y0056188D02*
X0280797Y0056188D01*
X0281288Y0055590D02*
X0284438Y0055590D01*
X0284190Y0054991D02*
X0281536Y0054991D01*
X0281784Y0054393D02*
X0283942Y0054393D01*
X0283913Y0053794D02*
X0281813Y0053794D01*
X0281813Y0053196D02*
X0283913Y0053196D01*
X0283976Y0052597D02*
X0281750Y0052597D01*
X0281502Y0051999D02*
X0284224Y0051999D01*
X0284472Y0051400D02*
X0281254Y0051400D01*
X0280715Y0050802D02*
X0285011Y0050802D01*
X0285610Y0050203D02*
X0280116Y0050203D01*
X0278693Y0049605D02*
X0287033Y0049605D01*
X0286412Y0047211D02*
X0279314Y0047211D01*
X0278649Y0047486D02*
X0277077Y0047486D01*
X0275625Y0046885D01*
X0274514Y0045774D01*
X0273913Y0044322D01*
X0273913Y0042751D01*
X0274514Y0041299D01*
X0275625Y0040188D01*
X0277077Y0039586D01*
X0278649Y0039586D01*
X0280100Y0040188D01*
X0281212Y0041299D01*
X0281813Y0042751D01*
X0281813Y0044322D01*
X0281212Y0045774D01*
X0280100Y0046885D01*
X0278649Y0047486D01*
X0280373Y0046612D02*
X0285353Y0046612D01*
X0284754Y0046014D02*
X0280972Y0046014D01*
X0281360Y0045415D02*
X0284366Y0045415D01*
X0284118Y0044817D02*
X0281608Y0044817D01*
X0281813Y0044218D02*
X0283913Y0044218D01*
X0283913Y0043620D02*
X0281813Y0043620D01*
X0281813Y0043021D02*
X0283913Y0043021D01*
X0284049Y0042423D02*
X0281677Y0042423D01*
X0281429Y0041824D02*
X0284297Y0041824D01*
X0284588Y0041226D02*
X0281138Y0041226D01*
X0280540Y0040627D02*
X0285186Y0040627D01*
X0286009Y0040029D02*
X0279717Y0040029D01*
X0276009Y0040029D02*
X0155196Y0040029D01*
X0155444Y0040627D02*
X0275186Y0040627D01*
X0274588Y0041226D02*
X0155500Y0041226D01*
X0155500Y0041824D02*
X0274297Y0041824D01*
X0274049Y0042423D02*
X0155257Y0042423D01*
X0154897Y0043021D02*
X0273913Y0043021D01*
X0273913Y0043620D02*
X0154255Y0043620D01*
X0151345Y0043620D02*
X0147755Y0043620D01*
X0147829Y0043589D02*
X0146837Y0044000D01*
X0145763Y0044000D01*
X0144771Y0043589D01*
X0144011Y0042829D01*
X0143600Y0041837D01*
X0143600Y0040763D01*
X0144011Y0039771D01*
X0144771Y0039011D01*
X0145763Y0038600D01*
X0146837Y0038600D01*
X0147829Y0039011D01*
X0148589Y0039771D01*
X0149000Y0040763D01*
X0149000Y0041837D01*
X0148589Y0042829D01*
X0147829Y0043589D01*
X0148397Y0043021D02*
X0150703Y0043021D01*
X0150343Y0042423D02*
X0148757Y0042423D01*
X0149000Y0041824D02*
X0150100Y0041824D01*
X0150100Y0041226D02*
X0149000Y0041226D01*
X0148944Y0040627D02*
X0150156Y0040627D01*
X0150404Y0040029D02*
X0148696Y0040029D01*
X0148248Y0039430D02*
X0150852Y0039430D01*
X0151704Y0038832D02*
X0147396Y0038832D01*
X0145204Y0038832D02*
X0140396Y0038832D01*
X0140829Y0039011D02*
X0141589Y0039771D01*
X0142000Y0040763D01*
X0142000Y0041837D01*
X0141589Y0042829D01*
X0140829Y0043589D01*
X0139837Y0044000D01*
X0138763Y0044000D01*
X0137771Y0043589D01*
X0137011Y0042829D01*
X0136600Y0041837D01*
X0136600Y0040763D01*
X0137011Y0039771D01*
X0137771Y0039011D01*
X0138763Y0038600D01*
X0139837Y0038600D01*
X0140829Y0039011D01*
X0141248Y0039430D02*
X0144352Y0039430D01*
X0143904Y0040029D02*
X0141696Y0040029D01*
X0141944Y0040627D02*
X0143656Y0040627D01*
X0143600Y0041226D02*
X0142000Y0041226D01*
X0142000Y0041824D02*
X0143600Y0041824D01*
X0143843Y0042423D02*
X0141757Y0042423D01*
X0141397Y0043021D02*
X0144203Y0043021D01*
X0144845Y0043620D02*
X0140755Y0043620D01*
X0137845Y0043620D02*
X0012800Y0043620D01*
X0012800Y0044218D02*
X0273913Y0044218D01*
X0274118Y0044817D02*
X0012800Y0044817D01*
X0012800Y0045415D02*
X0274366Y0045415D01*
X0274754Y0046014D02*
X0012800Y0046014D01*
X0012800Y0046612D02*
X0275353Y0046612D01*
X0276412Y0047211D02*
X0062277Y0047211D01*
X0062236Y0047194D02*
X0064306Y0048051D01*
X0065891Y0049636D01*
X0066749Y0051707D01*
X0066749Y0053948D01*
X0065891Y0056019D01*
X0064306Y0057604D01*
X0063005Y0058143D01*
X0064306Y0058681D01*
X0065891Y0060266D01*
X0066749Y0062337D01*
X0066749Y0064578D01*
X0065891Y0066649D01*
X0064306Y0068234D01*
X0062888Y0068821D01*
X0063637Y0069131D01*
X0064890Y0070384D01*
X0065568Y0072021D01*
X0065568Y0073792D01*
X0064890Y0075429D01*
X0063637Y0076681D01*
X0062888Y0076991D01*
X0064306Y0077579D01*
X0065891Y0079164D01*
X0066749Y0081234D01*
X0066749Y0083476D01*
X0065891Y0085546D01*
X0064306Y0087131D01*
X0063005Y0087670D01*
X0064306Y0088209D01*
X0065891Y0089794D01*
X0066749Y0091864D01*
X0066749Y0094106D01*
X0065891Y0096176D01*
X0064306Y0097761D01*
X0062236Y0098619D01*
X0059994Y0098619D01*
X0057924Y0097761D01*
X0056339Y0096176D01*
X0055481Y0094106D01*
X0055481Y0091864D01*
X0056339Y0089794D01*
X0057924Y0088209D01*
X0059224Y0087670D01*
X0057924Y0087131D01*
X0056339Y0085546D01*
X0055481Y0083476D01*
X0055481Y0081234D01*
X0056339Y0079164D01*
X0057924Y0077579D01*
X0059342Y0076991D01*
X0058593Y0076681D01*
X0057340Y0075429D01*
X0056662Y0073792D01*
X0056662Y0072021D01*
X0057340Y0070384D01*
X0058593Y0069131D01*
X0059342Y0068821D01*
X0057924Y0068234D01*
X0056339Y0066649D01*
X0055481Y0064578D01*
X0055481Y0062337D01*
X0056339Y0060266D01*
X0057924Y0058681D01*
X0059224Y0058143D01*
X0057924Y0057604D01*
X0056339Y0056019D01*
X0055481Y0053948D01*
X0055481Y0051707D01*
X0056339Y0049636D01*
X0057924Y0048051D01*
X0059994Y0047194D01*
X0062236Y0047194D01*
X0063722Y0047809D02*
X0404800Y0047809D01*
X0404800Y0048408D02*
X0064663Y0048408D01*
X0065261Y0049006D02*
X0404800Y0049006D01*
X0404800Y0057984D02*
X0166312Y0057984D01*
X0165714Y0057385D02*
X0276834Y0057385D01*
X0275527Y0056787D02*
X0165115Y0056787D01*
X0164517Y0056188D02*
X0274929Y0056188D01*
X0274438Y0055590D02*
X0163918Y0055590D01*
X0163320Y0054991D02*
X0274190Y0054991D01*
X0273942Y0054393D02*
X0162721Y0054393D01*
X0162123Y0053794D02*
X0273913Y0053794D01*
X0273913Y0053196D02*
X0161524Y0053196D01*
X0160926Y0052597D02*
X0273976Y0052597D01*
X0274224Y0051999D02*
X0160327Y0051999D01*
X0160300Y0051972D02*
X0159800Y0051472D01*
X0158628Y0050300D01*
X0102972Y0050300D01*
X0101800Y0051472D01*
X0101800Y0074628D01*
X0123800Y0096628D01*
X0124972Y0097800D01*
X0127100Y0097800D01*
X0127100Y0097837D01*
X0127511Y0098829D01*
X0128271Y0099589D01*
X0129263Y0100000D01*
X0130337Y0100000D01*
X0131329Y0099589D01*
X0132089Y0098829D01*
X0132500Y0097837D01*
X0132500Y0097800D01*
X0135600Y0097800D01*
X0135600Y0097837D01*
X0136011Y0098829D01*
X0136771Y0099589D01*
X0137763Y0100000D01*
X0138837Y0100000D01*
X0139829Y0099589D01*
X0140589Y0098829D01*
X0141000Y0097837D01*
X0141000Y0097800D01*
X0143600Y0097800D01*
X0143600Y0097837D01*
X0144011Y0098829D01*
X0144771Y0099589D01*
X0145763Y0100000D01*
X0146837Y0100000D01*
X0147829Y0099589D01*
X0148589Y0098829D01*
X0149000Y0097837D01*
X0149000Y0097800D01*
X0168972Y0097800D01*
X0169472Y0098300D01*
X0171128Y0098300D01*
X0171600Y0097828D01*
X0171600Y0097837D01*
X0172011Y0098829D01*
X0172771Y0099589D01*
X0173763Y0100000D01*
X0174837Y0100000D01*
X0175829Y0099589D01*
X0176589Y0098829D01*
X0177000Y0097837D01*
X0177000Y0096763D01*
X0176589Y0095771D01*
X0175829Y0095011D01*
X0174837Y0094600D01*
X0173763Y0094600D01*
X0172771Y0095011D01*
X0172300Y0095482D01*
X0172300Y0063972D01*
X0160300Y0051972D01*
X0159729Y0051400D02*
X0274472Y0051400D01*
X0275011Y0050802D02*
X0159130Y0050802D01*
X0166911Y0058582D02*
X0404800Y0058582D01*
X0404800Y0059181D02*
X0167509Y0059181D01*
X0168108Y0059779D02*
X0276611Y0059779D01*
X0277077Y0059586D02*
X0278649Y0059586D01*
X0280100Y0060188D01*
X0281212Y0061299D01*
X0281813Y0062751D01*
X0281813Y0064322D01*
X0281212Y0065774D01*
X0280100Y0066885D01*
X0278649Y0067486D01*
X0277077Y0067486D01*
X0275625Y0066885D01*
X0274514Y0065774D01*
X0273913Y0064322D01*
X0273913Y0062751D01*
X0274514Y0061299D01*
X0275625Y0060188D01*
X0277077Y0059586D01*
X0275435Y0060378D02*
X0168706Y0060378D01*
X0169305Y0060976D02*
X0274837Y0060976D01*
X0274400Y0061575D02*
X0169903Y0061575D01*
X0170502Y0062173D02*
X0274152Y0062173D01*
X0273913Y0062772D02*
X0171100Y0062772D01*
X0171699Y0063370D02*
X0273913Y0063370D01*
X0273913Y0063969D02*
X0172297Y0063969D01*
X0172300Y0064568D02*
X0274015Y0064568D01*
X0274263Y0065166D02*
X0172300Y0065166D01*
X0172300Y0065765D02*
X0274511Y0065765D01*
X0275104Y0066363D02*
X0172300Y0066363D01*
X0172300Y0066962D02*
X0275811Y0066962D01*
X0277077Y0069586D02*
X0278649Y0069586D01*
X0280100Y0070188D01*
X0281212Y0071299D01*
X0281813Y0072751D01*
X0281813Y0074322D01*
X0281212Y0075774D01*
X0280100Y0076885D01*
X0278649Y0077486D01*
X0277077Y0077486D01*
X0275625Y0076885D01*
X0274514Y0075774D01*
X0273913Y0074322D01*
X0273913Y0072751D01*
X0274514Y0071299D01*
X0275625Y0070188D01*
X0277077Y0069586D01*
X0276189Y0069954D02*
X0199761Y0069954D01*
X0199664Y0069720D02*
X0200089Y0070745D01*
X0200089Y0071855D01*
X0199664Y0072880D01*
X0198880Y0073664D01*
X0197855Y0074089D01*
X0196745Y0074089D01*
X0195720Y0073664D01*
X0194936Y0072880D01*
X0194511Y0071855D01*
X0194511Y0070745D01*
X0194936Y0069720D01*
X0195720Y0068936D01*
X0196745Y0068511D01*
X0197855Y0068511D01*
X0198880Y0068936D01*
X0199664Y0069720D01*
X0199300Y0069356D02*
X0404800Y0069356D01*
X0404800Y0069954D02*
X0389537Y0069954D01*
X0390100Y0070188D02*
X0391212Y0071299D01*
X0391813Y0072751D01*
X0391813Y0074322D01*
X0391212Y0075774D01*
X0390100Y0076885D01*
X0388649Y0077486D01*
X0387077Y0077486D01*
X0385625Y0076885D01*
X0384514Y0075774D01*
X0383913Y0074322D01*
X0383913Y0072751D01*
X0384514Y0071299D01*
X0385625Y0070188D01*
X0387077Y0069586D01*
X0388649Y0069586D01*
X0390100Y0070188D01*
X0390466Y0070553D02*
X0404800Y0070553D01*
X0404800Y0071151D02*
X0391064Y0071151D01*
X0391398Y0071750D02*
X0404800Y0071750D01*
X0404800Y0072348D02*
X0391646Y0072348D01*
X0391813Y0072947D02*
X0404800Y0072947D01*
X0404800Y0073545D02*
X0391813Y0073545D01*
X0391813Y0074144D02*
X0404800Y0074144D01*
X0404800Y0074742D02*
X0391639Y0074742D01*
X0391391Y0075341D02*
X0404800Y0075341D01*
X0404800Y0075939D02*
X0391046Y0075939D01*
X0390448Y0076538D02*
X0404800Y0076538D01*
X0404800Y0077136D02*
X0389494Y0077136D01*
X0388649Y0079586D02*
X0387077Y0079586D01*
X0385625Y0080188D01*
X0384514Y0081299D01*
X0383913Y0082751D01*
X0383913Y0084322D01*
X0384514Y0085774D01*
X0385625Y0086885D01*
X0387077Y0087486D01*
X0388649Y0087486D01*
X0390100Y0086885D01*
X0391212Y0085774D01*
X0391813Y0084322D01*
X0391813Y0082751D01*
X0391212Y0081299D01*
X0390100Y0080188D01*
X0388649Y0079586D01*
X0389959Y0080129D02*
X0404800Y0080129D01*
X0404800Y0080727D02*
X0390640Y0080727D01*
X0391223Y0081326D02*
X0404800Y0081326D01*
X0404800Y0081924D02*
X0391471Y0081924D01*
X0391719Y0082523D02*
X0404800Y0082523D01*
X0404800Y0083121D02*
X0391813Y0083121D01*
X0391813Y0083720D02*
X0404800Y0083720D01*
X0404800Y0084318D02*
X0391813Y0084318D01*
X0391567Y0084917D02*
X0404800Y0084917D01*
X0404800Y0085515D02*
X0391319Y0085515D01*
X0390871Y0086114D02*
X0404800Y0086114D01*
X0404800Y0086712D02*
X0390273Y0086712D01*
X0389072Y0087311D02*
X0404800Y0087311D01*
X0404800Y0087909D02*
X0180788Y0087909D01*
X0180355Y0088089D02*
X0179245Y0088089D01*
X0178220Y0087664D01*
X0177436Y0086880D01*
X0177011Y0085855D01*
X0177011Y0084745D01*
X0177436Y0083720D01*
X0172300Y0083720D01*
X0172300Y0084318D02*
X0177188Y0084318D01*
X0177011Y0084917D02*
X0172300Y0084917D01*
X0172300Y0085515D02*
X0177011Y0085515D01*
X0177118Y0086114D02*
X0172300Y0086114D01*
X0172300Y0086712D02*
X0177366Y0086712D01*
X0177867Y0087311D02*
X0172300Y0087311D01*
X0172300Y0087909D02*
X0178812Y0087909D01*
X0180355Y0088089D02*
X0181380Y0087664D01*
X0182164Y0086880D01*
X0182589Y0085855D01*
X0182589Y0084745D01*
X0182164Y0083720D01*
X0273913Y0083720D01*
X0273913Y0084318D02*
X0182412Y0084318D01*
X0182589Y0084917D02*
X0274159Y0084917D01*
X0273913Y0084322D02*
X0273913Y0082751D01*
X0274514Y0081299D01*
X0275625Y0080188D01*
X0277077Y0079586D01*
X0278649Y0079586D01*
X0280100Y0080188D01*
X0281212Y0081299D01*
X0281813Y0082751D01*
X0281813Y0084322D01*
X0281212Y0085774D01*
X0280100Y0086885D01*
X0278649Y0087486D01*
X0277077Y0087486D01*
X0275625Y0086885D01*
X0274514Y0085774D01*
X0273913Y0084322D01*
X0273913Y0083121D02*
X0181566Y0083121D01*
X0181380Y0082936D02*
X0182164Y0083720D01*
X0181380Y0082936D02*
X0180355Y0082511D01*
X0179245Y0082511D01*
X0178220Y0082936D01*
X0177436Y0083720D01*
X0178034Y0083121D02*
X0172300Y0083121D01*
X0172300Y0082523D02*
X0179217Y0082523D01*
X0180383Y0082523D02*
X0274007Y0082523D01*
X0274255Y0081924D02*
X0172300Y0081924D01*
X0172300Y0081326D02*
X0274503Y0081326D01*
X0275086Y0080727D02*
X0172300Y0080727D01*
X0172300Y0080129D02*
X0275767Y0080129D01*
X0276232Y0077136D02*
X0172300Y0077136D01*
X0172300Y0076538D02*
X0275278Y0076538D01*
X0274680Y0075939D02*
X0172300Y0075939D01*
X0172300Y0075341D02*
X0274335Y0075341D01*
X0274087Y0074742D02*
X0172300Y0074742D01*
X0172300Y0074144D02*
X0273913Y0074144D01*
X0273913Y0073545D02*
X0198999Y0073545D01*
X0199598Y0072947D02*
X0273913Y0072947D01*
X0274080Y0072348D02*
X0199885Y0072348D01*
X0200089Y0071750D02*
X0274328Y0071750D01*
X0274662Y0071151D02*
X0200089Y0071151D01*
X0200009Y0070553D02*
X0275260Y0070553D01*
X0279537Y0069954D02*
X0286189Y0069954D01*
X0285625Y0070188D02*
X0287077Y0069586D01*
X0288649Y0069586D01*
X0290100Y0070188D01*
X0291212Y0071299D01*
X0291813Y0072751D01*
X0291813Y0074322D01*
X0291212Y0075774D01*
X0290100Y0076885D01*
X0288649Y0077486D01*
X0287077Y0077486D01*
X0285625Y0076885D01*
X0284514Y0075774D01*
X0283913Y0074322D01*
X0283913Y0072751D01*
X0284514Y0071299D01*
X0285625Y0070188D01*
X0285260Y0070553D02*
X0280466Y0070553D01*
X0281064Y0071151D02*
X0284662Y0071151D01*
X0284328Y0071750D02*
X0281398Y0071750D01*
X0281646Y0072348D02*
X0284080Y0072348D01*
X0283913Y0072947D02*
X0281813Y0072947D01*
X0281813Y0073545D02*
X0283913Y0073545D01*
X0283913Y0074144D02*
X0281813Y0074144D01*
X0281639Y0074742D02*
X0284087Y0074742D01*
X0284335Y0075341D02*
X0281391Y0075341D01*
X0281046Y0075939D02*
X0284680Y0075939D01*
X0285278Y0076538D02*
X0280448Y0076538D01*
X0279494Y0077136D02*
X0286232Y0077136D01*
X0287077Y0079586D02*
X0288649Y0079586D01*
X0290100Y0080188D01*
X0291212Y0081299D01*
X0291813Y0082751D01*
X0291813Y0084322D01*
X0291212Y0085774D01*
X0290100Y0086885D01*
X0288649Y0087486D01*
X0287077Y0087486D01*
X0285625Y0086885D01*
X0284514Y0085774D01*
X0283913Y0084322D01*
X0283913Y0082751D01*
X0284514Y0081299D01*
X0285625Y0080188D01*
X0287077Y0079586D01*
X0285767Y0080129D02*
X0279959Y0080129D01*
X0280640Y0080727D02*
X0285086Y0080727D01*
X0284503Y0081326D02*
X0281223Y0081326D01*
X0281471Y0081924D02*
X0284255Y0081924D01*
X0284007Y0082523D02*
X0281719Y0082523D01*
X0281813Y0083121D02*
X0283913Y0083121D01*
X0283913Y0083720D02*
X0281813Y0083720D01*
X0281813Y0084318D02*
X0283913Y0084318D01*
X0284159Y0084917D02*
X0281567Y0084917D01*
X0281319Y0085515D02*
X0284407Y0085515D01*
X0284855Y0086114D02*
X0280871Y0086114D01*
X0280273Y0086712D02*
X0285453Y0086712D01*
X0286654Y0087311D02*
X0279072Y0087311D01*
X0278649Y0089586D02*
X0280100Y0090188D01*
X0281212Y0091299D01*
X0281813Y0092751D01*
X0281813Y0094322D01*
X0281212Y0095774D01*
X0280100Y0096885D01*
X0278649Y0097486D01*
X0277077Y0097486D01*
X0275625Y0096885D01*
X0274514Y0095774D01*
X0273913Y0094322D01*
X0273913Y0092751D01*
X0274514Y0091299D01*
X0275625Y0090188D01*
X0277077Y0089586D01*
X0278649Y0089586D01*
X0278935Y0089705D02*
X0286791Y0089705D01*
X0287077Y0089586D02*
X0288649Y0089586D01*
X0290100Y0090188D01*
X0291212Y0091299D01*
X0291813Y0092751D01*
X0291813Y0094322D01*
X0291212Y0095774D01*
X0290100Y0096885D01*
X0288649Y0097486D01*
X0287077Y0097486D01*
X0285625Y0096885D01*
X0284514Y0095774D01*
X0283913Y0094322D01*
X0283913Y0092751D01*
X0284514Y0091299D01*
X0285625Y0090188D01*
X0287077Y0089586D01*
X0285510Y0090303D02*
X0280216Y0090303D01*
X0280815Y0090902D02*
X0284911Y0090902D01*
X0284431Y0091501D02*
X0281295Y0091501D01*
X0281543Y0092099D02*
X0284183Y0092099D01*
X0283935Y0092698D02*
X0281791Y0092698D01*
X0281813Y0093296D02*
X0283913Y0093296D01*
X0283913Y0093895D02*
X0281813Y0093895D01*
X0281742Y0094493D02*
X0283984Y0094493D01*
X0284232Y0095092D02*
X0281494Y0095092D01*
X0281246Y0095690D02*
X0284480Y0095690D01*
X0285029Y0096289D02*
X0280697Y0096289D01*
X0280095Y0096887D02*
X0285631Y0096887D01*
X0287076Y0097486D02*
X0278650Y0097486D01*
X0277076Y0097486D02*
X0177000Y0097486D01*
X0177000Y0096887D02*
X0275631Y0096887D01*
X0275029Y0096289D02*
X0176804Y0096289D01*
X0176508Y0095690D02*
X0274480Y0095690D01*
X0274232Y0095092D02*
X0175910Y0095092D01*
X0176898Y0098084D02*
X0362187Y0098084D01*
X0361589Y0098683D02*
X0176650Y0098683D01*
X0176137Y0099281D02*
X0360990Y0099281D01*
X0360392Y0099880D02*
X0289357Y0099880D01*
X0288649Y0099586D02*
X0290100Y0100188D01*
X0291212Y0101299D01*
X0291813Y0102751D01*
X0291813Y0104322D01*
X0291212Y0105774D01*
X0290100Y0106885D01*
X0288649Y0107486D01*
X0287077Y0107486D01*
X0285625Y0106885D01*
X0284514Y0105774D01*
X0283913Y0104322D01*
X0283913Y0102751D01*
X0284514Y0101299D01*
X0285625Y0100188D01*
X0287077Y0099586D01*
X0288649Y0099586D01*
X0290391Y0100478D02*
X0359793Y0100478D01*
X0359195Y0101077D02*
X0290990Y0101077D01*
X0291368Y0101675D02*
X0358596Y0101675D01*
X0357998Y0102274D02*
X0291615Y0102274D01*
X0291813Y0102872D02*
X0357399Y0102872D01*
X0356801Y0103471D02*
X0291813Y0103471D01*
X0291813Y0104069D02*
X0356202Y0104069D01*
X0355604Y0104668D02*
X0291670Y0104668D01*
X0291422Y0105266D02*
X0355005Y0105266D01*
X0354407Y0105865D02*
X0291121Y0105865D01*
X0290522Y0106463D02*
X0353808Y0106463D01*
X0353210Y0107062D02*
X0289673Y0107062D01*
X0288649Y0109586D02*
X0287077Y0109586D01*
X0285625Y0110188D01*
X0284514Y0111299D01*
X0283913Y0112751D01*
X0283913Y0114322D01*
X0284514Y0115774D01*
X0285625Y0116885D01*
X0287077Y0117486D01*
X0288649Y0117486D01*
X0290100Y0116885D01*
X0291212Y0115774D01*
X0291813Y0114322D01*
X0291813Y0112751D01*
X0291212Y0111299D01*
X0290100Y0110188D01*
X0288649Y0109586D01*
X0289779Y0110054D02*
X0350217Y0110054D01*
X0350816Y0109456D02*
X0012800Y0109456D01*
X0012800Y0110054D02*
X0275947Y0110054D01*
X0275625Y0110188D02*
X0277077Y0109586D01*
X0278649Y0109586D01*
X0280100Y0110188D01*
X0281212Y0111299D01*
X0281813Y0112751D01*
X0281813Y0114322D01*
X0281212Y0115774D01*
X0280100Y0116885D01*
X0278649Y0117486D01*
X0277077Y0117486D01*
X0275625Y0116885D01*
X0274514Y0115774D01*
X0273913Y0114322D01*
X0273913Y0112751D01*
X0274514Y0111299D01*
X0275625Y0110188D01*
X0275160Y0110653D02*
X0012800Y0110653D01*
X0012800Y0111251D02*
X0274562Y0111251D01*
X0274286Y0111850D02*
X0012800Y0111850D01*
X0012800Y0112448D02*
X0274038Y0112448D01*
X0273913Y0113047D02*
X0012800Y0113047D01*
X0012800Y0113645D02*
X0273913Y0113645D01*
X0273913Y0114244D02*
X0012800Y0114244D01*
X0012800Y0114842D02*
X0274129Y0114842D01*
X0274377Y0115441D02*
X0012800Y0115441D01*
X0012800Y0116039D02*
X0274780Y0116039D01*
X0275379Y0116638D02*
X0012800Y0116638D01*
X0012800Y0117237D02*
X0276474Y0117237D01*
X0277077Y0119586D02*
X0278649Y0119586D01*
X0280100Y0120188D01*
X0281212Y0121299D01*
X0281813Y0122751D01*
X0281813Y0124322D01*
X0281212Y0125774D01*
X0281185Y0125800D01*
X0284541Y0125800D01*
X0284514Y0125774D01*
X0283913Y0124322D01*
X0283913Y0122751D01*
X0284514Y0121299D01*
X0285625Y0120188D01*
X0287077Y0119586D01*
X0288649Y0119586D01*
X0290100Y0120188D01*
X0291212Y0121299D01*
X0291813Y0122751D01*
X0291813Y0124322D01*
X0291212Y0125774D01*
X0291185Y0125800D01*
X0334472Y0125800D01*
X0363300Y0096972D01*
X0363300Y0096972D01*
X0364472Y0095800D01*
X0374541Y0095800D01*
X0374514Y0095774D01*
X0373913Y0094322D01*
X0373913Y0092751D01*
X0374514Y0091299D01*
X0375625Y0090188D01*
X0377077Y0089586D01*
X0378649Y0089586D01*
X0380100Y0090188D01*
X0381212Y0091299D01*
X0381813Y0092751D01*
X0381813Y0094322D01*
X0381212Y0095774D01*
X0381185Y0095800D01*
X0384541Y0095800D01*
X0384514Y0095774D01*
X0383913Y0094322D01*
X0383913Y0092751D01*
X0384514Y0091299D01*
X0385625Y0090188D01*
X0387077Y0089586D01*
X0388649Y0089586D01*
X0390100Y0090188D01*
X0391212Y0091299D01*
X0391813Y0092751D01*
X0391813Y0094322D01*
X0391212Y0095774D01*
X0391185Y0095800D01*
X0396628Y0095800D01*
X0397800Y0096972D01*
X0397800Y0117128D01*
X0395300Y0119628D01*
X0394128Y0120800D01*
X0390713Y0120800D01*
X0391212Y0121299D01*
X0391813Y0122751D01*
X0391813Y0124322D01*
X0391212Y0125774D01*
X0390100Y0126885D01*
X0388649Y0127486D01*
X0387077Y0127486D01*
X0385625Y0126885D01*
X0384514Y0125774D01*
X0383913Y0124322D01*
X0383913Y0122751D01*
X0384514Y0121299D01*
X0385013Y0120800D01*
X0380713Y0120800D01*
X0381212Y0121299D01*
X0381813Y0122751D01*
X0381813Y0124322D01*
X0381212Y0125774D01*
X0380100Y0126885D01*
X0378649Y0127486D01*
X0377077Y0127486D01*
X0375625Y0126885D01*
X0374514Y0125774D01*
X0373913Y0124322D01*
X0373913Y0122751D01*
X0374514Y0121299D01*
X0375013Y0120800D01*
X0372128Y0120800D01*
X0342300Y0150628D01*
X0341128Y0151800D01*
X0291419Y0151800D01*
X0291813Y0152751D01*
X0291813Y0154322D01*
X0291212Y0155774D01*
X0290100Y0156885D01*
X0288649Y0157486D01*
X0287077Y0157486D01*
X0285625Y0156885D01*
X0284514Y0155774D01*
X0283913Y0154322D01*
X0283913Y0152751D01*
X0284307Y0151800D01*
X0281419Y0151800D01*
X0281813Y0152751D01*
X0281813Y0154322D01*
X0281212Y0155774D01*
X0280100Y0156885D01*
X0278649Y0157486D01*
X0277077Y0157486D01*
X0275625Y0156885D01*
X0274514Y0155774D01*
X0273913Y0154322D01*
X0273913Y0152751D01*
X0274307Y0151800D01*
X0132800Y0151800D01*
X0132800Y0174128D01*
X0131628Y0175300D01*
X0031972Y0175300D01*
X0030800Y0174128D01*
X0030800Y0126972D01*
X0031972Y0125800D01*
X0274541Y0125800D01*
X0274514Y0125774D01*
X0273913Y0124322D01*
X0273913Y0122751D01*
X0274514Y0121299D01*
X0275625Y0120188D01*
X0277077Y0119586D01*
X0276970Y0119631D02*
X0012800Y0119631D01*
X0012800Y0120229D02*
X0275584Y0120229D01*
X0274985Y0120828D02*
X0012800Y0120828D01*
X0012800Y0121426D02*
X0274462Y0121426D01*
X0274214Y0122025D02*
X0012800Y0122025D01*
X0012800Y0122623D02*
X0273966Y0122623D01*
X0273913Y0123222D02*
X0012800Y0123222D01*
X0012800Y0123820D02*
X0273913Y0123820D01*
X0273953Y0124419D02*
X0012800Y0124419D01*
X0012800Y0125017D02*
X0274201Y0125017D01*
X0274449Y0125616D02*
X0012800Y0125616D01*
X0012800Y0126214D02*
X0031557Y0126214D01*
X0030959Y0126813D02*
X0012800Y0126813D01*
X0012800Y0127411D02*
X0030800Y0127411D01*
X0030800Y0128010D02*
X0012800Y0128010D01*
X0012800Y0128608D02*
X0030800Y0128608D01*
X0030800Y0129207D02*
X0012800Y0129207D01*
X0012800Y0129805D02*
X0030800Y0129805D01*
X0030800Y0130404D02*
X0012800Y0130404D01*
X0012800Y0131002D02*
X0030800Y0131002D01*
X0030800Y0131601D02*
X0012800Y0131601D01*
X0012800Y0132199D02*
X0030800Y0132199D01*
X0030800Y0132798D02*
X0012800Y0132798D01*
X0012800Y0133396D02*
X0030800Y0133396D01*
X0030800Y0133995D02*
X0012800Y0133995D01*
X0012800Y0134593D02*
X0030800Y0134593D01*
X0030800Y0135192D02*
X0012800Y0135192D01*
X0012800Y0135790D02*
X0030800Y0135790D01*
X0030800Y0136389D02*
X0012800Y0136389D01*
X0012800Y0136987D02*
X0030800Y0136987D01*
X0030800Y0137586D02*
X0012800Y0137586D01*
X0012800Y0138184D02*
X0030800Y0138184D01*
X0030800Y0138783D02*
X0012800Y0138783D01*
X0012800Y0139381D02*
X0030800Y0139381D01*
X0030800Y0139980D02*
X0012800Y0139980D01*
X0012800Y0140578D02*
X0030800Y0140578D01*
X0030800Y0141177D02*
X0012800Y0141177D01*
X0012800Y0141775D02*
X0030800Y0141775D01*
X0030800Y0142374D02*
X0012800Y0142374D01*
X0012800Y0142972D02*
X0030800Y0142972D01*
X0030800Y0143571D02*
X0012800Y0143571D01*
X0012800Y0144170D02*
X0030800Y0144170D01*
X0030800Y0144768D02*
X0012800Y0144768D01*
X0012800Y0145367D02*
X0030800Y0145367D01*
X0030800Y0145965D02*
X0012800Y0145965D01*
X0012800Y0146564D02*
X0030800Y0146564D01*
X0030800Y0147162D02*
X0012800Y0147162D01*
X0012800Y0147761D02*
X0030800Y0147761D01*
X0030800Y0148359D02*
X0012800Y0148359D01*
X0012800Y0148958D02*
X0030800Y0148958D01*
X0030800Y0149556D02*
X0012800Y0149556D01*
X0012800Y0150155D02*
X0030800Y0150155D01*
X0030800Y0150753D02*
X0012800Y0150753D01*
X0012800Y0151352D02*
X0030800Y0151352D01*
X0030800Y0151950D02*
X0012800Y0151950D01*
X0012800Y0152549D02*
X0030800Y0152549D01*
X0030800Y0153147D02*
X0012800Y0153147D01*
X0012800Y0153746D02*
X0030800Y0153746D01*
X0030800Y0154344D02*
X0012800Y0154344D01*
X0012800Y0154943D02*
X0030800Y0154943D01*
X0030800Y0155541D02*
X0012800Y0155541D01*
X0012800Y0156140D02*
X0030800Y0156140D01*
X0030800Y0156738D02*
X0012800Y0156738D01*
X0012800Y0157337D02*
X0030800Y0157337D01*
X0030800Y0157935D02*
X0012800Y0157935D01*
X0012800Y0158534D02*
X0030800Y0158534D01*
X0030800Y0159132D02*
X0012800Y0159132D01*
X0012800Y0159731D02*
X0030800Y0159731D01*
X0030800Y0160329D02*
X0012800Y0160329D01*
X0012800Y0160928D02*
X0030800Y0160928D01*
X0030800Y0161526D02*
X0012800Y0161526D01*
X0012800Y0162125D02*
X0030800Y0162125D01*
X0030800Y0162723D02*
X0012800Y0162723D01*
X0012800Y0163322D02*
X0030800Y0163322D01*
X0030800Y0163920D02*
X0012800Y0163920D01*
X0012800Y0164519D02*
X0030800Y0164519D01*
X0030800Y0165117D02*
X0012800Y0165117D01*
X0012800Y0165716D02*
X0030800Y0165716D01*
X0030800Y0166314D02*
X0012800Y0166314D01*
X0012800Y0166913D02*
X0030800Y0166913D01*
X0030800Y0167511D02*
X0012800Y0167511D01*
X0012800Y0168110D02*
X0030800Y0168110D01*
X0030800Y0168708D02*
X0012800Y0168708D01*
X0012800Y0169307D02*
X0030800Y0169307D01*
X0030800Y0169905D02*
X0012800Y0169905D01*
X0012800Y0170504D02*
X0030800Y0170504D01*
X0030800Y0171103D02*
X0012800Y0171103D01*
X0012800Y0171701D02*
X0030800Y0171701D01*
X0030800Y0172300D02*
X0012800Y0172300D01*
X0012800Y0172898D02*
X0030800Y0172898D01*
X0030800Y0173497D02*
X0012800Y0173497D01*
X0012800Y0174095D02*
X0030800Y0174095D01*
X0031365Y0174694D02*
X0012800Y0174694D01*
X0012800Y0175292D02*
X0031964Y0175292D01*
X0012800Y0175891D02*
X0274631Y0175891D01*
X0274514Y0175774D02*
X0273913Y0174322D01*
X0273913Y0172751D01*
X0274514Y0171299D01*
X0275625Y0170188D01*
X0277077Y0169586D01*
X0278649Y0169586D01*
X0280100Y0170188D01*
X0281212Y0171299D01*
X0281813Y0172751D01*
X0281813Y0174322D01*
X0281212Y0175774D01*
X0280100Y0176885D01*
X0278649Y0177486D01*
X0277077Y0177486D01*
X0275625Y0176885D01*
X0274514Y0175774D01*
X0274315Y0175292D02*
X0131636Y0175292D01*
X0132235Y0174694D02*
X0274067Y0174694D01*
X0273913Y0174095D02*
X0132800Y0174095D01*
X0132800Y0173497D02*
X0273913Y0173497D01*
X0273913Y0172898D02*
X0132800Y0172898D01*
X0132800Y0172300D02*
X0274100Y0172300D01*
X0274348Y0171701D02*
X0132800Y0171701D01*
X0132800Y0171103D02*
X0274711Y0171103D01*
X0275309Y0170504D02*
X0132800Y0170504D01*
X0132800Y0169905D02*
X0276306Y0169905D01*
X0277077Y0167486D02*
X0275625Y0166885D01*
X0274514Y0165774D01*
X0273913Y0164322D01*
X0273913Y0162751D01*
X0274514Y0161299D01*
X0275625Y0160188D01*
X0277077Y0159586D01*
X0278649Y0159586D01*
X0280100Y0160188D01*
X0281212Y0161299D01*
X0281813Y0162751D01*
X0281813Y0164322D01*
X0281212Y0165774D01*
X0280100Y0166885D01*
X0278649Y0167486D01*
X0277077Y0167486D01*
X0275693Y0166913D02*
X0132800Y0166913D01*
X0132800Y0167511D02*
X0404800Y0167511D01*
X0404800Y0166913D02*
X0390033Y0166913D01*
X0390100Y0166885D02*
X0388649Y0167486D01*
X0387077Y0167486D01*
X0385625Y0166885D01*
X0384514Y0165774D01*
X0383913Y0164322D01*
X0383913Y0162751D01*
X0384514Y0161299D01*
X0385625Y0160188D01*
X0387077Y0159586D01*
X0388649Y0159586D01*
X0390100Y0160188D01*
X0391212Y0161299D01*
X0391813Y0162751D01*
X0391813Y0164322D01*
X0391212Y0165774D01*
X0390100Y0166885D01*
X0390671Y0166314D02*
X0404800Y0166314D01*
X0404800Y0165716D02*
X0391236Y0165716D01*
X0391483Y0165117D02*
X0404800Y0165117D01*
X0404800Y0164519D02*
X0391731Y0164519D01*
X0391813Y0163920D02*
X0404800Y0163920D01*
X0404800Y0163322D02*
X0391813Y0163322D01*
X0391802Y0162723D02*
X0404800Y0162723D01*
X0404800Y0162125D02*
X0391554Y0162125D01*
X0391306Y0161526D02*
X0404800Y0161526D01*
X0404800Y0160928D02*
X0390841Y0160928D01*
X0390242Y0160329D02*
X0404800Y0160329D01*
X0404800Y0159731D02*
X0388998Y0159731D01*
X0386728Y0159731D02*
X0378998Y0159731D01*
X0378649Y0159586D02*
X0380100Y0160188D01*
X0381212Y0161299D01*
X0381813Y0162751D01*
X0381813Y0164322D01*
X0381212Y0165774D01*
X0380100Y0166885D01*
X0378649Y0167486D01*
X0377077Y0167486D01*
X0375625Y0166885D01*
X0374514Y0165774D01*
X0373913Y0164322D01*
X0373913Y0162751D01*
X0374514Y0161299D01*
X0375625Y0160188D01*
X0377077Y0159586D01*
X0378649Y0159586D01*
X0380242Y0160329D02*
X0385484Y0160329D01*
X0384885Y0160928D02*
X0380841Y0160928D01*
X0381306Y0161526D02*
X0384420Y0161526D01*
X0384172Y0162125D02*
X0381554Y0162125D01*
X0381802Y0162723D02*
X0383924Y0162723D01*
X0383913Y0163322D02*
X0381813Y0163322D01*
X0381813Y0163920D02*
X0383913Y0163920D01*
X0383995Y0164519D02*
X0381731Y0164519D01*
X0381483Y0165117D02*
X0384243Y0165117D01*
X0384490Y0165716D02*
X0381236Y0165716D01*
X0380671Y0166314D02*
X0385055Y0166314D01*
X0385693Y0166913D02*
X0380033Y0166913D01*
X0378649Y0169586D02*
X0380100Y0170188D01*
X0381212Y0171299D01*
X0381813Y0172751D01*
X0381813Y0174322D01*
X0381212Y0175774D01*
X0380100Y0176885D01*
X0378649Y0177486D01*
X0377077Y0177486D01*
X0375625Y0176885D01*
X0374514Y0175774D01*
X0373913Y0174322D01*
X0373913Y0172751D01*
X0374514Y0171299D01*
X0375625Y0170188D01*
X0377077Y0169586D01*
X0378649Y0169586D01*
X0379419Y0169905D02*
X0386306Y0169905D01*
X0385625Y0170188D02*
X0387077Y0169586D01*
X0388649Y0169586D01*
X0390100Y0170188D01*
X0391212Y0171299D01*
X0391813Y0172751D01*
X0391813Y0174322D01*
X0391212Y0175774D01*
X0390100Y0176885D01*
X0388649Y0177486D01*
X0387077Y0177486D01*
X0385625Y0176885D01*
X0384514Y0175774D01*
X0383913Y0174322D01*
X0383913Y0172751D01*
X0384514Y0171299D01*
X0385625Y0170188D01*
X0385309Y0170504D02*
X0380417Y0170504D01*
X0381015Y0171103D02*
X0384711Y0171103D01*
X0384348Y0171701D02*
X0381378Y0171701D01*
X0381626Y0172300D02*
X0384100Y0172300D01*
X0383913Y0172898D02*
X0381813Y0172898D01*
X0381813Y0173497D02*
X0383913Y0173497D01*
X0383913Y0174095D02*
X0381813Y0174095D01*
X0381659Y0174694D02*
X0384067Y0174694D01*
X0384315Y0175292D02*
X0381411Y0175292D01*
X0381095Y0175891D02*
X0384631Y0175891D01*
X0385230Y0176489D02*
X0380496Y0176489D01*
X0379611Y0177088D02*
X0386115Y0177088D01*
X0387077Y0179586D02*
X0388649Y0179586D01*
X0390100Y0180188D01*
X0391212Y0181299D01*
X0391813Y0182751D01*
X0391813Y0184322D01*
X0391212Y0185774D01*
X0390100Y0186885D01*
X0388649Y0187486D01*
X0387077Y0187486D01*
X0385625Y0186885D01*
X0384514Y0185774D01*
X0383913Y0184322D01*
X0383913Y0182751D01*
X0384514Y0181299D01*
X0385625Y0180188D01*
X0387077Y0179586D01*
X0385885Y0180080D02*
X0379841Y0180080D01*
X0380100Y0180188D02*
X0378649Y0179586D01*
X0377077Y0179586D01*
X0375625Y0180188D01*
X0374514Y0181299D01*
X0373913Y0182751D01*
X0373913Y0184322D01*
X0374514Y0185774D01*
X0375625Y0186885D01*
X0377077Y0187486D01*
X0378649Y0187486D01*
X0380100Y0186885D01*
X0381212Y0185774D01*
X0381813Y0184322D01*
X0381813Y0182751D01*
X0381212Y0181299D01*
X0380100Y0180188D01*
X0380592Y0180679D02*
X0385134Y0180679D01*
X0384536Y0181277D02*
X0381190Y0181277D01*
X0381451Y0181876D02*
X0384275Y0181876D01*
X0384027Y0182474D02*
X0381699Y0182474D01*
X0381813Y0183073D02*
X0383913Y0183073D01*
X0383913Y0183671D02*
X0381813Y0183671D01*
X0381813Y0184270D02*
X0383913Y0184270D01*
X0384139Y0184868D02*
X0381587Y0184868D01*
X0381339Y0185467D02*
X0384387Y0185467D01*
X0384806Y0186065D02*
X0380920Y0186065D01*
X0380322Y0186664D02*
X0385404Y0186664D01*
X0386537Y0187262D02*
X0379189Y0187262D01*
X0378649Y0189586D02*
X0380100Y0190188D01*
X0381212Y0191299D01*
X0381813Y0192751D01*
X0381813Y0194322D01*
X0381212Y0195774D01*
X0380100Y0196885D01*
X0378649Y0197486D01*
X0377077Y0197486D01*
X0375625Y0196885D01*
X0374514Y0195774D01*
X0373913Y0194322D01*
X0373913Y0192751D01*
X0374514Y0191299D01*
X0375625Y0190188D01*
X0377077Y0189586D01*
X0378649Y0189586D01*
X0378818Y0189656D02*
X0386908Y0189656D01*
X0387077Y0189586D02*
X0388649Y0189586D01*
X0390100Y0190188D01*
X0391212Y0191299D01*
X0391813Y0192751D01*
X0391813Y0194322D01*
X0391212Y0195774D01*
X0390100Y0196885D01*
X0388649Y0197486D01*
X0387077Y0197486D01*
X0385625Y0196885D01*
X0384514Y0195774D01*
X0383913Y0194322D01*
X0383913Y0192751D01*
X0384514Y0191299D01*
X0385625Y0190188D01*
X0387077Y0189586D01*
X0385558Y0190255D02*
X0380168Y0190255D01*
X0380766Y0190853D02*
X0384960Y0190853D01*
X0384451Y0191452D02*
X0381275Y0191452D01*
X0381523Y0192050D02*
X0384203Y0192050D01*
X0383955Y0192649D02*
X0381771Y0192649D01*
X0381813Y0193247D02*
X0383913Y0193247D01*
X0383913Y0193846D02*
X0381813Y0193846D01*
X0381762Y0194444D02*
X0383964Y0194444D01*
X0384212Y0195043D02*
X0381514Y0195043D01*
X0381266Y0195641D02*
X0384460Y0195641D01*
X0384981Y0196240D02*
X0380745Y0196240D01*
X0380147Y0196839D02*
X0385579Y0196839D01*
X0386959Y0197437D02*
X0378767Y0197437D01*
X0376959Y0197437D02*
X0288767Y0197437D01*
X0288649Y0197486D02*
X0287077Y0197486D01*
X0285625Y0196885D01*
X0284514Y0195774D01*
X0283913Y0194322D01*
X0283913Y0192751D01*
X0284514Y0191299D01*
X0285625Y0190188D01*
X0287077Y0189586D01*
X0288649Y0189586D01*
X0290100Y0190188D01*
X0291212Y0191299D01*
X0291813Y0192751D01*
X0291813Y0194322D01*
X0291212Y0195774D01*
X0290100Y0196885D01*
X0288649Y0197486D01*
X0290147Y0196839D02*
X0375579Y0196839D01*
X0374981Y0196240D02*
X0290745Y0196240D01*
X0291266Y0195641D02*
X0374460Y0195641D01*
X0374212Y0195043D02*
X0291514Y0195043D01*
X0291762Y0194444D02*
X0373964Y0194444D01*
X0373913Y0193846D02*
X0291813Y0193846D01*
X0291813Y0193247D02*
X0373913Y0193247D01*
X0373955Y0192649D02*
X0291771Y0192649D01*
X0291523Y0192050D02*
X0374203Y0192050D01*
X0374451Y0191452D02*
X0291275Y0191452D01*
X0290766Y0190853D02*
X0374960Y0190853D01*
X0375558Y0190255D02*
X0290168Y0190255D01*
X0288818Y0189656D02*
X0376908Y0189656D01*
X0376537Y0187262D02*
X0289189Y0187262D01*
X0288649Y0187486D02*
X0287077Y0187486D01*
X0285625Y0186885D01*
X0284514Y0185774D01*
X0283913Y0184322D01*
X0283913Y0182751D01*
X0284514Y0181299D01*
X0285625Y0180188D01*
X0287077Y0179586D01*
X0288649Y0179586D01*
X0290100Y0180188D01*
X0291212Y0181299D01*
X0291813Y0182751D01*
X0291813Y0184322D01*
X0291212Y0185774D01*
X0290100Y0186885D01*
X0288649Y0187486D01*
X0290322Y0186664D02*
X0375404Y0186664D01*
X0374806Y0186065D02*
X0290920Y0186065D01*
X0291339Y0185467D02*
X0374387Y0185467D01*
X0374139Y0184868D02*
X0291587Y0184868D01*
X0291813Y0184270D02*
X0373913Y0184270D01*
X0373913Y0183671D02*
X0291813Y0183671D01*
X0291813Y0183073D02*
X0373913Y0183073D01*
X0374027Y0182474D02*
X0291699Y0182474D01*
X0291451Y0181876D02*
X0374275Y0181876D01*
X0374536Y0181277D02*
X0291190Y0181277D01*
X0290592Y0180679D02*
X0375134Y0180679D01*
X0375885Y0180080D02*
X0289841Y0180080D01*
X0288649Y0177486D02*
X0287077Y0177486D01*
X0285625Y0176885D01*
X0284514Y0175774D01*
X0283913Y0174322D01*
X0283913Y0172751D01*
X0284514Y0171299D01*
X0285625Y0170188D01*
X0287077Y0169586D01*
X0288649Y0169586D01*
X0290100Y0170188D01*
X0291212Y0171299D01*
X0291813Y0172751D01*
X0291813Y0174322D01*
X0291212Y0175774D01*
X0290100Y0176885D01*
X0288649Y0177486D01*
X0289611Y0177088D02*
X0376115Y0177088D01*
X0375230Y0176489D02*
X0290496Y0176489D01*
X0291095Y0175891D02*
X0374631Y0175891D01*
X0374315Y0175292D02*
X0291411Y0175292D01*
X0291659Y0174694D02*
X0374067Y0174694D01*
X0373913Y0174095D02*
X0291813Y0174095D01*
X0291813Y0173497D02*
X0373913Y0173497D01*
X0373913Y0172898D02*
X0291813Y0172898D01*
X0291626Y0172300D02*
X0374100Y0172300D01*
X0374348Y0171701D02*
X0291378Y0171701D01*
X0291015Y0171103D02*
X0374711Y0171103D01*
X0375309Y0170504D02*
X0290417Y0170504D01*
X0289419Y0169905D02*
X0376306Y0169905D01*
X0375693Y0166913D02*
X0290033Y0166913D01*
X0290100Y0166885D02*
X0288649Y0167486D01*
X0287077Y0167486D01*
X0285625Y0166885D01*
X0284514Y0165774D01*
X0283913Y0164322D01*
X0283913Y0162751D01*
X0284514Y0161299D01*
X0285625Y0160188D01*
X0287077Y0159586D01*
X0288649Y0159586D01*
X0290100Y0160188D01*
X0291212Y0161299D01*
X0291813Y0162751D01*
X0291813Y0164322D01*
X0291212Y0165774D01*
X0290100Y0166885D01*
X0290671Y0166314D02*
X0375055Y0166314D01*
X0374490Y0165716D02*
X0291236Y0165716D01*
X0291483Y0165117D02*
X0374243Y0165117D01*
X0373995Y0164519D02*
X0291731Y0164519D01*
X0291813Y0163920D02*
X0373913Y0163920D01*
X0373913Y0163322D02*
X0291813Y0163322D01*
X0291802Y0162723D02*
X0373924Y0162723D01*
X0374172Y0162125D02*
X0291554Y0162125D01*
X0291306Y0161526D02*
X0374420Y0161526D01*
X0374885Y0160928D02*
X0290841Y0160928D01*
X0290242Y0160329D02*
X0375484Y0160329D01*
X0376728Y0159731D02*
X0288998Y0159731D01*
X0286728Y0159731D02*
X0278998Y0159731D01*
X0280242Y0160329D02*
X0285484Y0160329D01*
X0284885Y0160928D02*
X0280841Y0160928D01*
X0281306Y0161526D02*
X0284420Y0161526D01*
X0284172Y0162125D02*
X0281554Y0162125D01*
X0281802Y0162723D02*
X0283924Y0162723D01*
X0283913Y0163322D02*
X0281813Y0163322D01*
X0281813Y0163920D02*
X0283913Y0163920D01*
X0283995Y0164519D02*
X0281731Y0164519D01*
X0281483Y0165117D02*
X0284243Y0165117D01*
X0284490Y0165716D02*
X0281236Y0165716D01*
X0280671Y0166314D02*
X0285055Y0166314D01*
X0285693Y0166913D02*
X0280033Y0166913D01*
X0279419Y0169905D02*
X0286306Y0169905D01*
X0285309Y0170504D02*
X0280417Y0170504D01*
X0281015Y0171103D02*
X0284711Y0171103D01*
X0284348Y0171701D02*
X0281378Y0171701D01*
X0281626Y0172300D02*
X0284100Y0172300D01*
X0283913Y0172898D02*
X0281813Y0172898D01*
X0281813Y0173497D02*
X0283913Y0173497D01*
X0283913Y0174095D02*
X0281813Y0174095D01*
X0281659Y0174694D02*
X0284067Y0174694D01*
X0284315Y0175292D02*
X0281411Y0175292D01*
X0281095Y0175891D02*
X0284631Y0175891D01*
X0285230Y0176489D02*
X0280496Y0176489D01*
X0279611Y0177088D02*
X0286115Y0177088D01*
X0285885Y0180080D02*
X0279841Y0180080D01*
X0280100Y0180188D02*
X0281212Y0181299D01*
X0281813Y0182751D01*
X0281813Y0184322D01*
X0281212Y0185774D01*
X0280100Y0186885D01*
X0278649Y0187486D01*
X0277077Y0187486D01*
X0275625Y0186885D01*
X0274514Y0185774D01*
X0273913Y0184322D01*
X0273913Y0182751D01*
X0274514Y0181299D01*
X0275625Y0180188D01*
X0277077Y0179586D01*
X0278649Y0179586D01*
X0280100Y0180188D01*
X0280592Y0180679D02*
X0285134Y0180679D01*
X0284536Y0181277D02*
X0281190Y0181277D01*
X0281451Y0181876D02*
X0284275Y0181876D01*
X0284027Y0182474D02*
X0281699Y0182474D01*
X0281813Y0183073D02*
X0283913Y0183073D01*
X0283913Y0183671D02*
X0281813Y0183671D01*
X0281813Y0184270D02*
X0283913Y0184270D01*
X0284139Y0184868D02*
X0281587Y0184868D01*
X0281339Y0185467D02*
X0284387Y0185467D01*
X0284806Y0186065D02*
X0280920Y0186065D01*
X0280322Y0186664D02*
X0285404Y0186664D01*
X0286537Y0187262D02*
X0279189Y0187262D01*
X0278649Y0189586D02*
X0280100Y0190188D01*
X0281212Y0191299D01*
X0281813Y0192751D01*
X0281813Y0194322D01*
X0281212Y0195774D01*
X0280100Y0196885D01*
X0278649Y0197486D01*
X0277077Y0197486D01*
X0275625Y0196885D01*
X0274514Y0195774D01*
X0273913Y0194322D01*
X0273913Y0192751D01*
X0274514Y0191299D01*
X0275625Y0190188D01*
X0277077Y0189586D01*
X0278649Y0189586D01*
X0278818Y0189656D02*
X0286908Y0189656D01*
X0285558Y0190255D02*
X0280168Y0190255D01*
X0280766Y0190853D02*
X0284960Y0190853D01*
X0284451Y0191452D02*
X0281275Y0191452D01*
X0281523Y0192050D02*
X0284203Y0192050D01*
X0283955Y0192649D02*
X0281771Y0192649D01*
X0281813Y0193247D02*
X0283913Y0193247D01*
X0283913Y0193846D02*
X0281813Y0193846D01*
X0281762Y0194444D02*
X0283964Y0194444D01*
X0284212Y0195043D02*
X0281514Y0195043D01*
X0281266Y0195641D02*
X0284460Y0195641D01*
X0284981Y0196240D02*
X0280745Y0196240D01*
X0280147Y0196839D02*
X0285579Y0196839D01*
X0286959Y0197437D02*
X0278767Y0197437D01*
X0276959Y0197437D02*
X0241570Y0197437D01*
X0241818Y0196839D02*
X0275579Y0196839D01*
X0274981Y0196240D02*
X0242005Y0196240D01*
X0242005Y0196387D02*
X0240811Y0199268D01*
X0238606Y0201473D01*
X0235725Y0202667D01*
X0232607Y0202667D01*
X0229726Y0201473D01*
X0227521Y0199268D01*
X0226328Y0196387D01*
X0226328Y0193269D01*
X0227521Y0190388D01*
X0229726Y0188183D01*
X0232607Y0186989D01*
X0235725Y0186989D01*
X0238606Y0188183D01*
X0240811Y0190388D01*
X0242005Y0193269D01*
X0242005Y0196387D01*
X0242005Y0195641D02*
X0274460Y0195641D01*
X0274212Y0195043D02*
X0242005Y0195043D01*
X0242005Y0194444D02*
X0273964Y0194444D01*
X0273913Y0193846D02*
X0242005Y0193846D01*
X0241996Y0193247D02*
X0273913Y0193247D01*
X0273955Y0192649D02*
X0241748Y0192649D01*
X0241500Y0192050D02*
X0274203Y0192050D01*
X0274451Y0191452D02*
X0241252Y0191452D01*
X0241004Y0190853D02*
X0274960Y0190853D01*
X0275558Y0190255D02*
X0240678Y0190255D01*
X0240080Y0189656D02*
X0276908Y0189656D01*
X0276537Y0187262D02*
X0236384Y0187262D01*
X0237829Y0187861D02*
X0404800Y0187861D01*
X0404800Y0188459D02*
X0238883Y0188459D01*
X0239481Y0189058D02*
X0404800Y0189058D01*
X0404800Y0189656D02*
X0388818Y0189656D01*
X0390168Y0190255D02*
X0404800Y0190255D01*
X0404800Y0190853D02*
X0390766Y0190853D01*
X0391275Y0191452D02*
X0404800Y0191452D01*
X0404800Y0192050D02*
X0391523Y0192050D01*
X0391771Y0192649D02*
X0404800Y0192649D01*
X0404800Y0193247D02*
X0391813Y0193247D01*
X0391813Y0193846D02*
X0404800Y0193846D01*
X0404800Y0194444D02*
X0391762Y0194444D01*
X0391514Y0195043D02*
X0404800Y0195043D01*
X0404800Y0195641D02*
X0391266Y0195641D01*
X0390745Y0196240D02*
X0404800Y0196240D01*
X0404800Y0196839D02*
X0390147Y0196839D01*
X0388767Y0197437D02*
X0404800Y0197437D01*
X0404800Y0198036D02*
X0241322Y0198036D01*
X0241074Y0198634D02*
X0404800Y0198634D01*
X0404800Y0199233D02*
X0240826Y0199233D01*
X0240248Y0199831D02*
X0276486Y0199831D01*
X0277077Y0199586D02*
X0278649Y0199586D01*
X0280100Y0200188D01*
X0281212Y0201299D01*
X0281813Y0202751D01*
X0281813Y0204322D01*
X0281212Y0205774D01*
X0280100Y0206885D01*
X0278649Y0207486D01*
X0277077Y0207486D01*
X0275625Y0206885D01*
X0274514Y0205774D01*
X0273913Y0204322D01*
X0273913Y0202751D01*
X0274514Y0201299D01*
X0275625Y0200188D01*
X0277077Y0199586D01*
X0275383Y0200430D02*
X0239650Y0200430D01*
X0239051Y0201028D02*
X0274785Y0201028D01*
X0274379Y0201627D02*
X0238236Y0201627D01*
X0236791Y0202225D02*
X0274131Y0202225D01*
X0273913Y0202824D02*
X0012800Y0202824D01*
X0012800Y0203422D02*
X0273913Y0203422D01*
X0273913Y0204021D02*
X0012800Y0204021D01*
X0012800Y0204619D02*
X0274036Y0204619D01*
X0274284Y0205218D02*
X0012800Y0205218D01*
X0012800Y0205816D02*
X0274557Y0205816D01*
X0275155Y0206415D02*
X0012800Y0206415D01*
X0012800Y0207013D02*
X0275935Y0207013D01*
X0277077Y0209586D02*
X0278649Y0209586D01*
X0280100Y0210188D01*
X0281212Y0211299D01*
X0281813Y0212751D01*
X0281813Y0214322D01*
X0281212Y0215774D01*
X0280100Y0216885D01*
X0278649Y0217486D01*
X0277077Y0217486D01*
X0275625Y0216885D01*
X0274514Y0215774D01*
X0273913Y0214322D01*
X0273913Y0212751D01*
X0274514Y0211299D01*
X0275625Y0210188D01*
X0277077Y0209586D01*
X0276064Y0210006D02*
X0012800Y0210006D01*
X0012800Y0210604D02*
X0275209Y0210604D01*
X0274610Y0211203D02*
X0012800Y0211203D01*
X0012800Y0211801D02*
X0274306Y0211801D01*
X0274058Y0212400D02*
X0123621Y0212400D01*
X0124236Y0212655D02*
X0125445Y0213864D01*
X0126100Y0215445D01*
X0126100Y0217155D01*
X0125445Y0218736D01*
X0124236Y0219945D01*
X0122655Y0220600D01*
X0120945Y0220600D01*
X0119364Y0219945D01*
X0118155Y0218736D01*
X0117500Y0217155D01*
X0117500Y0215445D01*
X0118155Y0213864D01*
X0119364Y0212655D01*
X0120945Y0212000D01*
X0122655Y0212000D01*
X0124236Y0212655D01*
X0124579Y0212998D02*
X0273913Y0212998D01*
X0273913Y0213597D02*
X0125178Y0213597D01*
X0125582Y0214195D02*
X0273913Y0214195D01*
X0274108Y0214794D02*
X0125830Y0214794D01*
X0126078Y0215392D02*
X0274356Y0215392D01*
X0274732Y0215991D02*
X0126100Y0215991D01*
X0126100Y0216589D02*
X0275330Y0216589D01*
X0276357Y0217188D02*
X0126087Y0217188D01*
X0125839Y0217786D02*
X0404800Y0217786D01*
X0404800Y0217188D02*
X0389369Y0217188D01*
X0388649Y0217486D02*
X0390100Y0216885D01*
X0391212Y0215774D01*
X0391813Y0214322D01*
X0391813Y0212751D01*
X0391212Y0211299D01*
X0390100Y0210188D01*
X0388649Y0209586D01*
X0387077Y0209586D01*
X0385625Y0210188D01*
X0384514Y0211299D01*
X0383913Y0212751D01*
X0383913Y0214322D01*
X0384514Y0215774D01*
X0385625Y0216885D01*
X0387077Y0217486D01*
X0388649Y0217486D01*
X0390396Y0216589D02*
X0404800Y0216589D01*
X0404800Y0215991D02*
X0390994Y0215991D01*
X0391370Y0215392D02*
X0404800Y0215392D01*
X0404800Y0214794D02*
X0391618Y0214794D01*
X0391813Y0214195D02*
X0404800Y0214195D01*
X0404800Y0213597D02*
X0391813Y0213597D01*
X0391813Y0212998D02*
X0404800Y0212998D01*
X0404800Y0212400D02*
X0391668Y0212400D01*
X0391420Y0211801D02*
X0404800Y0211801D01*
X0404800Y0211203D02*
X0391116Y0211203D01*
X0390517Y0210604D02*
X0404800Y0210604D01*
X0404800Y0210006D02*
X0389662Y0210006D01*
X0388649Y0207486D02*
X0387077Y0207486D01*
X0385625Y0206885D01*
X0384514Y0205774D01*
X0383913Y0204322D01*
X0383913Y0202751D01*
X0384514Y0201299D01*
X0385625Y0200188D01*
X0387077Y0199586D01*
X0388649Y0199586D01*
X0390100Y0200188D01*
X0391212Y0201299D01*
X0391813Y0202751D01*
X0391813Y0204322D01*
X0391212Y0205774D01*
X0390100Y0206885D01*
X0388649Y0207486D01*
X0389791Y0207013D02*
X0404800Y0207013D01*
X0404800Y0206415D02*
X0390571Y0206415D01*
X0391169Y0205816D02*
X0404800Y0205816D01*
X0404800Y0205218D02*
X0391442Y0205218D01*
X0391690Y0204619D02*
X0404800Y0204619D01*
X0404800Y0204021D02*
X0391813Y0204021D01*
X0391813Y0203422D02*
X0404800Y0203422D01*
X0404800Y0202824D02*
X0391813Y0202824D01*
X0391595Y0202225D02*
X0404800Y0202225D01*
X0404800Y0201627D02*
X0391347Y0201627D01*
X0390941Y0201028D02*
X0404800Y0201028D01*
X0404800Y0200430D02*
X0390342Y0200430D01*
X0389240Y0199831D02*
X0404800Y0199831D01*
X0404800Y0207612D02*
X0012800Y0207612D01*
X0012800Y0208210D02*
X0404800Y0208210D01*
X0404800Y0208809D02*
X0012800Y0208809D01*
X0012800Y0209407D02*
X0404800Y0209407D01*
X0404800Y0218385D02*
X0125591Y0218385D01*
X0125198Y0218983D02*
X0404800Y0218983D01*
X0404800Y0219582D02*
X0124599Y0219582D01*
X0123668Y0220180D02*
X0404800Y0220180D01*
X0404800Y0220779D02*
X0012800Y0220779D01*
X0012800Y0221377D02*
X0404800Y0221377D01*
X0404800Y0221976D02*
X0012800Y0221976D01*
X0012800Y0222574D02*
X0404800Y0222574D01*
X0404800Y0223173D02*
X0012800Y0223173D01*
X0012800Y0223772D02*
X0404800Y0223772D01*
X0404800Y0224370D02*
X0012800Y0224370D01*
X0012800Y0224969D02*
X0404800Y0224969D01*
X0404800Y0225567D02*
X0012800Y0225567D01*
X0012800Y0226166D02*
X0404800Y0226166D01*
X0404800Y0226764D02*
X0012800Y0226764D01*
X0012800Y0227363D02*
X0404800Y0227363D01*
X0404800Y0227961D02*
X0012800Y0227961D01*
X0012800Y0228560D02*
X0404800Y0228560D01*
X0404800Y0229158D02*
X0012800Y0229158D01*
X0012800Y0229757D02*
X0404800Y0229757D01*
X0404800Y0230355D02*
X0012800Y0230355D01*
X0012800Y0230954D02*
X0404800Y0230954D01*
X0404800Y0231552D02*
X0012800Y0231552D01*
X0012800Y0232151D02*
X0404800Y0232151D01*
X0404800Y0232749D02*
X0012800Y0232749D01*
X0012800Y0233348D02*
X0404800Y0233348D01*
X0404800Y0233946D02*
X0012800Y0233946D01*
X0012800Y0234545D02*
X0404800Y0234545D01*
X0404800Y0235143D02*
X0012800Y0235143D01*
X0012800Y0235742D02*
X0404800Y0235742D01*
X0404800Y0236340D02*
X0012800Y0236340D01*
X0012800Y0236939D02*
X0404800Y0236939D01*
X0404800Y0237537D02*
X0012800Y0237537D01*
X0012800Y0238136D02*
X0404800Y0238136D01*
X0404800Y0238734D02*
X0012800Y0238734D01*
X0012800Y0239333D02*
X0404800Y0239333D01*
X0380100Y0216885D02*
X0378649Y0217486D01*
X0377077Y0217486D01*
X0375625Y0216885D01*
X0374514Y0215774D01*
X0373913Y0214322D01*
X0373913Y0212751D01*
X0374514Y0211299D01*
X0375625Y0210188D01*
X0377077Y0209586D01*
X0378649Y0209586D01*
X0380100Y0210188D01*
X0381212Y0211299D01*
X0381813Y0212751D01*
X0381813Y0214322D01*
X0381212Y0215774D01*
X0380100Y0216885D01*
X0380396Y0216589D02*
X0385330Y0216589D01*
X0384732Y0215991D02*
X0380994Y0215991D01*
X0381370Y0215392D02*
X0384356Y0215392D01*
X0384108Y0214794D02*
X0381618Y0214794D01*
X0381813Y0214195D02*
X0383913Y0214195D01*
X0383913Y0213597D02*
X0381813Y0213597D01*
X0381813Y0212998D02*
X0383913Y0212998D01*
X0384058Y0212400D02*
X0381668Y0212400D01*
X0381420Y0211801D02*
X0384306Y0211801D01*
X0384610Y0211203D02*
X0381116Y0211203D01*
X0380517Y0210604D02*
X0385209Y0210604D01*
X0386064Y0210006D02*
X0379662Y0210006D01*
X0378649Y0207486D02*
X0377077Y0207486D01*
X0375625Y0206885D01*
X0374514Y0205774D01*
X0373913Y0204322D01*
X0373913Y0202751D01*
X0374514Y0201299D01*
X0375625Y0200188D01*
X0377077Y0199586D01*
X0378649Y0199586D01*
X0380100Y0200188D01*
X0381212Y0201299D01*
X0381813Y0202751D01*
X0381813Y0204322D01*
X0381212Y0205774D01*
X0380100Y0206885D01*
X0378649Y0207486D01*
X0379791Y0207013D02*
X0385935Y0207013D01*
X0385155Y0206415D02*
X0380571Y0206415D01*
X0381169Y0205816D02*
X0384557Y0205816D01*
X0384284Y0205218D02*
X0381442Y0205218D01*
X0381690Y0204619D02*
X0384036Y0204619D01*
X0383913Y0204021D02*
X0381813Y0204021D01*
X0381813Y0203422D02*
X0383913Y0203422D01*
X0383913Y0202824D02*
X0381813Y0202824D01*
X0381595Y0202225D02*
X0384131Y0202225D01*
X0384379Y0201627D02*
X0381347Y0201627D01*
X0380941Y0201028D02*
X0384785Y0201028D01*
X0385383Y0200430D02*
X0380342Y0200430D01*
X0379240Y0199831D02*
X0386486Y0199831D01*
X0376486Y0199831D02*
X0289240Y0199831D01*
X0288649Y0199586D02*
X0290100Y0200188D01*
X0291212Y0201299D01*
X0291813Y0202751D01*
X0291813Y0204322D01*
X0291212Y0205774D01*
X0290100Y0206885D01*
X0288649Y0207486D01*
X0287077Y0207486D01*
X0285625Y0206885D01*
X0284514Y0205774D01*
X0283913Y0204322D01*
X0283913Y0202751D01*
X0284514Y0201299D01*
X0285625Y0200188D01*
X0287077Y0199586D01*
X0288649Y0199586D01*
X0290342Y0200430D02*
X0375383Y0200430D01*
X0374785Y0201028D02*
X0290941Y0201028D01*
X0291347Y0201627D02*
X0374379Y0201627D01*
X0374131Y0202225D02*
X0291595Y0202225D01*
X0291813Y0202824D02*
X0373913Y0202824D01*
X0373913Y0203422D02*
X0291813Y0203422D01*
X0291813Y0204021D02*
X0373913Y0204021D01*
X0374036Y0204619D02*
X0291690Y0204619D01*
X0291442Y0205218D02*
X0374284Y0205218D01*
X0374557Y0205816D02*
X0291169Y0205816D01*
X0290571Y0206415D02*
X0375155Y0206415D01*
X0375935Y0207013D02*
X0289791Y0207013D01*
X0288649Y0209586D02*
X0287077Y0209586D01*
X0285625Y0210188D01*
X0284514Y0211299D01*
X0283913Y0212751D01*
X0283913Y0214322D01*
X0284514Y0215774D01*
X0285625Y0216885D01*
X0287077Y0217486D01*
X0288649Y0217486D01*
X0290100Y0216885D01*
X0291212Y0215774D01*
X0291813Y0214322D01*
X0291813Y0212751D01*
X0291212Y0211299D01*
X0290100Y0210188D01*
X0288649Y0209586D01*
X0289662Y0210006D02*
X0376064Y0210006D01*
X0375209Y0210604D02*
X0290517Y0210604D01*
X0291116Y0211203D02*
X0374610Y0211203D01*
X0374306Y0211801D02*
X0291420Y0211801D01*
X0291668Y0212400D02*
X0374058Y0212400D01*
X0373913Y0212998D02*
X0291813Y0212998D01*
X0291813Y0213597D02*
X0373913Y0213597D01*
X0373913Y0214195D02*
X0291813Y0214195D01*
X0291618Y0214794D02*
X0374108Y0214794D01*
X0374356Y0215392D02*
X0291370Y0215392D01*
X0290994Y0215991D02*
X0374732Y0215991D01*
X0375330Y0216589D02*
X0290396Y0216589D01*
X0289369Y0217188D02*
X0376357Y0217188D01*
X0379369Y0217188D02*
X0386357Y0217188D01*
X0389189Y0187262D02*
X0404800Y0187262D01*
X0404800Y0186664D02*
X0390322Y0186664D01*
X0390920Y0186065D02*
X0404800Y0186065D01*
X0404800Y0185467D02*
X0391339Y0185467D01*
X0391587Y0184868D02*
X0404800Y0184868D01*
X0404800Y0184270D02*
X0391813Y0184270D01*
X0391813Y0183671D02*
X0404800Y0183671D01*
X0404800Y0183073D02*
X0391813Y0183073D01*
X0391699Y0182474D02*
X0404800Y0182474D01*
X0404800Y0181876D02*
X0391451Y0181876D01*
X0391190Y0181277D02*
X0404800Y0181277D01*
X0404800Y0180679D02*
X0390592Y0180679D01*
X0389841Y0180080D02*
X0404800Y0180080D01*
X0404800Y0179482D02*
X0012800Y0179482D01*
X0012800Y0180080D02*
X0193245Y0180080D01*
X0193674Y0179902D02*
X0195367Y0179902D01*
X0196931Y0180550D01*
X0198128Y0181747D01*
X0198776Y0183312D01*
X0198776Y0185005D01*
X0198128Y0186569D01*
X0196931Y0187766D01*
X0195367Y0188414D01*
X0193674Y0188414D01*
X0192110Y0187766D01*
X0190912Y0186569D01*
X0190265Y0185005D01*
X0190265Y0183312D01*
X0190912Y0181747D01*
X0192110Y0180550D01*
X0193674Y0179902D01*
X0191981Y0180679D02*
X0012800Y0180679D01*
X0012800Y0181277D02*
X0191383Y0181277D01*
X0190859Y0181876D02*
X0012800Y0181876D01*
X0012800Y0182474D02*
X0190611Y0182474D01*
X0190364Y0183073D02*
X0012800Y0183073D01*
X0012800Y0183671D02*
X0190265Y0183671D01*
X0190265Y0184270D02*
X0012800Y0184270D01*
X0012800Y0184868D02*
X0190265Y0184868D01*
X0190456Y0185467D02*
X0012800Y0185467D01*
X0012800Y0186065D02*
X0190704Y0186065D01*
X0191007Y0186664D02*
X0012800Y0186664D01*
X0012800Y0187262D02*
X0180216Y0187262D01*
X0180875Y0186989D02*
X0183993Y0186989D01*
X0186874Y0188183D01*
X0189079Y0190388D01*
X0190272Y0193269D01*
X0190272Y0196387D01*
X0189079Y0199268D01*
X0186874Y0201473D01*
X0183993Y0202667D01*
X0180875Y0202667D01*
X0177994Y0201473D01*
X0175789Y0199268D01*
X0174595Y0196387D01*
X0174595Y0193269D01*
X0175789Y0190388D01*
X0177994Y0188183D01*
X0180875Y0186989D01*
X0178771Y0187861D02*
X0012800Y0187861D01*
X0012800Y0188459D02*
X0177717Y0188459D01*
X0177119Y0189058D02*
X0012800Y0189058D01*
X0012800Y0189656D02*
X0176520Y0189656D01*
X0175921Y0190255D02*
X0012800Y0190255D01*
X0012800Y0190853D02*
X0175596Y0190853D01*
X0175348Y0191452D02*
X0012800Y0191452D01*
X0012800Y0192050D02*
X0175100Y0192050D01*
X0174852Y0192649D02*
X0012800Y0192649D01*
X0012800Y0193247D02*
X0174604Y0193247D01*
X0174595Y0193846D02*
X0012800Y0193846D01*
X0012800Y0194444D02*
X0174595Y0194444D01*
X0174595Y0195043D02*
X0012800Y0195043D01*
X0012800Y0195641D02*
X0174595Y0195641D01*
X0174595Y0196240D02*
X0012800Y0196240D01*
X0012800Y0196839D02*
X0174782Y0196839D01*
X0175030Y0197437D02*
X0012800Y0197437D01*
X0012800Y0198036D02*
X0175278Y0198036D01*
X0175526Y0198634D02*
X0012800Y0198634D01*
X0012800Y0199233D02*
X0175774Y0199233D01*
X0176352Y0199831D02*
X0012800Y0199831D01*
X0012800Y0200430D02*
X0176950Y0200430D01*
X0177549Y0201028D02*
X0012800Y0201028D01*
X0012800Y0201627D02*
X0178364Y0201627D01*
X0179809Y0202225D02*
X0012800Y0202225D01*
X0012800Y0212400D02*
X0029979Y0212400D01*
X0029364Y0212655D02*
X0030945Y0212000D01*
X0032655Y0212000D01*
X0034236Y0212655D01*
X0035445Y0213864D01*
X0036100Y0215445D01*
X0036100Y0217155D01*
X0035445Y0218736D01*
X0034236Y0219945D01*
X0032655Y0220600D01*
X0030945Y0220600D01*
X0029364Y0219945D01*
X0028155Y0218736D01*
X0027500Y0217155D01*
X0027500Y0215445D01*
X0028155Y0213864D01*
X0029364Y0212655D01*
X0029021Y0212998D02*
X0012800Y0212998D01*
X0012800Y0213597D02*
X0028422Y0213597D01*
X0028017Y0214195D02*
X0012800Y0214195D01*
X0012800Y0214794D02*
X0027770Y0214794D01*
X0027522Y0215392D02*
X0012800Y0215392D01*
X0012800Y0215991D02*
X0027500Y0215991D01*
X0027500Y0216589D02*
X0012800Y0216589D01*
X0012800Y0217188D02*
X0027513Y0217188D01*
X0027761Y0217786D02*
X0012800Y0217786D01*
X0012800Y0218385D02*
X0028009Y0218385D01*
X0028402Y0218983D02*
X0012800Y0218983D01*
X0012800Y0219582D02*
X0029001Y0219582D01*
X0029932Y0220180D02*
X0012800Y0220180D01*
X0033668Y0220180D02*
X0039932Y0220180D01*
X0039364Y0219945D02*
X0038155Y0218736D01*
X0037500Y0217155D01*
X0037500Y0215445D01*
X0038155Y0213864D01*
X0039364Y0212655D01*
X0040945Y0212000D01*
X0042655Y0212000D01*
X0044236Y0212655D01*
X0045445Y0213864D01*
X0046100Y0215445D01*
X0046100Y0217155D01*
X0045445Y0218736D01*
X0044236Y0219945D01*
X0042655Y0220600D01*
X0040945Y0220600D01*
X0039364Y0219945D01*
X0039001Y0219582D02*
X0034599Y0219582D01*
X0035198Y0218983D02*
X0038402Y0218983D01*
X0038009Y0218385D02*
X0035591Y0218385D01*
X0035839Y0217786D02*
X0037761Y0217786D01*
X0037513Y0217188D02*
X0036087Y0217188D01*
X0036100Y0216589D02*
X0037500Y0216589D01*
X0037500Y0215991D02*
X0036100Y0215991D01*
X0036078Y0215392D02*
X0037522Y0215392D01*
X0037770Y0214794D02*
X0035830Y0214794D01*
X0035582Y0214195D02*
X0038017Y0214195D01*
X0038422Y0213597D02*
X0035178Y0213597D01*
X0034579Y0212998D02*
X0039021Y0212998D01*
X0039979Y0212400D02*
X0033621Y0212400D01*
X0043621Y0212400D02*
X0049979Y0212400D01*
X0049364Y0212655D02*
X0050945Y0212000D01*
X0052655Y0212000D01*
X0054236Y0212655D01*
X0055445Y0213864D01*
X0056100Y0215445D01*
X0056100Y0217155D01*
X0055445Y0218736D01*
X0054236Y0219945D01*
X0052655Y0220600D01*
X0050945Y0220600D01*
X0049364Y0219945D01*
X0048155Y0218736D01*
X0047500Y0217155D01*
X0047500Y0215445D01*
X0048155Y0213864D01*
X0049364Y0212655D01*
X0049021Y0212998D02*
X0044579Y0212998D01*
X0045178Y0213597D02*
X0048422Y0213597D01*
X0048017Y0214195D02*
X0045582Y0214195D01*
X0045830Y0214794D02*
X0047770Y0214794D01*
X0047522Y0215392D02*
X0046078Y0215392D01*
X0046100Y0215991D02*
X0047500Y0215991D01*
X0047500Y0216589D02*
X0046100Y0216589D01*
X0046087Y0217188D02*
X0047513Y0217188D01*
X0047761Y0217786D02*
X0045839Y0217786D01*
X0045591Y0218385D02*
X0048009Y0218385D01*
X0048402Y0218983D02*
X0045198Y0218983D01*
X0044599Y0219582D02*
X0049001Y0219582D01*
X0049932Y0220180D02*
X0043668Y0220180D01*
X0053668Y0220180D02*
X0059932Y0220180D01*
X0059364Y0219945D02*
X0058155Y0218736D01*
X0057500Y0217155D01*
X0057500Y0215445D01*
X0058155Y0213864D01*
X0059364Y0212655D01*
X0060945Y0212000D01*
X0062655Y0212000D01*
X0064236Y0212655D01*
X0065445Y0213864D01*
X0066100Y0215445D01*
X0066100Y0217155D01*
X0065445Y0218736D01*
X0064236Y0219945D01*
X0062655Y0220600D01*
X0060945Y0220600D01*
X0059364Y0219945D01*
X0059001Y0219582D02*
X0054599Y0219582D01*
X0055198Y0218983D02*
X0058402Y0218983D01*
X0058009Y0218385D02*
X0055591Y0218385D01*
X0055839Y0217786D02*
X0057761Y0217786D01*
X0057513Y0217188D02*
X0056087Y0217188D01*
X0056100Y0216589D02*
X0057500Y0216589D01*
X0057500Y0215991D02*
X0056100Y0215991D01*
X0056078Y0215392D02*
X0057522Y0215392D01*
X0057770Y0214794D02*
X0055830Y0214794D01*
X0055582Y0214195D02*
X0058017Y0214195D01*
X0058422Y0213597D02*
X0055178Y0213597D01*
X0054579Y0212998D02*
X0059021Y0212998D01*
X0059979Y0212400D02*
X0053621Y0212400D01*
X0063621Y0212400D02*
X0069979Y0212400D01*
X0069364Y0212655D02*
X0070945Y0212000D01*
X0072655Y0212000D01*
X0074236Y0212655D01*
X0075445Y0213864D01*
X0076100Y0215445D01*
X0076100Y0217155D01*
X0075445Y0218736D01*
X0074236Y0219945D01*
X0072655Y0220600D01*
X0070945Y0220600D01*
X0069364Y0219945D01*
X0068155Y0218736D01*
X0067500Y0217155D01*
X0067500Y0215445D01*
X0068155Y0213864D01*
X0069364Y0212655D01*
X0069021Y0212998D02*
X0064579Y0212998D01*
X0065178Y0213597D02*
X0068422Y0213597D01*
X0068017Y0214195D02*
X0065582Y0214195D01*
X0065830Y0214794D02*
X0067770Y0214794D01*
X0067522Y0215392D02*
X0066078Y0215392D01*
X0066100Y0215991D02*
X0067500Y0215991D01*
X0067500Y0216589D02*
X0066100Y0216589D01*
X0066087Y0217188D02*
X0067513Y0217188D01*
X0067761Y0217786D02*
X0065839Y0217786D01*
X0065591Y0218385D02*
X0068009Y0218385D01*
X0068402Y0218983D02*
X0065198Y0218983D01*
X0064599Y0219582D02*
X0069001Y0219582D01*
X0069932Y0220180D02*
X0063668Y0220180D01*
X0073668Y0220180D02*
X0079932Y0220180D01*
X0079364Y0219945D02*
X0078155Y0218736D01*
X0077500Y0217155D01*
X0077500Y0215445D01*
X0078155Y0213864D01*
X0079364Y0212655D01*
X0080945Y0212000D01*
X0082655Y0212000D01*
X0084236Y0212655D01*
X0085445Y0213864D01*
X0086100Y0215445D01*
X0086100Y0217155D01*
X0085445Y0218736D01*
X0084236Y0219945D01*
X0082655Y0220600D01*
X0080945Y0220600D01*
X0079364Y0219945D01*
X0079001Y0219582D02*
X0074599Y0219582D01*
X0075198Y0218983D02*
X0078402Y0218983D01*
X0078009Y0218385D02*
X0075591Y0218385D01*
X0075839Y0217786D02*
X0077761Y0217786D01*
X0077513Y0217188D02*
X0076087Y0217188D01*
X0076100Y0216589D02*
X0077500Y0216589D01*
X0077500Y0215991D02*
X0076100Y0215991D01*
X0076078Y0215392D02*
X0077522Y0215392D01*
X0077770Y0214794D02*
X0075830Y0214794D01*
X0075582Y0214195D02*
X0078017Y0214195D01*
X0078422Y0213597D02*
X0075178Y0213597D01*
X0074579Y0212998D02*
X0079021Y0212998D01*
X0079979Y0212400D02*
X0073621Y0212400D01*
X0083621Y0212400D02*
X0089979Y0212400D01*
X0089364Y0212655D02*
X0090945Y0212000D01*
X0092655Y0212000D01*
X0094236Y0212655D01*
X0095445Y0213864D01*
X0096100Y0215445D01*
X0096100Y0217155D01*
X0095445Y0218736D01*
X0094236Y0219945D01*
X0092655Y0220600D01*
X0090945Y0220600D01*
X0089364Y0219945D01*
X0088155Y0218736D01*
X0087500Y0217155D01*
X0087500Y0215445D01*
X0088155Y0213864D01*
X0089364Y0212655D01*
X0089021Y0212998D02*
X0084579Y0212998D01*
X0085178Y0213597D02*
X0088422Y0213597D01*
X0088017Y0214195D02*
X0085582Y0214195D01*
X0085830Y0214794D02*
X0087770Y0214794D01*
X0087522Y0215392D02*
X0086078Y0215392D01*
X0086100Y0215991D02*
X0087500Y0215991D01*
X0087500Y0216589D02*
X0086100Y0216589D01*
X0086087Y0217188D02*
X0087513Y0217188D01*
X0087761Y0217786D02*
X0085839Y0217786D01*
X0085591Y0218385D02*
X0088009Y0218385D01*
X0088402Y0218983D02*
X0085198Y0218983D01*
X0084599Y0219582D02*
X0089001Y0219582D01*
X0089932Y0220180D02*
X0083668Y0220180D01*
X0093668Y0220180D02*
X0099932Y0220180D01*
X0099364Y0219945D02*
X0098155Y0218736D01*
X0097500Y0217155D01*
X0097500Y0215445D01*
X0098155Y0213864D01*
X0099364Y0212655D01*
X0100945Y0212000D01*
X0102655Y0212000D01*
X0104236Y0212655D01*
X0105445Y0213864D01*
X0106100Y0215445D01*
X0106100Y0217155D01*
X0105445Y0218736D01*
X0104236Y0219945D01*
X0102655Y0220600D01*
X0100945Y0220600D01*
X0099364Y0219945D01*
X0099001Y0219582D02*
X0094599Y0219582D01*
X0095198Y0218983D02*
X0098402Y0218983D01*
X0098009Y0218385D02*
X0095591Y0218385D01*
X0095839Y0217786D02*
X0097761Y0217786D01*
X0097513Y0217188D02*
X0096087Y0217188D01*
X0096100Y0216589D02*
X0097500Y0216589D01*
X0097500Y0215991D02*
X0096100Y0215991D01*
X0096078Y0215392D02*
X0097522Y0215392D01*
X0097770Y0214794D02*
X0095830Y0214794D01*
X0095582Y0214195D02*
X0098017Y0214195D01*
X0098422Y0213597D02*
X0095178Y0213597D01*
X0094579Y0212998D02*
X0099021Y0212998D01*
X0099979Y0212400D02*
X0093621Y0212400D01*
X0103621Y0212400D02*
X0109979Y0212400D01*
X0109364Y0212655D02*
X0110945Y0212000D01*
X0112655Y0212000D01*
X0114236Y0212655D01*
X0115445Y0213864D01*
X0116100Y0215445D01*
X0116100Y0217155D01*
X0115445Y0218736D01*
X0114236Y0219945D01*
X0112655Y0220600D01*
X0110945Y0220600D01*
X0109364Y0219945D01*
X0108155Y0218736D01*
X0107500Y0217155D01*
X0107500Y0215445D01*
X0108155Y0213864D01*
X0109364Y0212655D01*
X0109021Y0212998D02*
X0104579Y0212998D01*
X0105178Y0213597D02*
X0108422Y0213597D01*
X0108017Y0214195D02*
X0105582Y0214195D01*
X0105830Y0214794D02*
X0107770Y0214794D01*
X0107522Y0215392D02*
X0106078Y0215392D01*
X0106100Y0215991D02*
X0107500Y0215991D01*
X0107500Y0216589D02*
X0106100Y0216589D01*
X0106087Y0217188D02*
X0107513Y0217188D01*
X0107761Y0217786D02*
X0105839Y0217786D01*
X0105591Y0218385D02*
X0108009Y0218385D01*
X0108402Y0218983D02*
X0105198Y0218983D01*
X0104599Y0219582D02*
X0109001Y0219582D01*
X0109932Y0220180D02*
X0103668Y0220180D01*
X0113668Y0220180D02*
X0119932Y0220180D01*
X0119001Y0219582D02*
X0114599Y0219582D01*
X0115198Y0218983D02*
X0118402Y0218983D01*
X0118009Y0218385D02*
X0115591Y0218385D01*
X0115839Y0217786D02*
X0117761Y0217786D01*
X0117513Y0217188D02*
X0116087Y0217188D01*
X0116100Y0216589D02*
X0117500Y0216589D01*
X0117500Y0215991D02*
X0116100Y0215991D01*
X0116078Y0215392D02*
X0117522Y0215392D01*
X0117770Y0214794D02*
X0115830Y0214794D01*
X0115582Y0214195D02*
X0118017Y0214195D01*
X0118422Y0213597D02*
X0115178Y0213597D01*
X0114579Y0212998D02*
X0119021Y0212998D01*
X0119979Y0212400D02*
X0113621Y0212400D01*
X0132800Y0169307D02*
X0404800Y0169307D01*
X0404800Y0169905D02*
X0389419Y0169905D01*
X0390417Y0170504D02*
X0404800Y0170504D01*
X0404800Y0171103D02*
X0391015Y0171103D01*
X0391378Y0171701D02*
X0404800Y0171701D01*
X0404800Y0172300D02*
X0391626Y0172300D01*
X0391813Y0172898D02*
X0404800Y0172898D01*
X0404800Y0173497D02*
X0391813Y0173497D01*
X0391813Y0174095D02*
X0404800Y0174095D01*
X0404800Y0174694D02*
X0391659Y0174694D01*
X0391411Y0175292D02*
X0404800Y0175292D01*
X0404800Y0175891D02*
X0391095Y0175891D01*
X0390496Y0176489D02*
X0404800Y0176489D01*
X0404800Y0177088D02*
X0389611Y0177088D01*
X0404800Y0177686D02*
X0012800Y0177686D01*
X0012800Y0177088D02*
X0276115Y0177088D01*
X0275230Y0176489D02*
X0012800Y0176489D01*
X0012800Y0178285D02*
X0404800Y0178285D01*
X0404800Y0178883D02*
X0012800Y0178883D01*
X0012800Y0119032D02*
X0341240Y0119032D01*
X0341838Y0118434D02*
X0012800Y0118434D01*
X0012800Y0117835D02*
X0342437Y0117835D01*
X0343035Y0117237D02*
X0289252Y0117237D01*
X0290347Y0116638D02*
X0343634Y0116638D01*
X0344232Y0116039D02*
X0290946Y0116039D01*
X0291349Y0115441D02*
X0344831Y0115441D01*
X0345429Y0114842D02*
X0291597Y0114842D01*
X0291813Y0114244D02*
X0346028Y0114244D01*
X0346626Y0113645D02*
X0291813Y0113645D01*
X0291813Y0113047D02*
X0347225Y0113047D01*
X0347823Y0112448D02*
X0291688Y0112448D01*
X0291440Y0111850D02*
X0348422Y0111850D01*
X0349020Y0111251D02*
X0291164Y0111251D01*
X0290566Y0110653D02*
X0349619Y0110653D01*
X0351414Y0108857D02*
X0012800Y0108857D01*
X0012800Y0108259D02*
X0352013Y0108259D01*
X0352611Y0107660D02*
X0012800Y0107660D01*
X0012800Y0107062D02*
X0276053Y0107062D01*
X0275625Y0106885D02*
X0274514Y0105774D01*
X0273913Y0104322D01*
X0273913Y0102751D01*
X0274514Y0101299D01*
X0275625Y0100188D01*
X0277077Y0099586D01*
X0278649Y0099586D01*
X0280100Y0100188D01*
X0281212Y0101299D01*
X0281813Y0102751D01*
X0281813Y0104322D01*
X0281212Y0105774D01*
X0280100Y0106885D01*
X0278649Y0107486D01*
X0277077Y0107486D01*
X0275625Y0106885D01*
X0275204Y0106463D02*
X0012800Y0106463D01*
X0012800Y0105865D02*
X0274605Y0105865D01*
X0274304Y0105266D02*
X0012800Y0105266D01*
X0012800Y0104668D02*
X0274056Y0104668D01*
X0273913Y0104069D02*
X0012800Y0104069D01*
X0012800Y0103471D02*
X0273913Y0103471D01*
X0273913Y0102872D02*
X0012800Y0102872D01*
X0012800Y0102274D02*
X0274110Y0102274D01*
X0274358Y0101675D02*
X0012800Y0101675D01*
X0012800Y0101077D02*
X0274736Y0101077D01*
X0275335Y0100478D02*
X0012800Y0100478D01*
X0012800Y0099880D02*
X0128972Y0099880D01*
X0127963Y0099281D02*
X0116365Y0099281D01*
X0116829Y0099089D02*
X0115837Y0099500D01*
X0114763Y0099500D01*
X0113771Y0099089D01*
X0113011Y0098329D01*
X0112600Y0097337D01*
X0112600Y0096263D01*
X0113011Y0095271D01*
X0113771Y0094511D01*
X0114763Y0094100D01*
X0115837Y0094100D01*
X0116829Y0094511D01*
X0117589Y0095271D01*
X0118000Y0096263D01*
X0118000Y0097337D01*
X0117589Y0098329D01*
X0116829Y0099089D01*
X0117236Y0098683D02*
X0127450Y0098683D01*
X0127202Y0098084D02*
X0117691Y0098084D01*
X0117938Y0097486D02*
X0124657Y0097486D01*
X0124059Y0096887D02*
X0118000Y0096887D01*
X0118000Y0096289D02*
X0123460Y0096289D01*
X0122862Y0095690D02*
X0117763Y0095690D01*
X0117410Y0095092D02*
X0122263Y0095092D01*
X0121665Y0094493D02*
X0116786Y0094493D01*
X0113814Y0094493D02*
X0066588Y0094493D01*
X0066749Y0093895D02*
X0121066Y0093895D01*
X0120468Y0093296D02*
X0066749Y0093296D01*
X0066749Y0092698D02*
X0119869Y0092698D01*
X0119271Y0092099D02*
X0066749Y0092099D01*
X0066598Y0091501D02*
X0118672Y0091501D01*
X0118074Y0090902D02*
X0066350Y0090902D01*
X0066102Y0090303D02*
X0117475Y0090303D01*
X0116877Y0089705D02*
X0065802Y0089705D01*
X0065204Y0089106D02*
X0097162Y0089106D01*
X0097220Y0089164D02*
X0096436Y0088380D01*
X0096011Y0087355D01*
X0096011Y0086245D01*
X0096436Y0085220D01*
X0097220Y0084436D01*
X0098245Y0084011D01*
X0099355Y0084011D01*
X0100380Y0084436D01*
X0101164Y0085220D01*
X0101589Y0086245D01*
X0101589Y0087355D01*
X0101164Y0088380D01*
X0100380Y0089164D01*
X0099355Y0089589D01*
X0098245Y0089589D01*
X0097220Y0089164D01*
X0096564Y0088508D02*
X0064605Y0088508D01*
X0063583Y0087909D02*
X0096241Y0087909D01*
X0096011Y0087311D02*
X0063873Y0087311D01*
X0064725Y0086712D02*
X0096011Y0086712D01*
X0096065Y0086114D02*
X0065324Y0086114D01*
X0065904Y0085515D02*
X0096313Y0085515D01*
X0096739Y0084917D02*
X0066152Y0084917D01*
X0066400Y0084318D02*
X0097503Y0084318D01*
X0100097Y0084318D02*
X0111490Y0084318D01*
X0110891Y0083720D02*
X0066648Y0083720D01*
X0066749Y0083121D02*
X0110293Y0083121D01*
X0109694Y0082523D02*
X0066749Y0082523D01*
X0066749Y0081924D02*
X0109096Y0081924D01*
X0108497Y0081326D02*
X0066749Y0081326D01*
X0066539Y0080727D02*
X0107899Y0080727D01*
X0107300Y0080129D02*
X0066291Y0080129D01*
X0066043Y0079530D02*
X0106702Y0079530D01*
X0106103Y0078932D02*
X0065659Y0078932D01*
X0065061Y0078333D02*
X0105505Y0078333D01*
X0104906Y0077735D02*
X0064462Y0077735D01*
X0063237Y0077136D02*
X0104308Y0077136D01*
X0103709Y0076538D02*
X0063781Y0076538D01*
X0064379Y0075939D02*
X0103111Y0075939D01*
X0102512Y0075341D02*
X0064926Y0075341D01*
X0065174Y0074742D02*
X0101914Y0074742D01*
X0101800Y0074144D02*
X0065422Y0074144D01*
X0065568Y0073545D02*
X0101800Y0073545D01*
X0101800Y0072947D02*
X0065568Y0072947D01*
X0065568Y0072348D02*
X0101800Y0072348D01*
X0101800Y0071750D02*
X0065455Y0071750D01*
X0065208Y0071151D02*
X0101800Y0071151D01*
X0101800Y0070553D02*
X0064960Y0070553D01*
X0064460Y0069954D02*
X0101800Y0069954D01*
X0101800Y0069356D02*
X0063861Y0069356D01*
X0063043Y0068757D02*
X0101800Y0068757D01*
X0101800Y0068159D02*
X0064381Y0068159D01*
X0064980Y0067560D02*
X0101800Y0067560D01*
X0101800Y0066962D02*
X0065578Y0066962D01*
X0066009Y0066363D02*
X0101800Y0066363D01*
X0101800Y0065765D02*
X0066257Y0065765D01*
X0066505Y0065166D02*
X0101800Y0065166D01*
X0101800Y0064568D02*
X0066749Y0064568D01*
X0066749Y0063969D02*
X0097956Y0063969D01*
X0098245Y0064089D02*
X0097220Y0063664D01*
X0096436Y0062880D01*
X0096011Y0061855D01*
X0096011Y0060745D01*
X0096436Y0059720D01*
X0097220Y0058936D01*
X0098245Y0058511D01*
X0099355Y0058511D01*
X0100380Y0058936D01*
X0101164Y0059720D01*
X0101589Y0060745D01*
X0101589Y0061855D01*
X0101164Y0062880D01*
X0100380Y0063664D01*
X0099355Y0064089D01*
X0098245Y0064089D01*
X0099644Y0063969D02*
X0101800Y0063969D01*
X0101800Y0063370D02*
X0100674Y0063370D01*
X0101209Y0062772D02*
X0101800Y0062772D01*
X0101800Y0062173D02*
X0101457Y0062173D01*
X0101589Y0061575D02*
X0101800Y0061575D01*
X0101800Y0060976D02*
X0101589Y0060976D01*
X0101437Y0060378D02*
X0101800Y0060378D01*
X0101800Y0059779D02*
X0101189Y0059779D01*
X0100625Y0059181D02*
X0101800Y0059181D01*
X0101800Y0058582D02*
X0099527Y0058582D01*
X0098073Y0058582D02*
X0064067Y0058582D01*
X0063388Y0057984D02*
X0101800Y0057984D01*
X0101800Y0057385D02*
X0064525Y0057385D01*
X0065123Y0056787D02*
X0101800Y0056787D01*
X0101800Y0056188D02*
X0065722Y0056188D01*
X0066069Y0055590D02*
X0101800Y0055590D01*
X0101800Y0054991D02*
X0066317Y0054991D01*
X0066565Y0054393D02*
X0101800Y0054393D01*
X0101800Y0053794D02*
X0066749Y0053794D01*
X0066749Y0053196D02*
X0101800Y0053196D01*
X0101800Y0052597D02*
X0066749Y0052597D01*
X0066749Y0051999D02*
X0101800Y0051999D01*
X0101871Y0051400D02*
X0066622Y0051400D01*
X0066374Y0050802D02*
X0102470Y0050802D01*
X0096975Y0059181D02*
X0064806Y0059181D01*
X0065404Y0059779D02*
X0096411Y0059779D01*
X0096163Y0060378D02*
X0065937Y0060378D01*
X0066185Y0060976D02*
X0096011Y0060976D01*
X0096011Y0061575D02*
X0066433Y0061575D01*
X0066681Y0062173D02*
X0096143Y0062173D01*
X0096391Y0062772D02*
X0066749Y0062772D01*
X0066749Y0063370D02*
X0096926Y0063370D01*
X0100861Y0084917D02*
X0112088Y0084917D01*
X0112687Y0085515D02*
X0101287Y0085515D01*
X0101535Y0086114D02*
X0113285Y0086114D01*
X0113884Y0086712D02*
X0101589Y0086712D01*
X0101589Y0087311D02*
X0114483Y0087311D01*
X0115081Y0087909D02*
X0101359Y0087909D01*
X0101036Y0088508D02*
X0115680Y0088508D01*
X0116278Y0089106D02*
X0100438Y0089106D01*
X0112837Y0095690D02*
X0066093Y0095690D01*
X0066340Y0095092D02*
X0113190Y0095092D01*
X0112600Y0096289D02*
X0065779Y0096289D01*
X0065180Y0096887D02*
X0112600Y0096887D01*
X0112662Y0097486D02*
X0064582Y0097486D01*
X0063527Y0098084D02*
X0112909Y0098084D01*
X0113364Y0098683D02*
X0012800Y0098683D01*
X0012800Y0099281D02*
X0114235Y0099281D01*
X0130628Y0099880D02*
X0137472Y0099880D01*
X0136463Y0099281D02*
X0131637Y0099281D01*
X0132150Y0098683D02*
X0135950Y0098683D01*
X0135702Y0098084D02*
X0132398Y0098084D01*
X0139128Y0099880D02*
X0145472Y0099880D01*
X0144463Y0099281D02*
X0140137Y0099281D01*
X0140650Y0098683D02*
X0143950Y0098683D01*
X0143702Y0098084D02*
X0140898Y0098084D01*
X0147128Y0099880D02*
X0173472Y0099880D01*
X0172463Y0099281D02*
X0148137Y0099281D01*
X0148650Y0098683D02*
X0171950Y0098683D01*
X0171702Y0098084D02*
X0171344Y0098084D01*
X0169256Y0098084D02*
X0148898Y0098084D01*
X0172300Y0095092D02*
X0172690Y0095092D01*
X0172300Y0094493D02*
X0273984Y0094493D01*
X0273913Y0093895D02*
X0172300Y0093895D01*
X0172300Y0093296D02*
X0273913Y0093296D01*
X0273935Y0092698D02*
X0172300Y0092698D01*
X0172300Y0092099D02*
X0274183Y0092099D01*
X0274431Y0091501D02*
X0172300Y0091501D01*
X0172300Y0090902D02*
X0274911Y0090902D01*
X0275510Y0090303D02*
X0172300Y0090303D01*
X0172300Y0089705D02*
X0276791Y0089705D01*
X0276654Y0087311D02*
X0181733Y0087311D01*
X0182234Y0086712D02*
X0275453Y0086712D01*
X0274855Y0086114D02*
X0182482Y0086114D01*
X0182589Y0085515D02*
X0274407Y0085515D01*
X0289072Y0087311D02*
X0376654Y0087311D01*
X0377077Y0087486D02*
X0375625Y0086885D01*
X0374514Y0085774D01*
X0373913Y0084322D01*
X0373913Y0082751D01*
X0374514Y0081299D01*
X0375625Y0080188D01*
X0377077Y0079586D01*
X0378649Y0079586D01*
X0380100Y0080188D01*
X0381212Y0081299D01*
X0381813Y0082751D01*
X0381813Y0084322D01*
X0381212Y0085774D01*
X0380100Y0086885D01*
X0378649Y0087486D01*
X0377077Y0087486D01*
X0375453Y0086712D02*
X0290273Y0086712D01*
X0290871Y0086114D02*
X0374855Y0086114D01*
X0374407Y0085515D02*
X0291319Y0085515D01*
X0291567Y0084917D02*
X0374159Y0084917D01*
X0373913Y0084318D02*
X0291813Y0084318D01*
X0291813Y0083720D02*
X0373913Y0083720D01*
X0373913Y0083121D02*
X0291813Y0083121D01*
X0291719Y0082523D02*
X0374007Y0082523D01*
X0374255Y0081924D02*
X0291471Y0081924D01*
X0291223Y0081326D02*
X0374503Y0081326D01*
X0375086Y0080727D02*
X0290640Y0080727D01*
X0289959Y0080129D02*
X0375767Y0080129D01*
X0377077Y0077486D02*
X0375625Y0076885D01*
X0374514Y0075774D01*
X0373913Y0074322D01*
X0373913Y0072751D01*
X0374514Y0071299D01*
X0375625Y0070188D01*
X0377077Y0069586D01*
X0378649Y0069586D01*
X0380100Y0070188D01*
X0381212Y0071299D01*
X0381813Y0072751D01*
X0381813Y0074322D01*
X0381212Y0075774D01*
X0380100Y0076885D01*
X0378649Y0077486D01*
X0377077Y0077486D01*
X0376232Y0077136D02*
X0289494Y0077136D01*
X0290448Y0076538D02*
X0375278Y0076538D01*
X0374680Y0075939D02*
X0291046Y0075939D01*
X0291391Y0075341D02*
X0374335Y0075341D01*
X0374087Y0074742D02*
X0291639Y0074742D01*
X0291813Y0074144D02*
X0373913Y0074144D01*
X0373913Y0073545D02*
X0291813Y0073545D01*
X0291813Y0072947D02*
X0373913Y0072947D01*
X0374080Y0072348D02*
X0291646Y0072348D01*
X0291398Y0071750D02*
X0374328Y0071750D01*
X0374662Y0071151D02*
X0291064Y0071151D01*
X0290466Y0070553D02*
X0375260Y0070553D01*
X0376189Y0069954D02*
X0289537Y0069954D01*
X0288649Y0067486D02*
X0287077Y0067486D01*
X0285625Y0066885D01*
X0284514Y0065774D01*
X0283913Y0064322D01*
X0283913Y0062751D01*
X0284514Y0061299D01*
X0285625Y0060188D01*
X0287077Y0059586D01*
X0288649Y0059586D01*
X0290100Y0060188D01*
X0291212Y0061299D01*
X0291813Y0062751D01*
X0291813Y0064322D01*
X0291212Y0065774D01*
X0290100Y0066885D01*
X0288649Y0067486D01*
X0289915Y0066962D02*
X0375811Y0066962D01*
X0375625Y0066885D02*
X0374514Y0065774D01*
X0373913Y0064322D01*
X0373913Y0062751D01*
X0374514Y0061299D01*
X0375625Y0060188D01*
X0377077Y0059586D01*
X0378649Y0059586D01*
X0380100Y0060188D01*
X0381212Y0061299D01*
X0381813Y0062751D01*
X0381813Y0064322D01*
X0381212Y0065774D01*
X0380100Y0066885D01*
X0378649Y0067486D01*
X0377077Y0067486D01*
X0375625Y0066885D01*
X0375104Y0066363D02*
X0290622Y0066363D01*
X0291215Y0065765D02*
X0374511Y0065765D01*
X0374263Y0065166D02*
X0291463Y0065166D01*
X0291711Y0064568D02*
X0374015Y0064568D01*
X0373913Y0063969D02*
X0291813Y0063969D01*
X0291813Y0063370D02*
X0373913Y0063370D01*
X0373913Y0062772D02*
X0291813Y0062772D01*
X0291574Y0062173D02*
X0374152Y0062173D01*
X0374400Y0061575D02*
X0291326Y0061575D01*
X0290889Y0060976D02*
X0374837Y0060976D01*
X0375435Y0060378D02*
X0290291Y0060378D01*
X0289115Y0059779D02*
X0376611Y0059779D01*
X0379115Y0059779D02*
X0386611Y0059779D01*
X0387077Y0059586D02*
X0388649Y0059586D01*
X0390100Y0060188D01*
X0391212Y0061299D01*
X0391813Y0062751D01*
X0391813Y0064322D01*
X0391212Y0065774D01*
X0390100Y0066885D01*
X0388649Y0067486D01*
X0387077Y0067486D01*
X0385625Y0066885D01*
X0384514Y0065774D01*
X0383913Y0064322D01*
X0383913Y0062751D01*
X0384514Y0061299D01*
X0385625Y0060188D01*
X0387077Y0059586D01*
X0385435Y0060378D02*
X0380291Y0060378D01*
X0380889Y0060976D02*
X0384837Y0060976D01*
X0384400Y0061575D02*
X0381326Y0061575D01*
X0381574Y0062173D02*
X0384152Y0062173D01*
X0383913Y0062772D02*
X0381813Y0062772D01*
X0381813Y0063370D02*
X0383913Y0063370D01*
X0383913Y0063969D02*
X0381813Y0063969D01*
X0381711Y0064568D02*
X0384015Y0064568D01*
X0384263Y0065166D02*
X0381463Y0065166D01*
X0381215Y0065765D02*
X0384511Y0065765D01*
X0385104Y0066363D02*
X0380622Y0066363D01*
X0379915Y0066962D02*
X0385811Y0066962D01*
X0386189Y0069954D02*
X0379537Y0069954D01*
X0380466Y0070553D02*
X0385260Y0070553D01*
X0384662Y0071151D02*
X0381064Y0071151D01*
X0381398Y0071750D02*
X0384328Y0071750D01*
X0384080Y0072348D02*
X0381646Y0072348D01*
X0381813Y0072947D02*
X0383913Y0072947D01*
X0383913Y0073545D02*
X0381813Y0073545D01*
X0381813Y0074144D02*
X0383913Y0074144D01*
X0384087Y0074742D02*
X0381639Y0074742D01*
X0381391Y0075341D02*
X0384335Y0075341D01*
X0384680Y0075939D02*
X0381046Y0075939D01*
X0380448Y0076538D02*
X0385278Y0076538D01*
X0386232Y0077136D02*
X0379494Y0077136D01*
X0379959Y0080129D02*
X0385767Y0080129D01*
X0385086Y0080727D02*
X0380640Y0080727D01*
X0381223Y0081326D02*
X0384503Y0081326D01*
X0384255Y0081924D02*
X0381471Y0081924D01*
X0381719Y0082523D02*
X0384007Y0082523D01*
X0383913Y0083121D02*
X0381813Y0083121D01*
X0381813Y0083720D02*
X0383913Y0083720D01*
X0383913Y0084318D02*
X0381813Y0084318D01*
X0381567Y0084917D02*
X0384159Y0084917D01*
X0384407Y0085515D02*
X0381319Y0085515D01*
X0380871Y0086114D02*
X0384855Y0086114D01*
X0385453Y0086712D02*
X0380273Y0086712D01*
X0379072Y0087311D02*
X0386654Y0087311D01*
X0386791Y0089705D02*
X0378935Y0089705D01*
X0380216Y0090303D02*
X0385510Y0090303D01*
X0384911Y0090902D02*
X0380815Y0090902D01*
X0381295Y0091501D02*
X0384431Y0091501D01*
X0384183Y0092099D02*
X0381543Y0092099D01*
X0381791Y0092698D02*
X0383935Y0092698D01*
X0383913Y0093296D02*
X0381813Y0093296D01*
X0381813Y0093895D02*
X0383913Y0093895D01*
X0383984Y0094493D02*
X0381742Y0094493D01*
X0381494Y0095092D02*
X0384232Y0095092D01*
X0384480Y0095690D02*
X0381246Y0095690D01*
X0374480Y0095690D02*
X0291246Y0095690D01*
X0291494Y0095092D02*
X0374232Y0095092D01*
X0373984Y0094493D02*
X0291742Y0094493D01*
X0291813Y0093895D02*
X0373913Y0093895D01*
X0373913Y0093296D02*
X0291813Y0093296D01*
X0291791Y0092698D02*
X0373935Y0092698D01*
X0374183Y0092099D02*
X0291543Y0092099D01*
X0291295Y0091501D02*
X0374431Y0091501D01*
X0374911Y0090902D02*
X0290815Y0090902D01*
X0290216Y0090303D02*
X0375510Y0090303D01*
X0376791Y0089705D02*
X0288935Y0089705D01*
X0290697Y0096289D02*
X0363983Y0096289D01*
X0363384Y0096887D02*
X0290095Y0096887D01*
X0288650Y0097486D02*
X0362786Y0097486D01*
X0388935Y0089705D02*
X0404800Y0089705D01*
X0404800Y0090303D02*
X0390216Y0090303D01*
X0390815Y0090902D02*
X0404800Y0090902D01*
X0404800Y0091501D02*
X0391295Y0091501D01*
X0391543Y0092099D02*
X0404800Y0092099D01*
X0404800Y0092698D02*
X0391791Y0092698D01*
X0391813Y0093296D02*
X0404800Y0093296D01*
X0404800Y0093895D02*
X0391813Y0093895D01*
X0391742Y0094493D02*
X0404800Y0094493D01*
X0404800Y0095092D02*
X0391494Y0095092D01*
X0391246Y0095690D02*
X0404800Y0095690D01*
X0404800Y0096289D02*
X0397117Y0096289D01*
X0397716Y0096887D02*
X0404800Y0096887D01*
X0404800Y0097486D02*
X0397800Y0097486D01*
X0397800Y0098084D02*
X0404800Y0098084D01*
X0404800Y0098683D02*
X0397800Y0098683D01*
X0397800Y0099281D02*
X0404800Y0099281D01*
X0404800Y0099880D02*
X0397800Y0099880D01*
X0397800Y0100478D02*
X0404800Y0100478D01*
X0404800Y0101077D02*
X0397800Y0101077D01*
X0397800Y0101675D02*
X0404800Y0101675D01*
X0404800Y0102274D02*
X0397800Y0102274D01*
X0397800Y0102872D02*
X0404800Y0102872D01*
X0404800Y0103471D02*
X0397800Y0103471D01*
X0397800Y0104069D02*
X0404800Y0104069D01*
X0404800Y0104668D02*
X0397800Y0104668D01*
X0397800Y0105266D02*
X0404800Y0105266D01*
X0404800Y0105865D02*
X0397800Y0105865D01*
X0397800Y0106463D02*
X0404800Y0106463D01*
X0404800Y0107062D02*
X0397800Y0107062D01*
X0397800Y0107660D02*
X0404800Y0107660D01*
X0404800Y0108259D02*
X0397800Y0108259D01*
X0397800Y0108857D02*
X0404800Y0108857D01*
X0404800Y0109456D02*
X0397800Y0109456D01*
X0397800Y0110054D02*
X0404800Y0110054D01*
X0404800Y0110653D02*
X0397800Y0110653D01*
X0397800Y0111251D02*
X0404800Y0111251D01*
X0404800Y0111850D02*
X0397800Y0111850D01*
X0397800Y0112448D02*
X0404800Y0112448D01*
X0404800Y0113047D02*
X0397800Y0113047D01*
X0397800Y0113645D02*
X0404800Y0113645D01*
X0404800Y0114244D02*
X0397800Y0114244D01*
X0397800Y0114842D02*
X0404800Y0114842D01*
X0404800Y0115441D02*
X0397800Y0115441D01*
X0397800Y0116039D02*
X0404800Y0116039D01*
X0404800Y0116638D02*
X0397800Y0116638D01*
X0397692Y0117237D02*
X0404800Y0117237D01*
X0404800Y0117835D02*
X0397093Y0117835D01*
X0396495Y0118434D02*
X0404800Y0118434D01*
X0404800Y0119032D02*
X0395896Y0119032D01*
X0395298Y0119631D02*
X0404800Y0119631D01*
X0404800Y0120229D02*
X0394699Y0120229D01*
X0391264Y0121426D02*
X0404800Y0121426D01*
X0404800Y0120828D02*
X0390740Y0120828D01*
X0391512Y0122025D02*
X0404800Y0122025D01*
X0404800Y0122623D02*
X0391760Y0122623D01*
X0391813Y0123222D02*
X0404800Y0123222D01*
X0404800Y0123820D02*
X0391813Y0123820D01*
X0391773Y0124419D02*
X0404800Y0124419D01*
X0404800Y0125017D02*
X0391525Y0125017D01*
X0391277Y0125616D02*
X0404800Y0125616D01*
X0404800Y0126214D02*
X0390771Y0126214D01*
X0390173Y0126813D02*
X0404800Y0126813D01*
X0404800Y0127411D02*
X0388830Y0127411D01*
X0386896Y0127411D02*
X0378830Y0127411D01*
X0380173Y0126813D02*
X0385553Y0126813D01*
X0384955Y0126214D02*
X0380771Y0126214D01*
X0381277Y0125616D02*
X0384449Y0125616D01*
X0384201Y0125017D02*
X0381525Y0125017D01*
X0381773Y0124419D02*
X0383953Y0124419D01*
X0383913Y0123820D02*
X0381813Y0123820D01*
X0381813Y0123222D02*
X0383913Y0123222D01*
X0383966Y0122623D02*
X0381760Y0122623D01*
X0381512Y0122025D02*
X0384214Y0122025D01*
X0384462Y0121426D02*
X0381264Y0121426D01*
X0380740Y0120828D02*
X0384985Y0120828D01*
X0374985Y0120828D02*
X0372101Y0120828D01*
X0371502Y0121426D02*
X0374462Y0121426D01*
X0374214Y0122025D02*
X0370904Y0122025D01*
X0370305Y0122623D02*
X0373966Y0122623D01*
X0373913Y0123222D02*
X0369707Y0123222D01*
X0369108Y0123820D02*
X0373913Y0123820D01*
X0373953Y0124419D02*
X0368510Y0124419D01*
X0367911Y0125017D02*
X0374201Y0125017D01*
X0374449Y0125616D02*
X0367313Y0125616D01*
X0366714Y0126214D02*
X0374955Y0126214D01*
X0375553Y0126813D02*
X0366116Y0126813D01*
X0365517Y0127411D02*
X0376896Y0127411D01*
X0377077Y0129586D02*
X0375625Y0130188D01*
X0374514Y0131299D01*
X0373913Y0132751D01*
X0373913Y0134322D01*
X0374514Y0135774D01*
X0375625Y0136885D01*
X0377077Y0137486D01*
X0378649Y0137486D01*
X0380100Y0136885D01*
X0381212Y0135774D01*
X0381813Y0134322D01*
X0381813Y0132751D01*
X0381212Y0131299D01*
X0380100Y0130188D01*
X0378649Y0129586D01*
X0377077Y0129586D01*
X0376549Y0129805D02*
X0363123Y0129805D01*
X0363722Y0129207D02*
X0404800Y0129207D01*
X0404800Y0129805D02*
X0389177Y0129805D01*
X0388649Y0129586D02*
X0390100Y0130188D01*
X0391212Y0131299D01*
X0391813Y0132751D01*
X0391813Y0134322D01*
X0391212Y0135774D01*
X0390100Y0136885D01*
X0388649Y0137486D01*
X0387077Y0137486D01*
X0385625Y0136885D01*
X0384514Y0135774D01*
X0383913Y0134322D01*
X0383913Y0132751D01*
X0384514Y0131299D01*
X0385625Y0130188D01*
X0387077Y0129586D01*
X0388649Y0129586D01*
X0390317Y0130404D02*
X0404800Y0130404D01*
X0404800Y0131002D02*
X0390915Y0131002D01*
X0391337Y0131601D02*
X0404800Y0131601D01*
X0404800Y0132199D02*
X0391585Y0132199D01*
X0391813Y0132798D02*
X0404800Y0132798D01*
X0404800Y0133396D02*
X0391813Y0133396D01*
X0391813Y0133995D02*
X0404800Y0133995D01*
X0404800Y0134593D02*
X0391701Y0134593D01*
X0391453Y0135192D02*
X0404800Y0135192D01*
X0404800Y0135790D02*
X0391195Y0135790D01*
X0390596Y0136389D02*
X0404800Y0136389D01*
X0404800Y0136987D02*
X0389853Y0136987D01*
X0388649Y0139586D02*
X0387077Y0139586D01*
X0385625Y0140188D01*
X0384514Y0141299D01*
X0383913Y0142751D01*
X0383913Y0144322D01*
X0384514Y0145774D01*
X0385625Y0146885D01*
X0387077Y0147486D01*
X0388649Y0147486D01*
X0390100Y0146885D01*
X0391212Y0145774D01*
X0391813Y0144322D01*
X0391813Y0142751D01*
X0391212Y0141299D01*
X0390100Y0140188D01*
X0388649Y0139586D01*
X0389599Y0139980D02*
X0404800Y0139980D01*
X0404800Y0140578D02*
X0390491Y0140578D01*
X0391090Y0141177D02*
X0404800Y0141177D01*
X0404800Y0141775D02*
X0391409Y0141775D01*
X0391657Y0142374D02*
X0404800Y0142374D01*
X0404800Y0142972D02*
X0391813Y0142972D01*
X0391813Y0143571D02*
X0404800Y0143571D01*
X0404800Y0144170D02*
X0391813Y0144170D01*
X0391628Y0144768D02*
X0404800Y0144768D01*
X0404800Y0145367D02*
X0391380Y0145367D01*
X0391020Y0145965D02*
X0404800Y0145965D01*
X0404800Y0146564D02*
X0390422Y0146564D01*
X0389431Y0147162D02*
X0404800Y0147162D01*
X0404800Y0147761D02*
X0345168Y0147761D01*
X0344569Y0148359D02*
X0404800Y0148359D01*
X0404800Y0148958D02*
X0343971Y0148958D01*
X0343372Y0149556D02*
X0404800Y0149556D01*
X0404800Y0150155D02*
X0390021Y0150155D01*
X0390100Y0150188D02*
X0391212Y0151299D01*
X0391813Y0152751D01*
X0391813Y0154322D01*
X0391212Y0155774D01*
X0390100Y0156885D01*
X0388649Y0157486D01*
X0387077Y0157486D01*
X0385625Y0156885D01*
X0384514Y0155774D01*
X0383913Y0154322D01*
X0383913Y0152751D01*
X0384514Y0151299D01*
X0385625Y0150188D01*
X0387077Y0149586D01*
X0388649Y0149586D01*
X0390100Y0150188D01*
X0390666Y0150753D02*
X0404800Y0150753D01*
X0404800Y0151352D02*
X0391234Y0151352D01*
X0391481Y0151950D02*
X0404800Y0151950D01*
X0404800Y0152549D02*
X0391729Y0152549D01*
X0391813Y0153147D02*
X0404800Y0153147D01*
X0404800Y0153746D02*
X0391813Y0153746D01*
X0391804Y0154344D02*
X0404800Y0154344D01*
X0404800Y0154943D02*
X0391556Y0154943D01*
X0391308Y0155541D02*
X0404800Y0155541D01*
X0404800Y0156140D02*
X0390846Y0156140D01*
X0390247Y0156738D02*
X0404800Y0156738D01*
X0404800Y0157337D02*
X0389009Y0157337D01*
X0386716Y0157337D02*
X0379009Y0157337D01*
X0378649Y0157486D02*
X0377077Y0157486D01*
X0375625Y0156885D01*
X0374514Y0155774D01*
X0373913Y0154322D01*
X0373913Y0152751D01*
X0374514Y0151299D01*
X0375625Y0150188D01*
X0377077Y0149586D01*
X0378649Y0149586D01*
X0380100Y0150188D01*
X0381212Y0151299D01*
X0381813Y0152751D01*
X0381813Y0154322D01*
X0381212Y0155774D01*
X0380100Y0156885D01*
X0378649Y0157486D01*
X0380247Y0156738D02*
X0385479Y0156738D01*
X0384880Y0156140D02*
X0380846Y0156140D01*
X0381308Y0155541D02*
X0384418Y0155541D01*
X0384170Y0154943D02*
X0381556Y0154943D01*
X0381804Y0154344D02*
X0383922Y0154344D01*
X0383913Y0153746D02*
X0381813Y0153746D01*
X0381813Y0153147D02*
X0383913Y0153147D01*
X0383997Y0152549D02*
X0381729Y0152549D01*
X0381481Y0151950D02*
X0384245Y0151950D01*
X0384492Y0151352D02*
X0381234Y0151352D01*
X0380666Y0150753D02*
X0385060Y0150753D01*
X0385705Y0150155D02*
X0380021Y0150155D01*
X0378649Y0147486D02*
X0377077Y0147486D01*
X0375625Y0146885D01*
X0374514Y0145774D01*
X0373913Y0144322D01*
X0373913Y0142751D01*
X0374514Y0141299D01*
X0375625Y0140188D01*
X0377077Y0139586D01*
X0378649Y0139586D01*
X0380100Y0140188D01*
X0381212Y0141299D01*
X0381813Y0142751D01*
X0381813Y0144322D01*
X0381212Y0145774D01*
X0380100Y0146885D01*
X0378649Y0147486D01*
X0379431Y0147162D02*
X0386295Y0147162D01*
X0385304Y0146564D02*
X0380422Y0146564D01*
X0381020Y0145965D02*
X0384706Y0145965D01*
X0384346Y0145367D02*
X0381380Y0145367D01*
X0381628Y0144768D02*
X0384098Y0144768D01*
X0383913Y0144170D02*
X0381813Y0144170D01*
X0381813Y0143571D02*
X0383913Y0143571D01*
X0383913Y0142972D02*
X0381813Y0142972D01*
X0381657Y0142374D02*
X0384069Y0142374D01*
X0384317Y0141775D02*
X0381409Y0141775D01*
X0381090Y0141177D02*
X0384636Y0141177D01*
X0385235Y0140578D02*
X0380491Y0140578D01*
X0379599Y0139980D02*
X0386127Y0139980D01*
X0385873Y0136987D02*
X0379853Y0136987D01*
X0380596Y0136389D02*
X0385130Y0136389D01*
X0384531Y0135790D02*
X0381195Y0135790D01*
X0381453Y0135192D02*
X0384273Y0135192D01*
X0384025Y0134593D02*
X0381701Y0134593D01*
X0381813Y0133995D02*
X0383913Y0133995D01*
X0383913Y0133396D02*
X0381813Y0133396D01*
X0381813Y0132798D02*
X0383913Y0132798D01*
X0384141Y0132199D02*
X0381585Y0132199D01*
X0381337Y0131601D02*
X0384389Y0131601D01*
X0384811Y0131002D02*
X0380915Y0131002D01*
X0380317Y0130404D02*
X0385409Y0130404D01*
X0386549Y0129805D02*
X0379177Y0129805D01*
X0375409Y0130404D02*
X0362525Y0130404D01*
X0361926Y0131002D02*
X0374811Y0131002D01*
X0374389Y0131601D02*
X0361328Y0131601D01*
X0360729Y0132199D02*
X0374141Y0132199D01*
X0373913Y0132798D02*
X0360131Y0132798D01*
X0359532Y0133396D02*
X0373913Y0133396D01*
X0373913Y0133995D02*
X0358934Y0133995D01*
X0358335Y0134593D02*
X0374025Y0134593D01*
X0374273Y0135192D02*
X0357737Y0135192D01*
X0357138Y0135790D02*
X0374531Y0135790D01*
X0375130Y0136389D02*
X0356540Y0136389D01*
X0355941Y0136987D02*
X0375873Y0136987D01*
X0376127Y0139980D02*
X0352948Y0139980D01*
X0352350Y0140578D02*
X0375235Y0140578D01*
X0374636Y0141177D02*
X0351751Y0141177D01*
X0351153Y0141775D02*
X0374317Y0141775D01*
X0374069Y0142374D02*
X0350554Y0142374D01*
X0349956Y0142972D02*
X0373913Y0142972D01*
X0373913Y0143571D02*
X0349357Y0143571D01*
X0348759Y0144170D02*
X0373913Y0144170D01*
X0374098Y0144768D02*
X0348160Y0144768D01*
X0347562Y0145367D02*
X0374346Y0145367D01*
X0374706Y0145965D02*
X0346963Y0145965D01*
X0346365Y0146564D02*
X0375304Y0146564D01*
X0376295Y0147162D02*
X0345766Y0147162D01*
X0342774Y0150155D02*
X0375705Y0150155D01*
X0375060Y0150753D02*
X0342175Y0150753D01*
X0341577Y0151352D02*
X0374492Y0151352D01*
X0374245Y0151950D02*
X0291481Y0151950D01*
X0291729Y0152549D02*
X0373997Y0152549D01*
X0373913Y0153147D02*
X0291813Y0153147D01*
X0291813Y0153746D02*
X0373913Y0153746D01*
X0373922Y0154344D02*
X0291804Y0154344D01*
X0291556Y0154943D02*
X0374170Y0154943D01*
X0374418Y0155541D02*
X0291308Y0155541D01*
X0290846Y0156140D02*
X0374880Y0156140D01*
X0375479Y0156738D02*
X0290247Y0156738D01*
X0289009Y0157337D02*
X0376716Y0157337D01*
X0404800Y0157935D02*
X0132800Y0157935D01*
X0132800Y0157337D02*
X0276716Y0157337D01*
X0275479Y0156738D02*
X0132800Y0156738D01*
X0132800Y0156140D02*
X0274880Y0156140D01*
X0274418Y0155541D02*
X0132800Y0155541D01*
X0132800Y0154943D02*
X0274170Y0154943D01*
X0273922Y0154344D02*
X0132800Y0154344D01*
X0132800Y0153746D02*
X0273913Y0153746D01*
X0273913Y0153147D02*
X0132800Y0153147D01*
X0132800Y0152549D02*
X0273997Y0152549D01*
X0274245Y0151950D02*
X0132800Y0151950D01*
X0132800Y0158534D02*
X0404800Y0158534D01*
X0404800Y0159132D02*
X0132800Y0159132D01*
X0132800Y0159731D02*
X0276728Y0159731D01*
X0275484Y0160329D02*
X0132800Y0160329D01*
X0132800Y0160928D02*
X0274885Y0160928D01*
X0274420Y0161526D02*
X0132800Y0161526D01*
X0132800Y0162125D02*
X0274172Y0162125D01*
X0273924Y0162723D02*
X0132800Y0162723D01*
X0132800Y0163322D02*
X0273913Y0163322D01*
X0273913Y0163920D02*
X0132800Y0163920D01*
X0132800Y0164519D02*
X0273995Y0164519D01*
X0274243Y0165117D02*
X0132800Y0165117D01*
X0132800Y0165716D02*
X0274490Y0165716D01*
X0275055Y0166314D02*
X0132800Y0166314D01*
X0132800Y0168110D02*
X0404800Y0168110D01*
X0404800Y0168708D02*
X0132800Y0168708D01*
X0184652Y0187262D02*
X0191606Y0187262D01*
X0192338Y0187861D02*
X0186097Y0187861D01*
X0187151Y0188459D02*
X0229449Y0188459D01*
X0228851Y0189058D02*
X0187749Y0189058D01*
X0188348Y0189656D02*
X0228252Y0189656D01*
X0227654Y0190255D02*
X0188946Y0190255D01*
X0189272Y0190853D02*
X0227328Y0190853D01*
X0227080Y0191452D02*
X0189520Y0191452D01*
X0189768Y0192050D02*
X0226832Y0192050D01*
X0226584Y0192649D02*
X0190016Y0192649D01*
X0190264Y0193247D02*
X0226336Y0193247D01*
X0226328Y0193846D02*
X0190272Y0193846D01*
X0190272Y0194444D02*
X0226328Y0194444D01*
X0226328Y0195043D02*
X0190272Y0195043D01*
X0190272Y0195641D02*
X0226328Y0195641D01*
X0226328Y0196240D02*
X0190272Y0196240D01*
X0190085Y0196839D02*
X0226515Y0196839D01*
X0226762Y0197437D02*
X0189838Y0197437D01*
X0189590Y0198036D02*
X0227010Y0198036D01*
X0227258Y0198634D02*
X0189342Y0198634D01*
X0189094Y0199233D02*
X0227506Y0199233D01*
X0228084Y0199831D02*
X0188516Y0199831D01*
X0187918Y0200430D02*
X0228682Y0200430D01*
X0229281Y0201028D02*
X0187319Y0201028D01*
X0186504Y0201627D02*
X0230096Y0201627D01*
X0231541Y0202225D02*
X0185059Y0202225D01*
X0196703Y0187861D02*
X0202181Y0187861D01*
X0201952Y0187766D02*
X0200755Y0186569D01*
X0200107Y0185005D01*
X0200107Y0183312D01*
X0200755Y0181747D01*
X0201952Y0180550D01*
X0203516Y0179902D01*
X0205210Y0179902D01*
X0206774Y0180550D01*
X0207971Y0181747D01*
X0208300Y0182542D01*
X0208629Y0181747D01*
X0209826Y0180550D01*
X0211390Y0179902D01*
X0213084Y0179902D01*
X0214648Y0180550D01*
X0215845Y0181747D01*
X0216493Y0183312D01*
X0216493Y0185005D01*
X0215845Y0186569D01*
X0214648Y0187766D01*
X0213084Y0188414D01*
X0211390Y0188414D01*
X0209826Y0187766D01*
X0208629Y0186569D01*
X0208300Y0185775D01*
X0207971Y0186569D01*
X0206774Y0187766D01*
X0205210Y0188414D01*
X0203516Y0188414D01*
X0201952Y0187766D01*
X0201448Y0187262D02*
X0197435Y0187262D01*
X0198034Y0186664D02*
X0200850Y0186664D01*
X0200546Y0186065D02*
X0198337Y0186065D01*
X0198585Y0185467D02*
X0200298Y0185467D01*
X0200107Y0184868D02*
X0198776Y0184868D01*
X0198776Y0184270D02*
X0200107Y0184270D01*
X0200107Y0183671D02*
X0198776Y0183671D01*
X0198677Y0183073D02*
X0200206Y0183073D01*
X0200454Y0182474D02*
X0198429Y0182474D01*
X0198182Y0181876D02*
X0200702Y0181876D01*
X0201225Y0181277D02*
X0197658Y0181277D01*
X0197060Y0180679D02*
X0201824Y0180679D01*
X0203087Y0180080D02*
X0195796Y0180080D01*
X0205639Y0180080D02*
X0210961Y0180080D01*
X0209698Y0180679D02*
X0206902Y0180679D01*
X0207501Y0181277D02*
X0209099Y0181277D01*
X0208576Y0181876D02*
X0208024Y0181876D01*
X0208272Y0182474D02*
X0208328Y0182474D01*
X0208420Y0186065D02*
X0208180Y0186065D01*
X0207876Y0186664D02*
X0208724Y0186664D01*
X0209322Y0187262D02*
X0207278Y0187262D01*
X0206545Y0187861D02*
X0210055Y0187861D01*
X0214419Y0187861D02*
X0219897Y0187861D01*
X0219669Y0187766D02*
X0218472Y0186569D01*
X0217824Y0185005D01*
X0217824Y0183312D01*
X0218472Y0181747D01*
X0219669Y0180550D01*
X0221233Y0179902D01*
X0222926Y0179902D01*
X0224490Y0180550D01*
X0225687Y0181747D01*
X0226335Y0183312D01*
X0226335Y0185005D01*
X0225687Y0186569D01*
X0224490Y0187766D01*
X0222926Y0188414D01*
X0221233Y0188414D01*
X0219669Y0187766D01*
X0219165Y0187262D02*
X0215152Y0187262D01*
X0215750Y0186664D02*
X0218566Y0186664D01*
X0218263Y0186065D02*
X0216054Y0186065D01*
X0216302Y0185467D02*
X0218015Y0185467D01*
X0217824Y0184868D02*
X0216493Y0184868D01*
X0216493Y0184270D02*
X0217824Y0184270D01*
X0217824Y0183671D02*
X0216493Y0183671D01*
X0216394Y0183073D02*
X0217923Y0183073D01*
X0218171Y0182474D02*
X0216146Y0182474D01*
X0215898Y0181876D02*
X0218418Y0181876D01*
X0218942Y0181277D02*
X0215375Y0181277D01*
X0214776Y0180679D02*
X0219540Y0180679D01*
X0220804Y0180080D02*
X0213513Y0180080D01*
X0223355Y0180080D02*
X0275885Y0180080D01*
X0275134Y0180679D02*
X0224619Y0180679D01*
X0225217Y0181277D02*
X0274536Y0181277D01*
X0274275Y0181876D02*
X0225741Y0181876D01*
X0225989Y0182474D02*
X0274027Y0182474D01*
X0273913Y0183073D02*
X0226236Y0183073D01*
X0226335Y0183671D02*
X0273913Y0183671D01*
X0273913Y0184270D02*
X0226335Y0184270D01*
X0226335Y0184868D02*
X0274139Y0184868D01*
X0274387Y0185467D02*
X0226144Y0185467D01*
X0225896Y0186065D02*
X0274806Y0186065D01*
X0275404Y0186664D02*
X0225593Y0186664D01*
X0224994Y0187262D02*
X0231948Y0187262D01*
X0230503Y0187861D02*
X0224262Y0187861D01*
X0279240Y0199831D02*
X0286486Y0199831D01*
X0285383Y0200430D02*
X0280342Y0200430D01*
X0280941Y0201028D02*
X0284785Y0201028D01*
X0284379Y0201627D02*
X0281347Y0201627D01*
X0281595Y0202225D02*
X0284131Y0202225D01*
X0283913Y0202824D02*
X0281813Y0202824D01*
X0281813Y0203422D02*
X0283913Y0203422D01*
X0283913Y0204021D02*
X0281813Y0204021D01*
X0281690Y0204619D02*
X0284036Y0204619D01*
X0284284Y0205218D02*
X0281442Y0205218D01*
X0281169Y0205816D02*
X0284557Y0205816D01*
X0285155Y0206415D02*
X0280571Y0206415D01*
X0279791Y0207013D02*
X0285935Y0207013D01*
X0286064Y0210006D02*
X0279662Y0210006D01*
X0280517Y0210604D02*
X0285209Y0210604D01*
X0284610Y0211203D02*
X0281116Y0211203D01*
X0281420Y0211801D02*
X0284306Y0211801D01*
X0284058Y0212400D02*
X0281668Y0212400D01*
X0281813Y0212998D02*
X0283913Y0212998D01*
X0283913Y0213597D02*
X0281813Y0213597D01*
X0281813Y0214195D02*
X0283913Y0214195D01*
X0284108Y0214794D02*
X0281618Y0214794D01*
X0281370Y0215392D02*
X0284356Y0215392D01*
X0284732Y0215991D02*
X0280994Y0215991D01*
X0280396Y0216589D02*
X0285330Y0216589D01*
X0286357Y0217188D02*
X0279369Y0217188D01*
X0279009Y0157337D02*
X0286716Y0157337D01*
X0285479Y0156738D02*
X0280247Y0156738D01*
X0280846Y0156140D02*
X0284880Y0156140D01*
X0284418Y0155541D02*
X0281308Y0155541D01*
X0281556Y0154943D02*
X0284170Y0154943D01*
X0283922Y0154344D02*
X0281804Y0154344D01*
X0281813Y0153746D02*
X0283913Y0153746D01*
X0283913Y0153147D02*
X0281813Y0153147D01*
X0281729Y0152549D02*
X0283997Y0152549D01*
X0284245Y0151950D02*
X0281481Y0151950D01*
X0281277Y0125616D02*
X0284449Y0125616D01*
X0284201Y0125017D02*
X0281525Y0125017D01*
X0281773Y0124419D02*
X0283953Y0124419D01*
X0283913Y0123820D02*
X0281813Y0123820D01*
X0281813Y0123222D02*
X0283913Y0123222D01*
X0283966Y0122623D02*
X0281760Y0122623D01*
X0281512Y0122025D02*
X0284214Y0122025D01*
X0284462Y0121426D02*
X0281264Y0121426D01*
X0280740Y0120828D02*
X0284985Y0120828D01*
X0285584Y0120229D02*
X0280142Y0120229D01*
X0278756Y0119631D02*
X0286970Y0119631D01*
X0288756Y0119631D02*
X0340641Y0119631D01*
X0340043Y0120229D02*
X0290142Y0120229D01*
X0290740Y0120828D02*
X0339444Y0120828D01*
X0338845Y0121426D02*
X0291264Y0121426D01*
X0291512Y0122025D02*
X0338247Y0122025D01*
X0337648Y0122623D02*
X0291760Y0122623D01*
X0291813Y0123222D02*
X0337050Y0123222D01*
X0336451Y0123820D02*
X0291813Y0123820D01*
X0291773Y0124419D02*
X0335853Y0124419D01*
X0335254Y0125017D02*
X0291525Y0125017D01*
X0291277Y0125616D02*
X0334656Y0125616D01*
X0354145Y0138783D02*
X0404800Y0138783D01*
X0404800Y0139381D02*
X0353547Y0139381D01*
X0354744Y0138184D02*
X0404800Y0138184D01*
X0404800Y0137586D02*
X0355343Y0137586D01*
X0364320Y0128608D02*
X0404800Y0128608D01*
X0404800Y0128010D02*
X0364919Y0128010D01*
X0404800Y0089106D02*
X0172300Y0089106D01*
X0172300Y0088508D02*
X0404800Y0088508D01*
X0404800Y0079530D02*
X0172300Y0079530D01*
X0172300Y0078932D02*
X0404800Y0078932D01*
X0404800Y0078333D02*
X0172300Y0078333D01*
X0172300Y0077735D02*
X0404800Y0077735D01*
X0404800Y0068757D02*
X0198449Y0068757D01*
X0196151Y0068757D02*
X0172300Y0068757D01*
X0172300Y0068159D02*
X0404800Y0068159D01*
X0404800Y0067560D02*
X0172300Y0067560D01*
X0172300Y0069356D02*
X0195300Y0069356D01*
X0194839Y0069954D02*
X0172300Y0069954D01*
X0172300Y0070553D02*
X0194591Y0070553D01*
X0194511Y0071151D02*
X0172300Y0071151D01*
X0172300Y0071750D02*
X0194511Y0071750D01*
X0194715Y0072348D02*
X0172300Y0072348D01*
X0172300Y0072947D02*
X0195002Y0072947D01*
X0195601Y0073545D02*
X0172300Y0073545D01*
X0175128Y0099880D02*
X0276369Y0099880D01*
X0279357Y0099880D02*
X0286369Y0099880D01*
X0285335Y0100478D02*
X0280391Y0100478D01*
X0280990Y0101077D02*
X0284736Y0101077D01*
X0284358Y0101675D02*
X0281368Y0101675D01*
X0281615Y0102274D02*
X0284110Y0102274D01*
X0283913Y0102872D02*
X0281813Y0102872D01*
X0281813Y0103471D02*
X0283913Y0103471D01*
X0283913Y0104069D02*
X0281813Y0104069D01*
X0281670Y0104668D02*
X0284056Y0104668D01*
X0284304Y0105266D02*
X0281422Y0105266D01*
X0281121Y0105865D02*
X0284605Y0105865D01*
X0285204Y0106463D02*
X0280522Y0106463D01*
X0279673Y0107062D02*
X0286053Y0107062D01*
X0285947Y0110054D02*
X0279779Y0110054D01*
X0280566Y0110653D02*
X0285160Y0110653D01*
X0284562Y0111251D02*
X0281164Y0111251D01*
X0281440Y0111850D02*
X0284286Y0111850D01*
X0284038Y0112448D02*
X0281688Y0112448D01*
X0281813Y0113047D02*
X0283913Y0113047D01*
X0283913Y0113645D02*
X0281813Y0113645D01*
X0281813Y0114244D02*
X0283913Y0114244D01*
X0284129Y0114842D02*
X0281597Y0114842D01*
X0281349Y0115441D02*
X0284377Y0115441D01*
X0284780Y0116039D02*
X0280946Y0116039D01*
X0280347Y0116638D02*
X0285379Y0116638D01*
X0286474Y0117237D02*
X0279252Y0117237D01*
X0279915Y0066962D02*
X0285811Y0066962D01*
X0285104Y0066363D02*
X0280622Y0066363D01*
X0281215Y0065765D02*
X0284511Y0065765D01*
X0284263Y0065166D02*
X0281463Y0065166D01*
X0281711Y0064568D02*
X0284015Y0064568D01*
X0283913Y0063969D02*
X0281813Y0063969D01*
X0281813Y0063370D02*
X0283913Y0063370D01*
X0283913Y0062772D02*
X0281813Y0062772D01*
X0281574Y0062173D02*
X0284152Y0062173D01*
X0284400Y0061575D02*
X0281326Y0061575D01*
X0280889Y0060976D02*
X0284837Y0060976D01*
X0285435Y0060378D02*
X0280291Y0060378D01*
X0279115Y0059779D02*
X0286611Y0059779D01*
X0277033Y0049605D02*
X0065860Y0049605D01*
X0066126Y0050203D02*
X0275610Y0050203D01*
X0227846Y0030452D02*
X0404800Y0030452D01*
X0404800Y0029854D02*
X0228094Y0029854D01*
X0227443Y0031051D02*
X0404800Y0031051D01*
X0404800Y0031649D02*
X0226781Y0031649D01*
X0138204Y0038832D02*
X0012800Y0038832D01*
X0012800Y0039430D02*
X0137352Y0039430D01*
X0136904Y0040029D02*
X0012800Y0040029D01*
X0012800Y0040627D02*
X0136656Y0040627D01*
X0136600Y0041226D02*
X0012800Y0041226D01*
X0012800Y0041824D02*
X0136600Y0041824D01*
X0136843Y0042423D02*
X0012800Y0042423D01*
X0012800Y0043021D02*
X0137203Y0043021D01*
X0059953Y0047211D02*
X0012800Y0047211D01*
X0012800Y0047809D02*
X0058508Y0047809D01*
X0057567Y0048408D02*
X0012800Y0048408D01*
X0012800Y0049006D02*
X0039970Y0049006D01*
X0040544Y0048769D02*
X0042316Y0048769D01*
X0043952Y0049446D01*
X0045205Y0050699D01*
X0045883Y0052336D01*
X0045883Y0054107D01*
X0045205Y0055744D01*
X0043952Y0056996D01*
X0042316Y0057674D01*
X0040544Y0057674D01*
X0038908Y0056996D01*
X0037655Y0055744D01*
X0036977Y0054107D01*
X0036977Y0052336D01*
X0037655Y0050699D01*
X0038908Y0049446D01*
X0040544Y0048769D01*
X0038749Y0049605D02*
X0012800Y0049605D01*
X0012800Y0050203D02*
X0038151Y0050203D01*
X0037612Y0050802D02*
X0012800Y0050802D01*
X0012800Y0051400D02*
X0037365Y0051400D01*
X0037117Y0051999D02*
X0012800Y0051999D01*
X0012800Y0052597D02*
X0036977Y0052597D01*
X0036977Y0053196D02*
X0012800Y0053196D01*
X0012800Y0053794D02*
X0036977Y0053794D01*
X0037096Y0054393D02*
X0012800Y0054393D01*
X0012800Y0054991D02*
X0037343Y0054991D01*
X0037591Y0055590D02*
X0012800Y0055590D01*
X0012800Y0056188D02*
X0038100Y0056188D01*
X0038698Y0056787D02*
X0012800Y0056787D01*
X0012800Y0057385D02*
X0039847Y0057385D01*
X0043012Y0057385D02*
X0057705Y0057385D01*
X0057107Y0056787D02*
X0044161Y0056787D01*
X0044760Y0056188D02*
X0056508Y0056188D01*
X0056161Y0055590D02*
X0045268Y0055590D01*
X0045516Y0054991D02*
X0055913Y0054991D01*
X0055665Y0054393D02*
X0045764Y0054393D01*
X0045883Y0053794D02*
X0055481Y0053794D01*
X0055481Y0053196D02*
X0045883Y0053196D01*
X0045883Y0052597D02*
X0055481Y0052597D01*
X0055481Y0051999D02*
X0045743Y0051999D01*
X0045495Y0051400D02*
X0055608Y0051400D01*
X0055856Y0050802D02*
X0045247Y0050802D01*
X0044709Y0050203D02*
X0056104Y0050203D01*
X0056370Y0049605D02*
X0044111Y0049605D01*
X0042890Y0049006D02*
X0056969Y0049006D01*
X0058841Y0057984D02*
X0012800Y0057984D01*
X0012800Y0058582D02*
X0058162Y0058582D01*
X0057424Y0059181D02*
X0012800Y0059181D01*
X0012800Y0059779D02*
X0056826Y0059779D01*
X0056292Y0060378D02*
X0012800Y0060378D01*
X0012800Y0060976D02*
X0056045Y0060976D01*
X0055797Y0061575D02*
X0012800Y0061575D01*
X0012800Y0062173D02*
X0055549Y0062173D01*
X0055481Y0062772D02*
X0012800Y0062772D01*
X0012800Y0063370D02*
X0055481Y0063370D01*
X0055481Y0063969D02*
X0012800Y0063969D01*
X0012800Y0064568D02*
X0055481Y0064568D01*
X0055725Y0065166D02*
X0012800Y0065166D01*
X0012800Y0065765D02*
X0055973Y0065765D01*
X0056220Y0066363D02*
X0012800Y0066363D01*
X0012800Y0066962D02*
X0056652Y0066962D01*
X0057250Y0067560D02*
X0043245Y0067560D01*
X0042551Y0067272D02*
X0044621Y0068130D01*
X0046206Y0069715D01*
X0047064Y0071786D01*
X0047064Y0074027D01*
X0046206Y0076098D01*
X0044621Y0077682D01*
X0042551Y0078540D01*
X0040309Y0078540D01*
X0038239Y0077682D01*
X0036654Y0076098D01*
X0035796Y0074027D01*
X0035796Y0071786D01*
X0036654Y0069715D01*
X0038239Y0068130D01*
X0040309Y0067272D01*
X0042551Y0067272D01*
X0044650Y0068159D02*
X0057849Y0068159D01*
X0058369Y0069356D02*
X0045847Y0069356D01*
X0046305Y0069954D02*
X0057770Y0069954D01*
X0057270Y0070553D02*
X0046553Y0070553D01*
X0046801Y0071151D02*
X0057022Y0071151D01*
X0056774Y0071750D02*
X0047049Y0071750D01*
X0047064Y0072348D02*
X0056662Y0072348D01*
X0056662Y0072947D02*
X0047064Y0072947D01*
X0047064Y0073545D02*
X0056662Y0073545D01*
X0056808Y0074144D02*
X0047015Y0074144D01*
X0046768Y0074742D02*
X0057056Y0074742D01*
X0057304Y0075341D02*
X0046520Y0075341D01*
X0046272Y0075939D02*
X0057851Y0075939D01*
X0058449Y0076538D02*
X0045766Y0076538D01*
X0045167Y0077136D02*
X0058992Y0077136D01*
X0057768Y0077735D02*
X0044495Y0077735D01*
X0043050Y0078333D02*
X0057169Y0078333D01*
X0056571Y0078932D02*
X0012800Y0078932D01*
X0012800Y0079530D02*
X0056187Y0079530D01*
X0055939Y0080129D02*
X0012800Y0080129D01*
X0012800Y0080727D02*
X0055691Y0080727D01*
X0055481Y0081326D02*
X0012800Y0081326D01*
X0012800Y0081924D02*
X0055481Y0081924D01*
X0055481Y0082523D02*
X0012800Y0082523D01*
X0012800Y0083121D02*
X0055481Y0083121D01*
X0055582Y0083720D02*
X0012800Y0083720D01*
X0012800Y0084318D02*
X0055830Y0084318D01*
X0056078Y0084917D02*
X0012800Y0084917D01*
X0012800Y0085515D02*
X0056326Y0085515D01*
X0056906Y0086114D02*
X0012800Y0086114D01*
X0012800Y0086712D02*
X0057505Y0086712D01*
X0058357Y0087311D02*
X0012800Y0087311D01*
X0012800Y0087909D02*
X0058647Y0087909D01*
X0057625Y0088508D02*
X0043207Y0088508D01*
X0043952Y0088816D02*
X0045205Y0090069D01*
X0045883Y0091706D01*
X0045883Y0093477D01*
X0045205Y0095114D01*
X0043952Y0096366D01*
X0042316Y0097044D01*
X0040544Y0097044D01*
X0038908Y0096366D01*
X0037655Y0095114D01*
X0036977Y0093477D01*
X0036977Y0091706D01*
X0037655Y0090069D01*
X0038908Y0088816D01*
X0040544Y0088139D01*
X0042316Y0088139D01*
X0043952Y0088816D01*
X0044242Y0089106D02*
X0057026Y0089106D01*
X0056428Y0089705D02*
X0044841Y0089705D01*
X0045302Y0090303D02*
X0056128Y0090303D01*
X0055880Y0090902D02*
X0045550Y0090902D01*
X0045798Y0091501D02*
X0055632Y0091501D01*
X0055481Y0092099D02*
X0045883Y0092099D01*
X0045883Y0092698D02*
X0055481Y0092698D01*
X0055481Y0093296D02*
X0045883Y0093296D01*
X0045710Y0093895D02*
X0055481Y0093895D01*
X0055642Y0094493D02*
X0045462Y0094493D01*
X0045214Y0095092D02*
X0055889Y0095092D01*
X0056137Y0095690D02*
X0044628Y0095690D01*
X0044030Y0096289D02*
X0056451Y0096289D01*
X0057050Y0096887D02*
X0042695Y0096887D01*
X0040165Y0096887D02*
X0012800Y0096887D01*
X0012800Y0096289D02*
X0038830Y0096289D01*
X0038232Y0095690D02*
X0012800Y0095690D01*
X0012800Y0095092D02*
X0037646Y0095092D01*
X0037398Y0094493D02*
X0012800Y0094493D01*
X0012800Y0093895D02*
X0037150Y0093895D01*
X0036977Y0093296D02*
X0012800Y0093296D01*
X0012800Y0092698D02*
X0036977Y0092698D01*
X0036977Y0092099D02*
X0012800Y0092099D01*
X0012800Y0091501D02*
X0037062Y0091501D01*
X0037310Y0090902D02*
X0012800Y0090902D01*
X0012800Y0090303D02*
X0037558Y0090303D01*
X0038019Y0089705D02*
X0012800Y0089705D01*
X0012800Y0089106D02*
X0038618Y0089106D01*
X0039652Y0088508D02*
X0012800Y0088508D01*
X0012800Y0097486D02*
X0057648Y0097486D01*
X0058703Y0098084D02*
X0012800Y0098084D01*
X0012800Y0078333D02*
X0039810Y0078333D01*
X0038365Y0077735D02*
X0012800Y0077735D01*
X0012800Y0077136D02*
X0037692Y0077136D01*
X0037094Y0076538D02*
X0012800Y0076538D01*
X0012800Y0075939D02*
X0036588Y0075939D01*
X0036340Y0075341D02*
X0012800Y0075341D01*
X0012800Y0074742D02*
X0036092Y0074742D01*
X0035844Y0074144D02*
X0012800Y0074144D01*
X0012800Y0073545D02*
X0035796Y0073545D01*
X0035796Y0072947D02*
X0012800Y0072947D01*
X0012800Y0072348D02*
X0035796Y0072348D01*
X0035811Y0071750D02*
X0012800Y0071750D01*
X0012800Y0071151D02*
X0036059Y0071151D01*
X0036307Y0070553D02*
X0012800Y0070553D01*
X0012800Y0069954D02*
X0036555Y0069954D01*
X0037013Y0069356D02*
X0012800Y0069356D01*
X0012800Y0068757D02*
X0037612Y0068757D01*
X0038210Y0068159D02*
X0012800Y0068159D01*
X0012800Y0067560D02*
X0039615Y0067560D01*
X0045248Y0068757D02*
X0059187Y0068757D01*
X0389115Y0059779D02*
X0404800Y0059779D01*
X0404800Y0060378D02*
X0390291Y0060378D01*
X0390889Y0060976D02*
X0404800Y0060976D01*
X0404800Y0061575D02*
X0391326Y0061575D01*
X0391574Y0062173D02*
X0404800Y0062173D01*
X0404800Y0062772D02*
X0391813Y0062772D01*
X0391813Y0063370D02*
X0404800Y0063370D01*
X0404800Y0063969D02*
X0391813Y0063969D01*
X0391711Y0064568D02*
X0404800Y0064568D01*
X0404800Y0065166D02*
X0391463Y0065166D01*
X0391215Y0065765D02*
X0404800Y0065765D01*
X0404800Y0066363D02*
X0390622Y0066363D01*
X0389915Y0066962D02*
X0404800Y0066962D01*
M02*
