G75*
%MOIN*%
%OFA0B0*%
%FSLAX25Y25*%
%IPPOS*%
%LPD*%
%AMOC8*
5,1,8,0,0,1.08239X$1,22.5*
%
%ADD10R,0.06600X0.06600*%
%ADD11OC8,0.06600*%
%ADD12C,0.06200*%
%ADD13C,0.10600*%
%ADD14C,0.08868*%
%ADD15C,0.06506*%
%ADD16R,0.03000X0.02600*%
%ADD17R,0.02600X0.03000*%
%ADD18R,0.04143X0.03356*%
%ADD19R,0.04500X0.01800*%
%ADD20R,0.01400X0.02200*%
%ADD21OC8,0.07600*%
%ADD22C,0.06112*%
%ADD23C,0.13277*%
%ADD24C,0.02400*%
%ADD25C,0.04600*%
D10*
X0277863Y0213536D03*
X0377863Y0213536D03*
D11*
X0387863Y0213536D03*
X0387863Y0203536D03*
X0377863Y0203536D03*
X0377863Y0193536D03*
X0387863Y0193536D03*
X0387863Y0183536D03*
X0377863Y0183536D03*
X0377863Y0173536D03*
X0387863Y0173536D03*
X0387863Y0163536D03*
X0377863Y0163536D03*
X0377863Y0153536D03*
X0387863Y0153536D03*
X0387863Y0143536D03*
X0377863Y0143536D03*
X0377863Y0133536D03*
X0387863Y0133536D03*
X0387863Y0123536D03*
X0377863Y0123536D03*
X0377863Y0113536D03*
X0387863Y0113536D03*
X0387863Y0103536D03*
X0377863Y0103536D03*
X0377863Y0093536D03*
X0387863Y0093536D03*
X0387863Y0083536D03*
X0377863Y0083536D03*
X0377863Y0073536D03*
X0387863Y0073536D03*
X0387863Y0063536D03*
X0377863Y0063536D03*
X0377863Y0053536D03*
X0387863Y0053536D03*
X0387863Y0043536D03*
X0377863Y0043536D03*
X0287863Y0043536D03*
X0277863Y0043536D03*
X0277863Y0053536D03*
X0287863Y0053536D03*
X0287863Y0063536D03*
X0277863Y0063536D03*
X0277863Y0073536D03*
X0287863Y0073536D03*
X0287863Y0083536D03*
X0277863Y0083536D03*
X0277863Y0093536D03*
X0287863Y0093536D03*
X0287863Y0103536D03*
X0277863Y0103536D03*
X0277863Y0113536D03*
X0287863Y0113536D03*
X0287863Y0123536D03*
X0277863Y0123536D03*
X0277863Y0133536D03*
X0287863Y0133536D03*
X0287863Y0143536D03*
X0277863Y0143536D03*
X0277863Y0153536D03*
X0287863Y0153536D03*
X0287863Y0163536D03*
X0277863Y0163536D03*
X0277863Y0173536D03*
X0287863Y0173536D03*
X0287863Y0183536D03*
X0277863Y0183536D03*
X0277863Y0193536D03*
X0287863Y0193536D03*
X0287863Y0203536D03*
X0277863Y0203536D03*
X0287863Y0213536D03*
D12*
X0224737Y0028800D03*
X0216863Y0028800D03*
D13*
X0041430Y0072906D03*
D14*
X0061115Y0063457D03*
X0061115Y0052828D03*
X0061115Y0082355D03*
X0061115Y0092985D03*
D15*
X0041430Y0092591D03*
X0061115Y0072906D03*
X0041430Y0053221D03*
D16*
X0106100Y0071300D03*
X0110500Y0071300D03*
X0110500Y0076300D03*
X0106100Y0076300D03*
X0126600Y0077800D03*
X0131000Y0077800D03*
X0131000Y0087800D03*
X0126600Y0087800D03*
X0144600Y0091800D03*
X0149000Y0091800D03*
X0168100Y0087800D03*
X0172500Y0087800D03*
X0172500Y0082800D03*
X0168100Y0082800D03*
X0153000Y0050300D03*
X0148600Y0050300D03*
X0143500Y0050300D03*
X0139100Y0050300D03*
X0139100Y0032300D03*
X0143500Y0032300D03*
D17*
X0122800Y0065100D03*
X0122800Y0069500D03*
X0098800Y0071000D03*
X0098800Y0066600D03*
X0098800Y0076600D03*
X0098800Y0081000D03*
X0197300Y0080000D03*
X0197300Y0075600D03*
X0204800Y0080100D03*
X0204800Y0084500D03*
X0092800Y0155600D03*
X0092800Y0160000D03*
X0052800Y0159500D03*
X0052800Y0155100D03*
D18*
X0115800Y0067359D03*
X0115800Y0062241D03*
D19*
X0135313Y0064784D03*
X0135313Y0067343D03*
X0135313Y0069902D03*
X0135313Y0072461D03*
X0135313Y0075020D03*
X0135313Y0077580D03*
X0135313Y0080139D03*
X0135313Y0082698D03*
X0135313Y0085257D03*
X0135313Y0087816D03*
X0158287Y0087816D03*
X0158287Y0085257D03*
X0158287Y0082698D03*
X0158287Y0080139D03*
X0158287Y0077580D03*
X0158287Y0075020D03*
X0158287Y0072461D03*
X0158287Y0069902D03*
X0158287Y0067343D03*
X0158287Y0064784D03*
D20*
X0148627Y0044599D03*
X0143509Y0044599D03*
X0143509Y0037513D03*
X0146068Y0037513D03*
X0148627Y0037513D03*
D21*
X0112800Y0144800D03*
X0102800Y0144800D03*
X0092800Y0144800D03*
X0082800Y0144800D03*
X0072800Y0144800D03*
X0062800Y0144800D03*
X0052800Y0144800D03*
X0042800Y0144800D03*
X0041800Y0216300D03*
X0051800Y0216300D03*
X0061800Y0216300D03*
X0071800Y0216300D03*
X0081800Y0216300D03*
X0091800Y0216300D03*
X0101800Y0216300D03*
X0111800Y0216300D03*
X0121800Y0216300D03*
X0031800Y0216300D03*
D22*
X0194520Y0184158D03*
X0204363Y0184158D03*
X0212237Y0184158D03*
X0222080Y0184158D03*
D23*
X0234166Y0194828D03*
X0182434Y0194828D03*
D24*
X0016300Y0233300D02*
X0016302Y0233409D01*
X0016308Y0233518D01*
X0016318Y0233626D01*
X0016332Y0233734D01*
X0016349Y0233842D01*
X0016371Y0233949D01*
X0016396Y0234055D01*
X0016426Y0234159D01*
X0016459Y0234263D01*
X0016496Y0234366D01*
X0016536Y0234467D01*
X0016580Y0234566D01*
X0016628Y0234664D01*
X0016680Y0234761D01*
X0016734Y0234855D01*
X0016792Y0234947D01*
X0016854Y0235037D01*
X0016919Y0235124D01*
X0016986Y0235210D01*
X0017057Y0235293D01*
X0017131Y0235373D01*
X0017208Y0235450D01*
X0017287Y0235525D01*
X0017369Y0235596D01*
X0017454Y0235665D01*
X0017541Y0235730D01*
X0017630Y0235793D01*
X0017722Y0235851D01*
X0017816Y0235907D01*
X0017911Y0235959D01*
X0018009Y0236008D01*
X0018108Y0236053D01*
X0018209Y0236095D01*
X0018311Y0236132D01*
X0018414Y0236166D01*
X0018519Y0236197D01*
X0018625Y0236223D01*
X0018731Y0236246D01*
X0018839Y0236264D01*
X0018947Y0236279D01*
X0019055Y0236290D01*
X0019164Y0236297D01*
X0019273Y0236300D01*
X0019382Y0236299D01*
X0019491Y0236294D01*
X0019599Y0236285D01*
X0019707Y0236272D01*
X0019815Y0236255D01*
X0019922Y0236235D01*
X0020028Y0236210D01*
X0020133Y0236182D01*
X0020237Y0236150D01*
X0020340Y0236114D01*
X0020442Y0236074D01*
X0020542Y0236031D01*
X0020640Y0235984D01*
X0020737Y0235934D01*
X0020831Y0235880D01*
X0020924Y0235822D01*
X0021015Y0235762D01*
X0021103Y0235698D01*
X0021189Y0235631D01*
X0021272Y0235561D01*
X0021353Y0235488D01*
X0021431Y0235412D01*
X0021506Y0235333D01*
X0021579Y0235251D01*
X0021648Y0235167D01*
X0021714Y0235081D01*
X0021777Y0234992D01*
X0021837Y0234901D01*
X0021894Y0234808D01*
X0021947Y0234713D01*
X0021996Y0234616D01*
X0022042Y0234517D01*
X0022084Y0234417D01*
X0022123Y0234315D01*
X0022158Y0234211D01*
X0022189Y0234107D01*
X0022217Y0234002D01*
X0022240Y0233895D01*
X0022260Y0233788D01*
X0022276Y0233680D01*
X0022288Y0233572D01*
X0022296Y0233463D01*
X0022300Y0233354D01*
X0022300Y0233246D01*
X0022296Y0233137D01*
X0022288Y0233028D01*
X0022276Y0232920D01*
X0022260Y0232812D01*
X0022240Y0232705D01*
X0022217Y0232598D01*
X0022189Y0232493D01*
X0022158Y0232389D01*
X0022123Y0232285D01*
X0022084Y0232183D01*
X0022042Y0232083D01*
X0021996Y0231984D01*
X0021947Y0231887D01*
X0021894Y0231792D01*
X0021837Y0231699D01*
X0021777Y0231608D01*
X0021714Y0231519D01*
X0021648Y0231433D01*
X0021579Y0231349D01*
X0021506Y0231267D01*
X0021431Y0231188D01*
X0021353Y0231112D01*
X0021272Y0231039D01*
X0021189Y0230969D01*
X0021103Y0230902D01*
X0021015Y0230838D01*
X0020924Y0230778D01*
X0020831Y0230720D01*
X0020737Y0230666D01*
X0020640Y0230616D01*
X0020542Y0230569D01*
X0020442Y0230526D01*
X0020340Y0230486D01*
X0020237Y0230450D01*
X0020133Y0230418D01*
X0020028Y0230390D01*
X0019922Y0230365D01*
X0019815Y0230345D01*
X0019707Y0230328D01*
X0019599Y0230315D01*
X0019491Y0230306D01*
X0019382Y0230301D01*
X0019273Y0230300D01*
X0019164Y0230303D01*
X0019055Y0230310D01*
X0018947Y0230321D01*
X0018839Y0230336D01*
X0018731Y0230354D01*
X0018625Y0230377D01*
X0018519Y0230403D01*
X0018414Y0230434D01*
X0018311Y0230468D01*
X0018209Y0230505D01*
X0018108Y0230547D01*
X0018009Y0230592D01*
X0017911Y0230641D01*
X0017816Y0230693D01*
X0017722Y0230749D01*
X0017630Y0230807D01*
X0017541Y0230870D01*
X0017454Y0230935D01*
X0017369Y0231004D01*
X0017287Y0231075D01*
X0017208Y0231150D01*
X0017131Y0231227D01*
X0017057Y0231307D01*
X0016986Y0231390D01*
X0016919Y0231476D01*
X0016854Y0231563D01*
X0016792Y0231653D01*
X0016734Y0231745D01*
X0016680Y0231839D01*
X0016628Y0231936D01*
X0016580Y0232034D01*
X0016536Y0232133D01*
X0016496Y0232234D01*
X0016459Y0232337D01*
X0016426Y0232441D01*
X0016396Y0232545D01*
X0016371Y0232651D01*
X0016349Y0232758D01*
X0016332Y0232866D01*
X0016318Y0232974D01*
X0016308Y0233082D01*
X0016302Y0233191D01*
X0016300Y0233300D01*
X0017300Y0018300D02*
X0017302Y0018409D01*
X0017308Y0018518D01*
X0017318Y0018626D01*
X0017332Y0018734D01*
X0017349Y0018842D01*
X0017371Y0018949D01*
X0017396Y0019055D01*
X0017426Y0019159D01*
X0017459Y0019263D01*
X0017496Y0019366D01*
X0017536Y0019467D01*
X0017580Y0019566D01*
X0017628Y0019664D01*
X0017680Y0019761D01*
X0017734Y0019855D01*
X0017792Y0019947D01*
X0017854Y0020037D01*
X0017919Y0020124D01*
X0017986Y0020210D01*
X0018057Y0020293D01*
X0018131Y0020373D01*
X0018208Y0020450D01*
X0018287Y0020525D01*
X0018369Y0020596D01*
X0018454Y0020665D01*
X0018541Y0020730D01*
X0018630Y0020793D01*
X0018722Y0020851D01*
X0018816Y0020907D01*
X0018911Y0020959D01*
X0019009Y0021008D01*
X0019108Y0021053D01*
X0019209Y0021095D01*
X0019311Y0021132D01*
X0019414Y0021166D01*
X0019519Y0021197D01*
X0019625Y0021223D01*
X0019731Y0021246D01*
X0019839Y0021264D01*
X0019947Y0021279D01*
X0020055Y0021290D01*
X0020164Y0021297D01*
X0020273Y0021300D01*
X0020382Y0021299D01*
X0020491Y0021294D01*
X0020599Y0021285D01*
X0020707Y0021272D01*
X0020815Y0021255D01*
X0020922Y0021235D01*
X0021028Y0021210D01*
X0021133Y0021182D01*
X0021237Y0021150D01*
X0021340Y0021114D01*
X0021442Y0021074D01*
X0021542Y0021031D01*
X0021640Y0020984D01*
X0021737Y0020934D01*
X0021831Y0020880D01*
X0021924Y0020822D01*
X0022015Y0020762D01*
X0022103Y0020698D01*
X0022189Y0020631D01*
X0022272Y0020561D01*
X0022353Y0020488D01*
X0022431Y0020412D01*
X0022506Y0020333D01*
X0022579Y0020251D01*
X0022648Y0020167D01*
X0022714Y0020081D01*
X0022777Y0019992D01*
X0022837Y0019901D01*
X0022894Y0019808D01*
X0022947Y0019713D01*
X0022996Y0019616D01*
X0023042Y0019517D01*
X0023084Y0019417D01*
X0023123Y0019315D01*
X0023158Y0019211D01*
X0023189Y0019107D01*
X0023217Y0019002D01*
X0023240Y0018895D01*
X0023260Y0018788D01*
X0023276Y0018680D01*
X0023288Y0018572D01*
X0023296Y0018463D01*
X0023300Y0018354D01*
X0023300Y0018246D01*
X0023296Y0018137D01*
X0023288Y0018028D01*
X0023276Y0017920D01*
X0023260Y0017812D01*
X0023240Y0017705D01*
X0023217Y0017598D01*
X0023189Y0017493D01*
X0023158Y0017389D01*
X0023123Y0017285D01*
X0023084Y0017183D01*
X0023042Y0017083D01*
X0022996Y0016984D01*
X0022947Y0016887D01*
X0022894Y0016792D01*
X0022837Y0016699D01*
X0022777Y0016608D01*
X0022714Y0016519D01*
X0022648Y0016433D01*
X0022579Y0016349D01*
X0022506Y0016267D01*
X0022431Y0016188D01*
X0022353Y0016112D01*
X0022272Y0016039D01*
X0022189Y0015969D01*
X0022103Y0015902D01*
X0022015Y0015838D01*
X0021924Y0015778D01*
X0021831Y0015720D01*
X0021737Y0015666D01*
X0021640Y0015616D01*
X0021542Y0015569D01*
X0021442Y0015526D01*
X0021340Y0015486D01*
X0021237Y0015450D01*
X0021133Y0015418D01*
X0021028Y0015390D01*
X0020922Y0015365D01*
X0020815Y0015345D01*
X0020707Y0015328D01*
X0020599Y0015315D01*
X0020491Y0015306D01*
X0020382Y0015301D01*
X0020273Y0015300D01*
X0020164Y0015303D01*
X0020055Y0015310D01*
X0019947Y0015321D01*
X0019839Y0015336D01*
X0019731Y0015354D01*
X0019625Y0015377D01*
X0019519Y0015403D01*
X0019414Y0015434D01*
X0019311Y0015468D01*
X0019209Y0015505D01*
X0019108Y0015547D01*
X0019009Y0015592D01*
X0018911Y0015641D01*
X0018816Y0015693D01*
X0018722Y0015749D01*
X0018630Y0015807D01*
X0018541Y0015870D01*
X0018454Y0015935D01*
X0018369Y0016004D01*
X0018287Y0016075D01*
X0018208Y0016150D01*
X0018131Y0016227D01*
X0018057Y0016307D01*
X0017986Y0016390D01*
X0017919Y0016476D01*
X0017854Y0016563D01*
X0017792Y0016653D01*
X0017734Y0016745D01*
X0017680Y0016839D01*
X0017628Y0016936D01*
X0017580Y0017034D01*
X0017536Y0017133D01*
X0017496Y0017234D01*
X0017459Y0017337D01*
X0017426Y0017441D01*
X0017396Y0017545D01*
X0017371Y0017651D01*
X0017349Y0017758D01*
X0017332Y0017866D01*
X0017318Y0017974D01*
X0017308Y0018082D01*
X0017302Y0018191D01*
X0017300Y0018300D01*
X0395300Y0018800D02*
X0395302Y0018909D01*
X0395308Y0019018D01*
X0395318Y0019126D01*
X0395332Y0019234D01*
X0395349Y0019342D01*
X0395371Y0019449D01*
X0395396Y0019555D01*
X0395426Y0019659D01*
X0395459Y0019763D01*
X0395496Y0019866D01*
X0395536Y0019967D01*
X0395580Y0020066D01*
X0395628Y0020164D01*
X0395680Y0020261D01*
X0395734Y0020355D01*
X0395792Y0020447D01*
X0395854Y0020537D01*
X0395919Y0020624D01*
X0395986Y0020710D01*
X0396057Y0020793D01*
X0396131Y0020873D01*
X0396208Y0020950D01*
X0396287Y0021025D01*
X0396369Y0021096D01*
X0396454Y0021165D01*
X0396541Y0021230D01*
X0396630Y0021293D01*
X0396722Y0021351D01*
X0396816Y0021407D01*
X0396911Y0021459D01*
X0397009Y0021508D01*
X0397108Y0021553D01*
X0397209Y0021595D01*
X0397311Y0021632D01*
X0397414Y0021666D01*
X0397519Y0021697D01*
X0397625Y0021723D01*
X0397731Y0021746D01*
X0397839Y0021764D01*
X0397947Y0021779D01*
X0398055Y0021790D01*
X0398164Y0021797D01*
X0398273Y0021800D01*
X0398382Y0021799D01*
X0398491Y0021794D01*
X0398599Y0021785D01*
X0398707Y0021772D01*
X0398815Y0021755D01*
X0398922Y0021735D01*
X0399028Y0021710D01*
X0399133Y0021682D01*
X0399237Y0021650D01*
X0399340Y0021614D01*
X0399442Y0021574D01*
X0399542Y0021531D01*
X0399640Y0021484D01*
X0399737Y0021434D01*
X0399831Y0021380D01*
X0399924Y0021322D01*
X0400015Y0021262D01*
X0400103Y0021198D01*
X0400189Y0021131D01*
X0400272Y0021061D01*
X0400353Y0020988D01*
X0400431Y0020912D01*
X0400506Y0020833D01*
X0400579Y0020751D01*
X0400648Y0020667D01*
X0400714Y0020581D01*
X0400777Y0020492D01*
X0400837Y0020401D01*
X0400894Y0020308D01*
X0400947Y0020213D01*
X0400996Y0020116D01*
X0401042Y0020017D01*
X0401084Y0019917D01*
X0401123Y0019815D01*
X0401158Y0019711D01*
X0401189Y0019607D01*
X0401217Y0019502D01*
X0401240Y0019395D01*
X0401260Y0019288D01*
X0401276Y0019180D01*
X0401288Y0019072D01*
X0401296Y0018963D01*
X0401300Y0018854D01*
X0401300Y0018746D01*
X0401296Y0018637D01*
X0401288Y0018528D01*
X0401276Y0018420D01*
X0401260Y0018312D01*
X0401240Y0018205D01*
X0401217Y0018098D01*
X0401189Y0017993D01*
X0401158Y0017889D01*
X0401123Y0017785D01*
X0401084Y0017683D01*
X0401042Y0017583D01*
X0400996Y0017484D01*
X0400947Y0017387D01*
X0400894Y0017292D01*
X0400837Y0017199D01*
X0400777Y0017108D01*
X0400714Y0017019D01*
X0400648Y0016933D01*
X0400579Y0016849D01*
X0400506Y0016767D01*
X0400431Y0016688D01*
X0400353Y0016612D01*
X0400272Y0016539D01*
X0400189Y0016469D01*
X0400103Y0016402D01*
X0400015Y0016338D01*
X0399924Y0016278D01*
X0399831Y0016220D01*
X0399737Y0016166D01*
X0399640Y0016116D01*
X0399542Y0016069D01*
X0399442Y0016026D01*
X0399340Y0015986D01*
X0399237Y0015950D01*
X0399133Y0015918D01*
X0399028Y0015890D01*
X0398922Y0015865D01*
X0398815Y0015845D01*
X0398707Y0015828D01*
X0398599Y0015815D01*
X0398491Y0015806D01*
X0398382Y0015801D01*
X0398273Y0015800D01*
X0398164Y0015803D01*
X0398055Y0015810D01*
X0397947Y0015821D01*
X0397839Y0015836D01*
X0397731Y0015854D01*
X0397625Y0015877D01*
X0397519Y0015903D01*
X0397414Y0015934D01*
X0397311Y0015968D01*
X0397209Y0016005D01*
X0397108Y0016047D01*
X0397009Y0016092D01*
X0396911Y0016141D01*
X0396816Y0016193D01*
X0396722Y0016249D01*
X0396630Y0016307D01*
X0396541Y0016370D01*
X0396454Y0016435D01*
X0396369Y0016504D01*
X0396287Y0016575D01*
X0396208Y0016650D01*
X0396131Y0016727D01*
X0396057Y0016807D01*
X0395986Y0016890D01*
X0395919Y0016976D01*
X0395854Y0017063D01*
X0395792Y0017153D01*
X0395734Y0017245D01*
X0395680Y0017339D01*
X0395628Y0017436D01*
X0395580Y0017534D01*
X0395536Y0017633D01*
X0395496Y0017734D01*
X0395459Y0017837D01*
X0395426Y0017941D01*
X0395396Y0018045D01*
X0395371Y0018151D01*
X0395349Y0018258D01*
X0395332Y0018366D01*
X0395318Y0018474D01*
X0395308Y0018582D01*
X0395302Y0018691D01*
X0395300Y0018800D01*
D25*
X0020300Y0018300D03*
X0019300Y0233300D03*
X0398300Y0018800D03*
M02*
